<svg width="430" height="237" viewBox="0 0 430 237" fill="none" xmlns="http://www.w3.org/2000/svg">
<g clip-path="url(#clip0_638_1304)">
<path d="M174.268 76.3922C174.066 76.3922 173.901 76.2305 173.897 76.0285C173.894 75.8228 174.055 75.6538 174.261 75.6501C175.077 75.6318 175.897 75.584 176.705 75.5105C176.911 75.4922 177.091 75.6428 177.109 75.8448C177.128 76.0505 176.977 76.2305 176.775 76.2489C175.948 76.326 175.11 76.3738 174.276 76.3922H174.268ZM170.31 76.2599C170.31 76.2599 170.288 76.2599 170.277 76.2599C169.45 76.1865 168.612 76.0799 167.797 75.9477C167.594 75.9146 167.455 75.7236 167.488 75.5215C167.521 75.3195 167.712 75.1799 167.914 75.213C168.715 75.3415 169.531 75.4444 170.343 75.5179C170.549 75.5362 170.7 75.7162 170.682 75.922C170.663 76.1167 170.501 76.2599 170.31 76.2599ZM180.656 75.6575C180.483 75.6575 180.329 75.5362 180.292 75.3636C180.252 75.1615 180.38 74.9668 180.579 74.9228C181.372 74.7575 182.174 74.5591 182.956 74.335C183.155 74.2799 183.361 74.3938 183.416 74.5885C183.471 74.7868 183.357 74.9926 183.162 75.0477C182.365 75.2754 181.545 75.4775 180.733 75.6464C180.707 75.6501 180.682 75.6538 180.656 75.6538V75.6575ZM163.989 75.0954C163.956 75.0954 163.923 75.0917 163.89 75.0807C163.092 74.8566 162.288 74.5995 161.508 74.3166C161.317 74.2468 161.214 74.0338 161.284 73.8427C161.354 73.648 161.567 73.5489 161.758 73.6187C162.523 73.8942 163.309 74.1476 164.092 74.3681C164.29 74.4232 164.404 74.6289 164.349 74.8273C164.301 74.9926 164.154 75.0991 163.993 75.0991L163.989 75.0954ZM186.797 73.7619C186.65 73.7619 186.514 73.6774 186.455 73.5342C186.378 73.3431 186.466 73.1264 186.657 73.0493C187.407 72.737 188.157 72.3954 188.884 72.0317C189.068 71.9399 189.292 72.0133 189.384 72.197C189.476 72.3807 189.403 72.6048 189.219 72.6966C188.476 73.0676 187.712 73.4166 186.944 73.7362C186.896 73.7546 186.848 73.7656 186.801 73.7656L186.797 73.7619ZM157.988 72.7848C157.933 72.7848 157.877 72.7737 157.822 72.7444C157.076 72.3733 156.338 71.9729 155.621 71.5505C155.444 71.4476 155.386 71.2198 155.489 71.0435C155.591 70.8672 155.819 70.8084 155.996 70.9113C156.698 71.3227 157.422 71.7158 158.149 72.0795C158.333 72.1713 158.407 72.3917 158.318 72.5754C158.252 72.7076 158.124 72.7811 157.984 72.7811L157.988 72.7848ZM192.482 70.7643C192.361 70.7643 192.243 70.7055 192.17 70.5953C192.06 70.4227 192.107 70.1949 192.277 70.0811C192.956 69.6366 193.633 69.1627 194.279 68.6704C194.441 68.5455 194.676 68.5786 194.801 68.7402C194.926 68.9018 194.893 69.137 194.732 69.2619C194.07 69.7651 193.383 70.2464 192.688 70.7019C192.626 70.7423 192.556 70.7607 192.486 70.7607L192.482 70.7643ZM152.515 69.4051C152.438 69.4051 152.357 69.3794 152.291 69.3316C151.626 68.832 150.972 68.3031 150.347 67.7557C150.193 67.6198 150.178 67.3884 150.31 67.2304C150.446 67.0761 150.681 67.0614 150.836 67.1937C151.45 67.7263 152.089 68.248 152.74 68.7365C152.905 68.8614 152.934 69.0929 152.813 69.2545C152.74 69.35 152.629 69.4014 152.515 69.4014V69.4051ZM197.517 66.7749C197.418 66.7749 197.322 66.7381 197.249 66.661C197.106 66.5141 197.113 66.2789 197.26 66.1357C197.848 65.5736 198.425 64.9859 198.973 64.3834C199.112 64.2328 199.344 64.2218 199.498 64.3577C199.649 64.4973 199.66 64.7287 199.524 64.883C198.965 65.4965 198.377 66.0989 197.775 66.672C197.701 66.7418 197.609 66.7749 197.517 66.7749ZM147.756 65.0814C147.657 65.0814 147.554 65.041 147.48 64.9602C146.918 64.3467 146.374 63.7075 145.856 63.0573C145.727 62.8956 145.757 62.6642 145.915 62.5356C146.077 62.407 146.308 62.4364 146.437 62.5944C146.94 63.2299 147.477 63.8581 148.024 64.4569C148.164 64.6075 148.153 64.8426 148.002 64.9822C147.932 65.0483 147.841 65.0814 147.752 65.0814H147.756ZM201.744 61.9295C201.67 61.9295 201.593 61.9074 201.527 61.8597C201.361 61.7385 201.325 61.507 201.442 61.3417C201.92 60.6805 202.376 59.9972 202.806 59.3066C202.912 59.1339 203.144 59.0788 203.317 59.1854C203.489 59.2919 203.544 59.5233 203.438 59.696C203.001 60.4013 202.534 61.1029 202.045 61.7752C201.972 61.8744 201.858 61.9295 201.744 61.9295ZM143.871 59.9641C143.747 59.9641 143.625 59.9017 143.555 59.7878C143.114 59.0825 142.695 58.3551 142.31 57.6204C142.214 57.4404 142.284 57.2163 142.464 57.1172C142.644 57.0217 142.868 57.0915 142.967 57.2715C143.346 57.9878 143.758 58.7041 144.188 59.3911C144.298 59.5637 144.243 59.7952 144.07 59.9017C144.007 59.9384 143.941 59.9568 143.875 59.9568L143.871 59.9641ZM205.011 56.3898C204.959 56.3898 204.904 56.3788 204.853 56.3531C204.665 56.2649 204.588 56.0445 204.676 55.8608C205.022 55.1224 205.349 54.3657 205.639 53.6089C205.713 53.4179 205.93 53.3224 206.121 53.3959C206.312 53.4694 206.407 53.6861 206.334 53.8771C206.036 54.6522 205.702 55.4273 205.349 56.1804C205.286 56.3163 205.151 56.3935 205.015 56.3935L205.011 56.3898ZM140.99 54.2187C140.843 54.2187 140.7 54.1306 140.645 53.9836C140.343 53.2085 140.064 52.415 139.818 51.6216C139.755 51.4269 139.866 51.2175 140.064 51.1587C140.259 51.0999 140.468 51.2065 140.527 51.4048C140.766 52.1799 141.038 52.9587 141.336 53.7155C141.409 53.9065 141.317 54.1232 141.126 54.1967C141.082 54.2151 141.034 54.2224 140.99 54.2224V54.2187ZM207.201 50.3432C207.172 50.3432 207.139 50.3395 207.109 50.3322C206.911 50.2807 206.793 50.0787 206.845 49.8803C207.051 49.0942 207.227 48.2897 207.374 47.4888C207.411 47.2868 207.605 47.1546 207.808 47.1913C208.01 47.228 208.142 47.4227 208.105 47.6248C207.955 48.444 207.771 49.2632 207.565 50.0677C207.521 50.233 207.37 50.3469 207.205 50.3469L207.201 50.3432ZM139.219 48.0435C139.042 48.0435 138.888 47.9186 138.855 47.7423C138.701 46.9268 138.576 46.0966 138.48 45.27C138.458 45.068 138.601 44.8806 138.807 44.8586C139.009 44.8366 139.197 44.9798 139.219 45.1855C139.311 45.9937 139.436 46.8092 139.586 47.6064C139.623 47.8084 139.491 48.0031 139.289 48.0399C139.267 48.0435 139.241 48.0472 139.219 48.0472V48.0435ZM208.23 44.0027C208.23 44.0027 208.212 44.0027 208.205 44.0027C207.999 43.988 207.844 43.8116 207.859 43.6059C207.914 42.8088 207.944 42.0006 207.944 41.1961V41.1557C207.944 40.95 208.109 40.7847 208.315 40.7847C208.521 40.7847 208.686 40.95 208.686 41.1557V41.1961C208.686 42.0153 208.657 42.8418 208.601 43.6574C208.587 43.8521 208.425 44.0027 208.23 44.0027ZM138.62 41.6443C138.414 41.6443 138.249 41.4789 138.249 41.2732V41.1961C138.249 40.3622 138.278 39.521 138.337 38.6944C138.351 38.4887 138.528 38.3381 138.734 38.3491C138.939 38.3638 139.094 38.5401 139.079 38.7458C139.024 39.554 138.995 40.3769 138.995 41.1924V41.2696C138.995 41.4753 138.829 41.6406 138.623 41.6406L138.62 41.6443ZM208.087 37.5777C207.9 37.5777 207.741 37.4381 207.719 37.247C207.628 36.4389 207.506 35.6233 207.356 34.8262C207.319 34.6241 207.451 34.4294 207.653 34.3927C207.855 34.356 208.05 34.4882 208.087 34.6903C208.238 35.5058 208.363 36.336 208.458 37.1626C208.48 37.3646 208.333 37.5519 208.131 37.574C208.116 37.574 208.102 37.574 208.087 37.574V37.5777ZM139.208 35.1678C139.186 35.1678 139.164 35.1678 139.138 35.1605C138.936 35.1237 138.803 34.929 138.84 34.727C138.991 33.9115 139.175 33.0886 139.384 32.2841C139.436 32.0857 139.638 31.9682 139.836 32.0196C140.035 32.071 140.152 32.2731 140.101 32.4715C139.895 33.2576 139.715 34.0621 139.568 34.8592C139.535 35.0393 139.38 35.1642 139.204 35.1642L139.208 35.1678ZM206.771 31.2886C206.613 31.2886 206.466 31.1857 206.415 31.0278C206.176 30.249 205.904 29.4739 205.61 28.7171C205.536 28.5261 205.632 28.3093 205.823 28.2359C206.014 28.1624 206.231 28.2579 206.304 28.4489C206.606 29.2241 206.881 30.0175 207.128 30.811C207.187 31.0057 207.08 31.2151 206.881 31.2739C206.845 31.2849 206.808 31.2923 206.771 31.2923V31.2886ZM140.961 28.9853C140.917 28.9853 140.873 28.9779 140.828 28.9596C140.637 28.8861 140.542 28.6694 140.615 28.4783C140.917 27.7032 141.247 26.9281 141.604 26.1787C141.692 25.995 141.913 25.9142 142.1 26.0024C142.284 26.0905 142.365 26.3109 142.276 26.4983C141.927 27.233 141.604 27.9934 141.31 28.7502C141.255 28.8971 141.111 28.9889 140.964 28.9889L140.961 28.9853ZM204.316 25.3485C204.184 25.3485 204.055 25.275 203.989 25.1501C203.611 24.4338 203.199 23.7174 202.773 23.0268C202.666 22.8542 202.718 22.6227 202.89 22.5162C203.063 22.4097 203.295 22.4611 203.401 22.6337C203.838 23.3391 204.257 24.0701 204.643 24.8011C204.739 24.9811 204.669 25.2052 204.489 25.3007C204.434 25.3301 204.375 25.3448 204.316 25.3448V25.3485ZM143.831 23.2289C143.765 23.2289 143.695 23.2105 143.636 23.1738C143.464 23.0672 143.408 22.8358 143.515 22.6631C143.952 21.9578 144.423 21.2598 144.908 20.5839C145.029 20.4186 145.261 20.3819 145.426 20.4994C145.591 20.6206 145.628 20.8521 145.511 21.0174C145.033 21.6786 144.573 22.3619 144.147 23.0525C144.077 23.1664 143.956 23.2289 143.831 23.2289ZM200.807 19.9668C200.696 19.9668 200.59 19.919 200.516 19.8272C200.013 19.1916 199.476 18.5635 198.929 17.961C198.789 17.8104 198.8 17.5753 198.951 17.4357C199.101 17.2961 199.336 17.3071 199.476 17.4577C200.038 18.0712 200.582 18.7104 201.097 19.3643C201.225 19.5259 201.196 19.7574 201.034 19.8859C200.965 19.941 200.884 19.9668 200.803 19.9668H200.807ZM147.712 18.1043C147.624 18.1043 147.532 18.0712 147.462 18.0088C147.311 17.8692 147.3 17.6341 147.436 17.4835C147.995 16.87 148.587 16.2675 149.186 15.6944C149.333 15.5549 149.568 15.5585 149.711 15.7055C149.851 15.8524 149.847 16.0875 149.697 16.2308C149.109 16.7928 148.532 17.3806 147.984 17.9794C147.91 18.0602 147.811 18.1006 147.708 18.1006L147.712 18.1043ZM196.371 15.3124C196.282 15.3124 196.198 15.283 196.128 15.2206C195.514 14.6842 194.875 14.1663 194.224 13.6777C194.059 13.5528 194.03 13.3213 194.151 13.156C194.276 12.9907 194.507 12.9613 194.673 13.0826C195.334 13.5822 195.988 14.1148 196.617 14.6585C196.771 14.7944 196.786 15.0295 196.654 15.1838C196.58 15.2683 196.477 15.3124 196.374 15.3124H196.371ZM152.46 13.7695C152.346 13.7695 152.236 13.7181 152.163 13.6226C152.038 13.4609 152.071 13.2258 152.236 13.1009C152.898 12.6013 153.589 12.1164 154.283 11.6646C154.456 11.5544 154.684 11.6021 154.798 11.7748C154.908 11.9474 154.86 12.1752 154.687 12.2891C154.007 12.7336 153.331 13.2038 152.684 13.696C152.618 13.7475 152.537 13.7695 152.46 13.7695ZM191.159 11.5507C191.097 11.5507 191.031 11.5323 190.972 11.4993C190.27 11.0842 189.546 10.6911 188.818 10.3311C188.634 10.2393 188.561 10.0152 188.653 9.83516C188.745 9.65149 188.969 9.57802 189.149 9.66986C189.891 10.0409 190.634 10.4413 191.35 10.8638C191.527 10.9666 191.586 11.1944 191.483 11.3707C191.413 11.4883 191.288 11.5544 191.163 11.5544L191.159 11.5507ZM157.921 10.3825C157.785 10.3825 157.653 10.3091 157.591 10.1768C157.499 9.99313 157.572 9.76904 157.756 9.6772C158.498 9.30618 159.263 8.95719 160.031 8.64127C160.222 8.56412 160.439 8.65229 160.516 8.84331C160.593 9.03434 160.505 9.25107 160.314 9.32822C159.564 9.63679 158.815 9.97843 158.087 10.3421C158.035 10.3678 157.977 10.3825 157.921 10.3825ZM185.342 8.80658C185.301 8.80658 185.257 8.79923 185.217 8.78454C184.452 8.50902 183.669 8.25555 182.887 8.03514C182.688 7.98003 182.574 7.77431 182.629 7.57594C182.684 7.37757 182.89 7.26369 183.089 7.3188C183.886 7.54656 184.687 7.8037 185.47 8.08656C185.661 8.15636 185.764 8.36943 185.694 8.56045C185.639 8.71106 185.496 8.80658 185.345 8.80658H185.342ZM163.912 8.06085C163.75 8.06085 163.603 7.95432 163.555 7.79268C163.5 7.59431 163.614 7.38859 163.813 7.33349C164.61 7.10573 165.43 6.90369 166.242 6.73471C166.44 6.6943 166.639 6.82287 166.683 7.02124C166.723 7.22329 166.595 7.41798 166.396 7.46206C165.599 7.62737 164.801 7.82574 164.019 8.04616C163.985 8.05718 163.949 8.06085 163.916 8.06085H163.912ZM179.12 7.19022C179.101 7.19022 179.079 7.19022 179.061 7.18655C178.26 7.0543 177.444 6.95144 176.632 6.87797C176.426 6.85961 176.275 6.6796 176.297 6.47389C176.315 6.26817 176.496 6.11755 176.701 6.13959C177.528 6.21306 178.366 6.3196 179.182 6.45552C179.384 6.48858 179.52 6.6796 179.487 6.88165C179.458 7.06532 179.3 7.1939 179.12 7.1939V7.19022ZM170.233 6.88165C170.042 6.88165 169.88 6.73838 169.866 6.54368C169.847 6.33796 169.998 6.15796 170.2 6.13959C171.027 6.06245 171.865 6.01469 172.699 6C172.905 6 173.074 6.15796 173.078 6.36368C173.081 6.5694 172.92 6.73838 172.714 6.74205C171.898 6.76042 171.075 6.8045 170.27 6.88165C170.259 6.88165 170.248 6.88165 170.237 6.88165H170.233Z" fill="#3B140D"/>
<path d="M288.635 179.001C288.433 179.001 288.267 178.84 288.263 178.638C288.26 178.432 288.421 178.263 288.627 178.259C289.443 178.241 290.263 178.193 291.071 178.12C291.273 178.101 291.457 178.252 291.476 178.454C291.494 178.66 291.343 178.84 291.141 178.858C290.314 178.935 289.476 178.983 288.642 179.001H288.635ZM284.677 178.869C284.677 178.869 284.654 178.869 284.643 178.869C283.817 178.796 282.979 178.689 282.163 178.557C281.961 178.524 281.821 178.333 281.854 178.131C281.887 177.929 282.078 177.793 282.28 177.822C283.082 177.951 283.897 178.053 284.71 178.127C284.915 178.145 285.066 178.325 285.048 178.531C285.029 178.722 284.868 178.869 284.677 178.869ZM295.018 178.27C294.846 178.27 294.691 178.149 294.655 177.976C294.614 177.774 294.743 177.58 294.941 177.535C295.739 177.37 296.536 177.172 297.319 176.948C297.517 176.893 297.723 177.007 297.778 177.201C297.833 177.4 297.72 177.605 297.525 177.66C296.727 177.888 295.908 178.09 295.096 178.259C295.07 178.263 295.044 178.267 295.018 178.267V178.27ZM278.352 177.708C278.319 177.708 278.286 177.704 278.252 177.693C277.455 177.469 276.65 177.212 275.871 176.929C275.68 176.86 275.577 176.646 275.647 176.455C275.717 176.264 275.93 176.162 276.121 176.231C276.885 176.507 277.672 176.76 278.455 176.981C278.653 177.036 278.767 177.242 278.712 177.44C278.664 177.605 278.517 177.712 278.355 177.712L278.352 177.708ZM301.163 176.371C301.016 176.371 300.88 176.286 300.821 176.143C300.744 175.952 300.832 175.735 301.023 175.658C301.773 175.346 302.523 175.004 303.251 174.641C303.434 174.549 303.659 174.622 303.75 174.806C303.842 174.99 303.769 175.214 303.585 175.306C302.843 175.677 302.078 176.026 301.31 176.345C301.262 176.364 301.215 176.375 301.167 176.375L301.163 176.371ZM272.354 175.394C272.299 175.394 272.244 175.383 272.188 175.353C271.446 174.982 270.704 174.582 269.987 174.16C269.811 174.057 269.752 173.829 269.855 173.653C269.958 173.476 270.186 173.417 270.362 173.52C271.064 173.932 271.788 174.325 272.516 174.689C272.699 174.78 272.773 175.001 272.685 175.184C272.618 175.317 272.49 175.39 272.35 175.39L272.354 175.394ZM306.845 173.373C306.724 173.373 306.606 173.315 306.533 173.204C306.422 173.032 306.47 172.804 306.639 172.69C307.319 172.246 307.992 171.772 308.642 171.279C308.804 171.155 309.039 171.188 309.164 171.349C309.289 171.511 309.256 171.746 309.094 171.871C308.433 172.374 307.745 172.855 307.047 173.311C306.985 173.351 306.915 173.37 306.845 173.37V173.373ZM266.882 172.014C266.804 172.014 266.724 171.988 266.657 171.941C265.992 171.441 265.338 170.912 264.713 170.365C264.559 170.229 264.544 169.997 264.677 169.839C264.812 169.685 265.048 169.67 265.202 169.803C265.816 170.335 266.455 170.857 267.106 171.346C267.271 171.47 267.301 171.702 267.179 171.864C267.106 171.959 266.996 172.011 266.882 172.011V172.014ZM311.884 169.384C311.784 169.384 311.689 169.347 311.615 169.27C311.472 169.123 311.479 168.888 311.626 168.745C312.214 168.183 312.791 167.595 313.339 166.992C313.478 166.842 313.714 166.831 313.864 166.967C314.015 167.106 314.026 167.338 313.89 167.492C313.331 168.106 312.743 168.708 312.141 169.281C312.067 169.351 311.975 169.384 311.884 169.384ZM262.122 167.694C262.023 167.694 261.92 167.654 261.847 167.573C261.284 166.959 260.74 166.32 260.222 165.67C260.094 165.508 260.123 165.277 260.281 165.148C260.443 165.02 260.674 165.049 260.803 165.207C261.306 165.843 261.843 166.471 262.391 167.07C262.53 167.22 262.519 167.455 262.369 167.595C262.299 167.661 262.207 167.694 262.119 167.694H262.122ZM316.11 164.539C316.036 164.539 315.959 164.517 315.893 164.469C315.728 164.348 315.691 164.116 315.809 163.951C316.286 163.29 316.742 162.606 317.172 161.916C317.279 161.743 317.51 161.688 317.683 161.794C317.856 161.901 317.911 162.132 317.804 162.305C317.367 163.01 316.9 163.712 316.411 164.384C316.338 164.483 316.224 164.539 316.11 164.539ZM258.234 162.573C258.109 162.573 257.988 162.511 257.918 162.397C257.477 161.692 257.058 160.964 256.672 160.229C256.577 160.049 256.646 159.825 256.826 159.726C257.007 159.631 257.231 159.701 257.33 159.881C257.708 160.597 258.12 161.313 258.55 162C258.66 162.173 258.605 162.404 258.432 162.511C258.37 162.547 258.304 162.566 258.238 162.566L258.234 162.573ZM319.377 159.003C319.326 159.003 319.27 158.992 319.219 158.966C319.035 158.878 318.954 158.657 319.043 158.474C319.388 157.735 319.715 156.978 320.006 156.222C320.079 156.031 320.296 155.935 320.487 156.009C320.678 156.082 320.774 156.299 320.7 156.49C320.402 157.265 320.068 158.04 319.715 158.793C319.653 158.929 319.517 159.006 319.381 159.006L319.377 159.003ZM255.356 156.831C255.209 156.831 255.066 156.743 255.011 156.596C254.71 155.821 254.43 155.028 254.184 154.234C254.122 154.04 254.232 153.83 254.43 153.771C254.625 153.709 254.835 153.819 254.893 154.018C255.132 154.793 255.404 155.571 255.702 156.328C255.775 156.519 255.683 156.736 255.492 156.809C255.448 156.828 255.404 156.835 255.356 156.835V156.831ZM321.564 152.956C321.534 152.956 321.501 152.952 321.472 152.945C321.273 152.893 321.156 152.691 321.207 152.493C321.413 151.707 321.59 150.902 321.737 150.102C321.773 149.9 321.968 149.767 322.17 149.804C322.372 149.841 322.505 150.035 322.468 150.238C322.317 151.057 322.133 151.876 321.928 152.68C321.884 152.846 321.733 152.96 321.567 152.96L321.564 152.956ZM253.585 150.653C253.409 150.653 253.254 150.528 253.221 150.351C253.067 149.536 252.942 148.706 252.846 147.879C252.824 147.677 252.968 147.49 253.173 147.468C253.375 147.446 253.563 147.589 253.585 147.795C253.677 148.603 253.802 149.418 253.952 150.215C253.989 150.417 253.857 150.612 253.655 150.649C253.633 150.653 253.607 150.656 253.585 150.656V150.653ZM322.596 146.612C322.596 146.612 322.578 146.612 322.571 146.612C322.365 146.597 322.211 146.421 322.225 146.215C322.28 145.418 322.31 144.61 322.31 143.805V143.765C322.31 143.559 322.475 143.394 322.681 143.394C322.887 143.394 323.052 143.559 323.052 143.765V143.801C323.052 144.624 323.023 145.451 322.968 146.266C322.953 146.461 322.791 146.612 322.596 146.612ZM252.986 144.257C252.78 144.257 252.615 144.092 252.615 143.886V143.809C252.615 142.975 252.644 142.134 252.703 141.307C252.718 141.101 252.894 140.947 253.1 140.962C253.306 140.977 253.46 141.153 253.445 141.359C253.39 142.167 253.361 142.99 253.361 143.805V143.882C253.361 144.088 253.195 144.253 252.99 144.253L252.986 144.257ZM322.453 140.187C322.266 140.187 322.108 140.047 322.086 139.856C321.994 139.048 321.872 138.232 321.722 137.435C321.685 137.233 321.817 137.038 322.019 137.002C322.222 136.965 322.416 137.097 322.453 137.299C322.604 138.115 322.729 138.945 322.824 139.772C322.846 139.974 322.699 140.161 322.497 140.183C322.483 140.183 322.468 140.183 322.453 140.183V140.187ZM253.57 137.781C253.548 137.781 253.526 137.781 253.5 137.773C253.298 137.736 253.166 137.542 253.203 137.34C253.353 136.524 253.537 135.701 253.747 134.897C253.798 134.698 254 134.581 254.199 134.632C254.397 134.684 254.515 134.886 254.463 135.084C254.258 135.87 254.077 136.675 253.93 137.472C253.897 137.652 253.743 137.777 253.567 137.777L253.57 137.781ZM321.137 133.898C320.979 133.898 320.832 133.795 320.781 133.637C320.542 132.858 320.27 132.083 319.976 131.326C319.903 131.135 319.998 130.918 320.189 130.845C320.38 130.771 320.597 130.867 320.671 131.058C320.972 131.833 321.248 132.627 321.494 133.42C321.553 133.615 321.446 133.824 321.248 133.883C321.211 133.894 321.174 133.901 321.137 133.901V133.898ZM255.327 131.594C255.283 131.594 255.239 131.587 255.195 131.569C255.004 131.495 254.908 131.278 254.982 131.087C255.283 130.312 255.614 129.537 255.97 128.788C256.058 128.604 256.279 128.523 256.466 128.611C256.65 128.7 256.731 128.92 256.643 129.107C256.294 129.842 255.97 130.602 255.676 131.359C255.617 131.506 255.478 131.598 255.331 131.598L255.327 131.594ZM318.679 127.961C318.547 127.961 318.418 127.888 318.352 127.763C317.973 127.047 317.562 126.33 317.135 125.64C317.029 125.467 317.08 125.235 317.253 125.129C317.426 125.022 317.657 125.074 317.764 125.246C318.201 125.952 318.62 126.683 319.006 127.414C319.101 127.594 319.032 127.822 318.852 127.917C318.796 127.947 318.738 127.961 318.679 127.961ZM258.197 125.842C258.131 125.842 258.061 125.823 258.002 125.786C257.83 125.68 257.775 125.449 257.881 125.276C258.319 124.571 258.789 123.873 259.274 123.197C259.395 123.031 259.627 122.995 259.792 123.112C259.958 123.233 259.994 123.465 259.877 123.63C259.399 124.291 258.94 124.975 258.513 125.665C258.443 125.779 258.322 125.842 258.197 125.842ZM315.173 122.576C315.062 122.576 314.956 122.528 314.882 122.436C314.379 121.801 313.846 121.173 313.295 120.57C313.155 120.419 313.166 120.184 313.317 120.045C313.467 119.905 313.703 119.916 313.842 120.067C314.405 120.68 314.949 121.319 315.463 121.973C315.592 122.135 315.562 122.366 315.401 122.495C315.331 122.55 315.25 122.576 315.169 122.576H315.173ZM262.078 120.713C261.99 120.713 261.898 120.68 261.828 120.618C261.678 120.478 261.667 120.243 261.803 120.093C262.361 119.479 262.953 118.877 263.552 118.304C263.699 118.164 263.934 118.168 264.077 118.318C264.217 118.465 264.213 118.7 264.063 118.844C263.475 119.406 262.898 119.993 262.35 120.592C262.277 120.673 262.177 120.713 262.075 120.713H262.078ZM310.737 117.925C310.649 117.925 310.564 117.896 310.494 117.833C309.881 117.297 309.241 116.779 308.591 116.29C308.425 116.166 308.396 115.934 308.517 115.769C308.642 115.603 308.874 115.574 309.039 115.695C309.7 116.195 310.355 116.728 310.983 117.271C311.137 117.407 311.152 117.642 311.02 117.797C310.946 117.881 310.843 117.925 310.741 117.925H310.737ZM266.826 116.382C266.713 116.382 266.602 116.331 266.529 116.235C266.404 116.07 266.437 115.839 266.602 115.714C267.264 115.214 267.955 114.729 268.649 114.277C268.822 114.167 269.05 114.215 269.164 114.388C269.274 114.56 269.226 114.788 269.054 114.902C268.374 115.346 267.697 115.817 267.051 116.309C266.984 116.36 266.904 116.382 266.826 116.382ZM305.522 114.16C305.459 114.16 305.393 114.141 305.334 114.108C304.632 113.693 303.908 113.3 303.181 112.94C302.997 112.848 302.924 112.624 303.015 112.444C303.107 112.261 303.331 112.187 303.512 112.279C304.254 112.65 304.996 113.05 305.713 113.473C305.889 113.576 305.948 113.803 305.845 113.98C305.775 114.097 305.65 114.163 305.526 114.163L305.522 114.16ZM272.288 112.995C272.152 112.995 272.019 112.922 271.957 112.79C271.865 112.606 271.939 112.382 272.122 112.29C272.865 111.919 273.629 111.57 274.397 111.254C274.588 111.177 274.805 111.265 274.882 111.456C274.96 111.647 274.871 111.864 274.68 111.941C273.93 112.25 273.181 112.591 272.453 112.955C272.402 112.981 272.343 112.995 272.288 112.995ZM299.704 111.419C299.664 111.419 299.62 111.412 299.579 111.397C298.815 111.122 298.032 110.868 297.249 110.648C297.051 110.593 296.937 110.387 296.992 110.189C297.047 109.99 297.253 109.876 297.451 109.932C298.249 110.159 299.054 110.416 299.833 110.699C300.024 110.769 300.127 110.982 300.057 111.173C300.002 111.324 299.858 111.419 299.708 111.419H299.704ZM278.278 110.67C278.116 110.67 277.966 110.563 277.922 110.402C277.867 110.203 277.98 109.998 278.179 109.943C278.976 109.715 279.796 109.513 280.608 109.344C280.81 109.303 281.005 109.432 281.049 109.63C281.09 109.832 280.961 110.027 280.763 110.071C279.965 110.236 279.168 110.435 278.385 110.655C278.352 110.666 278.315 110.67 278.282 110.67H278.278ZM293.482 109.803C293.464 109.803 293.442 109.803 293.423 109.799C292.622 109.667 291.806 109.564 290.994 109.491C290.788 109.472 290.638 109.292 290.66 109.087C290.678 108.881 290.854 108.73 291.064 108.752C291.891 108.829 292.729 108.932 293.545 109.068C293.747 109.101 293.883 109.292 293.85 109.494C293.82 109.678 293.662 109.807 293.482 109.807V109.803ZM284.599 109.494C284.408 109.494 284.247 109.351 284.228 109.156C284.21 108.951 284.36 108.771 284.563 108.752C285.386 108.675 286.227 108.627 287.062 108.613C287.264 108.609 287.437 108.771 287.44 108.976C287.444 109.182 287.282 109.351 287.076 109.355C286.261 109.373 285.437 109.417 284.632 109.494C284.621 109.494 284.61 109.494 284.599 109.494Z" fill="#3B140D"/>
<path d="M148.418 121.511C166.413 115.233 176.41 96.996 170.746 80.7773C165.083 64.5586 145.905 56.4999 127.911 62.7776C109.916 69.0553 99.9195 87.2922 105.583 103.511C111.246 119.73 130.424 127.788 148.418 121.511Z" fill="#FBFBFB"/>
<path d="M299.942 180.634C304.669 163.255 290.335 144.23 267.927 138.14C245.518 132.05 223.521 141.202 218.794 158.581C214.066 175.96 228.4 194.985 250.809 201.075C273.217 207.165 295.215 198.013 299.942 180.634Z" fill="#FBFBFB"/>
<path d="M323.229 122.036C312.839 168.892 259.565 196.935 204.236 184.677C148.91 172.418 160.197 107.834 122.872 77.6412C68.2596 33.4597 186.54 2.73795 241.869 15.0002C297.194 27.2588 333.622 75.1799 323.232 122.036H323.229Z" fill="#DCDCDC"/>
<path d="M312.615 96.6554C316.205 96.6554 319.116 99.5648 319.116 103.158C319.116 106.75 316.205 109.656 312.615 109.656C309.024 109.656 306.113 106.747 306.113 103.158C306.113 99.5685 309.024 96.6554 312.615 96.6554Z" fill="#FBFBFB"/>
<path d="M285.757 50.2293C291.802 50.2293 296.702 45.3314 296.702 39.2895C296.702 33.2476 291.802 28.3497 285.757 28.3497C279.713 28.3497 274.812 33.2476 274.812 39.2895C274.812 45.3314 279.713 50.2293 285.757 50.2293Z" fill="#FBFBFB"/>
<path d="M245.334 93.2389C236.194 89.5985 223.526 88.7866 223.254 88.7683C224.309 88.2246 225.261 87.6295 226.128 86.9829C226.128 86.9829 230.604 85.8441 237.238 84.7274C252.57 82.1449 279.428 79.702 289.112 91.8026C295.481 99.7558 293.375 112.147 286.595 123.288C280.432 133.409 270.413 142.501 259.377 146.299C256.521 110.593 230.935 96.1998 230.575 95.9978C235.268 94.9141 240.248 93.8304 245.334 93.2389Z" fill="#FBFBFB"/>
<path d="M213.563 200.565C208.01 200.242 208.3 195.833 210.869 194.415C213.886 192.748 221.24 190.477 225.198 187.505C225.198 187.505 216.209 189.691 215.062 185.746C213.916 181.793 220.597 182.656 238.51 173.851C255.54 165.483 259.373 146.303 259.373 146.303C270.41 142.501 280.428 133.409 286.591 123.292L287.249 123.7C294.978 151.872 282.596 173.689 268.988 188.115C256.507 201.34 242.993 208.353 242.993 208.353C240.843 209.488 236.345 211.233 233.497 211.787C233.456 211.795 233.42 211.798 233.383 211.806C227.958 212.827 225.606 211.288 225.169 209.48C219.737 210.189 217.87 208.051 218.061 206.046C212.343 206.171 211.781 202.479 213.556 200.565H213.563Z" fill="#FBFBFB"/>
<path d="M270.406 219.135V219.652C208.532 244.342 164.724 219.652 164.724 219.652C164.765 219.48 164.805 219.307 164.838 219.135C165.084 218.04 165.297 216.952 165.496 215.872C166.099 212.533 166.492 209.282 166.723 206.171C166.756 205.767 166.782 205.366 166.808 204.969C166.852 204.275 166.889 203.588 166.914 202.912C167.058 199.43 167.014 196.16 166.859 193.21C166.801 192.075 166.727 190.988 166.635 189.952C166.29 185.786 165.757 182.44 165.342 180.25C164.992 178.395 164.724 177.366 164.724 177.366C165 177.231 165.253 177.106 165.478 176.992C166.33 176.555 166.801 176.297 166.801 176.297C167.308 176.525 167.826 176.757 168.348 176.992C170.707 178.057 173.199 179.185 175.558 180.25C179.366 181.973 182.839 183.527 184.89 184.376C188.267 185.768 191.446 187.616 194.246 189.952C194.463 190.132 194.676 190.312 194.886 190.496C195.433 190.977 196.003 191.447 196.628 191.881C198.249 193.023 200.766 192.395 200.909 189.952C200.99 188.652 200.399 186.841 198.653 184.508C197.899 183.509 197.131 182.634 196.345 181.859C198.561 182.807 201.196 185.944 203.835 187.454C206.657 189.067 211.167 186.378 206.591 180.247C206.257 179.798 205.875 179.332 205.433 178.847C205.977 179.317 206.529 179.795 207.087 180.247C207.8 180.827 208.524 181.36 209.245 181.775C210.931 182.737 213.214 182.164 213.813 180.247C214.07 179.409 214.008 178.318 213.438 176.988C212.953 175.857 212.1 174.549 210.766 173.079C209.623 171.827 208.484 170.784 207.311 169.883C209.63 171.169 212.321 174.244 215.015 175.783C218.212 177.613 223.372 174.431 217.628 167.283C217.345 166.93 217.032 166.566 216.694 166.195C215.97 165.398 215.242 164.678 214.515 164.024C209.256 159.3 203.703 157.864 195.753 154.322C193.849 153.47 191.806 152.5 189.597 151.332C189.432 151.244 189.263 151.156 189.094 151.064C187.469 150.19 185.669 149.124 183.761 147.938C183.394 145.554 182.975 143.368 182.508 141.362C182.243 140.216 181.964 139.132 181.674 138.104C180.531 134.067 179.204 130.893 177.844 128.402C177.161 127.153 176.466 126.073 175.783 125.144C171.861 119.81 168.208 119.332 168.208 119.332C170.608 118.175 172.949 117.106 175.029 115.974C175.029 115.974 189.281 118.858 202.089 115.442C204.901 114.692 207.642 113.638 210.149 112.183C213.941 109.979 217.194 106.857 219.329 102.482C219.829 101.464 220.266 100.38 220.63 99.2232C220.744 98.8778 220.847 98.5215 220.946 98.1615C223.96 97.5664 227.194 96.7839 230.575 96.0015C230.671 96.0566 232.501 97.0852 235.206 99.2232C236.33 100.116 237.609 101.196 238.976 102.482C241.6 104.95 244.555 108.161 247.389 112.183C248.116 113.216 248.837 114.303 249.539 115.442C251.317 118.322 252.997 121.547 254.456 125.144C254.886 126.198 255.294 127.285 255.683 128.402C256.727 131.403 257.606 134.632 258.274 138.104C258.48 139.169 258.664 140.253 258.826 141.362C259.057 142.96 259.245 144.606 259.381 146.299C259.381 146.299 259.002 148.199 257.951 151.064C257.587 152.049 257.146 153.147 256.613 154.322C255.276 157.276 253.357 160.711 250.674 164.024C249.778 165.134 248.796 166.228 247.719 167.283C245.195 169.773 242.155 172.055 238.513 173.844C236.029 175.063 233.761 176.099 231.7 176.984C228.443 178.388 225.702 179.424 223.442 180.243C216.823 182.642 214.331 183.196 215.066 185.735C216.213 189.684 225.202 187.498 225.202 187.498C224.037 188.372 222.574 189.192 221.012 189.948C218.454 191.186 215.639 192.274 213.434 193.207C212.424 193.637 211.542 194.037 210.873 194.408C208.304 195.826 208.013 200.234 213.567 200.561C212.964 201.211 212.629 202.071 212.677 202.912C212.773 204.547 214.302 206.123 218.072 206.038C218.069 206.082 218.065 206.127 218.061 206.171C217.962 208.14 219.866 210.167 225.176 209.473C225.614 211.281 227.966 212.82 233.39 211.798C233.427 211.795 233.464 211.791 233.504 211.78C236.352 211.225 240.851 209.48 243.001 208.345C243.001 208.345 244.416 207.611 246.753 206.171C248.124 205.326 249.807 204.238 251.711 202.912C255.217 200.473 259.462 197.229 263.824 193.21C264.948 192.174 266.08 191.091 267.212 189.952C267.808 189.353 268.403 188.74 268.995 188.112C269.068 188.707 269.138 189.32 269.204 189.952C269.315 190.999 269.414 192.09 269.506 193.21C269.759 196.337 269.943 199.683 270.072 202.912C270.116 204.014 270.156 205.109 270.189 206.171C270.314 209.973 270.369 213.415 270.391 215.872C270.406 217.382 270.41 218.517 270.41 219.135H270.406Z" fill="#FBFBFB"/>
<path d="M213.673 58.3992C212.978 58.7997 212.317 59.2184 211.688 59.6482C209.042 53.4914 203.596 48.5689 194.79 46.295C193.996 46.0893 193.217 45.8982 192.449 45.7219C192.449 45.7219 197.333 37.8752 205.863 32.8535C205.404 32.4054 204.937 31.9058 204.489 31.3584C202.163 28.5298 201.089 25.5616 202.1 24.735C203.089 23.9195 205.698 25.455 207.988 28.1771C208.039 28.2396 208.091 28.2947 208.142 28.3535C208.833 29.1984 209.414 30.0506 209.858 30.8551C210.836 30.451 211.85 30.091 212.898 29.7935C218.146 28.2837 224.268 28.2102 231.097 30.9947C253.545 40.1492 248.715 72.3329 237.249 84.7238C230.619 85.8405 226.139 86.9793 226.139 86.9793C232.684 82.1229 234.261 74.4856 235.448 64.4422C236.58 54.8947 233.563 48.9509 231.622 46.2215L231.303 46.2031C228.984 48.6754 224.805 52.3159 217.719 56.2282C216.926 56.669 216.091 57.1135 215.22 57.558C214.687 57.8299 214.177 58.1127 213.68 58.3956L213.673 58.3992Z" fill="#FECE2E"/>
<path d="M231.615 46.2215C233.555 48.9546 236.569 54.8947 235.441 64.4422C234.25 74.4856 232.677 82.1229 226.132 86.9793C225.264 87.6258 224.313 88.2209 223.258 88.7646C222.552 89.132 221.806 89.4736 221.012 89.7932C220.965 89.8116 220.924 89.8336 220.876 89.8483C215.669 91.4279 213.221 95.1859 215.665 98.9991C212.71 99.3223 210.057 99.3003 207.786 98.6905C205.691 98.1284 204.011 97.1696 202.582 95.917C212.31 85.1425 216.341 70.4888 211.689 59.6519C212.317 59.2184 212.978 58.8033 213.673 58.4029C214.298 58.7996 215.456 59.0384 216.768 58.9943C218.73 58.9282 220.299 58.2486 220.274 57.4845C220.252 56.8563 219.175 56.3641 217.716 56.2392C224.805 52.3232 228.98 48.6827 231.299 46.2104L231.619 46.2288L231.615 46.2215ZM235.375 61.8597C235.68 61.1507 234.46 59.9531 232.651 59.1854C230.847 58.4176 229.138 58.3662 228.837 59.0751C228.532 59.7841 229.752 60.9817 231.56 61.7495C233.364 62.5172 235.073 62.5687 235.375 61.8597Z" fill="#FBFBFB"/>
<path d="M232.652 59.1854C234.46 59.9531 235.68 61.147 235.375 61.8597C235.073 62.5687 233.365 62.5173 231.56 61.7495C229.752 60.9817 228.532 59.7842 228.837 59.0752C229.138 58.3662 230.847 58.4176 232.652 59.1854Z" fill="#FECE2E"/>
<path d="M223.254 88.7683C223.522 88.7867 236.19 89.5985 245.334 93.239C240.244 93.8304 235.264 94.9141 230.575 95.9978C227.194 96.7803 223.963 97.5627 220.946 98.1579C219.097 98.5215 217.333 98.8191 215.661 98.9991C213.217 95.186 215.661 91.4316 220.872 89.8483C220.92 89.8336 220.961 89.8116 221.008 89.7932C221.802 89.4736 222.548 89.132 223.254 88.7646V88.7683Z" fill="#FBFBFB"/>
<path d="M220.273 57.4772C220.299 58.2412 218.733 58.9245 216.767 58.987C215.455 59.0311 214.298 58.7923 213.673 58.3955C214.169 58.109 214.68 57.8298 215.213 57.558C216.084 57.1135 216.918 56.669 217.712 56.2281C219.175 56.3567 220.248 56.849 220.27 57.4772H220.273Z" fill="#FECE2E"/>
<path d="M207.308 169.891C208.48 170.787 209.623 171.834 210.762 173.087C217.282 180.258 212.284 183.516 209.241 181.778C207.954 181.044 206.668 179.92 205.43 178.851C211.835 185.962 206.859 189.188 203.831 187.458C201.192 185.948 198.557 182.811 196.341 181.863C197.128 182.638 197.896 183.512 198.649 184.511C203.688 191.23 199.105 193.633 196.624 191.884C196.003 191.451 195.433 190.981 194.882 190.499C191.931 187.902 188.528 185.874 184.889 184.376C181.284 182.888 173.291 179.207 166.804 176.294C152.427 169.839 138.748 169.343 124.838 150.99C123.353 149.036 122.229 146.909 121.435 144.657C120.244 141.278 119.814 137.619 120.079 133.824C121.291 116.393 137.212 96.13 162.166 87.5707C162.798 89.9511 163.614 92.1148 164.72 94.0508C164.415 94.3998 145.793 116.018 160.196 123.7C158.454 124.842 156.793 126.124 155.29 127.608L155.154 127.785C160.718 132.009 173.695 141.696 183.746 147.945C185.852 149.257 187.83 150.417 189.583 151.343C202.291 158.055 209.487 158.293 216.679 166.206C223.875 174.119 218.359 177.715 215 175.798C212.31 174.259 209.619 171.18 207.3 169.898L207.308 169.891Z" fill="#FBFBFB"/>
<path d="M164.72 94.0472C163.61 92.1112 162.795 89.9475 162.166 87.5671C161.736 85.9434 161.391 84.2168 161.093 82.3947C160.821 80.7123 160.586 78.9453 160.369 77.0975C159.237 67.55 162.254 61.6062 164.195 58.8731L164.364 58.6931C166.646 61.1691 170.85 64.883 178.09 68.8835C176.631 69.0084 175.555 69.5043 175.536 70.1288C175.507 70.8966 177.076 71.5762 179.042 71.6423C180.354 71.6864 181.508 71.4476 182.137 71.0509C194.702 78.3208 196.007 90.1716 202.578 95.917C204.007 97.1697 205.683 98.1285 207.782 98.6905C210.053 99.3003 212.706 99.326 215.661 98.9991C217.33 98.8191 219.098 98.5215 220.946 98.1578C213.927 123.847 175.025 115.974 175.025 115.974C184.074 111.063 182.163 104.693 174.941 102.5C174.893 102.489 174.853 102.463 174.805 102.449C169.91 100.48 166.8 97.6582 164.724 94.0435L164.72 94.0472ZM164.25 74.3975C166.054 73.6297 167.275 72.4358 166.973 71.7268C166.668 71.0178 164.963 71.0692 163.158 71.8333C161.35 72.6011 160.13 73.7987 160.435 74.5077C160.737 75.2167 162.445 75.1652 164.25 74.3975Z" fill="#FBFBFB"/>
<path d="M212.659 27.5195C212.791 28.313 212.865 29.0807 212.887 29.7971C211.839 30.0983 210.825 30.4546 209.847 30.8587C209.403 30.0542 208.826 29.202 208.131 28.357C208.08 28.2983 208.028 28.2432 207.977 28.1844C207.407 24.6137 207.969 21.5757 209.241 21.3626C210.527 21.1496 212.056 23.9047 212.659 27.5158V27.5195Z" fill="#FECE2E"/>
<path d="M182.137 71.0509C181.641 70.7644 181.126 70.4852 180.597 70.2133C179.722 69.7652 178.892 69.3243 178.094 68.8835C170.854 64.883 166.65 61.1691 164.368 58.6931L164.199 58.8731C162.258 61.6062 159.245 67.55 160.373 77.0975C160.59 78.9453 160.825 80.7123 161.097 82.3947C143.96 66.0255 151.13 36.2111 192.446 45.7256C193.214 45.9019 193.993 46.0929 194.787 46.2986C203.592 48.5726 209.042 53.4951 211.685 59.6519C216.338 70.4888 212.302 85.1462 202.578 95.917C196.007 90.1716 194.702 78.3245 182.137 71.0509ZM198.818 76.833C201.259 76.5538 202.883 73.266 202.457 69.4823C202.023 65.6986 199.7 62.8589 197.264 63.1344C194.823 63.4136 193.199 66.7014 193.625 70.4852C194.059 74.2689 196.382 77.1085 198.818 76.833Z" fill="#3A3936"/>
<path d="M202.457 69.4786C202.887 73.2624 201.259 76.5502 198.818 76.8294C196.382 77.1049 194.056 74.2652 193.626 70.4815C193.196 66.6978 194.824 63.41 197.264 63.1308C199.7 62.8553 202.027 65.6949 202.457 69.4786Z" fill="#FBFBFB"/>
<path d="M180.593 70.2132C181.122 70.4851 181.637 70.7643 182.133 71.0508C181.505 71.4475 180.351 71.6863 179.039 71.6422C177.076 71.5761 175.507 70.8965 175.533 70.1288C175.551 69.5043 176.631 69.0083 178.087 68.8834C178.884 69.3242 179.719 69.7651 180.59 70.2132H180.593Z" fill="#3A3936"/>
<path d="M174.937 102.504C182.155 104.697 184.07 111.067 175.022 115.978C172.938 117.113 170.6 118.182 168.197 119.336C165.525 120.618 162.772 122.006 160.2 123.696C145.797 116.015 164.419 94.3961 164.724 94.0471C166.8 97.6619 169.913 100.483 174.805 102.452C174.849 102.467 174.893 102.493 174.941 102.504H174.937Z" fill="#3A3936"/>
<path d="M168.197 119.336C168.197 119.336 179.594 120.816 183.75 147.941C173.699 141.693 160.722 132.006 155.158 127.781L155.294 127.605C156.797 126.121 158.454 124.839 160.2 123.696C162.773 122.006 165.525 120.618 168.197 119.336Z" fill="#FBFBFB"/>
<path d="M166.973 71.7268C167.275 72.4358 166.055 73.6297 164.25 74.3974C162.446 75.1652 160.737 75.2166 160.435 74.5076C160.13 73.7987 161.351 72.6011 163.159 71.8333C164.963 71.0692 166.672 71.0141 166.973 71.7268Z" fill="#3A3936"/>
<path d="M164.724 177.366C164.724 177.366 167.785 189.188 166.804 204.969C137.789 200.594 135.871 185.771 135.871 185.771V185.705C147.631 185.235 159.943 179.729 164.728 177.366H164.724Z" fill="#FBFBFB"/>
<path d="M121.435 144.657C122.225 146.909 123.353 149.036 124.838 150.991C138.748 169.343 152.427 169.839 166.804 176.294C166.804 176.294 166.055 176.709 164.728 177.366C159.943 179.732 147.631 185.235 135.867 185.705C128.601 185.996 121.541 184.368 116.587 178.902C101.402 162.14 120.082 133.82 120.082 133.82C119.814 137.615 120.248 141.278 121.438 144.654L121.435 144.657Z" fill="#FBFBFB"/>
<path d="M144.739 28.8163C148.063 28.8163 150.758 26.1223 150.758 22.7991C150.758 19.4759 148.063 16.7819 144.739 16.7819C141.414 16.7819 138.719 19.4759 138.719 22.7991C138.719 26.1223 141.414 28.8163 144.739 28.8163Z" fill="#FBFBFB"/>
<path d="M275.5 26.2119C275.853 24.7191 274.928 23.2233 273.434 22.871C271.941 22.5187 270.444 23.4432 270.092 24.936C269.739 26.4288 270.664 27.9245 272.158 28.2769C273.651 28.6292 275.148 27.7047 275.5 26.2119Z" fill="#FECE2E"/>
<path d="M270.406 219.135H164.838C165.084 218.04 165.297 216.952 165.496 215.872H270.388C270.402 217.382 270.406 218.517 270.406 219.135Z" fill="white"/>
<path d="M218.065 206.042C218.061 206.086 218.058 206.13 218.054 206.174H166.72C166.753 205.77 166.779 205.37 166.804 204.973C166.848 204.279 166.885 203.592 166.911 202.916H212.67C212.765 204.551 214.294 206.127 218.065 206.042Z" fill="white"/>
<path d="M270.182 206.174H246.749C248.12 205.329 249.803 204.242 251.707 202.916H270.068C270.112 204.018 270.152 205.113 270.185 206.174H270.182Z" fill="white"/>
<path d="M221.009 189.952C218.451 191.19 215.635 192.277 213.43 193.21H166.856L166.631 189.952H194.243C194.459 190.132 194.673 190.312 194.882 190.496C195.43 190.977 195.999 191.447 196.624 191.881C198.245 193.023 200.762 192.395 200.906 189.952H221.009Z" fill="white"/>
<path d="M269.498 193.21H263.82C264.945 192.175 266.077 191.091 267.209 189.952H269.201L269.502 193.21H269.498Z" fill="white"/>
<path d="M168.348 176.992C170.707 178.057 173.199 179.185 175.558 180.25H165.342C164.992 178.395 164.724 177.367 164.724 177.367C165 177.231 165.253 177.106 165.478 176.992H168.348Z" fill="white"/>
<path d="M205.43 178.851C205.974 179.321 206.525 179.798 207.083 180.25H206.587C206.253 179.802 205.871 179.335 205.43 178.851Z" fill="white"/>
<path d="M231.696 176.992C228.44 178.395 225.698 179.431 223.438 180.25H213.809C214.066 179.413 214.004 178.322 213.434 176.992H231.696Z" fill="white"/>
<path d="M250.667 164.028C249.77 165.137 248.789 166.232 247.712 167.286H217.62C217.337 166.934 217.025 166.57 216.687 166.199C215.963 165.402 215.235 164.682 214.507 164.028H250.671H250.667Z" fill="white"/>
<path d="M257.944 151.068H189.083C189.252 151.159 189.421 151.251 189.587 151.336C191.799 152.504 193.839 153.474 195.742 154.326H256.602L257.94 151.068H257.944Z" fill="white"/>
<path d="M258.271 138.107H181.667C181.957 139.136 182.236 140.22 182.501 141.366H258.822L258.271 138.107Z" fill="white"/>
<path d="M254.452 125.144H175.771C176.459 126.073 177.15 127.153 177.833 128.402H255.68L254.452 125.144Z" fill="white"/>
<path d="M249.535 115.442H202.078C204.89 114.692 207.631 113.638 210.138 112.183H247.381C248.109 113.216 248.829 114.303 249.531 115.442H249.535Z" fill="white"/>
<path d="M238.969 102.478H219.318C219.818 101.46 220.255 100.377 220.619 99.2195H235.194C236.319 100.112 237.598 101.192 238.965 102.478H238.969Z" fill="white"/>
<path d="M198.498 77.2186C195.999 77.2186 193.691 74.3202 193.258 70.5255C192.806 66.547 194.584 63.0645 197.223 62.7633C199.862 62.4658 202.376 65.4597 202.828 69.4381C203.28 73.4165 201.501 76.8991 198.862 77.2003C198.741 77.215 198.62 77.2223 198.498 77.2223V77.2186ZM197.594 63.487C197.499 63.487 197.403 63.4907 197.304 63.5017C195.073 63.7552 193.588 66.8703 193.993 70.441C194.401 74.0117 196.543 76.7117 198.778 76.4619C201.009 76.2084 202.493 73.0933 202.089 69.5226C201.699 66.1062 199.719 63.487 197.594 63.487Z" fill="#3B140D"/>
<path d="M204.629 87.354C204.566 87.354 204.5 87.3356 204.441 87.3025C193.975 81.1457 193.232 70.5696 193.229 70.4631C193.218 70.2574 193.372 70.0847 193.578 70.07C193.78 70.059 193.96 70.2133 193.971 70.419C193.978 70.5219 194.702 80.7122 204.82 86.6633C204.996 86.7662 205.055 86.994 204.952 87.1703C204.882 87.2878 204.757 87.354 204.633 87.354H204.629Z" fill="#3B140D"/>
<path d="M196.381 71.9913C196.176 71.9913 196.01 71.826 196.01 71.6203C196.01 71.5578 196.021 70.081 196.709 68.6998C197.234 67.6528 198.002 66.9475 198.987 66.5985C199.182 66.5287 199.391 66.6316 199.461 66.8263C199.531 67.021 199.428 67.2304 199.233 67.3002C198.432 67.583 197.804 68.1671 197.37 69.0341C196.764 70.2537 196.753 71.6129 196.749 71.6239C196.749 71.8296 196.584 71.995 196.378 71.995L196.381 71.9913Z" fill="#3B140D"/>
<path d="M200.038 71.2125C199.884 71.2125 199.741 71.117 199.689 70.9627C199.66 70.8746 198.928 68.8762 197.113 69.2288C196.911 69.2692 196.716 69.137 196.679 68.9349C196.639 68.7329 196.771 68.5382 196.973 68.5015C198.932 68.1194 200.064 69.7872 200.391 70.7203C200.457 70.915 200.358 71.1244 200.163 71.1942C200.123 71.2089 200.082 71.2162 200.042 71.2162L200.038 71.2125Z" fill="#3B140D"/>
<path d="M263.691 94.4145C263.662 94.4145 263.633 94.4145 263.599 94.4035C258.241 93.0627 252.28 92.8055 245.378 93.61C245.176 93.6321 244.989 93.4888 244.967 93.2831C244.945 93.081 245.088 92.8937 245.294 92.8716C252.287 92.0561 258.333 92.3206 263.783 93.6835C263.982 93.7349 264.103 93.9333 264.055 94.1353C264.015 94.3043 263.86 94.4182 263.695 94.4182L263.691 94.4145Z" fill="#3B140D"/>
<path d="M230.572 96.3725C230.402 96.3725 230.248 96.2549 230.211 96.0859C230.164 95.8876 230.289 95.6855 230.491 95.6414C234.901 94.6239 240.042 93.4851 245.294 92.8753C245.496 92.8532 245.684 92.9965 245.706 93.2022C245.728 93.4043 245.584 93.5916 245.379 93.6137C240.167 94.2198 235.048 95.3512 230.66 96.3651C230.63 96.3725 230.605 96.3762 230.575 96.3762L230.572 96.3725Z" fill="#3B140D"/>
<path d="M212.203 99.5794C210.491 99.5794 208.995 99.4031 207.683 99.0504C205.647 98.5031 203.897 97.57 202.332 96.1961C199.748 93.9369 197.951 90.7299 196.051 87.3356C193.019 81.9208 189.579 75.786 181.953 71.3741C181.479 71.0986 180.983 70.8267 180.428 70.5439C179.506 70.0736 178.686 69.6365 177.914 69.2104C170.575 65.1548 166.349 61.3931 164.092 58.9465C163.512 58.3184 163.001 57.7085 162.563 57.1355C162.438 56.9738 162.471 56.7387 162.633 56.6138C162.795 56.4889 163.03 56.522 163.155 56.6836C163.574 57.2383 164.074 57.8298 164.636 58.4396C166.852 60.8457 171.02 64.5523 178.271 68.5565C179.035 68.9789 179.851 69.4124 180.763 69.8789C181.329 70.1692 181.839 70.4483 182.321 70.7275C190.127 75.246 193.614 81.4726 196.694 86.9719C198.565 90.3111 200.329 93.463 202.817 95.6377C204.294 96.9345 205.948 97.8161 207.874 98.3341C209.917 98.8815 212.449 98.9807 215.614 98.6317C217.135 98.4664 218.804 98.2019 220.866 97.7941C223.309 97.3129 225.878 96.7104 228.598 96.0749C229.219 95.9279 229.848 95.781 230.48 95.6341C230.678 95.5863 230.88 95.7112 230.924 95.9133C230.972 96.1116 230.847 96.3137 230.645 96.3578C230.013 96.5047 229.384 96.6516 228.763 96.7949C226.036 97.4304 223.464 98.0329 221.005 98.5178C218.921 98.9292 217.231 99.1974 215.691 99.3664C214.434 99.506 213.273 99.5721 212.196 99.5721L212.203 99.5794Z" fill="#3B140D"/>
<path d="M155.293 127.976C155.198 127.976 155.102 127.939 155.029 127.866C154.886 127.719 154.886 127.484 155.029 127.34C156.444 125.941 158.068 124.648 159.994 123.384C162.603 121.672 165.4 120.265 168.035 118.998C168.586 118.733 169.134 118.472 169.678 118.215C171.512 117.345 173.246 116.518 174.841 115.651C178.888 113.454 180.972 110.828 180.707 108.253C180.472 105.92 178.27 103.903 174.827 102.86C174.797 102.853 174.753 102.834 174.713 102.816L174.683 102.805C169.92 100.887 166.661 98.1688 164.397 94.2345C163.331 92.3757 162.482 90.2267 161.806 87.6662C161.402 86.1307 161.049 84.4298 160.725 82.4572C160.475 80.9216 160.248 79.2355 160.001 77.1452C158.855 67.4471 161.945 61.4042 163.893 58.66C164.011 58.491 164.242 58.4543 164.411 58.5719C164.577 58.6894 164.617 58.9208 164.5 59.0898C162.614 61.7421 159.623 67.6051 160.74 77.0571C160.986 79.1363 161.214 80.8151 161.46 82.3359C161.776 84.2829 162.126 85.9654 162.526 87.4752C163.188 89.9732 164.011 92.0634 165.044 93.8635C167.219 97.6472 170.362 100.266 174.941 102.107C174.948 102.107 174.977 102.122 175.007 102.133L175.036 102.144C178.785 103.282 181.181 105.538 181.449 108.176C181.743 111.067 179.524 113.954 175.198 116.301C173.585 117.179 171.843 118.006 169.998 118.884C169.457 119.141 168.91 119.402 168.359 119.666C165.746 120.919 162.975 122.315 160.402 124.005C158.52 125.239 156.933 126.503 155.554 127.866C155.481 127.939 155.389 127.972 155.293 127.972V127.976Z" fill="#3B140D"/>
<path d="M173.467 86.2445C173.445 86.2445 173.427 86.2445 173.405 86.2408C172.493 86.0866 171.89 85.7596 171.56 85.2453C171.041 84.4371 171.321 83.3902 171.615 82.2845L171.622 82.2587C172.067 80.6057 171.714 79.0224 171.71 79.0077C171.666 78.8093 171.791 78.6073 171.99 78.5632C172.188 78.5191 172.39 78.644 172.434 78.8424C172.449 78.9158 172.828 80.624 172.339 82.4498L172.331 82.4755C172.078 83.4196 171.839 84.3086 172.184 84.8449C172.398 85.1755 172.835 85.3923 173.53 85.5098C173.732 85.5429 173.868 85.7376 173.835 85.9396C173.805 86.1196 173.647 86.2482 173.471 86.2482L173.467 86.2445Z" fill="#3B140D"/>
<path d="M174.239 90.5831C173.221 90.5831 172.666 90.3737 172.618 90.3553C172.427 90.2782 172.335 90.0651 172.409 89.8741C172.482 89.683 172.699 89.5912 172.89 89.6647C172.919 89.6757 175.202 90.4986 179.27 88.434C179.454 88.3422 179.678 88.4157 179.77 88.5957C179.862 88.7794 179.788 89.0034 179.608 89.0953C177.238 90.2965 175.426 90.5831 174.239 90.5831Z" fill="#3B140D"/>
<path d="M175.61 92.5337C175.058 92.5337 174.757 92.4198 174.731 92.4088C174.54 92.3316 174.448 92.1186 174.522 91.9275C174.595 91.7365 174.809 91.6447 175 91.7181C175.025 91.7292 176.11 92.0928 178.043 91.112C178.226 91.0202 178.451 91.0937 178.542 91.2737C178.634 91.4573 178.561 91.6814 178.381 91.7733C177.172 92.3867 176.234 92.5337 175.61 92.5337Z" fill="#3B140D"/>
<path d="M179.362 72.0207C179.252 72.0207 179.141 72.0207 179.028 72.0134C177.462 71.9619 176.073 71.5248 175.488 70.9003C175.205 70.5991 175.154 70.3088 175.161 70.1178C175.187 69.2803 176.293 68.6668 178.057 68.5162C178.263 68.4978 178.443 68.6484 178.458 68.8541C178.476 69.0599 178.326 69.2399 178.12 69.2545C176.686 69.3794 175.911 69.8497 175.904 70.1435C175.904 70.2391 175.97 70.3346 176.032 70.397C176.392 70.7827 177.491 71.2236 179.053 71.275C180.248 71.3154 181.35 71.1134 181.938 70.7423C181.946 70.735 181.957 70.7313 181.964 70.7276C181.975 70.7203 181.982 70.7166 181.993 70.7129C182.177 70.6211 182.401 70.6982 182.489 70.8819C182.578 71.0582 182.512 71.2676 182.346 71.3668C182.339 71.3705 182.331 71.3742 182.324 71.3778C181.666 71.7893 180.578 72.0244 179.362 72.0244V72.0207Z" fill="#3B140D"/>
<path d="M161.666 75.3783C161.299 75.3783 160.976 75.3268 160.718 75.224C160.336 75.0697 160.167 74.8272 160.094 74.6546C160.02 74.4783 159.961 74.188 160.116 73.806C160.435 73.0125 161.571 72.1052 163.015 71.4917C164.809 70.7313 166.863 70.5182 167.319 71.5798C167.771 72.6452 166.191 73.975 164.397 74.7391C163.42 75.1542 162.442 75.3783 161.666 75.3783ZM165.753 71.6019C165.147 71.6019 164.279 71.7635 163.306 72.1786C161.869 72.7884 161.001 73.5966 160.806 74.0852C160.773 74.166 160.744 74.2799 160.777 74.3644C160.814 74.4489 160.917 74.504 160.998 74.537C161.49 74.7354 162.67 74.6693 164.107 74.0595C165.867 73.3101 166.793 72.2484 166.635 71.8737C166.565 71.7084 166.246 71.6019 165.753 71.6019Z" fill="#3B140D"/>
<path d="M212.883 30.1681C212.684 30.1681 212.519 30.0102 212.512 29.8081C212.49 29.0844 212.416 28.335 212.291 27.5783C211.703 24.048 210.229 21.5794 209.3 21.73C208.388 21.8806 207.771 24.5439 208.34 28.122C208.373 28.324 208.234 28.515 208.032 28.5481C207.83 28.5812 207.638 28.4416 207.605 28.2395C207.08 24.9407 207.451 21.2819 209.178 20.9953C210.931 20.7088 212.468 24.1105 213.022 27.4534C213.155 28.2432 213.232 29.0256 213.254 29.7824C213.261 29.9881 213.1 30.1571 212.894 30.1644C212.89 30.1644 212.886 30.1644 212.883 30.1644V30.1681Z" fill="#3B140D"/>
<path d="M205.856 33.2282C205.764 33.2282 205.669 33.1915 205.599 33.1217C205.114 32.6478 204.639 32.1372 204.195 31.5972C203.041 30.1939 202.151 28.7134 201.685 27.424C201.166 25.995 201.225 24.9664 201.854 24.4521C203.202 23.3427 206.095 25.3705 208.259 27.942C208.267 27.9493 208.27 27.9567 208.278 27.964L208.406 28.1073C209.112 28.9706 209.704 29.8302 210.171 30.6788C210.27 30.8588 210.204 31.0829 210.024 31.1821C209.843 31.2812 209.619 31.2151 209.52 31.0351C209.075 30.2269 208.509 29.4041 207.84 28.5885L207.697 28.4306C207.697 28.4306 207.675 28.4049 207.668 28.3902C205.389 25.6865 203.026 24.4448 202.324 25.0215C201.979 25.3044 202.001 26.1089 202.383 27.1706C202.82 28.3828 203.666 29.7861 204.764 31.1233C205.191 31.6412 205.646 32.1335 206.113 32.589C206.26 32.7323 206.264 32.9674 206.121 33.1143C206.047 33.1878 205.951 33.2282 205.856 33.2282Z" fill="#3B140D"/>
<path d="M202.574 96.2881C202.486 96.2881 202.398 96.255 202.324 96.1926C202.173 96.0566 202.159 95.8215 202.298 95.6672C212.207 84.6944 215.841 70.2795 211.339 59.7952C208.546 53.2894 202.787 48.7452 194.687 46.655C193.919 46.4566 193.136 46.2656 192.354 46.0856C182.534 43.8227 174.158 43.6574 167.462 45.5897C161.666 47.2611 157.33 50.5122 154.911 54.9902C150.512 63.1455 153.155 74.3057 161.343 82.1266L161.089 82.3984L160.825 82.6593C152.401 74.6106 149.696 63.0867 154.257 54.6376C156.771 49.9832 161.262 46.6072 167.252 44.877C174.073 42.908 182.57 43.0733 192.515 45.3619C193.302 45.5419 194.092 45.7366 194.867 45.9387C203.199 48.0877 209.127 52.7788 212.015 59.505C216.628 70.2501 212.942 84.9809 202.842 96.1668C202.769 96.2477 202.67 96.2881 202.567 96.2881H202.574Z" fill="#3B140D"/>
<path d="M160.2 124.067C160.141 124.067 160.082 124.053 160.023 124.023C156.962 122.392 155.124 120.012 154.559 116.952C152.783 107.356 163.963 94.3521 164.441 93.8011C164.448 93.7937 164.456 93.7864 164.463 93.779C164.61 93.6358 164.845 93.6394 164.989 93.7864C165.128 93.9296 165.128 94.1537 164.992 94.297C164.643 94.7011 153.596 107.669 155.286 116.816C155.808 119.644 157.521 121.848 160.373 123.369C160.553 123.465 160.622 123.689 160.527 123.873C160.461 123.997 160.332 124.067 160.2 124.067Z" fill="#3B140D"/>
<path d="M216.918 176.672C216.213 176.672 215.485 176.489 214.823 176.114C213.419 175.309 212.034 174.112 210.693 172.955C209.425 171.86 208.227 170.824 207.124 170.214C206.944 170.115 206.881 169.887 206.981 169.711C207.08 169.535 207.308 169.468 207.484 169.568C208.653 170.214 209.88 171.272 211.178 172.393C212.49 173.528 213.849 174.7 215.191 175.467C216.562 176.25 218.333 175.993 219.222 174.887C220.648 173.109 219.597 169.953 216.411 166.449C211.821 161.401 207.33 159.557 201.119 157.004C197.749 155.619 193.93 154.051 189.414 151.666C187.741 150.785 185.768 149.635 183.552 148.257C173.405 141.95 160.156 132.042 154.93 128.079C153.206 126.771 152.192 125.985 152.192 125.985C152.03 125.86 152.001 125.625 152.126 125.463C152.251 125.302 152.486 125.272 152.648 125.397C152.648 125.397 153.658 126.18 155.378 127.487C160.593 131.447 173.82 141.337 183.945 147.629C186.146 148.999 188.102 150.138 189.759 151.013C194.243 153.382 198.046 154.943 201.398 156.321C207.462 158.811 212.254 160.781 216.959 165.953C222.078 171.581 220.428 174.571 219.799 175.353C219.105 176.217 218.032 176.676 216.915 176.676L216.918 176.672Z" fill="#3B140D"/>
<path d="M210.968 182.612C210.322 182.612 209.66 182.447 209.054 182.102C207.775 181.371 206.518 180.283 205.301 179.233L205.184 179.13C205.029 178.998 205.011 178.762 205.147 178.604C205.279 178.45 205.515 178.432 205.673 178.568L205.79 178.671C206.981 179.699 208.212 180.761 209.425 181.455C210.652 182.157 212.236 181.929 213.034 180.937C214.316 179.339 213.361 176.5 210.487 173.337C209.395 172.135 208.282 171.107 207.084 170.188C207.076 170.181 207.069 170.177 207.062 170.17C206.286 169.575 205.474 169.024 204.577 168.488C204.401 168.381 204.342 168.153 204.449 167.977C204.555 167.801 204.783 167.742 204.96 167.848C205.889 168.403 206.731 168.972 207.532 169.59C207.54 169.597 207.547 169.601 207.554 169.608C208.782 170.552 209.921 171.606 211.042 172.837C215.702 177.958 214.191 180.687 213.618 181.404C212.982 182.194 212.001 182.616 210.976 182.616L210.968 182.612Z" fill="#3B140D"/>
<path d="M205.558 188.292C204.911 188.292 204.25 188.126 203.644 187.781C202.368 187.05 201.111 185.966 199.899 184.916C198.568 183.766 197.311 182.682 196.194 182.201C196.007 182.12 195.918 181.903 195.999 181.712C196.08 181.525 196.297 181.437 196.488 181.518C197.712 182.043 199.009 183.163 200.387 184.35C201.574 185.375 202.802 186.436 204.018 187.131C205.242 187.829 206.826 187.605 207.624 186.616C208.899 185.037 207.977 182.227 205.158 179.093L205.128 179.06C205.128 179.06 205.106 179.034 205.095 179.023C203.283 177.036 201.405 175.497 199.171 174.163C198.994 174.057 198.936 173.829 199.042 173.652C199.149 173.476 199.377 173.417 199.553 173.524C201.854 174.894 203.787 176.477 205.635 178.509C205.65 178.52 205.672 178.549 205.694 178.575L205.713 178.597C210.281 183.67 208.774 186.374 208.204 187.079C207.569 187.865 206.587 188.284 205.566 188.284L205.558 188.292Z" fill="#3B140D"/>
<path d="M198.351 192.806C197.686 192.806 196.999 192.601 196.407 192.186C195.852 191.8 195.29 191.352 194.636 190.775C191.821 188.299 188.495 186.26 184.746 184.717C182.188 183.659 177.513 181.543 172.563 179.302C170.56 178.395 168.542 177.48 166.65 176.632C163.169 175.071 159.678 173.84 156.301 172.65C145.415 168.815 135.136 165.192 124.54 151.215C123.063 149.268 121.901 147.104 121.086 144.779C119.898 141.406 119.435 137.711 119.711 133.795C120.328 124.934 124.672 115.46 131.942 107.121C139.74 98.1799 150.148 91.2957 162.048 87.2144C162.089 87.1997 162.129 87.196 162.17 87.196C162.376 87.196 162.541 87.3614 162.541 87.5671C162.541 87.7397 162.423 87.8867 162.265 87.9271C150.501 91.968 140.211 98.775 132.504 107.614C125.338 115.831 121.06 125.147 120.453 133.85C120.185 137.663 120.633 141.259 121.787 144.536C122.578 146.788 123.706 148.886 125.136 150.77C135.595 164.572 145.775 168.157 156.55 171.955C159.943 173.149 163.449 174.384 166.958 175.96C168.851 176.808 170.872 177.723 172.875 178.63C177.818 180.867 182.49 182.983 185.036 184.034C188.859 185.61 192.258 187.689 195.132 190.22C195.764 190.775 196.308 191.208 196.841 191.579C197.826 192.274 199.182 192.208 199.935 191.436C201.152 190.183 200.564 187.678 198.359 184.736C197.638 183.777 196.9 182.932 196.11 182.149C196.099 182.142 196.091 182.135 196.084 182.124C195.327 181.382 194.537 180.713 193.666 180.078C193.5 179.956 193.463 179.725 193.585 179.56C193.706 179.394 193.938 179.358 194.103 179.479C194.992 180.129 195.804 180.816 196.58 181.573C196.591 181.58 196.598 181.587 196.609 181.598C197.436 182.41 198.201 183.292 198.954 184.287C202.578 189.118 201.031 191.377 200.472 191.95C199.921 192.52 199.156 192.806 198.362 192.806H198.351Z" fill="#3B140D"/>
<path d="M214.224 200.954C213.989 200.954 213.765 200.947 213.545 200.936C213.339 200.925 213.184 200.749 213.195 200.543C213.206 200.337 213.383 200.183 213.589 200.194C214.669 200.256 215.926 200.157 217.323 199.893C217.33 199.893 217.359 199.885 217.389 199.882L217.422 199.874C220.116 199.353 224.607 197.652 226.826 196.473C227.006 196.377 227.231 196.447 227.33 196.627C227.425 196.807 227.356 197.031 227.176 197.13C224.901 198.331 220.402 200.054 217.576 200.602C217.561 200.602 217.536 200.609 217.51 200.613H217.481C216.29 200.84 215.202 200.954 214.224 200.954Z" fill="#3B140D"/>
<path d="M213.563 200.936C213.563 200.936 213.548 200.936 213.541 200.936C209.825 200.719 208.994 198.798 208.807 197.982C208.473 196.513 209.266 194.878 210.689 194.092C211.795 193.479 213.43 192.806 215.319 192.027C218.509 190.712 222.482 189.081 224.974 187.208C225.713 186.653 226.293 186.098 226.701 185.555C226.822 185.389 227.058 185.356 227.219 185.481C227.385 185.602 227.418 185.838 227.293 185.999C226.845 186.598 226.212 187.204 225.419 187.799C222.85 189.728 218.833 191.381 215.602 192.711C213.732 193.482 212.118 194.147 211.045 194.739C209.906 195.367 209.266 196.663 209.527 197.817C209.84 199.195 211.317 200.062 213.581 200.194C213.787 200.205 213.941 200.381 213.93 200.587C213.919 200.785 213.754 200.936 213.559 200.936H213.563Z" fill="#3B140D"/>
<path d="M217.778 206.417C214.188 206.417 212.975 204.925 212.567 204.022C212.027 202.82 212.31 201.366 213.291 200.311C213.361 200.234 213.46 200.194 213.563 200.194C213.769 200.194 213.934 200.359 213.934 200.565C213.934 200.675 213.886 200.774 213.813 200.84C213.056 201.674 212.831 202.798 213.243 203.717C213.585 204.477 214.673 205.748 218.058 205.671C218.925 205.656 219.877 205.55 220.891 205.359L220.924 205.351C220.946 205.351 220.968 205.344 220.99 205.34C223.677 204.819 228.168 203.118 230.399 201.942C230.579 201.847 230.803 201.917 230.902 202.097C230.998 202.277 230.928 202.501 230.748 202.6C228.469 203.801 223.967 205.52 221.148 206.068C221.126 206.075 221.089 206.079 221.056 206.086C219.983 206.288 218.987 206.398 218.08 206.413C217.98 206.413 217.881 206.413 217.786 206.413L217.778 206.417Z" fill="#3B140D"/>
<path d="M223.173 209.987C220.696 209.987 219.362 209.267 218.657 208.584C217.944 207.893 217.602 206.979 217.694 206.005C217.712 205.8 217.892 205.653 218.098 205.671C218.304 205.689 218.451 205.873 218.433 206.075C218.381 206.6 218.469 207.368 219.171 208.048C220.248 209.087 222.361 209.466 225.121 209.106C225.504 209.054 225.889 208.992 226.268 208.922C226.268 208.922 226.294 208.918 226.297 208.918C226.316 208.918 226.338 208.911 226.356 208.907C229.05 208.386 233.545 206.685 235.772 205.509C235.952 205.414 236.176 205.484 236.272 205.664C236.367 205.844 236.297 206.068 236.117 206.167C233.839 207.368 229.333 209.087 226.514 209.635C226.496 209.638 226.459 209.646 226.422 209.653C226.011 209.73 225.61 209.793 225.217 209.848C224.46 209.947 223.78 209.991 223.17 209.991L223.173 209.987Z" fill="#3B140D"/>
<path d="M230.182 212.507C225.911 212.507 225 210.344 224.813 209.565C224.765 209.367 224.886 209.165 225.088 209.117C225.287 209.069 225.489 209.19 225.537 209.392C225.926 211.016 228.175 212.405 233.321 211.438L233.376 211.431C233.376 211.431 233.401 211.431 233.416 211.424C236.106 210.898 240.597 209.198 242.824 208.022C242.96 207.952 256.433 200.884 268.723 187.858C281.358 174.464 294.765 152.478 286.897 123.795C286.841 123.597 286.959 123.395 287.157 123.34C287.356 123.285 287.558 123.402 287.613 123.601C291.145 136.476 290.763 149.124 286.478 161.185C283.096 170.699 277.304 179.846 269.267 188.369C256.885 201.491 243.31 208.61 243.174 208.68C240.899 209.877 236.397 211.6 233.578 212.147C233.552 212.155 233.519 212.158 233.482 212.162H233.453C232.192 212.405 231.112 212.504 230.189 212.504L230.182 212.507Z" fill="#3B140D"/>
<path d="M134.272 186.11C126.532 186.11 120.498 183.773 116.308 179.152C110.005 172.194 108.612 162.103 112.28 149.969C115.037 140.848 119.722 133.688 119.766 133.618C119.88 133.446 120.108 133.402 120.281 133.512C120.454 133.626 120.498 133.854 120.388 134.026C120.34 134.096 115.709 141.179 112.986 150.201C110.49 158.474 109.134 170.13 116.859 178.656C121.178 183.421 127.569 185.669 135.849 185.338C147.543 184.868 159.822 179.376 164.559 177.036C165.86 176.393 166.613 175.978 166.621 175.971C166.801 175.871 167.025 175.938 167.124 176.114C167.223 176.294 167.157 176.518 166.981 176.617C166.951 176.635 166.205 177.047 164.886 177.697C160.108 180.059 147.712 185.603 135.875 186.076C135.331 186.099 134.794 186.11 134.269 186.11H134.272Z" fill="#3B140D"/>
<path d="M118.362 147.633C118.256 147.633 118.153 147.589 118.079 147.501C117.947 147.343 117.965 147.111 118.123 146.979L121.196 144.375C121.354 144.242 121.585 144.261 121.718 144.419C121.85 144.577 121.832 144.808 121.674 144.94L118.601 147.545C118.531 147.604 118.447 147.633 118.362 147.633Z" fill="#3B140D"/>
<path d="M180.869 78.0379C179.59 78.0379 178.653 77.4207 178.638 77.4097C178.469 77.2958 178.425 77.0644 178.539 76.8954C178.653 76.7264 178.884 76.6823 179.053 76.7962C179.145 76.8587 181.354 78.2913 183.482 76.0505C183.622 75.8999 183.857 75.8962 184.007 76.0358C184.158 76.1754 184.162 76.4105 184.022 76.5611C182.934 77.7073 181.81 78.0379 180.869 78.0379Z" fill="#3B140D"/>
<path d="M164.294 80.6535C163.015 80.6535 162.082 80.0363 162.063 80.0253C161.894 79.9114 161.85 79.68 161.964 79.511C162.078 79.342 162.31 79.2979 162.479 79.4118C162.574 79.4743 164.779 80.9069 166.903 78.6661C167.043 78.5155 167.278 78.5118 167.429 78.6514C167.58 78.791 167.583 79.0261 167.444 79.1767C166.356 80.3228 165.231 80.6535 164.29 80.6535H164.294Z" fill="#3B140D"/>
<path d="M211.685 60.0229C211.567 60.0229 211.45 59.9678 211.38 59.8613C211.262 59.6923 211.306 59.4609 211.476 59.3433C212.104 58.9135 212.773 58.491 213.464 58.0906C213.471 58.0833 213.479 58.0796 213.49 58.0759C214.044 57.7563 214.555 57.4808 215.048 57.2274C215.9 56.7939 216.738 56.3457 217.532 55.9049C224.651 51.9779 228.8 48.3227 231.027 45.9496C231.656 45.2737 232.207 44.6308 232.655 44.0357C232.78 43.8741 233.012 43.841 233.177 43.9622C233.339 44.0871 233.372 44.3186 233.251 44.4839C232.784 45.0974 232.218 45.7623 231.571 46.4566C229.307 48.8701 225.096 52.5803 217.896 56.5551C217.091 57.0033 216.25 57.4514 215.39 57.8886C214.915 58.131 214.419 58.3992 213.883 58.7078C213.875 58.7115 213.868 58.7151 213.861 58.7225C213.177 59.1155 212.516 59.5307 211.898 59.9568C211.832 60.0009 211.762 60.0229 211.689 60.0229H211.685Z" fill="#3B140D"/>
<path d="M215.658 99.3738C215.536 99.3738 215.415 99.3151 215.345 99.2012C214.305 97.5738 214.063 95.8803 214.647 94.3007C215.426 92.1921 217.653 90.4398 220.766 89.4994C220.773 89.4994 220.792 89.4884 220.81 89.481L220.873 89.4553C221.644 89.143 222.39 88.8051 223.085 88.4414C223.265 88.3459 223.493 88.4157 223.585 88.5994C223.68 88.7794 223.611 89.0071 223.427 89.099C222.71 89.4737 221.946 89.8227 221.148 90.1422L221.108 90.1606C221.071 90.179 221.031 90.1937 220.99 90.2047C218.094 91.0827 216.04 92.6696 215.345 94.5578C214.845 95.9134 215.062 97.3791 215.974 98.8044C216.084 98.9771 216.032 99.2048 215.86 99.3187C215.797 99.3591 215.727 99.3775 215.661 99.3775L215.658 99.3738Z" fill="#3B140D"/>
<path d="M223.254 89.1393C223.118 89.1393 222.99 89.0659 222.923 88.9373C222.828 88.7536 222.901 88.5295 223.081 88.4377C224.099 87.9087 225.051 87.3209 225.904 86.6854C232.519 81.7739 233.967 73.6885 235.066 64.4018C236.183 54.9535 233.192 49.0905 231.306 46.4382C231.189 46.2692 231.226 46.0378 231.395 45.9203C231.56 45.8027 231.795 45.8394 231.913 46.0084C233.857 48.7489 236.951 54.7955 235.805 64.4899C234.684 73.9493 233.199 82.1964 226.349 87.2805C225.463 87.9418 224.478 88.5516 223.423 89.0989C223.368 89.1283 223.309 89.1393 223.254 89.1393Z" fill="#3B140D"/>
<path d="M222.339 73.5929C222.163 73.5929 222.005 73.4643 221.972 73.2843C221.939 73.0823 222.075 72.8913 222.277 72.8582C222.968 72.7406 223.409 72.5239 223.618 72.197C223.96 71.6643 223.721 70.7716 223.471 69.8312L223.464 69.8018C222.975 67.9724 223.354 66.2642 223.368 66.1944C223.412 65.996 223.615 65.8711 223.813 65.9152C224.011 65.9593 224.14 66.1577 224.092 66.3597C224.092 66.3744 223.739 67.965 224.181 69.6108L224.188 69.6402C224.482 70.7459 224.765 71.7929 224.243 72.601C223.912 73.1153 223.309 73.4386 222.398 73.5929C222.376 73.5929 222.358 73.5966 222.336 73.5966L222.339 73.5929Z" fill="#3B140D"/>
<path d="M221.575 77.9314C220.391 77.9314 218.576 77.6486 216.202 76.4436C216.018 76.3518 215.944 76.1277 216.04 75.944C216.132 75.7604 216.356 75.6869 216.54 75.7824C220.616 77.8506 222.898 77.0241 222.92 77.013C223.111 76.9396 223.324 77.0351 223.398 77.2261C223.471 77.4171 223.379 77.6302 223.188 77.7037C223.14 77.722 222.589 77.9314 221.575 77.9314Z" fill="#3B140D"/>
<path d="M220.204 79.882C219.583 79.882 218.642 79.7351 217.429 79.118C217.245 79.0261 217.172 78.802 217.268 78.6184C217.359 78.4347 217.584 78.3612 217.767 78.4567C219.715 79.4449 220.799 79.0702 220.81 79.0665C221.001 78.9967 221.215 79.0922 221.288 79.2833C221.362 79.4743 221.27 79.6837 221.079 79.7608C221.053 79.7718 220.752 79.8857 220.204 79.8857V79.882Z" fill="#3B140D"/>
<path d="M216.444 59.3653C215.227 59.3653 214.14 59.1302 213.482 58.7188C213.474 58.7151 213.467 58.7114 213.46 58.7041C213.294 58.6049 213.232 58.3955 213.316 58.2192C213.408 58.0355 213.629 57.962 213.813 58.0502C213.82 58.0539 213.831 58.0612 213.842 58.0649C213.853 58.0686 213.86 58.0759 213.868 58.0796C214.448 58.4506 215.555 58.6527 216.749 58.6122C218.311 58.5608 219.41 58.12 219.77 57.7343C219.829 57.6718 219.899 57.5763 219.895 57.4881C219.884 57.2053 219.175 56.7277 217.675 56.5992C217.469 56.5808 217.319 56.4008 217.337 56.1987C217.355 55.993 217.535 55.8424 217.738 55.8608C219.498 56.0114 220.608 56.6249 220.637 57.4661C220.645 57.6571 220.593 57.9473 220.314 58.2449C219.729 58.8694 218.34 59.3065 216.775 59.358C216.661 59.3616 216.55 59.3653 216.44 59.3653H216.444Z" fill="#3B140D"/>
<path d="M234.143 62.7266C233.368 62.7266 232.39 62.5062 231.413 62.0874C229.968 61.4739 228.833 60.5666 228.513 59.7731C228.359 59.3911 228.417 59.1008 228.491 58.9245C228.564 58.7519 228.734 58.5094 229.116 58.3551C229.91 58.0355 231.35 58.2265 232.791 58.84C234.254 59.4645 235.367 60.3498 235.691 61.1507C235.845 61.5327 235.786 61.8229 235.713 61.9993C235.639 62.1756 235.47 62.4144 235.088 62.5687C234.834 62.6715 234.511 62.7229 234.14 62.7229L234.143 62.7266ZM230.068 58.9466C229.785 58.9466 229.553 58.9833 229.399 59.0457C229.318 59.0788 229.215 59.1339 229.178 59.2184C229.141 59.3029 229.171 59.4168 229.204 59.4976C229.402 59.9862 230.266 60.7943 231.703 61.4041C233.14 62.014 234.32 62.0801 234.812 61.8817C234.893 61.8486 234.996 61.7935 235.033 61.709C235.069 61.6246 235.036 61.5107 235.003 61.4262C234.805 60.9376 233.941 60.1331 232.504 59.5196C231.53 59.1045 230.67 58.9392 230.068 58.9392V58.9466Z" fill="#3B140D"/>
<path d="M214.959 65.3973C214.36 65.3973 213.68 65.2577 212.975 64.8573C212.798 64.7544 212.736 64.5267 212.839 64.3504C212.942 64.174 213.166 64.1116 213.346 64.2144C215.11 65.2247 216.69 64.1924 216.756 64.1446C216.925 64.0308 217.157 64.0748 217.271 64.2438C217.385 64.4128 217.341 64.6442 217.172 64.7581C217.117 64.7949 216.213 65.3973 214.959 65.3973Z" fill="#3B140D"/>
<path d="M231.512 68.0019C230.571 68.0019 229.447 67.6712 228.359 66.5251C228.219 66.3745 228.223 66.1431 228.374 65.9998C228.524 65.8602 228.756 65.8639 228.899 66.0145C231.027 68.259 233.236 66.8227 233.328 66.7602C233.497 66.6463 233.728 66.6904 233.842 66.8594C233.956 67.0284 233.912 67.2598 233.743 67.3737C233.728 67.3847 232.791 68.0019 231.512 68.0019Z" fill="#3B140D"/>
<path d="M245.338 93.61C245.29 93.61 245.242 93.6026 245.198 93.5842C236.466 90.1054 224.573 89.2274 223.247 89.1393C223.048 89.1246 222.887 88.9556 222.89 88.7572C222.898 88.5589 223.052 88.3972 223.254 88.3972C223.254 88.3972 223.283 88.3972 223.291 88.3972C224.629 88.4854 236.62 89.3707 245.459 92.8899C245.602 92.9414 245.705 93.0773 245.705 93.2389C245.705 93.4446 245.54 93.61 245.334 93.61H245.338Z" fill="#3B140D"/>
<path d="M220.218 188.479C217.804 188.479 215.308 187.939 214.702 185.845C213.949 183.244 216.106 182.473 221.325 180.614C225.066 179.28 230.722 177.264 238.344 173.517C255.015 165.325 258.973 146.421 259.009 146.23C259.035 146.101 259.127 145.995 259.252 145.95C269.634 142.372 279.737 133.828 286.275 123.097C289.733 117.418 291.854 111.614 292.413 106.313C293.008 100.652 291.766 95.715 288.822 92.0378C279.241 80.062 252.427 82.549 237.3 85.0948C230.762 86.1932 226.268 87.332 226.224 87.343C226.025 87.3944 225.823 87.2732 225.772 87.0748C225.72 86.8764 225.841 86.6744 226.04 86.623C226.084 86.6119 230.608 85.4658 237.179 84.3637C252.468 81.7886 279.586 79.3016 289.403 91.5749C292.475 95.41 293.772 100.535 293.155 106.394C292.585 111.801 290.428 117.712 286.911 123.487C280.329 134.298 270.167 142.916 259.693 146.59C259.469 147.582 258.374 151.979 255.658 157.114C252.813 162.492 247.561 169.817 238.675 174.185C231.012 177.951 225.334 179.975 221.578 181.316C216.253 183.215 214.882 183.788 215.419 185.643C216.451 189.206 225.026 187.167 225.11 187.145C225.308 187.098 225.511 187.219 225.558 187.417C225.606 187.616 225.485 187.818 225.286 187.865C225.092 187.913 222.699 188.483 220.222 188.483L220.218 188.479Z" fill="#3B140D"/>
<path d="M237.238 85.0984C237.146 85.0984 237.058 85.0654 236.985 84.9993C236.834 84.8597 236.827 84.6245 236.963 84.4739C243.508 77.4024 248.558 62.3372 245.676 49.366C244.338 43.3378 240.696 35.3221 230.943 31.3437C224.882 28.8714 218.84 28.471 212.986 30.1571C211.983 30.4437 210.976 30.7963 209.987 31.2078C209.796 31.2849 209.579 31.1967 209.502 31.0057C209.425 30.8147 209.513 30.598 209.704 30.5208C210.718 30.102 211.755 29.7383 212.784 29.4445C218.8 27.7142 225.007 28.122 231.226 30.6567C239.182 33.9005 244.43 40.3181 246.404 49.2081C247.734 55.1996 247.484 62.2234 245.702 68.9827C244 75.4297 241.093 81.1127 237.51 84.9809C237.437 85.0617 237.337 85.0984 237.238 85.0984Z" fill="#3B140D"/>
<path d="M192.442 46.0966C192.376 46.0966 192.306 46.0782 192.247 46.0414C192.074 45.9349 192.019 45.7035 192.129 45.5308C192.177 45.45 197.161 37.5482 205.668 32.5376C205.845 32.4347 206.073 32.4935 206.176 32.6698C206.279 32.8461 206.22 33.0739 206.043 33.1767C197.697 38.0883 192.806 45.8431 192.758 45.9202C192.688 46.0341 192.567 46.0966 192.442 46.0966Z" fill="#3B140D"/>
<path d="M188.032 117.481C180.692 117.481 175.022 116.357 174.948 116.342C174.746 116.301 174.617 116.107 174.658 115.905C174.698 115.703 174.893 115.574 175.095 115.615C175.191 115.633 184.897 117.558 195.323 116.331C209.219 114.696 217.719 108.55 220.586 98.0624C220.641 97.864 220.847 97.7464 221.042 97.8016C221.24 97.8567 221.358 98.0587 221.303 98.2571C219.674 104.212 216.209 108.866 211.005 112.095C206.859 114.667 201.608 116.342 195.397 117.069C192.861 117.367 190.365 117.481 188.039 117.481H188.032Z" fill="#3B140D"/>
<path d="M183.75 148.312C183.57 148.312 183.412 148.18 183.383 147.997C181.258 134.144 177.216 127.182 174.198 123.781C170.953 120.122 168.175 119.703 168.145 119.699C167.943 119.67 167.8 119.486 167.826 119.281C167.851 119.079 168.039 118.935 168.241 118.961C168.362 118.976 171.266 119.391 174.687 123.211C177.796 126.679 181.953 133.776 184.114 147.879C184.143 148.081 184.007 148.272 183.802 148.301C183.783 148.301 183.765 148.305 183.746 148.305L183.75 148.312Z" fill="#3B140D"/>
<path d="M259.373 146.674C259.182 146.674 259.02 146.527 259.002 146.333C256.205 111.364 231.589 97.0044 230.398 96.3321C230.281 96.2697 230.196 96.1448 230.196 96.0015C230.196 95.7958 230.362 95.6305 230.567 95.6305C230.63 95.6305 230.692 95.6452 230.751 95.6782C231.817 96.2807 256.903 110.813 259.741 146.274C259.755 146.479 259.605 146.656 259.399 146.674C259.388 146.674 259.38 146.674 259.369 146.674H259.373Z" fill="#3B140D"/>
<path d="M215.507 231C208.33 231 201.237 230.427 194.302 229.281C175.764 226.221 164.651 220.042 164.541 219.979C164.397 219.899 164.324 219.733 164.36 219.575C165.423 214.899 166.121 209.976 166.433 204.951C167.4 189.412 164.394 177.58 164.364 177.462C164.313 177.264 164.43 177.062 164.632 177.01C164.831 176.959 165.033 177.076 165.084 177.275C165.114 177.392 168.15 189.335 167.176 204.995C166.867 209.965 166.183 214.829 165.147 219.465C166.86 220.372 177.539 225.769 194.456 228.557C211.409 231.353 238.267 232.029 270.031 219.406C270.031 217.074 269.976 199.125 268.616 188.159C268.616 188.145 268.616 188.13 268.616 188.115C268.616 187.909 268.782 187.741 268.988 187.741C269.193 187.741 269.348 187.891 269.359 188.086C270.807 199.815 270.777 219.461 270.774 219.66C270.774 219.81 270.682 219.946 270.538 220.005C256.393 225.651 242.02 229.163 227.819 230.445C223.699 230.816 219.587 231.004 215.503 231.004L215.507 231Z" fill="#3B140D"/>
<path d="M166.804 205.34C166.804 205.34 166.767 205.34 166.749 205.337C151.655 203.063 143.974 197.909 140.189 193.989C136.043 189.699 135.521 185.977 135.503 185.823C135.477 185.621 135.621 185.434 135.823 185.408C136.025 185.382 136.212 185.525 136.238 185.727C136.242 185.764 136.767 189.405 140.769 193.526C144.481 197.347 152.019 202.369 166.859 204.606C167.061 204.635 167.201 204.826 167.172 205.028C167.142 205.212 166.984 205.344 166.804 205.344V205.34Z" fill="#3B140D"/>
<path d="M272.806 28.7244C271.068 28.7244 269.656 27.3101 269.656 25.5762C269.656 23.8423 271.071 22.4316 272.806 22.4316C274.54 22.4316 275.952 23.8423 275.952 25.5762C275.952 27.3101 274.54 28.7244 272.806 28.7244ZM272.806 23.17C271.479 23.17 270.399 24.25 270.399 25.5725C270.399 26.895 271.479 27.9787 272.806 27.9787C274.133 27.9787 275.209 26.8987 275.209 25.5725C275.209 24.2464 274.129 23.17 272.806 23.17Z" fill="#3B140D"/>
<path d="M285.757 50.6004C279.517 50.6004 274.441 45.5272 274.441 39.2896C274.441 33.0519 279.517 27.9788 285.757 27.9788C291.997 27.9788 297.073 33.0519 297.073 39.2896C297.073 45.5272 291.997 50.6004 285.757 50.6004ZM285.757 28.7245C279.928 28.7245 275.184 33.4633 275.184 39.2932C275.184 45.1231 279.925 49.862 285.757 49.862C291.59 49.862 296.33 45.1231 296.33 39.2932C296.33 33.4633 291.59 28.7245 285.757 28.7245Z" fill="#3B140D"/>
<path d="M312.615 110.031C308.826 110.031 305.742 106.949 305.742 103.161C305.742 99.3737 308.826 96.288 312.615 96.288C316.404 96.288 319.487 99.3701 319.487 103.161C319.487 106.952 316.404 110.031 312.615 110.031ZM312.615 97.0263C309.234 97.0263 306.485 99.7778 306.485 103.157C306.485 106.537 309.234 109.285 312.615 109.285C315.996 109.285 318.745 106.537 318.745 103.157C318.745 99.7778 315.996 97.0263 312.615 97.0263Z" fill="#3B140D"/>
<path d="M144.739 29.1873C141.214 29.1873 138.348 26.3219 138.348 22.799C138.348 19.2761 141.214 16.4108 144.739 16.4108C148.263 16.4108 151.13 19.2761 151.13 22.799C151.13 26.3219 148.263 29.1873 144.739 29.1873ZM144.739 17.1528C141.622 17.1528 139.09 19.6876 139.09 22.799C139.09 25.9105 141.626 28.4452 144.739 28.4452C147.852 28.4452 150.387 25.9105 150.387 22.799C150.387 19.6876 147.852 17.1528 144.739 17.1528Z" fill="#3B140D"/>
<path d="M129.2 92.7614C132.393 92.7614 134.981 90.1743 134.981 86.9829C134.981 83.7916 132.393 81.2045 129.2 81.2045C126.008 81.2045 123.419 83.7916 123.419 86.9829C123.419 90.1743 126.008 92.7614 129.2 92.7614Z" fill="white"/>
<path d="M262.038 68.3913C260.994 68.3913 260.145 67.5427 260.145 66.4994C260.145 65.4561 260.994 64.6075 262.038 64.6075C263.081 64.6075 263.93 65.4561 263.93 66.4994C263.93 67.5427 263.081 68.3913 262.038 68.3913ZM262.038 65.3496C261.402 65.3496 260.887 65.8676 260.887 66.4994C260.887 67.1313 261.406 67.6492 262.038 67.6492C262.67 67.6492 263.188 67.1313 263.188 66.4994C263.188 65.8676 262.67 65.3496 262.038 65.3496Z" fill="#3B140D"/>
<path d="M137.234 38.8927C136.19 38.8927 135.341 38.0442 135.341 37.0009C135.341 35.9576 136.19 35.109 137.234 35.109C138.278 35.109 139.127 35.9576 139.127 37.0009C139.127 38.0442 138.278 38.8927 137.234 38.8927ZM137.234 35.8474C136.598 35.8474 136.084 36.3654 136.084 36.9972C136.084 37.629 136.602 38.147 137.234 38.147C137.866 38.147 138.384 37.629 138.384 36.9972C138.384 36.3654 137.866 35.8474 137.234 35.8474Z" fill="#3B140D"/>
<path d="M271.101 56.5919C271.005 56.5919 270.91 56.5551 270.84 56.4817C270.697 56.3384 270.697 56.1033 270.84 55.9564L273.953 52.8449C274.096 52.7016 274.331 52.7016 274.478 52.8449C274.625 52.9881 274.622 53.2233 274.478 53.3702L271.365 56.4817C271.292 56.5551 271.196 56.5919 271.105 56.5919H271.101Z" fill="#3B140D"/>
<path d="M265.673 62.0177C265.577 62.0177 265.482 61.9809 265.412 61.9075C265.268 61.7642 265.268 61.5291 265.412 61.3821L268.525 58.2707C268.668 58.1274 268.903 58.1274 269.05 58.2707C269.193 58.4139 269.193 58.649 269.05 58.796L265.937 61.9075C265.864 61.9809 265.768 62.0177 265.676 62.0177H265.673Z" fill="#3B140D"/>
<path d="M274.214 62.0176C274.118 62.0176 274.023 61.9808 273.953 61.9074L270.84 58.7959C270.697 58.6526 270.697 58.4175 270.84 58.2706C270.983 58.1236 271.218 58.1273 271.365 58.2706L274.478 61.3821C274.622 61.5253 274.622 61.7604 274.478 61.9074C274.405 61.9808 274.309 62.0176 274.217 62.0176H274.214Z" fill="#3B140D"/>
<path d="M268.785 56.5918C268.69 56.5918 268.594 56.5551 268.525 56.4816L265.412 53.3701C265.268 53.2268 265.268 52.9917 265.412 52.8448C265.555 52.6979 265.79 52.7015 265.937 52.8448L269.05 55.9563C269.193 56.0995 269.193 56.3346 269.05 56.4816C268.977 56.5551 268.881 56.5918 268.789 56.5918H268.785Z" fill="#3B140D"/>
<path d="M143.111 78.6221C141.119 78.6221 139.498 77.002 139.498 75.011C139.498 73.0199 141.119 71.3999 143.111 71.3999C145.103 71.3999 146.723 73.0199 146.723 75.011C146.723 77.002 145.103 78.6221 143.111 78.6221ZM143.111 72.1383C141.527 72.1383 140.24 73.4277 140.24 75.0073C140.24 76.5869 141.53 77.8763 143.111 77.8763C144.691 77.8763 145.981 76.5906 145.981 75.0073C145.981 73.424 144.691 72.1383 143.111 72.1383Z" fill="#3B140D"/>
</g>
<defs>
<clipPath id="clip0_638_1304">
<rect width="221" height="225" fill="white" transform="translate(104 6)"/>
</clipPath>
</defs>
</svg>
