<svg width="430" height="237" viewBox="0 0 430 237" fill="none" xmlns="http://www.w3.org/2000/svg">
<g clip-path="url(#clip0_638_1220)">
<path d="M135.06 134.831C134.818 134.831 134.62 134.637 134.616 134.395C134.612 134.148 134.805 133.946 135.051 133.941C136.026 133.919 137.006 133.862 137.973 133.774C138.219 133.752 138.434 133.933 138.456 134.175C138.478 134.421 138.298 134.637 138.056 134.659C137.068 134.751 136.066 134.809 135.069 134.831H135.06ZM130.328 134.672C130.328 134.672 130.302 134.672 130.289 134.672C129.3 134.584 128.298 134.457 127.323 134.298C127.081 134.258 126.914 134.029 126.954 133.787C126.993 133.545 127.222 133.382 127.464 133.418C128.421 133.572 129.397 133.695 130.368 133.783C130.614 133.805 130.794 134.021 130.772 134.267C130.75 134.496 130.557 134.672 130.328 134.672ZM142.696 133.955C142.489 133.955 142.304 133.809 142.261 133.602C142.212 133.36 142.366 133.127 142.603 133.074C143.557 132.876 144.51 132.638 145.446 132.37C145.683 132.304 145.929 132.44 145.995 132.674C146.061 132.911 145.925 133.158 145.692 133.224C144.738 133.497 143.759 133.739 142.788 133.941C142.757 133.946 142.726 133.95 142.696 133.95V133.955ZM122.771 133.281C122.732 133.281 122.692 133.277 122.653 133.264C121.699 132.995 120.737 132.687 119.806 132.348C119.577 132.264 119.454 132.009 119.538 131.78C119.621 131.551 119.876 131.428 120.105 131.511C121.018 131.842 121.959 132.145 122.894 132.409C123.132 132.476 123.268 132.722 123.202 132.96C123.145 133.158 122.969 133.286 122.776 133.286L122.771 133.281ZM150.037 131.679C149.861 131.679 149.699 131.577 149.628 131.406C149.536 131.177 149.641 130.917 149.87 130.825C150.766 130.45 151.662 130.041 152.532 129.605C152.752 129.495 153.02 129.583 153.13 129.803C153.24 130.023 153.152 130.292 152.932 130.402C152.045 130.847 151.131 131.265 150.213 131.648C150.156 131.67 150.098 131.683 150.041 131.683L150.037 131.679ZM115.597 130.508C115.531 130.508 115.465 130.495 115.399 130.459C114.512 130.015 113.624 129.535 112.768 129.029C112.557 128.905 112.486 128.632 112.609 128.421C112.732 128.21 113.005 128.139 113.216 128.263C114.055 128.756 114.92 129.227 115.79 129.662C116.01 129.773 116.098 130.037 115.992 130.257C115.913 130.415 115.76 130.503 115.593 130.503L115.597 130.508ZM156.833 128.087C156.689 128.087 156.548 128.016 156.46 127.884C156.328 127.677 156.385 127.404 156.587 127.268C157.4 126.735 158.209 126.167 158.982 125.577C159.175 125.428 159.456 125.467 159.606 125.661C159.755 125.855 159.716 126.136 159.522 126.286C158.731 126.885 157.91 127.466 157.08 128.012C157.005 128.06 156.921 128.082 156.838 128.082L156.833 128.087ZM109.055 126.458C108.963 126.458 108.866 126.427 108.787 126.37C107.992 125.771 107.21 125.137 106.463 124.481C106.279 124.318 106.261 124.041 106.419 123.852C106.582 123.667 106.858 123.649 107.047 123.808C107.781 124.446 108.546 125.071 109.323 125.656C109.521 125.806 109.556 126.083 109.411 126.282C109.323 126.396 109.191 126.458 109.055 126.458ZM162.852 123.306C162.734 123.306 162.62 123.262 162.532 123.169C162.365 122.993 162.369 122.711 162.545 122.54C163.248 121.866 163.938 121.162 164.592 120.44C164.759 120.259 165.04 120.246 165.221 120.409C165.401 120.576 165.414 120.854 165.251 121.039C164.583 121.774 163.881 122.496 163.16 123.182C163.072 123.266 162.962 123.306 162.852 123.306ZM103.37 121.276C103.252 121.276 103.128 121.228 103.041 121.131C102.368 120.396 101.718 119.63 101.099 118.851C100.945 118.657 100.98 118.38 101.169 118.226C101.362 118.071 101.639 118.107 101.793 118.296C102.395 119.058 103.036 119.81 103.691 120.528C103.858 120.708 103.845 120.99 103.664 121.157C103.581 121.237 103.471 121.276 103.366 121.276H103.37ZM167.905 117.499C167.817 117.499 167.725 117.473 167.646 117.416C167.448 117.27 167.404 116.993 167.545 116.795C168.116 116.002 168.661 115.184 169.175 114.356C169.302 114.149 169.579 114.083 169.785 114.211C169.992 114.338 170.058 114.616 169.93 114.823C169.407 115.668 168.849 116.509 168.265 117.314C168.177 117.433 168.041 117.499 167.905 117.499ZM98.7219 115.144C98.5725 115.144 98.4276 115.069 98.3441 114.933C97.8169 114.087 97.316 113.216 96.8547 112.335C96.7405 112.12 96.824 111.851 97.0392 111.732C97.2545 111.618 97.5225 111.701 97.6411 111.917C98.0937 112.776 98.5857 113.634 99.0997 114.457C99.2315 114.664 99.1656 114.941 98.9592 115.069C98.8845 115.113 98.8054 115.135 98.7263 115.135L98.7219 115.144ZM171.811 110.865C171.749 110.865 171.683 110.852 171.622 110.821C171.402 110.715 171.305 110.451 171.411 110.231C171.824 109.346 172.215 108.439 172.562 107.533C172.65 107.304 172.909 107.189 173.137 107.277C173.366 107.365 173.48 107.625 173.392 107.854C173.036 108.783 172.637 109.712 172.215 110.614C172.14 110.777 171.978 110.869 171.815 110.869L171.811 110.865ZM95.2775 108.263C95.1017 108.263 94.9304 108.158 94.8645 107.982C94.5042 107.053 94.1703 106.102 93.876 105.151C93.8057 104.918 93.9331 104.667 94.1703 104.596C94.4032 104.521 94.6536 104.653 94.7239 104.891C95.0095 105.82 95.3346 106.753 95.6905 107.66C95.7783 107.889 95.6685 108.149 95.44 108.237C95.3873 108.259 95.3346 108.268 95.2775 108.268V108.263ZM174.429 103.619C174.394 103.619 174.354 103.615 174.319 103.606C174.082 103.544 173.941 103.302 174.003 103.064C174.249 102.122 174.46 101.158 174.636 100.198C174.68 99.9563 174.912 99.7978 175.154 99.8419C175.396 99.8859 175.554 100.119 175.51 100.361C175.33 101.343 175.11 102.325 174.864 103.289C174.811 103.487 174.631 103.623 174.433 103.623L174.429 103.619ZM93.1599 100.859C92.949 100.859 92.7645 100.709 92.7249 100.498C92.5404 99.5205 92.391 98.5256 92.2768 97.5351C92.2504 97.293 92.4218 97.0685 92.6678 97.0421C92.9094 97.0156 93.1335 97.1873 93.1599 97.4339C93.2697 98.4023 93.4191 99.3796 93.5992 100.335C93.6431 100.577 93.485 100.81 93.2433 100.854C93.217 100.859 93.1862 100.863 93.1599 100.863V100.859ZM175.664 96.0163C175.664 96.0163 175.642 96.0163 175.633 96.0163C175.387 95.9987 175.202 95.7874 175.22 95.5409C175.286 94.5856 175.321 93.6171 175.321 92.6531V92.6046C175.321 92.3581 175.519 92.16 175.765 92.16C176.011 92.16 176.208 92.3581 176.208 92.6046V92.6531C176.208 93.6347 176.173 94.6252 176.107 95.6025C176.09 95.8359 175.896 96.0163 175.664 96.0163ZM92.4437 93.1945C92.1977 93.1945 92 92.9964 92 92.7499V92.6575C92 91.6581 92.0351 90.6544 92.1054 89.6639C92.123 89.4174 92.3339 89.2325 92.5799 89.2501C92.826 89.2677 93.0105 89.4791 92.9929 89.7256C92.927 90.6941 92.8919 91.6802 92.8919 92.6575V92.7499C92.8919 92.9964 92.6942 93.1945 92.4481 93.1945H92.4437ZM175.492 88.3169C175.268 88.3169 175.079 88.1496 175.053 87.9207C174.943 86.9522 174.798 85.9749 174.618 85.0196C174.574 84.7775 174.732 84.5442 174.974 84.5001C175.216 84.4561 175.448 84.6146 175.492 84.8567C175.672 85.834 175.822 86.8289 175.936 87.8194C175.962 88.0615 175.787 88.2861 175.545 88.3125C175.527 88.3125 175.51 88.3125 175.492 88.3125V88.3169ZM93.1467 85.4334C93.1203 85.4334 93.094 85.4334 93.0632 85.4246C92.8216 85.3806 92.6634 85.1473 92.7073 84.9051C92.8875 83.9279 93.1071 82.9418 93.3576 81.9777C93.4191 81.74 93.6607 81.5991 93.898 81.6607C94.1352 81.7223 94.2758 81.9645 94.2143 82.2022C93.9682 83.1443 93.753 84.1083 93.5772 85.0636C93.5377 85.2793 93.3532 85.429 93.1423 85.429L93.1467 85.4334ZM173.919 80.7803C173.731 80.7803 173.555 80.657 173.493 80.4677C173.208 79.5344 172.883 78.6056 172.531 77.6987C172.443 77.4698 172.557 77.2101 172.786 77.122C173.014 77.034 173.274 77.1484 173.361 77.3774C173.722 78.3062 174.051 79.2571 174.346 80.208C174.416 80.4413 174.288 80.6922 174.051 80.7627C174.007 80.7759 173.963 80.7847 173.919 80.7847V80.7803ZM95.2467 78.0201C95.194 78.0201 95.1413 78.0113 95.0886 77.9893C94.8601 77.9012 94.7459 77.6415 94.8337 77.4126C95.194 76.4837 95.5894 75.5548 96.0156 74.6568C96.121 74.4367 96.3846 74.3398 96.6087 74.4455C96.8284 74.5511 96.925 74.8153 96.8196 75.0398C96.4022 75.9202 96.0156 76.8271 95.6641 77.7383C95.5982 77.9144 95.4269 78.0245 95.2511 78.0245L95.2467 78.0201ZM170.98 73.6663C170.822 73.6663 170.668 73.5782 170.589 73.4286C170.137 72.5701 169.649 71.7117 169.135 70.8841C169.008 70.6772 169.069 70.3998 169.276 70.2722C169.482 70.1401 169.759 70.2061 169.886 70.413C170.409 71.2583 170.91 72.1343 171.371 73.0104C171.486 73.2261 171.402 73.4946 171.187 73.6091C171.121 73.6443 171.051 73.6619 170.98 73.6619V73.6663ZM98.678 71.1262C98.5989 71.1262 98.5154 71.1042 98.4451 71.0602C98.2386 70.9325 98.1727 70.6552 98.3001 70.4483C98.823 69.603 99.3853 68.7666 99.9652 67.9566C100.11 67.7585 100.387 67.7145 100.585 67.8554C100.782 68.0006 100.826 68.278 100.686 68.4761C100.115 69.2685 99.5654 70.0873 99.0558 70.9149C98.9723 71.0514 98.8274 71.1262 98.678 71.1262ZM166.785 67.2126C166.653 67.2126 166.525 67.1554 166.437 67.0454C165.836 66.2838 165.199 65.531 164.54 64.809C164.373 64.6285 164.386 64.3468 164.566 64.1795C164.746 64.0122 165.027 64.0254 165.194 64.2059C165.866 64.9411 166.517 65.7071 167.132 66.4907C167.285 66.6844 167.25 66.9617 167.057 67.1158C166.973 67.1818 166.877 67.2126 166.78 67.2126H166.785ZM103.313 64.9807C103.208 64.9807 103.098 64.9411 103.014 64.8663C102.834 64.699 102.821 64.4172 102.984 64.2367C103.651 63.5016 104.359 62.7796 105.075 62.0929C105.251 61.9256 105.532 61.93 105.703 62.1105C105.87 62.2866 105.866 62.5683 105.685 62.74C104.983 63.4135 104.293 64.1179 103.638 64.8354C103.55 64.9323 103.432 64.9807 103.309 64.9807H103.313ZM161.482 61.6394C161.376 61.6394 161.275 61.6042 161.192 61.5294C160.458 60.8867 159.694 60.2659 158.916 59.6804C158.718 59.5308 158.683 59.2534 158.828 59.0553C158.977 58.8572 159.254 58.822 159.452 58.9673C160.243 59.566 161.025 60.2043 161.776 60.8558C161.961 61.0187 161.978 61.3005 161.82 61.4854C161.732 61.5866 161.609 61.6394 161.486 61.6394H161.482ZM108.994 59.7905C108.857 59.7905 108.726 59.7289 108.638 59.6144C108.488 59.4163 108.528 59.139 108.726 58.9893C109.517 58.3906 110.342 57.8095 111.173 57.268C111.379 57.136 111.652 57.1932 111.788 57.4001C111.92 57.607 111.863 57.8799 111.656 58.0164C110.843 58.5491 110.035 59.1126 109.262 59.7025C109.183 59.7641 109.086 59.7905 108.994 59.7905ZM155.252 57.1272C155.177 57.1272 155.098 57.1051 155.028 57.0655C154.189 56.5681 153.323 56.097 152.453 55.6656C152.234 55.5556 152.146 55.287 152.256 55.0669C152.365 54.8468 152.633 54.7588 152.849 54.8688C153.736 55.3134 154.624 55.7933 155.48 56.2995C155.691 56.4228 155.762 56.6957 155.638 56.907C155.555 57.0479 155.406 57.1272 155.256 57.1272H155.252ZM115.518 55.7317C115.355 55.7317 115.197 55.6436 115.122 55.4851C115.013 55.265 115.101 54.9965 115.32 54.8864C116.208 54.4418 117.121 54.0236 118.04 53.645C118.268 53.5526 118.527 53.6582 118.62 53.8871C118.712 54.116 118.606 54.3758 118.378 54.4682C117.482 54.838 116.585 55.2474 115.716 55.6832C115.654 55.714 115.584 55.7317 115.518 55.7317ZM148.297 53.8431C148.249 53.8431 148.196 53.8343 148.148 53.8167C147.234 53.4865 146.298 53.1828 145.362 52.9186C145.125 52.8526 144.989 52.6061 145.055 52.3684C145.121 52.1306 145.367 51.9942 145.604 52.0602C146.557 52.3331 147.519 52.6413 148.451 52.9803C148.679 53.0639 148.802 53.3192 148.719 53.5482C148.653 53.7286 148.482 53.8431 148.301 53.8431H148.297ZM122.684 52.9451C122.49 52.9451 122.315 52.8174 122.257 52.6237C122.191 52.386 122.328 52.1394 122.565 52.0734C123.518 51.8005 124.498 51.5584 125.469 51.3559C125.711 51.3074 125.943 51.4615 125.996 51.6992C126.045 51.9413 125.891 52.1747 125.653 52.2275C124.7 52.4256 123.747 52.6633 122.811 52.9274C122.771 52.9406 122.727 52.9451 122.688 52.9451H122.684ZM140.859 51.9017C140.837 51.9017 140.811 51.9017 140.789 51.8973C139.831 51.7388 138.856 51.6156 137.885 51.5275C137.639 51.5055 137.459 51.2898 137.485 51.0433C137.507 50.7968 137.718 50.6163 137.968 50.6427C138.957 50.7351 139.958 50.8584 140.934 51.0213C141.175 51.0609 141.338 51.2898 141.298 51.5319C141.263 51.7521 141.074 51.9061 140.859 51.9061V51.9017ZM130.236 51.5363C130.007 51.5363 129.814 51.3647 129.796 51.1313C129.775 50.8848 129.955 50.6691 130.196 50.6471C131.185 50.5546 132.186 50.4974 133.184 50.4798C133.447 50.4754 133.632 50.6691 133.636 50.9156C133.641 51.1622 133.447 51.3647 133.201 51.3691C132.226 51.3911 131.242 51.4439 130.28 51.5363C130.267 51.5363 130.253 51.5363 130.24 51.5363H130.236Z" fill="#3B140D"/>
<path d="M258.396 226.736C258.154 226.736 257.957 226.542 257.952 226.3C257.948 226.053 258.141 225.851 258.387 225.847C259.362 225.825 260.342 225.767 261.309 225.679C261.555 225.657 261.77 225.838 261.792 226.08C261.814 226.326 261.634 226.542 261.392 226.564C260.404 226.657 259.402 226.714 258.405 226.736H258.396ZM253.669 226.577C253.669 226.577 253.642 226.577 253.629 226.577C252.641 226.489 251.639 226.362 250.664 226.203C250.422 226.164 250.255 225.935 250.295 225.693C250.334 225.45 250.563 225.287 250.804 225.323C251.762 225.477 252.737 225.6 253.708 225.688C253.954 225.71 254.134 225.926 254.112 226.172C254.09 226.401 253.897 226.577 253.669 226.577ZM266.032 225.86C265.825 225.86 265.641 225.715 265.597 225.508C265.548 225.265 265.702 225.032 265.939 224.979C266.893 224.781 267.846 224.544 268.782 224.275C269.019 224.209 269.265 224.345 269.331 224.579C269.397 224.816 269.261 225.063 269.028 225.129C268.075 225.402 267.095 225.644 266.124 225.847C266.093 225.851 266.062 225.855 266.032 225.855V225.86ZM246.108 225.186C246.068 225.186 246.029 225.182 245.989 225.169C245.031 224.9 244.073 224.592 243.142 224.253C242.914 224.169 242.791 223.914 242.874 223.685C242.958 223.456 243.212 223.333 243.441 223.417C244.355 223.747 245.295 224.05 246.231 224.315C246.468 224.381 246.604 224.627 246.538 224.865C246.481 225.063 246.305 225.191 246.112 225.191L246.108 225.186ZM273.373 223.584C273.197 223.584 273.035 223.483 272.964 223.311C272.872 223.082 272.978 222.822 273.206 222.73C274.102 222.356 274.999 221.946 275.869 221.51C276.088 221.4 276.356 221.488 276.466 221.708C276.576 221.929 276.488 222.197 276.268 222.307C275.381 222.752 274.467 223.17 273.549 223.553C273.492 223.575 273.435 223.588 273.377 223.588L273.373 223.584ZM238.933 222.413C238.867 222.413 238.801 222.4 238.735 222.364C237.848 221.92 236.961 221.44 236.104 220.934C235.893 220.81 235.823 220.538 235.946 220.326C236.069 220.115 236.341 220.044 236.552 220.168C237.391 220.661 238.257 221.132 239.126 221.568C239.346 221.678 239.434 221.942 239.329 222.162C239.249 222.32 239.096 222.408 238.929 222.408L238.933 222.413ZM280.17 219.992C280.025 219.992 279.884 219.921 279.796 219.789C279.664 219.582 279.722 219.309 279.924 219.173C280.736 218.64 281.545 218.072 282.318 217.482C282.511 217.333 282.793 217.372 282.942 217.566C283.091 217.76 283.052 218.041 282.858 218.191C282.068 218.79 281.246 219.371 280.416 219.917C280.341 219.965 280.258 219.987 280.174 219.987L280.17 219.992ZM232.396 218.363C232.304 218.363 232.207 218.332 232.128 218.275C231.333 217.676 230.551 217.042 229.804 216.386C229.619 216.223 229.602 215.946 229.76 215.757C229.922 215.572 230.203 215.554 230.388 215.713C231.122 216.351 231.886 216.976 232.664 217.562C232.861 217.711 232.897 217.989 232.752 218.182C232.664 218.297 232.532 218.358 232.396 218.358V218.363ZM286.193 215.211C286.074 215.211 285.96 215.167 285.872 215.074C285.701 214.898 285.71 214.617 285.885 214.445C286.588 213.771 287.278 213.067 287.933 212.345C288.1 212.164 288.377 212.151 288.561 212.314C288.741 212.481 288.754 212.759 288.592 212.944C287.924 213.679 287.221 214.401 286.501 215.088C286.413 215.171 286.303 215.211 286.193 215.211ZM226.706 213.181C226.588 213.181 226.465 213.133 226.377 213.036C225.705 212.301 225.054 211.535 224.435 210.756C224.281 210.562 224.316 210.285 224.505 210.131C224.699 209.977 224.975 210.012 225.129 210.201C225.731 210.963 226.372 211.715 227.027 212.433C227.194 212.614 227.181 212.895 227.001 213.063C226.917 213.142 226.807 213.181 226.702 213.181H226.706ZM291.245 209.404C291.158 209.404 291.065 209.378 290.986 209.321C290.789 209.175 290.745 208.898 290.885 208.7C291.456 207.908 292.001 207.089 292.515 206.261C292.643 206.054 292.919 205.988 293.126 206.116C293.332 206.244 293.398 206.521 293.271 206.728C292.748 207.573 292.19 208.414 291.606 209.219C291.518 209.338 291.382 209.404 291.245 209.404ZM222.058 207.049C221.909 207.049 221.764 206.974 221.68 206.838C221.153 205.993 220.652 205.121 220.191 204.24C220.077 204.025 220.16 203.756 220.375 203.637C220.591 203.523 220.859 203.607 220.977 203.822C221.43 204.681 221.922 205.539 222.436 206.362C222.568 206.569 222.502 206.847 222.295 206.974C222.221 207.018 222.142 207.04 222.062 207.04L222.058 207.049ZM295.147 202.77C295.085 202.77 295.019 202.757 294.958 202.726C294.738 202.62 294.642 202.356 294.747 202.136C295.16 201.251 295.551 200.345 295.898 199.438C295.986 199.209 296.245 199.094 296.474 199.182C296.702 199.27 296.816 199.53 296.728 199.759C296.373 200.688 295.973 201.617 295.551 202.519C295.476 202.682 295.314 202.775 295.151 202.775L295.147 202.77ZM218.614 200.168C218.438 200.168 218.267 200.063 218.201 199.887C217.84 198.958 217.507 198.007 217.212 197.056C217.137 196.823 217.269 196.572 217.507 196.501C217.739 196.427 217.99 196.559 218.06 196.796C218.346 197.725 218.671 198.658 219.027 199.565C219.115 199.794 219.005 200.054 218.776 200.142C218.723 200.164 218.671 200.173 218.614 200.173V200.168ZM297.765 195.524C297.73 195.524 297.691 195.52 297.655 195.511C297.418 195.449 297.278 195.207 297.339 194.969C297.585 194.027 297.796 193.063 297.972 192.104C298.016 191.861 298.249 191.703 298.49 191.747C298.732 191.791 298.89 192.024 298.846 192.266C298.666 193.248 298.446 194.23 298.2 195.194C298.147 195.396 297.967 195.528 297.77 195.528L297.765 195.524ZM216.5 192.764C216.29 192.764 216.105 192.614 216.065 192.403C215.881 191.426 215.732 190.431 215.617 189.44C215.591 189.198 215.762 188.974 216.008 188.947C216.25 188.921 216.474 189.092 216.5 189.339C216.61 190.307 216.76 191.285 216.94 192.24C216.984 192.482 216.826 192.715 216.584 192.759C216.558 192.764 216.527 192.768 216.5 192.768V192.764ZM299 187.921C299 187.921 298.978 187.921 298.969 187.921C298.723 187.904 298.538 187.693 298.556 187.446C298.622 186.491 298.657 185.522 298.657 184.558V184.51C298.657 184.263 298.855 184.065 299.101 184.065C299.347 184.065 299.545 184.263 299.545 184.51V184.549C299.545 185.535 299.509 186.526 299.444 187.503C299.426 187.737 299.233 187.917 299 187.917V187.921ZM215.78 185.095C215.534 185.095 215.336 184.897 215.336 184.651V184.558C215.336 183.559 215.371 182.555 215.442 181.565C215.459 181.318 215.666 181.133 215.916 181.151C216.162 181.168 216.347 181.38 216.329 181.626C216.263 182.595 216.228 183.581 216.228 184.558V184.651C216.228 184.897 216.03 185.095 215.784 185.095H215.78ZM298.828 180.222C298.604 180.222 298.415 180.055 298.389 179.826C298.279 178.857 298.134 177.88 297.954 176.925C297.91 176.683 298.068 176.449 298.31 176.405C298.552 176.361 298.785 176.52 298.828 176.762C299.009 177.739 299.158 178.734 299.272 179.725C299.299 179.967 299.123 180.191 298.881 180.218C298.864 180.218 298.846 180.218 298.828 180.218V180.222ZM216.483 177.339C216.456 177.339 216.43 177.339 216.399 177.33C216.158 177.286 216 177.052 216.044 176.81C216.224 175.833 216.443 174.847 216.694 173.883C216.755 173.645 216.997 173.504 217.234 173.566C217.471 173.627 217.612 173.87 217.55 174.107C217.304 175.049 217.089 176.013 216.913 176.969C216.874 177.184 216.689 177.334 216.478 177.334L216.483 177.339ZM297.256 172.685C297.067 172.685 296.891 172.562 296.829 172.373C296.544 171.44 296.219 170.511 295.867 169.604C295.779 169.375 295.894 169.115 296.122 169.027C296.351 168.939 296.61 169.054 296.698 169.282C297.058 170.211 297.387 171.162 297.682 172.113C297.752 172.346 297.625 172.597 297.387 172.668C297.343 172.681 297.3 172.69 297.256 172.69V172.685ZM218.583 169.925C218.53 169.925 218.477 169.916 218.425 169.894C218.196 169.806 218.082 169.547 218.17 169.318C218.53 168.389 218.926 167.46 219.352 166.562C219.457 166.342 219.721 166.245 219.945 166.351C220.165 166.456 220.261 166.72 220.156 166.945C219.738 167.825 219.352 168.732 219 169.643C218.934 169.82 218.763 169.93 218.587 169.93L218.583 169.925ZM294.316 165.567C294.158 165.567 294.004 165.479 293.925 165.329C293.473 164.471 292.981 163.612 292.471 162.785C292.344 162.578 292.405 162.301 292.612 162.173C292.818 162.041 293.095 162.107 293.222 162.314C293.745 163.159 294.246 164.035 294.707 164.911C294.822 165.127 294.738 165.395 294.523 165.514C294.457 165.549 294.387 165.567 294.316 165.567ZM222.014 163.031C221.935 163.031 221.852 163.009 221.781 162.965C221.575 162.838 221.509 162.56 221.636 162.353C222.159 161.508 222.721 160.672 223.301 159.862C223.446 159.664 223.723 159.62 223.921 159.76C224.119 159.906 224.163 160.183 224.022 160.381C223.451 161.174 222.902 161.992 222.392 162.82C222.309 162.956 222.164 163.031 222.014 163.031ZM290.125 159.118C289.993 159.118 289.866 159.061 289.778 158.95C289.176 158.189 288.539 157.436 287.88 156.714C287.713 156.534 287.726 156.252 287.906 156.085C288.087 155.917 288.368 155.931 288.535 156.111C289.207 156.846 289.857 157.612 290.472 158.396C290.626 158.589 290.591 158.867 290.402 159.021C290.318 159.087 290.222 159.118 290.125 159.118ZM226.649 156.886C226.544 156.886 226.434 156.846 226.35 156.771C226.17 156.604 226.157 156.322 226.32 156.142C226.987 155.407 227.695 154.685 228.411 153.998C228.587 153.831 228.868 153.835 229.039 154.016C229.206 154.192 229.202 154.473 229.022 154.645C228.319 155.319 227.629 156.023 226.974 156.741C226.886 156.837 226.768 156.886 226.645 156.886H226.649ZM284.822 153.545C284.717 153.545 284.616 153.509 284.532 153.434C283.799 152.792 283.034 152.171 282.257 151.586C282.059 151.436 282.024 151.159 282.169 150.96C282.318 150.762 282.595 150.727 282.793 150.872C283.583 151.471 284.365 152.109 285.117 152.761C285.301 152.924 285.319 153.206 285.161 153.39C285.073 153.492 284.95 153.545 284.827 153.545H284.822ZM232.33 151.696C232.194 151.696 232.062 151.634 231.974 151.52C231.825 151.321 231.864 151.044 232.062 150.894C232.853 150.296 233.679 149.715 234.509 149.173C234.715 149.041 234.988 149.098 235.124 149.305C235.256 149.512 235.199 149.785 234.992 149.922C234.179 150.454 233.371 151.018 232.598 151.608C232.519 151.669 232.422 151.696 232.33 151.696ZM278.588 149.032C278.513 149.032 278.434 149.01 278.364 148.971C277.525 148.473 276.659 148.002 275.789 147.571C275.57 147.461 275.482 147.192 275.592 146.976C275.702 146.756 275.97 146.668 276.185 146.778C277.072 147.223 277.96 147.703 278.816 148.209C279.027 148.332 279.098 148.605 278.975 148.817C278.891 148.957 278.742 149.037 278.592 149.037L278.588 149.032ZM238.858 147.637C238.696 147.637 238.538 147.549 238.463 147.39C238.353 147.17 238.441 146.902 238.661 146.792C239.548 146.347 240.462 145.929 241.38 145.55C241.609 145.458 241.868 145.563 241.96 145.792C242.052 146.021 241.947 146.281 241.719 146.373C240.822 146.743 239.926 147.153 239.056 147.588C238.995 147.619 238.924 147.637 238.858 147.637ZM271.633 145.748C271.585 145.748 271.532 145.739 271.484 145.722C270.57 145.392 269.634 145.088 268.698 144.824C268.461 144.758 268.325 144.511 268.391 144.273C268.457 144.036 268.703 143.899 268.94 143.965C269.893 144.238 270.856 144.546 271.787 144.885C272.016 144.969 272.139 145.224 272.055 145.453C271.989 145.634 271.818 145.748 271.638 145.748H271.633ZM246.02 144.85C245.826 144.85 245.651 144.723 245.594 144.529C245.528 144.291 245.664 144.045 245.901 143.979C246.854 143.706 247.834 143.463 248.805 143.261C249.047 143.213 249.28 143.367 249.332 143.604C249.381 143.846 249.227 144.08 248.99 144.133C248.036 144.331 247.083 144.568 246.147 144.833C246.108 144.846 246.064 144.85 246.024 144.85H246.02ZM264.195 143.807C264.173 143.807 264.147 143.807 264.125 143.802C263.167 143.644 262.192 143.521 261.221 143.433C260.975 143.411 260.795 143.195 260.821 142.948C260.843 142.702 261.058 142.521 261.304 142.548C262.293 142.64 263.295 142.764 264.27 142.926C264.512 142.966 264.674 143.195 264.635 143.437C264.599 143.657 264.411 143.811 264.195 143.811V143.807ZM253.572 143.441C253.344 143.441 253.15 143.27 253.133 143.036C253.111 142.79 253.291 142.574 253.532 142.552C254.521 142.46 255.523 142.403 256.52 142.385C256.766 142.376 256.968 142.574 256.972 142.821C256.977 143.067 256.784 143.27 256.538 143.274C255.562 143.296 254.578 143.349 253.616 143.441C253.603 143.441 253.59 143.441 253.576 143.441H253.572Z" fill="#3B140D"/>
<path d="M173.155 85.639C194.666 78.116 206.616 56.2615 199.847 36.8257C193.077 17.3898 170.15 7.73255 148.639 15.2555C127.127 22.7785 115.177 44.6329 121.947 64.0688C128.717 83.5046 151.643 93.1619 173.155 85.639Z" fill="#FECE2E"/>
<path d="M336.915 165.629C342.566 144.803 325.431 122.003 298.643 114.706C271.855 107.408 245.558 118.375 239.907 139.201C234.256 160.028 251.391 182.827 278.179 190.125C304.967 197.423 331.264 186.456 336.915 165.629Z" fill="#3A3936"/>
<path d="M251.259 209.621C312.525 183.488 345.741 123.587 325.451 75.8289C305.16 28.071 239.047 10.541 177.782 36.6746C116.516 62.8081 83.2999 122.709 103.59 170.467C123.881 218.225 189.994 235.755 251.259 209.621Z" fill="#DCDCDC"/>
<path d="M312.621 113.612C313.78 108.691 310.738 103.759 305.826 102.597C300.914 101.436 295.992 104.484 294.833 109.406C293.673 114.328 296.716 119.259 301.628 120.421C306.54 121.583 311.461 118.534 312.621 113.612Z" fill="#FBFBFB"/>
<path d="M306.587 87.0402C308.16 87.0402 309.438 88.3212 309.438 89.9016C309.438 91.482 308.16 92.7586 306.587 92.7586C305.014 92.7586 303.731 91.482 303.731 89.9016C303.731 88.3212 305.01 87.0402 306.587 87.0402Z" fill="#FBFBFB"/>
<path d="M288.161 66.6447C303.059 69.1055 292.348 87.815 283.495 75.5944C284.133 89.5979 268.65 86.1817 273.584 74.463C260.575 82.9021 258.651 66.2573 269.582 64.941C267.099 63.3298 266.194 61.0363 266.357 58.9056C266.414 58.8704 266.471 58.8264 266.524 58.7911L269.437 61.7098L274.032 57.1051L271.115 54.182C271.33 53.8651 271.541 53.5437 271.739 53.2135C274.256 53.1123 277.283 54.86 279.959 59.8741C282.16 42.8463 301.68 56.9906 288.161 66.6403V66.6447ZM279.019 71.5664C280.996 71.5664 282.599 69.9596 282.599 67.9786C282.599 65.9976 280.996 65.1039 279.019 65.1039C277.042 65.1039 275.438 65.9976 275.438 67.9786C275.438 69.9596 277.042 71.5664 279.019 71.5664Z" fill="#FECE2E"/>
<path d="M282.604 67.9743C282.604 69.9553 281 71.5621 279.023 71.5621C277.046 71.5621 275.442 69.9553 275.442 67.9743C275.442 65.9933 277.046 65.0996 279.023 65.0996C281 65.0996 282.604 65.9933 282.604 67.9743Z" fill="white"/>
<path d="M278.113 40.7157V47.2265H273.992C273.601 49.3792 272.828 51.4042 271.739 53.218C271.541 53.5481 271.33 53.8695 271.115 54.1864L274.032 57.1095L269.436 61.7142L266.524 58.7956C266.466 58.8308 266.414 58.8748 266.357 58.91C264.349 60.2703 262.051 61.2212 259.578 61.679V65.8083H253.08V61.679C250.536 61.2124 248.181 60.2131 246.129 58.7956L243.217 61.7142L238.621 57.1095L241.534 54.1864C240.119 52.135 239.122 49.7754 238.656 47.2265H234.535V40.7157H238.656C239.122 38.1668 240.119 35.8072 241.534 33.7557L238.621 30.8371L243.217 26.2324L246.129 29.1554C248.177 27.7379 250.536 26.7386 253.08 26.272V22.1427H259.578V26.272C262.121 26.7386 264.476 27.7423 266.524 29.1554L269.436 26.2324L274.032 30.8371L271.115 33.7557C272.529 35.8072 273.527 38.1668 273.992 40.7157H278.113ZM264.353 43.9733C264.353 39.5315 260.759 35.9304 256.326 35.9304C251.894 35.9304 248.295 39.5315 248.295 43.9733C248.295 48.4151 251.889 52.0206 256.326 52.0206C260.764 52.0206 264.353 48.4195 264.353 43.9733Z" fill="#3A3936"/>
<path d="M264.178 90.2274C271.11 83.536 274.713 96.6018 265.408 96.078C271.08 102.4 259.828 106.837 260.224 98.3627C255.597 104.728 250.005 97.7816 256.269 94.3787C247.61 93.5071 252.592 85.5302 257.847 88.7967C255.98 83.1662 265.922 80.789 264.173 90.223L264.178 90.2274ZM261.291 95.0654C262.28 95.0654 263.084 94.2598 263.084 93.2693C263.084 92.2788 262.28 91.8342 261.291 91.8342C260.303 91.8342 259.499 92.2788 259.499 93.2693C259.499 94.2598 260.303 95.0654 261.291 95.0654Z" fill="#3A3936"/>
<path d="M281.843 188.723C264.147 197.549 246.437 202.651 230.001 205.394C201.936 210.078 177.579 207.877 163.287 205.579C154.76 204.205 149.822 202.801 149.822 202.801C150.116 197.465 152.646 189.145 159.048 182.273C159.579 181.701 160.142 181.138 160.73 180.587C163.344 178.14 166.512 175.939 170.317 174.222C175.233 171.994 178.748 169.454 181.248 167.051C182.139 166.192 182.939 165.254 183.638 164.264C183.638 164.264 201.532 176.832 226.065 148.592C228.907 150.388 232.527 152.149 237.119 153.681C255.017 159.659 275.376 167.513 280.684 183.422C280.952 184.21 281.176 185.012 281.36 185.839C281.571 186.777 281.734 187.737 281.843 188.727V188.723Z" fill="#FBFBFB"/>
<path d="M263.079 93.2693C263.079 94.2598 262.275 95.0655 261.287 95.0655C260.298 95.0655 259.494 94.2598 259.494 93.2693C259.494 92.2789 260.298 91.8342 261.287 91.8342C262.275 91.8342 263.079 92.2789 263.079 93.2693Z" fill="white"/>
<path d="M247.645 76.2855L246.38 81.0443L243.371 80.2387C242.536 82.0128 241.35 83.5404 239.917 84.7686L241.481 87.4716L237.229 89.9412L235.665 87.2382C234.412 87.6873 233.086 87.9558 231.728 88.0174C231.166 88.0482 230.599 88.0394 230.028 87.991L229.228 91.0109L224.479 89.7431L225.283 86.7276C223.512 85.8912 221.988 84.7026 220.762 83.2674L218.065 84.8346L215.6 80.5733L217.687 79.3583L218.293 79.0061C217.656 77.2276 217.384 75.3082 217.537 73.3581L214.528 72.5524L215.793 67.7936L218.803 68.5949C219.637 66.8208 220.824 65.2932 222.256 64.0694L220.692 61.3664L224.945 58.8924L226.509 61.5997C228.279 60.9614 230.195 60.6885 232.145 60.8425L232.945 57.827L237.694 59.0905L236.89 62.1104C238.661 62.9468 240.185 64.1354 241.411 65.5705L244.109 64.0033L246.573 68.2647L243.876 69.8275C244.513 71.606 244.785 73.5253 244.631 75.4755L247.641 76.2811L247.645 76.2855ZM236.952 75.9818C237.817 72.7329 235.884 69.4049 232.642 68.5376C229.404 67.6748 226.078 69.6074 225.217 72.8562C224.351 76.105 226.285 79.4375 229.523 80.3003C232.765 81.1632 236.091 79.2306 236.952 75.9818Z" fill="#FBFBFB"/>
<path d="M171.6 94.4756C171.411 95.4661 171.297 96.5314 171.257 97.6804C171.244 98.1162 171.226 98.5476 171.213 98.9614C171.213 98.9614 161.816 94.2599 163.858 84.3329C164.355 81.9204 166.235 78.5131 167.927 76.7258C177.821 66.3058 187.126 66.1121 188.492 66.1517C187.961 66.1517 187.614 66.2706 187.473 66.5171C186.362 68.4409 198.395 77.483 214.356 86.7145C230.309 95.9459 244.144 101.867 245.251 99.9431C245.299 99.8639 245.321 99.767 245.321 99.6658C247.926 118.129 231.394 125.133 231.394 125.133H231.368C231.798 132.321 226.737 138.537 217.919 136.873C217.129 136.724 216.386 136.539 215.705 136.332C204.84 132.991 206.435 122.482 206.435 122.482C209.049 121.113 210.833 117.754 210.71 113.881C210.552 108.893 207.287 104.944 203.412 105.072C201.747 105.125 200.236 105.921 199.08 107.211C191.089 102.008 188.185 93.9341 187.253 87.322C180.022 94.0618 174.904 95.1051 171.613 94.4844L171.6 94.4756Z" fill="#FECE2E"/>
<path d="M245.312 99.657V99.6658C245.312 99.7671 245.29 99.8639 245.242 99.9432C244.135 101.867 230.304 95.9459 214.347 86.7145C198.391 77.4874 186.357 68.4409 187.464 66.5171C187.605 66.2706 187.952 66.1517 188.483 66.1517C188.541 66.1517 188.593 66.1517 188.655 66.1517C192.438 66.3146 204.247 71.6325 217.678 79.354L215.591 80.569L218.056 84.8303L220.753 83.2632C221.974 84.6983 223.503 85.8869 225.274 86.7233L224.47 89.7388L229.219 91.0067L230.019 87.9867C230.59 88.0352 231.157 88.044 231.719 88.0131C239.557 93.2474 244.798 97.588 245.268 99.3973C245.281 99.4809 245.295 99.5646 245.303 99.6482L245.312 99.657Z" fill="#3A3936"/>
<path d="M229.175 16.6752C230.722 9.01975 240.69 12.8189 233.982 19.6379C240.664 21.2359 233.894 29.7542 230.269 23.9213C230.072 31.7 219.765 27.355 225.806 21.2051C218.899 19.0392 223.785 10.4329 229.171 16.6752H229.175ZM229.61 22.1384C230.599 22.1384 231.403 21.3327 231.403 20.3423C231.403 19.3518 230.599 18.9071 229.61 18.9071C228.622 18.9071 227.818 19.3518 227.818 20.3423C227.818 21.3327 228.617 22.1384 229.61 22.1384Z" fill="#FECE2E"/>
<path d="M231.376 45.7959L230.836 48.8554L228.899 48.512C228.468 49.6698 227.805 50.6955 226.97 51.5407L228.099 53.1564L225.555 54.9349L224.43 53.3192C223.35 53.8167 222.159 54.0896 220.925 54.094L220.582 56.0354L217.528 55.4939L217.871 53.557C216.716 53.1255 215.692 52.4608 214.844 51.6244L213.232 52.7514L211.457 50.2069L213.069 49.0755C212.683 48.2259 212.432 47.3102 212.34 46.3593C212.309 46.0996 212.296 45.8355 212.296 45.5669L210.358 45.2236L210.899 42.164L212.836 42.5074C212.99 42.0892 213.179 41.6886 213.394 41.3056C213.768 40.6321 214.233 40.0157 214.765 39.4787L213.64 37.8631L216.184 36.0846L217.309 37.7002C218.39 37.2027 219.58 36.9298 220.815 36.921L221.157 34.984L224.211 35.5255L223.868 37.4669C225.024 37.8983 226.047 38.563 226.895 39.3994L228.508 38.2681L230.282 40.8169L228.67 41.9483C229.167 43.0269 229.435 44.2199 229.443 45.4569L231.381 45.8003L231.376 45.7959ZM224.637 46.1788C225.002 44.0922 223.613 42.098 221.531 41.7282C219.448 41.3584 217.463 42.7495 217.089 44.8362C216.724 46.9228 218.113 48.9126 220.195 49.2868C222.278 49.6566 224.264 48.2611 224.637 46.1788Z" fill="#FECE2E"/>
<path d="M231.403 20.3422C231.403 21.3327 230.599 22.1383 229.61 22.1383C228.622 22.1383 227.818 21.3327 227.818 20.3422C227.818 19.3517 228.617 18.9071 229.61 18.9071C230.603 18.9071 231.403 19.3517 231.403 20.3422Z" fill="#3A3936"/>
<path d="M206.422 122.478C206.422 122.478 204.827 132.986 215.692 136.327C215.692 136.327 216.663 142.658 226.065 148.588C201.536 176.828 183.642 164.259 183.642 164.259C186.805 159.747 187.882 154.011 186.208 148.649C184.297 142.526 179.938 141.324 174.886 138.489C170.159 135.843 170.242 131.771 169.978 127.743C169.781 124.697 169.618 122.623 169.517 121.399C169.456 120.647 169.016 119.96 168.331 119.634C167.856 119.401 167.461 119.15 167.127 118.881C165.506 117.592 165.638 115.153 167.294 113.938C167.325 113.916 167.356 113.894 167.391 113.872C170.33 111.873 170.87 107.968 171.217 98.9702C171.231 98.5564 171.248 98.1249 171.261 97.6891C171.301 96.5401 171.419 95.4748 171.604 94.4887C174.899 95.105 180.013 94.0617 187.245 87.3219C188.176 93.9384 191.076 102.008 199.072 107.211C200.227 105.917 201.738 105.124 203.403 105.072C207.278 104.948 210.543 108.893 210.701 113.88C210.824 117.754 209.036 121.113 206.426 122.482L206.422 122.478ZM181.7 103.579C181.902 102.677 180.206 101.537 177.913 101.026C175.624 100.515 173.603 100.832 173.405 101.735C173.208 102.633 174.903 103.777 177.192 104.288C179.486 104.794 181.502 104.477 181.7 103.579ZM177.636 112.855C178.396 112.828 178.972 111.631 178.928 110.178C178.879 108.725 178.229 107.563 177.469 107.585C176.709 107.612 176.134 108.809 176.178 110.262C176.226 111.719 176.876 112.881 177.632 112.855H177.636Z" fill="#FBFBFB"/>
<path d="M213.394 41.3012C213.179 41.6886 212.99 42.0848 212.836 42.503L210.899 42.1596L210.358 45.2192L212.296 45.5626C212.296 45.8311 212.309 46.0952 212.34 46.355C209.546 50.0968 202.824 50.7396 201.154 42.0584C195.803 55.0097 183.225 45.3336 192.657 36.8198C177.302 38.9284 182.61 23.0408 193.066 26.4921C187.482 17.5336 203.702 9.25306 204.612 26.3205C213.816 11.8416 225.498 32.9458 209.172 35.9349C211.672 37.6518 212.955 39.5227 213.394 41.2924V41.3012ZM201.361 37.0399C203.338 37.0399 204.941 35.4331 204.941 33.4521C204.941 31.4711 203.338 30.5818 201.361 30.5818C199.384 30.5818 197.78 31.4711 197.78 33.4521C197.78 35.4331 199.384 37.0399 201.361 37.0399Z" fill="#3A3936"/>
<path d="M204.946 33.452C204.946 35.433 203.342 37.0398 201.365 37.0398C199.388 37.0398 197.784 35.433 197.784 33.452C197.784 31.471 199.388 30.5818 201.365 30.5818C203.342 30.5818 204.946 31.471 204.946 33.452Z" fill="white"/>
<path d="M177.913 101.03C180.206 101.537 181.902 102.677 181.7 103.584C181.502 104.482 179.486 104.799 177.192 104.292C174.903 103.782 173.208 102.642 173.405 101.739C173.607 100.837 175.624 100.52 177.913 101.03Z" fill="#FECE2E"/>
<path d="M178.928 110.178C178.972 111.631 178.392 112.828 177.636 112.855C176.881 112.881 176.23 111.719 176.182 110.262C176.138 108.809 176.714 107.612 177.474 107.585C178.234 107.563 178.884 108.721 178.932 110.178H178.928Z" fill="#3B140D"/>
<path d="M171.007 35.433C174.442 35.433 177.228 38.2284 177.228 41.6709C177.228 45.1135 174.442 47.9045 171.007 47.9045C167.571 47.9045 164.786 45.1091 164.786 41.6709C164.786 38.2328 167.571 35.433 171.007 35.433Z" fill="#FBFBFB"/>
<path d="M149.822 47.702C157.022 47.702 162.861 53.5526 162.861 60.7722C162.861 67.9918 157.022 73.838 149.822 73.838C142.621 73.838 136.778 67.9874 136.778 60.7722C136.778 53.557 142.616 47.702 149.822 47.702Z" fill="#FBFBFB"/>
<path d="M163.05 190.453L160.889 189.489C162.04 186.896 161.209 183.92 159.052 182.269C159.584 181.697 160.146 181.133 160.735 180.583C163.56 182.92 164.61 186.944 163.05 190.453Z" fill="white"/>
<path d="M262.864 177.246L260.702 176.282C262.047 173.258 260.685 169.696 257.662 168.349C254.64 167.002 251.09 168.367 249.745 171.395L247.584 170.431C249.46 166.21 254.411 164.304 258.624 166.183C262.838 168.063 264.74 173.024 262.864 177.246Z" fill="white"/>
<path d="M199.766 195.018L201.883 193.952C203.364 196.915 206.975 198.117 209.932 196.629C212.889 195.145 214.088 191.527 212.603 188.564L214.721 187.499C216.79 191.628 215.116 196.677 210.995 198.746C206.874 200.82 201.835 199.143 199.77 195.013L199.766 195.018Z" fill="white"/>
<path d="M281.365 185.835C278.316 185.817 275.385 184.122 273.927 181.212L276.044 180.147C276.98 182.014 278.759 183.185 280.688 183.418C280.956 184.206 281.18 185.007 281.365 185.835Z" fill="white"/>
<path d="M197.02 176.625L194.819 177.506C193.593 174.429 190.1 172.923 187.029 174.151C183.958 175.379 182.456 178.879 183.682 181.956L181.481 182.837C179.772 178.545 181.867 173.658 186.151 171.95C190.434 170.238 195.311 172.338 197.016 176.63L197.02 176.625Z" fill="white"/>
<path d="M252.9 195.194L250.699 196.074C249.473 192.997 245.98 191.492 242.909 192.72C239.838 193.948 238.336 197.448 239.561 200.525L237.36 201.405C235.651 197.113 237.747 192.227 242.03 190.519C246.314 188.806 251.191 190.906 252.895 195.198L252.9 195.194Z" fill="white"/>
<path d="M232.053 163.48L230.542 165.307C227.998 163.19 224.211 163.542 222.097 166.091C219.984 168.64 220.336 172.434 222.879 174.552L221.368 176.379C217.823 173.425 217.331 168.133 220.279 164.576C223.227 161.024 228.507 160.531 232.057 163.485L232.053 163.48Z" fill="white"/>
<path d="M183.704 205.574L181.41 204.984C182.227 201.775 180.29 198.496 177.087 197.677C173.884 196.858 170.611 198.799 169.794 202.009L167.501 201.419C168.643 196.942 173.208 194.23 177.676 195.374C182.144 196.519 184.85 201.093 183.708 205.57L183.704 205.574Z" fill="white"/>
<path d="M179.275 104.975C178.598 104.975 177.852 104.891 177.096 104.724C174.82 104.218 172.672 102.994 172.971 101.642C173.274 100.287 175.734 100.088 178.01 100.595C179.868 101.004 181.366 101.805 181.924 102.681C182.188 103.1 182.188 103.456 182.135 103.676C181.999 104.301 181.344 104.737 180.303 104.9C179.987 104.948 179.644 104.975 179.279 104.975H179.275ZM175.844 101.233C174.675 101.233 173.911 101.515 173.84 101.836C173.735 102.312 175.057 103.359 177.289 103.857C178.344 104.09 179.367 104.152 180.167 104.024C180.923 103.905 181.235 103.659 181.27 103.487C181.292 103.377 181.23 103.249 181.177 103.161C180.839 102.629 179.644 101.867 177.821 101.466C177.087 101.303 176.419 101.237 175.844 101.237V101.233Z" fill="#3B140D"/>
<path d="M227.071 28.5479C225.81 28.5479 224.571 27.8612 223.925 26.7298C223.49 25.9726 222.783 23.996 225.028 21.3943C223.152 20.6151 222.023 19.224 221.961 17.5776C221.909 16.094 222.761 14.7469 224.083 14.2231C224.821 13.9325 226.693 13.5539 228.942 15.7771C229.597 13.6508 231.012 12.2729 232.831 12.0352C234.338 11.8371 235.765 12.5414 236.385 13.7873C236.763 14.5488 237.316 16.5607 234.794 19.4177C236.328 19.9724 237.215 21.0157 237.255 22.354C237.303 24.018 236.011 25.7217 234.311 26.2323C232.962 26.6417 231.653 26.2323 230.603 25.0966C230.173 27.5882 228.617 28.2662 227.901 28.4466C227.629 28.5171 227.348 28.5479 227.071 28.5479ZM225.305 14.8834C224.997 14.8834 224.698 14.9406 224.413 15.0507C223.442 15.4337 222.814 16.4374 222.853 17.5424C222.906 18.9995 224.031 20.1793 225.942 20.778C226.091 20.8264 226.201 20.9453 226.24 21.0949C226.28 21.2446 226.236 21.4031 226.126 21.5132C224.457 23.2124 223.934 24.9513 224.698 26.2852C225.283 27.3065 226.57 27.8656 227.686 27.5794C228.995 27.2492 229.777 25.9066 229.825 23.9036C229.83 23.7055 229.962 23.5382 230.151 23.4854C230.34 23.4325 230.542 23.5118 230.643 23.679C231.561 25.1582 232.769 25.7613 234.052 25.3739C235.366 24.9777 236.402 23.6306 236.363 22.3716C236.332 21.2578 235.445 20.439 233.872 20.0648C233.718 20.0296 233.591 19.9107 233.547 19.7567C233.503 19.6026 233.547 19.4353 233.657 19.3209C235.55 17.3971 236.253 15.5217 235.585 14.1791C235.133 13.2722 234.074 12.7615 232.94 12.9112C231.293 13.1269 230.045 14.5665 229.601 16.7588C229.566 16.926 229.443 17.0581 229.281 17.1021C229.118 17.1462 228.942 17.0933 228.833 16.9613C227.66 15.601 226.416 14.879 225.3 14.879L225.305 14.8834Z" fill="#3B140D"/>
<path d="M171.007 48.3491C167.334 48.3491 164.342 45.3556 164.342 41.671C164.342 37.9863 167.329 34.9884 171.007 34.9884C174.684 34.9884 177.671 37.9863 177.671 41.671C177.671 45.3556 174.684 48.3491 171.007 48.3491ZM171.007 35.8777C167.821 35.8777 165.229 38.475 165.229 41.671C165.229 44.867 167.821 47.4599 171.007 47.4599C174.192 47.4599 176.784 44.8626 176.784 41.671C176.784 38.4794 174.192 35.8777 171.007 35.8777Z" fill="#3B140D"/>
<path d="M149.822 74.2869C142.384 74.2869 136.334 68.2251 136.334 60.7765C136.334 53.328 142.384 47.2617 149.822 47.2617C157.26 47.2617 163.305 53.3236 163.305 60.7765C163.305 68.2295 157.255 74.2869 149.822 74.2869ZM149.822 48.1466C142.876 48.1466 137.221 53.8122 137.221 60.7721C137.221 67.732 142.876 73.3933 149.822 73.3933C156.768 73.3933 162.418 67.732 162.418 60.7721C162.418 53.8122 156.768 48.1466 149.822 48.1466Z" fill="#3B140D"/>
<path d="M201.361 117.288C201.123 117.288 200.926 117.098 200.917 116.856C200.917 116.768 200.864 114.721 201.756 112.78C202.433 111.314 203.456 110.306 204.796 109.782C205.025 109.694 205.284 109.808 205.372 110.037C205.46 110.266 205.345 110.526 205.117 110.614C203.997 111.05 203.14 111.904 202.56 113.154C201.756 114.906 201.8 116.812 201.804 116.83C201.813 117.076 201.62 117.279 201.374 117.288C201.369 117.288 201.365 117.288 201.361 117.288Z" fill="#3B140D"/>
<path d="M206.422 116.038C206.242 116.038 206.075 115.928 206.009 115.751C205.961 115.624 204.827 112.811 202.261 113.396C202.024 113.449 201.783 113.299 201.73 113.062C201.677 112.824 201.826 112.582 202.064 112.529C204.726 111.926 206.347 114.162 206.835 115.43C206.923 115.659 206.809 115.919 206.58 116.007C206.527 116.029 206.475 116.038 206.422 116.038Z" fill="#3B140D"/>
<path d="M196.176 208.612C183.058 208.612 171.771 207.392 163.217 206.015C154.76 204.654 149.751 203.237 149.699 203.224C149.501 203.166 149.365 202.977 149.378 202.77C149.791 195.317 154.624 180.829 170.132 173.808C174.451 171.849 178.089 169.467 180.94 166.725C181.806 165.897 182.588 164.977 183.273 164C186.463 159.448 187.376 153.897 185.777 148.777C184.248 143.873 181.133 142.262 177.188 140.219C176.371 139.796 175.527 139.361 174.662 138.872C170.036 136.283 169.803 132.361 169.579 128.571C169.561 128.302 169.548 128.034 169.53 127.765C169.328 124.684 169.17 122.619 169.069 121.43C169.016 120.818 168.66 120.281 168.133 120.03C167.641 119.793 167.211 119.52 166.842 119.225C165.985 118.542 165.506 117.526 165.528 116.434C165.55 115.298 166.095 114.255 167.026 113.572C167.057 113.55 167.096 113.524 167.136 113.493C169.812 111.671 170.413 108.096 170.765 98.9438L170.809 97.6671C170.848 96.5182 170.967 95.422 171.16 94.3963C171.204 94.1542 171.437 93.9957 171.679 94.0441C171.92 94.0881 172.079 94.3215 172.03 94.5636C171.846 95.5409 171.731 96.5974 171.692 97.698L171.648 98.979C171.31 107.717 170.804 112.071 167.624 114.233C167.593 114.25 167.567 114.268 167.545 114.286C166.837 114.805 166.424 115.593 166.407 116.447C166.389 117.257 166.749 118.014 167.386 118.525C167.707 118.78 168.085 119.018 168.511 119.225C169.32 119.608 169.869 120.427 169.943 121.355C170.044 122.548 170.207 124.618 170.405 127.708C170.422 127.976 170.44 128.249 170.453 128.518C170.673 132.233 170.884 135.746 175.084 138.097C175.94 138.577 176.775 139.008 177.584 139.431C181.546 141.482 184.969 143.257 186.612 148.513C188.295 153.901 187.337 159.734 183.989 164.51C183.273 165.536 182.447 166.496 181.546 167.367C178.625 170.18 174.904 172.619 170.493 174.622C155.616 181.358 150.814 195.115 150.278 202.466C151.539 202.801 156.201 203.99 163.349 205.138C178.559 207.586 202.455 209.541 229.918 204.954C248.133 201.916 265.434 196.369 281.356 188.463C279.062 169.674 257.254 160.874 236.969 154.095C232.712 152.673 228.96 150.947 225.819 148.962C216.355 142.992 215.288 136.658 215.244 136.393C215.204 136.151 215.371 135.922 215.617 135.887C215.859 135.848 216.087 136.015 216.122 136.261C216.131 136.323 217.203 142.477 226.293 148.213C229.377 150.159 233.063 151.854 237.255 153.254C257.913 160.152 280.13 169.15 282.283 188.674C282.305 188.859 282.208 189.04 282.041 189.123C265.966 197.144 248.48 202.766 230.072 205.834C217.933 207.859 206.488 208.612 196.176 208.616V208.612Z" fill="#3B140D"/>
<path d="M203.799 123.579C202.837 123.579 201.905 123.354 201.022 122.905C200.803 122.795 200.715 122.526 200.829 122.306C200.939 122.086 201.207 121.998 201.426 122.108C202.235 122.518 203.087 122.711 203.966 122.685C204.748 122.663 205.508 122.456 206.224 122.077C208.75 120.752 210.376 117.459 210.262 113.885C210.187 111.569 209.422 109.421 208.109 107.832C206.822 106.273 205.161 105.45 203.421 105.503C201.941 105.547 200.513 106.256 199.406 107.497C198.997 107.937 198.637 108.448 198.325 109.02C198.206 109.236 197.938 109.315 197.723 109.197C197.508 109.078 197.428 108.809 197.547 108.593C197.894 107.959 198.298 107.392 198.751 106.903C200.021 105.485 201.673 104.671 203.399 104.618C205.42 104.557 207.331 105.494 208.799 107.268C210.24 109.007 211.074 111.349 211.153 113.858C211.277 117.768 209.462 121.386 206.641 122.865C205.807 123.306 204.919 123.548 203.997 123.574C203.935 123.574 203.874 123.574 203.812 123.574L203.799 123.579Z" fill="#3B140D"/>
<path d="M175.453 125.577C174.794 125.577 174.078 125.511 173.304 125.348C173.063 125.3 172.909 125.062 172.957 124.824C173.006 124.582 173.243 124.428 173.48 124.477C177.737 125.357 180.026 123.138 180.048 123.112C180.224 122.94 180.505 122.94 180.677 123.112C180.848 123.288 180.848 123.57 180.677 123.741C180.589 123.829 178.796 125.573 175.453 125.573V125.577Z" fill="#3B140D"/>
<path d="M176.758 128.197C176.415 128.197 176.041 128.161 175.642 128.078C175.4 128.029 175.246 127.792 175.295 127.554C175.343 127.312 175.58 127.158 175.817 127.206C177.808 127.615 178.862 126.625 178.906 126.581C179.082 126.409 179.363 126.414 179.534 126.59C179.706 126.766 179.706 127.043 179.534 127.215C179.486 127.263 178.528 128.197 176.762 128.197H176.758Z" fill="#3B140D"/>
<path d="M306.587 93.1989C304.768 93.1989 303.288 91.7198 303.288 89.8972C303.288 88.0747 304.768 86.5912 306.587 86.5912C308.406 86.5912 309.882 88.0747 309.882 89.8972C309.882 91.7198 308.406 93.1989 306.587 93.1989ZM306.587 87.4848C305.26 87.4848 304.179 88.5678 304.179 89.9017C304.179 91.2355 305.26 92.3141 306.587 92.3141C307.914 92.3141 308.995 91.2311 308.995 89.9017C308.995 88.5722 307.914 87.4848 306.587 87.4848Z" fill="#3B140D"/>
<path d="M303.731 121.113C298.446 121.113 294.149 116.804 294.149 111.512C294.149 106.221 298.451 101.911 303.731 101.911C309.012 101.911 313.313 106.221 313.313 111.512C313.313 116.804 309.012 121.113 303.731 121.113ZM303.731 102.8C298.938 102.8 295.037 106.709 295.037 111.512C295.037 116.315 298.938 120.224 303.731 120.224C308.525 120.224 312.426 116.315 312.426 111.512C312.426 106.709 308.525 102.8 303.731 102.8Z" fill="#3B140D"/>
<path d="M199.063 107.651C198.98 107.651 198.896 107.629 198.821 107.581C190.47 102.14 187.671 93.5907 186.797 87.3792C185.918 81.128 186.761 76.2416 186.797 76.0347C186.841 75.7926 187.069 75.6297 187.311 75.6737C187.552 75.7177 187.715 75.9466 187.671 76.1887C187.662 76.2372 186.814 81.1501 187.671 87.2515C188.519 93.2826 191.225 101.576 199.3 106.833C199.507 106.965 199.564 107.242 199.432 107.449C199.349 107.581 199.204 107.651 199.059 107.651H199.063Z" fill="#3B140D"/>
<path d="M173.322 95.0786C172.707 95.0786 172.101 95.0214 171.516 94.9113C168.133 94.2774 166.574 92.0015 166.512 91.9046C166.376 91.7021 166.429 91.4248 166.635 91.2883C166.837 91.1518 167.114 91.2047 167.25 91.4116C167.272 91.4424 168.687 93.4806 171.683 94.0397C174.605 94.59 179.622 93.8108 186.941 86.9917C187.122 86.8245 187.403 86.8333 187.57 87.0137C187.737 87.1942 187.728 87.476 187.548 87.6433C182.241 92.587 177.469 95.083 173.331 95.083L173.322 95.0786Z" fill="#3B140D"/>
<path d="M220.736 137.591C219.844 137.591 218.873 137.503 217.827 137.305C217.041 137.155 216.281 136.97 215.565 136.75C204.462 133.338 205.965 122.518 205.983 122.408C206.018 122.165 206.246 121.998 206.488 122.033C206.729 122.069 206.896 122.298 206.861 122.54C206.8 122.953 205.464 132.713 215.824 135.896C216.509 136.107 217.238 136.283 217.994 136.429C221.799 137.146 225.076 136.411 227.471 134.294C229.878 132.167 231.135 128.835 230.915 125.155C230.867 124.292 230.735 123.425 230.524 122.579C230.467 122.342 230.612 122.099 230.849 122.042C231.086 121.981 231.328 122.13 231.385 122.368C231.609 123.266 231.745 124.186 231.803 125.102C232.04 129.059 230.673 132.656 228.059 134.963C226.61 136.244 224.25 137.586 220.74 137.591H220.736Z" fill="#3B140D"/>
<path d="M171.204 99.406C171.139 99.406 171.068 99.3928 171.007 99.3576C170.91 99.3092 161.328 94.3875 163.415 84.2404C163.911 81.8324 165.787 78.3238 167.597 76.4177C177.742 65.7335 187.434 65.6763 188.497 65.7027C188.62 65.7027 188.686 65.7071 188.686 65.7027C188.932 65.7203 189.116 65.9316 189.099 66.1737C189.081 66.4202 188.875 66.6051 188.629 66.5875C188.629 66.5875 188.572 66.5875 188.484 66.5875C187.442 66.5611 178.12 66.6183 168.239 77.0252C166.556 78.7993 164.742 82.1846 164.28 84.4165C162.334 93.8813 171.029 98.3715 171.402 98.5564C171.622 98.6665 171.71 98.935 171.6 99.1551C171.521 99.3092 171.367 99.4016 171.204 99.4016V99.406Z" fill="#3B140D"/>
<path d="M245.304 100.088C245.088 100.088 244.899 99.9342 244.869 99.7141V99.6921C244.86 99.6217 244.851 99.5512 244.838 99.4808C244.838 99.472 244.838 99.4676 244.838 99.4588C244.838 99.4324 244.829 99.4016 244.829 99.3796C244.829 99.133 245.027 98.9349 245.273 98.9349C245.501 98.9349 245.69 99.1066 245.712 99.3267C245.712 99.3267 245.712 99.3267 245.712 99.3311C245.725 99.4104 245.739 99.494 245.747 99.5733C245.778 99.8154 245.611 100.053 245.369 100.084C245.348 100.084 245.326 100.084 245.308 100.084L245.304 100.088Z" fill="#3B140D"/>
<path d="M231.385 125.577C231.214 125.577 231.047 125.476 230.977 125.304C230.88 125.08 230.985 124.816 231.214 124.723C231.253 124.706 235.326 122.949 239.025 118.991C243.963 113.713 245.932 107.229 244.873 99.7274C244.838 99.4853 245.009 99.2607 245.251 99.2255C245.492 99.1903 245.716 99.362 245.752 99.6041C247.122 109.315 243.19 115.853 239.649 119.63C235.822 123.711 231.732 125.472 231.556 125.546C231.499 125.568 231.442 125.582 231.385 125.582V125.577Z" fill="#3B140D"/>
<path d="M194.353 167.486C187.552 167.486 183.559 164.744 183.383 164.616C183.181 164.475 183.132 164.198 183.273 163.995C183.414 163.793 183.69 163.744 183.892 163.885C183.936 163.916 188.374 166.949 195.693 166.557C202.472 166.192 213.188 162.723 225.726 148.288C225.889 148.103 226.166 148.086 226.355 148.244C226.539 148.407 226.561 148.684 226.399 148.874C213.627 163.577 202.639 167.09 195.676 167.451C195.223 167.473 194.784 167.486 194.353 167.486Z" fill="#3B140D"/>
<path d="M259.578 66.2486H253.08C252.834 66.2486 252.636 66.0505 252.636 65.8039V62.04C250.325 61.569 248.155 60.671 246.187 59.3635L243.533 62.0224C243.45 62.1061 243.335 62.1545 243.221 62.1545C243.102 62.1545 242.993 62.1061 242.909 62.0224L238.314 57.4177C238.142 57.246 238.142 56.9643 238.314 56.7882L240.967 54.1249C239.667 52.1527 238.771 49.9824 238.296 47.6668H234.54C234.294 47.6668 234.096 47.4687 234.096 47.2222V40.7113C234.096 40.4648 234.294 40.2667 234.54 40.2667H238.296C238.766 37.9467 239.662 35.7764 240.967 33.8086L238.314 31.1497C238.142 30.978 238.142 30.6963 238.314 30.5202L242.909 25.9155C242.993 25.8318 243.107 25.7834 243.221 25.7834C243.34 25.7834 243.454 25.8318 243.537 25.9155L246.191 28.5788C248.164 27.2713 250.33 26.3733 252.641 25.9022V22.1383C252.641 21.8918 252.838 21.6937 253.084 21.6937H259.582C259.828 21.6937 260.026 21.8918 260.026 22.1383V25.9022C262.337 26.3733 264.503 27.2713 266.471 28.5788L269.125 25.9155C269.292 25.7482 269.586 25.7482 269.753 25.9155L274.348 30.5202C274.432 30.6038 274.48 30.7183 274.48 30.8327C274.48 30.9472 274.432 31.066 274.348 31.1453L271.69 33.8042C272.995 35.7808 273.891 37.9511 274.362 40.2623H278.118C278.364 40.2623 278.562 40.4604 278.562 40.7069V47.2178C278.562 47.4643 278.364 47.6624 278.118 47.6624H274.362C273.949 49.7094 273.193 51.6508 272.121 53.4381C271.989 53.6626 271.844 53.8915 271.69 54.1205L274.348 56.7838C274.432 56.8674 274.48 56.9819 274.48 57.0964C274.48 57.2108 274.432 57.3297 274.348 57.4089L269.753 62.0136C269.581 62.1853 269.3 62.1853 269.125 62.0136L266.471 59.3547C264.516 60.6534 262.35 61.5558 260.026 62.0312V65.7951C260.026 66.0417 259.828 66.2398 259.582 66.2398L259.578 66.2486ZM253.519 65.3593H259.13V61.6747C259.13 61.459 259.283 61.2741 259.494 61.2388C261.884 60.7986 264.107 59.8918 266.102 58.5403C266.146 58.5139 266.177 58.4919 266.203 58.4698L266.273 58.4214C266.449 58.3026 266.682 58.329 266.831 58.4787L269.428 61.0804L273.395 57.1052L270.794 54.4991C270.645 54.3494 270.623 54.1117 270.741 53.9312C270.961 53.6098 271.168 53.2928 271.348 52.9847C272.428 51.1842 273.167 49.2208 273.544 47.1429C273.584 46.9316 273.768 46.7776 273.979 46.7776H277.657V41.1559H273.979C273.764 41.1559 273.579 41.0019 273.544 40.7905C273.101 38.3429 272.156 36.0626 270.741 34.0023C270.618 33.8262 270.64 33.5885 270.794 33.4344L273.395 30.8327L269.428 26.8575L266.831 29.4636C266.677 29.6177 266.44 29.6353 266.264 29.5165C264.213 28.099 261.933 27.1525 259.49 26.7034C259.279 26.6638 259.125 26.4789 259.125 26.2676V22.583H253.515V26.2676C253.515 26.4833 253.361 26.6682 253.15 26.7034C250.703 27.1525 248.423 28.099 246.371 29.5165C246.195 29.6397 245.958 29.6177 245.804 29.4636L243.208 26.8575L239.241 30.8327L241.837 33.4344C241.991 33.5841 242.008 33.8262 241.89 34.0023C240.475 36.0538 239.535 38.3341 239.087 40.7905C239.047 41.0019 238.863 41.1559 238.652 41.1559H234.975V46.7776H238.652C238.867 46.7776 239.052 46.9316 239.087 47.1429C239.535 49.595 240.48 51.8797 241.89 53.9312C242.013 54.1073 241.991 54.345 241.837 54.4991L239.236 57.1052L243.203 61.0804L245.8 58.4787C245.949 58.329 246.191 58.307 246.367 58.4258C248.418 59.8433 250.699 60.7854 253.146 61.2344C253.357 61.2741 253.51 61.459 253.51 61.6703V65.3549L253.519 65.3593Z" fill="#3B140D"/>
<path d="M256.326 52.4608C251.652 52.4608 247.852 48.6529 247.852 43.9689C247.852 39.285 251.652 35.4814 256.326 35.4814C261.001 35.4814 264.797 39.2894 264.797 43.9689C264.797 48.6485 260.997 52.4608 256.326 52.4608ZM256.326 36.3751C252.144 36.3751 248.739 39.7824 248.739 43.9733C248.739 48.1642 252.144 51.576 256.326 51.576C260.509 51.576 263.909 48.1642 263.909 43.9733C263.909 39.7824 260.509 36.3751 256.326 36.3751Z" fill="#3B140D"/>
<path d="M229.224 91.4601C229.184 91.4601 229.149 91.4557 229.109 91.4468L224.36 90.179C224.246 90.1482 224.149 90.0734 224.092 89.9721C224.035 89.8708 224.018 89.7476 224.048 89.6331L224.756 86.9698C223.205 86.1862 221.83 85.1341 220.665 83.8354L218.284 85.2177C218.183 85.2749 218.06 85.2925 217.946 85.2617C217.832 85.2309 217.735 85.1561 217.678 85.0548L215.213 80.7935C215.09 80.5822 215.16 80.3092 215.376 80.186L217.757 78.8037C217.212 77.1484 216.984 75.4316 217.076 73.6927L214.418 72.9839C214.181 72.9223 214.04 72.6758 214.102 72.4381L215.367 67.6793C215.428 67.4416 215.674 67.3007 215.912 67.3623L218.57 68.0667C219.352 66.5083 220.402 65.1348 221.698 63.9726L220.318 61.5866C220.195 61.3753 220.266 61.1024 220.481 60.9791L224.734 58.505C224.835 58.4478 224.958 58.4302 225.072 58.461C225.186 58.4918 225.283 58.5667 225.34 58.6679L226.719 61.0583C228.367 60.5125 230.08 60.2835 231.82 60.376L232.523 57.7126C232.585 57.4749 232.831 57.3341 233.068 57.3957L237.817 58.6591C237.931 58.6899 238.028 58.7648 238.085 58.866C238.142 58.9673 238.16 59.0905 238.129 59.205L237.422 61.8727C238.977 62.6563 240.348 63.7085 241.512 65.0071L243.893 63.6248C243.994 63.5676 244.117 63.55 244.232 63.5808C244.346 63.6116 244.442 63.6865 244.5 63.7877L246.964 68.0491C247.021 68.1503 247.039 68.2736 247.008 68.388C246.977 68.5025 246.903 68.5993 246.802 68.6566L244.42 70.0345C244.965 71.6897 245.194 73.4066 245.101 75.1454L247.759 75.8542C247.997 75.9158 248.137 76.1623 248.076 76.4001L246.811 81.1589C246.78 81.2733 246.705 81.3702 246.604 81.4274C246.503 81.4846 246.38 81.5022 246.266 81.4714L243.608 80.7627C242.826 82.3166 241.776 83.6945 240.48 84.8611L241.859 87.2471C241.916 87.3484 241.934 87.4716 241.903 87.5861C241.872 87.7006 241.798 87.7974 241.697 87.8546L237.444 90.3243C237.233 90.4475 236.96 90.3771 236.837 90.1614L235.458 87.7754C234.241 88.176 232.993 88.4049 231.741 88.4577C231.28 88.4797 230.814 88.4797 230.357 88.4577L229.654 91.1255C229.623 91.2399 229.549 91.3368 229.448 91.3984C229.377 91.438 229.303 91.4601 229.224 91.4601ZM225.019 89.435L228.912 90.474L229.597 87.8855C229.654 87.6785 229.848 87.5377 230.063 87.5553C230.603 87.5993 231.157 87.6081 231.702 87.5817C232.984 87.5245 234.267 87.2735 235.511 86.8289C235.713 86.7585 235.937 86.8377 236.042 87.0226L237.382 89.3382L240.866 87.3132L239.526 84.9976C239.421 84.8127 239.46 84.575 239.623 84.4341C241.042 83.2191 242.167 81.7444 242.966 80.0539C243.059 79.8602 243.278 79.759 243.48 79.8118L246.064 80.5029L247.1 76.6026L244.517 75.9114C244.311 75.8542 244.17 75.6605 244.188 75.4448C244.333 73.5782 244.091 71.7425 243.458 69.9816C243.384 69.7791 243.467 69.5546 243.652 69.4446L245.963 68.1019L243.942 64.6109L241.631 65.9536C241.446 66.0593 241.209 66.0196 241.068 65.8568C239.856 64.4348 238.384 63.3079 236.697 62.5067C236.504 62.4142 236.403 62.1985 236.455 61.9916L237.145 59.3987L233.252 58.3642L232.567 60.9527C232.51 61.1596 232.317 61.3005 232.101 61.2828C230.234 61.1332 228.402 61.3797 226.649 62.0136C226.447 62.0885 226.223 62.0048 226.113 61.8199L224.773 59.4999L221.289 61.525L222.629 63.8405C222.739 64.0254 222.695 64.2631 222.533 64.404C221.113 65.6146 219.989 67.0894 219.194 68.7798C219.101 68.9735 218.886 69.0748 218.68 69.0219L216.096 68.3352L215.059 72.2312L217.643 72.9223C217.849 72.9795 217.99 73.1732 217.972 73.3889C217.827 75.2555 218.069 77.0912 218.701 78.8521C218.776 79.0546 218.693 79.2791 218.504 79.3892L216.193 80.7318L218.214 84.2228L220.525 82.8801C220.709 82.7745 220.947 82.8141 221.087 82.977C222.3 84.3989 223.771 85.5259 225.459 86.3271C225.652 86.4195 225.753 86.6352 225.7 86.8421L225.01 89.4306L225.019 89.435Z" fill="#3B140D"/>
<path d="M231.095 80.952C230.533 80.952 229.966 80.8771 229.408 80.7319C227.726 80.2828 226.32 79.2043 225.445 77.6987C224.571 76.1888 224.338 74.4323 224.786 72.7462C225.234 71.0602 226.306 69.6515 227.813 68.7754C229.32 67.8994 231.073 67.6661 232.756 68.1107C236.231 69.0396 238.305 72.623 237.378 76.1007C236.93 77.7868 235.858 79.1955 234.351 80.0715C233.345 80.657 232.224 80.9564 231.091 80.9564L231.095 80.952ZM231.078 68.7798C230.098 68.7798 229.131 69.0396 228.262 69.5458C226.961 70.303 226.034 71.518 225.647 72.9752C225.261 74.4323 225.463 75.9511 226.214 77.2541C226.97 78.5572 228.182 79.486 229.637 79.8734C231.091 80.2608 232.607 80.0583 233.907 79.3011C235.207 78.544 236.135 77.329 236.521 75.8718C237.321 72.8695 235.528 69.7747 232.528 68.9735C232.049 68.8459 231.561 68.7842 231.073 68.7842L231.078 68.7798Z" fill="#3B140D"/>
<path d="M220.582 56.4844C220.555 56.4844 220.529 56.4844 220.503 56.4756L217.449 55.9342C217.335 55.9122 217.23 55.8461 217.164 55.7493C217.098 55.6524 217.072 55.5336 217.089 55.4147L217.37 53.8343C216.421 53.4337 215.56 52.8834 214.8 52.1923L213.486 53.1123C213.284 53.2532 213.008 53.2048 212.867 53.0023L211.092 50.4578C210.951 50.2553 211 49.978 211.202 49.8371L212.516 48.9126C212.186 48.1114 211.98 47.2662 211.896 46.3946C211.878 46.2449 211.865 46.0908 211.861 45.9323L210.279 45.6506C210.038 45.6066 209.875 45.3776 209.919 45.1355L210.459 42.076C210.503 41.8339 210.732 41.671 210.973 41.715L212.555 41.9923C212.682 41.6886 212.827 41.3936 212.986 41.1075C212.99 41.0943 212.994 41.0855 213.003 41.0723C213.333 40.4824 213.728 39.9277 214.189 39.4215L213.271 38.1052C213.131 37.9027 213.179 37.6253 213.381 37.4845L215.925 35.706C216.021 35.6399 216.14 35.6135 216.259 35.6311C216.373 35.6532 216.478 35.7192 216.544 35.816L217.463 37.1323C218.416 36.7405 219.413 36.5204 220.437 36.472L220.714 34.8916C220.736 34.7771 220.802 34.6715 220.898 34.6054C220.995 34.5394 221.113 34.513 221.232 34.5306L224.285 35.0721C224.4 35.0941 224.505 35.1601 224.571 35.257C224.637 35.3538 224.663 35.4727 224.646 35.5915L224.365 37.1763C225.309 37.5725 226.17 38.1228 226.93 38.8183L228.244 37.8983C228.341 37.8323 228.459 37.8058 228.578 37.8234C228.692 37.8455 228.798 37.9115 228.863 38.0083L230.638 40.5572C230.779 40.7597 230.731 41.0371 230.529 41.1779L229.215 42.098C229.602 43.0445 229.821 44.0438 229.869 45.0783L231.451 45.36C231.693 45.4041 231.855 45.633 231.811 45.8751L231.271 48.9346C231.227 49.1768 230.999 49.3352 230.757 49.2956L229.175 49.0183C228.78 49.9648 228.231 50.8276 227.537 51.5892L228.455 52.9054C228.521 53.0023 228.547 53.1212 228.53 53.24C228.512 53.3589 228.442 53.4601 228.345 53.5262L225.801 55.3047C225.705 55.3707 225.586 55.3971 225.467 55.3795C225.353 55.3575 225.248 55.2914 225.182 55.1946L224.264 53.8783C223.31 54.2701 222.313 54.4902 221.289 54.5343L221.012 56.1191C220.99 56.2335 220.925 56.3392 220.828 56.4052C220.753 56.458 220.665 56.4844 220.573 56.4844H220.582ZM218.038 55.133L220.217 55.5204L220.481 54.0192C220.52 53.8079 220.7 53.6538 220.916 53.6494C222.067 53.6494 223.183 53.3985 224.237 52.9142C224.43 52.8262 224.663 52.8878 224.786 53.0639L225.656 54.3142L227.471 53.0419L226.596 51.7917C226.473 51.6156 226.495 51.3779 226.645 51.2238C227.458 50.4006 228.073 49.4365 228.472 48.3536C228.547 48.151 228.754 48.0322 228.964 48.0718L230.467 48.3359L230.854 46.1524L229.351 45.8839C229.14 45.8443 228.986 45.6638 228.986 45.4481C228.978 44.2859 228.732 43.1677 228.253 42.12C228.165 41.9263 228.226 41.693 228.402 41.5697L229.65 40.6937L228.38 38.8756L227.132 39.7516C226.957 39.8749 226.719 39.8529 226.566 39.7032C225.74 38.8844 224.773 38.2681 223.697 37.8675C223.495 37.7926 223.376 37.5857 223.416 37.3744L223.684 35.8733L221.504 35.4903L221.241 36.9914C221.206 37.2027 221.021 37.3568 220.806 37.3612C219.655 37.37 218.535 37.6165 217.48 38.1008C217.287 38.1888 217.054 38.1272 216.931 37.9511L216.061 36.7009L214.247 37.9731L215.116 39.2234C215.239 39.3994 215.217 39.6372 215.068 39.7912C214.563 40.3063 214.132 40.8742 213.785 41.4905C213.781 41.5037 213.772 41.5169 213.768 41.5301C213.561 41.8955 213.385 42.2785 213.24 42.6659C213.166 42.8684 212.959 42.9872 212.748 42.952L211.246 42.6879L210.859 44.8714L212.362 45.1399C212.573 45.1796 212.726 45.36 212.726 45.5757C212.726 45.8267 212.74 46.0776 212.766 46.3197C212.854 47.2222 213.087 48.0894 213.456 48.8994C213.544 49.0931 213.482 49.3264 213.306 49.4497L212.059 50.3257L213.328 52.1395L214.576 51.2678C214.752 51.1446 214.989 51.1666 215.143 51.3162C215.964 52.1262 216.931 52.747 218.012 53.152C218.214 53.2268 218.332 53.4337 218.293 53.645L218.025 55.1462L218.038 55.133Z" fill="#3B140D"/>
<path d="M220.876 49.7931C220.626 49.7931 220.371 49.771 220.12 49.727C217.801 49.3132 216.245 47.0857 216.654 44.7613C216.852 43.6344 217.48 42.6527 218.416 41.9967C219.352 41.3408 220.485 41.0899 221.61 41.2924C222.735 41.4905 223.714 42.1156 224.369 43.0533C225.023 43.9909 225.274 45.1267 225.076 46.2537C224.874 47.3806 224.25 48.3623 223.314 49.0183C222.59 49.5289 221.742 49.7931 220.876 49.7931ZM217.528 44.9154C217.208 46.7555 218.438 48.5208 220.274 48.8466C221.166 49.0051 222.062 48.807 222.805 48.2875C223.547 47.768 224.044 46.9888 224.202 46.0996C224.36 45.2059 224.158 44.3035 223.64 43.5639C223.121 42.8199 222.344 42.3269 221.456 42.1684C220.564 42.0099 219.668 42.208 218.925 42.7275C218.183 43.247 217.686 44.0262 217.528 44.9154Z" fill="#3B140D"/>
<path d="M244.267 100.757C242.984 100.757 240.431 100.168 235.19 97.9224C229.338 95.4176 221.856 91.5745 214.128 87.1018C206.396 82.6336 199.335 78.064 194.243 74.2341C186.054 68.0798 186.805 66.7856 187.086 66.2969C187.306 65.9095 187.776 65.7114 188.488 65.7114C188.549 65.7114 188.615 65.7114 188.686 65.7114C192.596 65.8787 204.616 71.3331 217.906 78.9709C218.117 79.0942 218.192 79.3671 218.069 79.5784C217.946 79.7897 217.673 79.8646 217.463 79.7413C204.282 72.1651 192.429 66.7592 188.642 66.5963C188.58 66.5963 188.536 66.5963 188.488 66.5963C188.035 66.5963 187.877 66.6975 187.855 66.7327C187.675 67.0409 188.576 68.859 194.775 73.5166C199.841 77.3245 206.87 81.872 214.572 86.3226C222.269 90.7777 229.716 94.6032 235.537 97.0948C242.663 100.146 244.68 100.018 244.855 99.7142C244.855 99.7142 244.864 99.6965 244.864 99.6569C244.864 99.6085 244.86 99.5689 244.847 99.5249C244.508 98.2218 240.818 94.6252 231.477 88.3872C231.275 88.2508 231.218 87.9734 231.354 87.7709C231.491 87.5684 231.767 87.5112 231.97 87.6477C235.866 90.2494 245 96.5886 245.703 99.2871C245.734 99.3972 245.756 99.5249 245.756 99.6481C245.756 99.8418 245.712 100.014 245.624 100.159C245.501 100.374 245.286 100.749 244.267 100.749V100.757Z" fill="#3B140D"/>
<path d="M230.001 205.838C229.817 205.838 229.641 205.72 229.58 205.535C226.061 194.864 226.271 185.579 230.199 177.946C235.831 167.002 247.333 163.344 247.448 163.309C247.68 163.238 247.931 163.366 248.001 163.604C248.071 163.837 247.944 164.088 247.707 164.158C247.593 164.193 236.438 167.755 230.981 178.364C227.168 185.778 226.979 194.828 230.419 205.257C230.498 205.491 230.37 205.742 230.138 205.821C230.089 205.834 230.045 205.843 229.997 205.843L230.001 205.838Z" fill="#3B140D"/>
<path d="M163.288 206.019C163.05 206.019 162.857 205.834 162.844 205.596C162.694 202.541 162.286 199.583 162.281 199.552C162.246 199.31 162.418 199.085 162.659 199.05C162.901 199.015 163.125 199.187 163.16 199.429C163.16 199.46 163.577 202.453 163.731 205.552C163.744 205.799 163.556 206.006 163.309 206.019C163.301 206.019 163.296 206.019 163.288 206.019Z" fill="#3B140D"/>
<path d="M207.349 49.4144C206.927 49.4144 206.51 49.3704 206.097 49.2735C204.664 48.9434 202.213 47.7372 201.018 43.4362C198.575 48.3271 195.359 48.8333 194.019 48.8113C191.849 48.7717 189.947 47.407 189.169 45.3291C188.242 42.8419 189.085 39.9496 191.432 37.4096C185.962 37.8454 183.928 35.8072 183.194 34.4865C182.175 32.6508 182.535 30.2295 184.108 28.319C185.615 26.4921 188.47 24.9689 192.17 25.7965C191.014 23.3225 191.247 20.7031 192.851 18.6209C194.533 16.4374 197.27 15.4689 199.665 16.2173C201.396 16.7588 204.282 18.6253 204.95 25.0349C208.456 20.2409 211.843 20.6811 213.192 21.1258C216.021 22.059 217.985 25.277 217.757 28.6139C217.506 32.2898 214.717 35.0632 210.231 36.1725C212.164 37.6825 213.368 39.3685 213.825 41.1955C213.834 41.2307 213.838 41.2659 213.838 41.3011C213.838 41.5476 213.64 41.7457 213.394 41.7457C213.174 41.7457 212.994 41.5917 212.959 41.3804C212.498 39.5622 211.105 37.8058 208.922 36.3046C208.772 36.2034 208.702 36.0229 208.737 35.8468C208.777 35.6707 208.913 35.5342 209.093 35.5034C215.771 34.2796 216.76 30.2339 216.878 28.5479C217.08 25.6072 215.38 22.7766 212.924 21.9666C210.288 21.0993 207.397 22.7722 204.99 26.5625C204.884 26.7254 204.691 26.8046 204.502 26.7518C204.317 26.7034 204.181 26.5405 204.172 26.3468C203.904 21.3062 202.169 17.9209 199.41 17.0581C197.371 16.4198 195.021 17.265 193.562 19.158C191.989 21.2006 191.946 23.8551 193.444 26.2631C193.545 26.4216 193.532 26.6241 193.417 26.7738C193.303 26.9191 193.105 26.9807 192.93 26.9235C189.156 25.6777 186.26 27.1172 184.802 28.8825C183.462 30.5113 183.137 32.5407 183.976 34.0507C185.131 36.1285 188.273 36.9781 192.6 36.3838C192.793 36.3574 192.982 36.4587 193.061 36.6392C193.145 36.8153 193.101 37.0266 192.956 37.1586C190.201 39.6459 189.099 42.5822 190.008 45.0166C190.654 46.7511 192.24 47.8912 194.041 47.9221C196.699 47.9705 199.146 45.7694 200.75 41.8954C200.825 41.7149 201.009 41.6049 201.207 41.6225C201.4 41.6445 201.563 41.7898 201.598 41.9791C202.292 45.5845 203.962 47.8648 206.303 48.4063C208.32 48.8729 210.604 47.9397 211.988 46.0907C212.133 45.8926 212.414 45.853 212.608 46.0027C212.805 46.148 212.845 46.4297 212.696 46.6234C211.382 48.3799 209.348 49.4144 207.349 49.4144Z" fill="#3B140D"/>
<path d="M277.762 85.1957C276.405 85.1957 275.06 84.6631 274.023 83.6461C272.13 81.7884 271.668 78.8081 272.718 75.5108C267.947 78.2358 265.245 77.2497 264.02 76.3649C262.319 75.1367 261.621 72.7947 262.236 70.3911C262.825 68.0975 264.766 65.5046 268.466 64.6814C266.656 63.167 265.733 61.098 265.904 58.8749C265.922 58.6283 266.137 58.4478 266.383 58.4655C266.629 58.4831 266.809 58.6988 266.792 58.9453C266.691 60.2483 266.95 62.7136 269.814 64.5713C269.973 64.6726 270.047 64.8619 270.008 65.0468C269.964 65.2273 269.814 65.3637 269.63 65.3901C265.685 65.8656 263.672 68.4013 263.101 70.62C262.574 72.6626 263.141 74.6392 264.542 75.6517C266.471 77.0428 269.674 76.4749 273.338 74.0977C273.5 73.9921 273.716 74.0053 273.865 74.1285C274.015 74.2562 274.063 74.4631 273.988 74.6436C272.547 78.0685 272.793 81.1985 274.647 83.0166C275.97 84.3109 277.885 84.6719 279.528 83.9323C281.958 82.8449 283.241 79.8162 283.047 75.6209C283.039 75.4228 283.157 75.2467 283.346 75.1807C283.531 75.1146 283.737 75.1807 283.851 75.3392C286.211 78.5968 289.005 79.9175 291.513 78.9578C293.82 78.0773 295.362 75.4624 295.098 72.8739C294.8 69.8848 292.243 67.7761 288.082 67.0894C287.906 67.0586 287.761 66.9265 287.722 66.7504C287.682 66.5743 287.748 66.3938 287.898 66.2882C293.429 62.3394 292.612 58.2541 292.001 56.6826C290.938 53.9312 288.201 52.0954 285.635 52.4036C282.88 52.7382 280.969 55.4851 280.394 59.9402C280.367 60.1339 280.222 60.2836 280.033 60.3188C279.845 60.354 279.651 60.2616 279.563 60.0899C277.288 55.8329 274.515 53.5526 271.752 53.6626C271.51 53.6758 271.299 53.4821 271.291 53.2356C271.282 52.9891 271.471 52.7822 271.717 52.7734C273.408 52.7029 276.611 53.3985 279.717 58.5623C280.864 52.7294 284.115 51.686 285.53 51.5143C288.491 51.1578 291.628 53.2356 292.831 56.3524C294.158 59.7905 292.81 63.4884 289.216 66.3982C294.852 67.6837 295.828 71.2451 295.982 72.7771C296.28 75.7486 294.497 78.7597 291.83 79.781C290.551 80.2696 287.362 80.8815 283.948 76.8931C283.807 82.3607 281.11 84.1876 279.889 84.7335C279.203 85.0416 278.478 85.1913 277.762 85.1913V85.1957Z" fill="#3B140D"/>
<path d="M263.435 103.482C263.07 103.482 262.706 103.43 262.354 103.315C261.625 103.082 260.057 102.263 259.802 99.5733C257.873 101.634 256.116 101.484 255.391 101.295C254.134 100.969 253.216 99.9035 253.058 98.5872C252.882 97.1521 253.611 95.7346 255.039 94.6472C252.258 94.0837 251.454 92.7279 251.226 91.9046C250.887 90.6896 251.432 89.3338 252.605 88.4489C253.651 87.6609 255.347 87.1943 257.205 87.9647C257.025 86.5295 257.535 85.2089 258.651 84.3108C259.92 83.2895 261.629 83.1178 262.908 83.8838C263.782 84.4077 265.096 85.7636 264.779 89.1136C267.227 87.2471 268.971 87.9294 269.652 88.3521C271.15 89.2809 271.831 91.394 271.242 93.2693C270.627 95.2283 268.826 96.4081 266.339 96.527C268.14 99.0186 267.323 100.894 266.849 101.629C266.102 102.787 264.753 103.487 263.431 103.487L263.435 103.482ZM260.223 97.9181C260.272 97.9181 260.325 97.9269 260.368 97.9445C260.553 98.0105 260.672 98.1866 260.663 98.3847C260.562 100.546 261.278 102.039 262.622 102.47C263.861 102.866 265.355 102.298 266.102 101.145C266.967 99.8066 266.59 98.0678 265.069 96.3773C264.951 96.2452 264.92 96.0515 264.999 95.8887C265.078 95.7258 265.245 95.6289 265.425 95.6377C268.009 95.783 269.819 94.8233 270.39 93.0052C270.851 91.5305 270.32 89.8224 269.177 89.1136C267.934 88.3433 266.22 88.8671 264.476 90.5488C264.336 90.6808 264.129 90.7116 263.958 90.6192C263.787 90.5268 263.699 90.3375 263.734 90.1482C264.235 87.4452 263.765 85.4422 262.447 84.6498C261.484 84.0731 260.184 84.2184 259.2 85.0064C258.137 85.8604 257.79 87.2251 258.264 88.6602C258.321 88.8363 258.264 89.0344 258.119 89.1489C257.974 89.2633 257.768 89.2765 257.609 89.1797C255.795 88.0527 254.108 88.4357 253.133 89.1665C252.249 89.8312 251.836 90.8129 252.074 91.6713C252.408 92.8775 253.954 93.7052 256.309 93.9429C256.502 93.9605 256.66 94.1058 256.7 94.2995C256.739 94.4887 256.647 94.6868 256.476 94.7793C254.719 95.7346 253.765 97.1213 253.932 98.486C254.046 99.4368 254.705 100.203 255.606 100.441C256.972 100.797 258.519 99.9475 259.854 98.1074C259.938 97.9885 260.074 97.9225 260.215 97.9225L260.223 97.9181Z" fill="#3B140D"/>
<path d="M201.361 37.4888C199.142 37.4888 197.332 35.6795 197.332 33.452C197.332 31.4049 198.874 30.1371 201.361 30.1371C203.847 30.1371 205.385 31.4093 205.385 33.452C205.385 35.6751 203.579 37.4888 201.361 37.4888ZM201.361 31.0263C200.416 31.0263 198.224 31.2641 198.224 33.452C198.224 35.1864 199.634 36.5951 201.361 36.5951C203.087 36.5951 204.498 35.1864 204.498 33.452C204.498 31.2641 202.301 31.0263 201.361 31.0263Z" fill="#3B140D"/>
<path d="M279.019 72.011C276.8 72.011 274.994 70.2017 274.994 67.9742C274.994 65.9271 276.536 64.6549 279.019 64.6549C281.501 64.6549 283.047 65.9271 283.047 67.9742C283.047 70.1973 281.242 72.011 279.019 72.011ZM279.019 65.5442C278.074 65.5442 275.882 65.7819 275.882 67.9742C275.882 69.7087 277.288 71.1174 279.019 71.1174C280.75 71.1174 282.155 69.7043 282.155 67.9742C282.155 65.7819 279.959 65.5442 279.019 65.5442Z" fill="#3B140D"/>
<path d="M229.61 22.5829C228.376 22.5829 227.374 21.5792 227.374 20.3421C227.374 19.202 228.253 18.4624 229.61 18.4624C230.968 18.4624 231.847 19.202 231.847 20.3421C231.847 21.5792 230.845 22.5829 229.61 22.5829ZM229.61 19.3517C229.105 19.3517 228.261 19.4793 228.261 20.3421C228.261 21.0861 228.868 21.6936 229.61 21.6936C230.353 21.6936 230.959 21.0861 230.959 20.3421C230.959 19.4793 230.116 19.3517 229.61 19.3517Z" fill="#3B140D"/>
<path d="M261.291 95.5101C260.057 95.5101 259.055 94.5064 259.055 93.2694C259.055 92.1292 259.934 91.3896 261.291 91.3896C262.649 91.3896 263.527 92.1292 263.527 93.2694C263.527 94.5064 262.526 95.5101 261.291 95.5101ZM261.291 92.2789C260.786 92.2789 259.942 92.4066 259.942 93.2694C259.942 94.0134 260.549 94.6209 261.291 94.6209C262.034 94.6209 262.64 94.0134 262.64 93.2694C262.64 92.4066 261.796 92.2789 261.291 92.2789Z" fill="#3B140D"/>
<path d="M315.17 167.135C316.047 163.412 313.746 159.683 310.031 158.804C306.317 157.926 302.595 160.231 301.718 163.953C300.841 167.675 303.142 171.405 306.856 172.283C310.571 173.162 314.293 170.857 315.17 167.135Z" fill="white"/>
<path d="M160.155 165.994C158.907 165.994 157.892 164.977 157.892 163.727C157.892 162.477 158.907 161.46 160.155 161.46C161.403 161.46 162.418 162.477 162.418 163.727C162.418 164.977 161.403 165.994 160.155 165.994ZM160.155 162.349C159.395 162.349 158.78 162.97 158.78 163.727C158.78 164.484 159.399 165.105 160.155 165.105C160.911 165.105 161.53 164.484 161.53 163.727C161.53 162.97 160.911 162.349 160.155 162.349Z" fill="#3B140D"/>
<path d="M122.275 138.995C119.894 138.995 117.956 137.054 117.956 134.668C117.956 132.282 119.894 130.34 122.275 130.34C124.656 130.34 126.594 132.282 126.594 134.668C126.594 137.054 124.656 138.995 122.275 138.995ZM122.275 131.225C120.381 131.225 118.844 132.766 118.844 134.663C118.844 136.561 120.386 138.102 122.275 138.102C124.164 138.102 125.706 136.556 125.706 134.663C125.706 132.77 124.164 131.225 122.275 131.225Z" fill="#3B140D"/>
<path d="M136.874 117.737C136.76 117.737 136.646 117.693 136.562 117.605C136.391 117.433 136.391 117.151 136.562 116.975L140.284 113.247C140.455 113.075 140.736 113.075 140.912 113.247C141.083 113.418 141.083 113.7 140.912 113.876L137.191 117.605C137.103 117.693 136.989 117.737 136.879 117.737H136.874Z" fill="#3B140D"/>
<path d="M130.385 124.239C130.271 124.239 130.157 124.195 130.073 124.107C129.902 123.935 129.902 123.653 130.073 123.477L133.795 119.749C133.966 119.577 134.247 119.577 134.423 119.749C134.594 119.92 134.594 120.202 134.423 120.378L130.702 124.107C130.614 124.195 130.499 124.239 130.39 124.239H130.385Z" fill="#3B140D"/>
<path d="M140.595 124.239C140.481 124.239 140.367 124.195 140.284 124.107L136.562 120.378C136.391 120.206 136.391 119.925 136.562 119.749C136.734 119.577 137.015 119.577 137.191 119.749L140.912 123.477C141.083 123.649 141.083 123.931 140.912 124.107C140.824 124.195 140.71 124.239 140.6 124.239H140.595Z" fill="#3B140D"/>
<path d="M134.102 117.737C133.988 117.737 133.874 117.693 133.79 117.605L130.069 113.876C129.898 113.704 129.898 113.423 130.069 113.247C130.24 113.075 130.521 113.075 130.697 113.247L134.418 116.975C134.59 117.147 134.59 117.429 134.418 117.605C134.331 117.693 134.216 117.737 134.106 117.737H134.102Z" fill="#3B140D"/>
</g>
<defs>
<clipPath id="clip0_638_1220">
<rect width="246" height="214.736" fill="white" transform="translate(92 12)"/>
</clipPath>
</defs>
</svg>
