<svg width="359" height="486" viewBox="0 0 359 486" fill="none" xmlns="http://www.w3.org/2000/svg">
<path d="M50.5952 79.2357C50.5952 79.2357 49.0227 78.4492 48.7232 76.8763C48.4237 75.3034 50.071 75.4907 51.0444 75.9401C51.9804 76.3895 55.4248 78.0747 56.6978 78.2245C58.0081 78.3743 62.5757 78.0747 62.5757 78.0747C62.5757 78.0747 57.7086 77.4755 55.275 75.1161C52.8415 72.7942 51.943 72.3448 53.2533 71.4086C54.5263 70.4723 56.8849 73.0564 59.0564 73.8428C61.1904 74.6293 62.9501 74.9663 64.4851 75.0787C65.9826 75.2285 69.5768 74.5918 69.5768 74.5918C69.5768 74.5918 64.5974 71.2213 63.9235 70.4349C63.2496 69.6484 62.9126 68.9369 63.8486 68.3002C64.7846 67.6636 68.1541 69.5361 68.6408 69.8731C69.165 70.2102 73.0961 72.2325 73.77 72.5321C74.4439 72.8317 78.1129 74.854 79.3484 76.0524C80.5465 77.2134 81.3701 78.1871 81.782 78.599C82.2312 79.011 89.9062 86.6134 90.5802 88.2612C90.5802 88.2612 88.3338 92.4181 86.1249 94.7026C83.9534 96.9496 83.2795 97.2118 83.2795 97.2118C83.2795 97.2118 79.8351 92.1934 77.9257 90.3584C76.0163 88.5233 75.7917 88.5982 75.7917 88.5982C75.7917 88.5982 70.2133 89.2349 65.8703 89.3847C61.5274 89.5345 56.5854 88.7855 55.5371 88.1488C54.4888 87.5122 53.2908 87.2126 53.7026 86.1265C54.1145 85.0404 55.013 85.0779 55.013 85.0779C55.013 85.0779 49.5843 83.0556 48.7232 82.0444C47.8995 81.0333 48.3863 80.0596 49.9587 79.9098C51.5312 79.76 53.5903 80.509 53.5903 80.509L50.5952 79.2357Z" fill="white"/>
<path d="M69.2772 77.1758C69.8388 78.4866 71.1492 79.348 72.3098 80.097C73.6202 80.8834 75.0054 81.5201 76.503 81.932C77.1769 82.1193 77.4764 81.0707 76.8025 80.8834C75.4547 80.5089 74.1818 79.9472 72.9837 79.2356C71.9354 78.5989 70.7374 77.8125 70.2506 76.6515C70.1383 76.3894 69.7265 76.3145 69.5019 76.4643C69.2023 76.5766 69.1649 76.8762 69.2772 77.1758Z" fill="black"/>
<path d="M70.0261 74.1423C68.1916 72.8316 66.3197 71.5583 64.4851 70.21C64.1856 69.9853 63.5117 69.5734 63.6615 69.124C63.8112 68.6746 64.5975 68.7869 64.9344 68.8244C65.8704 68.9742 66.7315 69.3861 67.5177 69.873C68.3414 70.3598 69.0901 70.8842 69.8764 71.371C70.7749 71.8953 71.7109 72.2698 72.6469 72.6818C74.2193 73.3559 75.7543 74.1798 77.177 75.116C79.0115 76.3519 80.3593 77.9997 81.8943 79.5726C83.4293 81.1455 84.9269 82.681 86.4619 84.2539C87.7723 85.6021 89.0826 87.0252 90.5053 88.2611C91.0295 88.7105 91.8157 87.9615 91.2541 87.512C89.8689 86.3511 88.6334 84.928 87.3604 83.6547C85.7131 81.9694 84.0658 80.2842 82.4185 78.6363C81.9692 78.1869 81.5948 77.7375 81.183 77.2507C79.8726 75.7527 78.3002 74.5168 76.578 73.5057C74.8183 72.4571 72.9089 71.783 71.1119 70.8467C69.3522 69.9479 67.8546 68.5622 65.9452 68.0005C65.0841 67.7383 63.9235 67.5511 63.1373 68.1128C62.3511 68.6746 62.4634 69.7981 63.0625 70.4722C63.8112 71.3336 65.0093 71.9702 65.9452 72.6069C67.1059 73.4308 68.3039 74.2547 69.4645 75.0786C70.0261 75.4905 70.5877 74.5543 70.0261 74.1423Z" fill="black"/>
<path d="M69.7265 74.0674C67.8546 74.1798 65.9826 74.5543 64.1107 74.5543C61.8643 74.5543 59.6554 73.618 57.6711 72.6069C56.5854 72.0451 55.5371 71.3335 54.4514 70.8092C53.74 70.4722 52.6168 70.5096 52.1676 71.2586C51.606 72.1575 52.2799 73.0937 52.9164 73.7304C53.7026 74.5917 54.6011 75.3407 55.5371 76.0148C57.6711 77.5503 60.1421 78.6363 62.8003 78.8236V77.7375C61.0407 77.9622 59.2436 77.9997 57.4839 77.8124C56.0613 77.6626 54.7134 77.1758 53.4405 76.5766C52.542 76.1272 51.6809 75.5654 50.7075 75.3033C49.9212 75.0786 48.8355 75.1535 48.3862 75.9399C47.8621 76.8387 48.3862 78.0371 48.9853 78.7487C49.3971 79.2355 50.0336 79.5726 50.6326 79.8722C51.5686 80.3216 52.542 80.7336 53.5154 81.0332C55.7617 81.7822 58.3076 82.4563 60.7037 82.3439C61.3776 82.3065 61.415 81.2578 60.7037 81.2578C59.3933 81.2578 58.083 81.183 56.7726 81.0332C55.7992 80.9208 54.8258 80.771 53.8898 80.5088C52.8041 80.2092 51.8681 79.61 50.7449 79.4977C49.8464 79.4228 48.6857 79.5351 48.1616 80.359C47.7123 81.0332 47.8246 81.8571 48.3114 82.4563C48.9104 83.2053 49.8464 83.6172 50.7075 83.9917C51.8306 84.4786 53.0287 84.8531 54.1893 85.1901C56.3608 85.8268 58.6445 86.0515 60.8909 85.7893C61.5648 85.7144 61.5648 84.6284 60.8909 84.7033C59.2436 84.8905 57.4839 84.8531 55.8366 84.516C54.8258 84.2913 53.7775 83.9543 52.804 83.6547C51.8306 83.3176 50.8572 82.9806 49.9587 82.4563C49.5094 82.1941 48.5734 81.5949 49.0601 80.9583C49.6217 80.2467 51.1193 80.6212 51.7932 80.8459C52.6168 81.1455 53.3656 81.52 54.2267 81.7073C55.0878 81.8945 55.9489 82.0069 56.8475 82.1192C58.1204 82.269 59.3933 82.3439 60.7037 82.3439V81.2578C58.8317 81.3702 56.8849 80.9208 55.0878 80.3965C53.4405 79.9096 51.6809 79.3853 50.2582 78.4116C49.7715 78.0746 49.0227 77.2132 49.2848 76.5766C49.5843 75.865 50.8947 76.4642 51.3065 76.6889C53.3282 77.7001 55.2376 78.6738 57.4839 78.8985C59.2436 79.0857 61.0407 79.0483 62.8003 78.8236C63.4742 78.7487 63.5116 77.775 62.8003 77.7375C60.7411 77.5877 58.7569 76.8013 57.0347 75.7152C56.1361 75.1535 55.3125 74.5168 54.5637 73.8427C54.2267 73.5431 52.2799 71.7829 53.5154 71.708C54.0395 71.6706 54.5262 72.12 54.9755 72.3822C55.4248 72.6443 55.9115 72.9065 56.3608 73.1686C57.2593 73.6555 58.1578 74.0674 59.0564 74.4794C60.7411 75.1909 62.4633 75.7152 64.2979 75.6778C66.1324 75.6403 67.892 75.3033 69.7265 75.1909C70.4379 75.116 70.4379 74.03 69.7265 74.0674Z" fill="black"/>
<path d="M56.8101 84.7406C55.8741 84.5908 54.4888 84.2163 53.7026 84.9653C52.8415 85.7518 53.0661 86.9876 53.8524 87.7366C55.2002 89.0099 57.0347 89.3095 58.8318 89.4219C62.6131 89.6092 66.4693 89.9837 70.2881 89.8339C71.1867 89.7964 72.0852 89.7215 72.9463 89.6092C73.3956 89.5717 73.8448 89.4968 74.3316 89.4219C74.8183 89.347 75.3798 89.1223 75.8666 89.1223C76.0912 89.1223 76.2035 89.1972 76.4281 89.347C76.7277 89.5717 76.9523 89.8338 77.2144 90.096C77.9257 90.8076 78.5622 91.5566 79.1986 92.3056C79.6479 92.8299 80.3967 92.0809 79.9474 91.5566C79.0489 90.4705 78.1129 89.347 76.9897 88.4856C76.7277 88.2984 76.4656 88.0737 76.1661 88.0362C75.8666 87.9988 75.567 88.1111 75.305 88.1486C74.8931 88.2235 74.4439 88.2984 74.032 88.3733C71.6359 88.7478 69.2398 88.8227 66.8063 88.7103C65.1964 88.6354 63.5491 88.5605 61.9392 88.4856C60.554 88.4107 59.1313 88.4107 57.746 88.2609C56.6603 88.1486 55.3874 87.6992 54.6011 86.9127C54.1893 86.5008 54.077 85.7518 54.8258 85.6394C55.3874 85.5645 56.0613 85.7143 56.5854 85.8267C57.2219 85.9016 57.5214 84.853 56.8101 84.7406Z" fill="black"/>
<path d="M63.2121 84.1789C63.3244 82.5311 63.9609 80.9208 64.9718 79.6475C65.159 79.4228 65.1964 79.1232 64.9718 78.8985C64.7846 78.7112 64.3727 78.6738 64.223 78.8985C63.0249 80.4339 62.3136 82.269 62.1638 84.2164C62.1264 84.516 62.4259 84.7407 62.688 84.7407C62.9875 84.7407 63.1747 84.4785 63.2121 84.1789Z" fill="black"/>
<path d="M330.639 117.098C330.639 117.098 332.324 116.536 332.811 115.038C333.298 113.54 331.65 113.465 330.677 113.802C329.703 114.139 326.072 115.3 324.762 115.263C323.451 115.225 318.958 114.289 318.958 114.289C318.958 114.289 323.863 114.364 326.596 112.379C329.329 110.394 330.265 110.095 329.104 109.009C327.944 107.922 325.286 110.132 323.039 110.581C320.793 111.068 318.996 111.143 317.498 111.068C316.001 110.993 312.519 109.87 312.519 109.87C312.519 109.87 317.91 107.211 318.696 106.537C319.483 105.863 319.932 105.189 319.071 104.44C318.247 103.691 314.653 105.076 314.091 105.338C313.53 105.601 309.337 107.024 308.663 107.248C307.951 107.473 304.02 108.934 302.672 109.945C301.325 110.956 300.389 111.742 299.902 112.117C299.415 112.454 290.729 118.933 289.831 120.468C289.831 120.468 291.478 124.925 293.313 127.471C295.147 130.018 295.784 130.355 295.784 130.355C295.784 130.355 299.902 125.861 302.073 124.326C304.245 122.79 304.432 122.865 304.432 122.865C304.432 122.865 309.861 124.288 314.129 125.037C318.397 125.786 323.414 125.711 324.537 125.262C325.66 124.813 326.896 124.625 326.633 123.539C326.371 122.416 325.473 122.341 325.473 122.341C325.473 122.341 331.126 121.105 332.1 120.206C333.073 119.307 332.699 118.296 331.201 117.922C329.666 117.547 327.532 117.997 327.532 117.997L330.639 117.098Z" fill="white"/>
<path d="M311.508 111.817C310.834 112.904 309.524 113.503 308.401 113.952C307.128 114.514 305.743 114.851 304.395 115.038C304.095 115.076 303.945 115.45 304.02 115.712C304.095 116.012 304.395 116.124 304.694 116.087C306.229 115.862 307.689 115.45 309.075 114.851C310.348 114.289 311.695 113.578 312.444 112.379C312.818 111.78 311.883 111.218 311.508 111.817Z" fill="black"/>
<path d="M312.594 110.282C314.728 109.196 316.937 108.185 318.996 106.986C319.707 106.574 320.344 105.9 320.194 105.001C320.044 104.215 319.295 103.84 318.584 103.728C316.562 103.429 314.616 104.515 312.819 105.339C310.947 106.2 308.887 106.537 306.941 107.248C305.069 107.923 303.272 108.821 301.662 109.982C300.913 110.544 300.239 111.181 299.528 111.742C297.843 113.053 296.158 114.401 294.511 115.712C293.462 116.536 292.452 117.36 291.403 118.184C290.879 118.633 290.243 119.045 289.793 119.57C289.307 120.094 290.093 120.843 290.542 120.319C291.516 119.233 292.826 118.409 293.949 117.472C295.671 116.087 297.394 114.739 299.116 113.353C300.576 112.192 301.961 110.919 303.571 109.945C305.069 109.046 306.716 108.372 308.401 107.848C310.235 107.248 312.07 106.799 313.867 105.975C314.84 105.526 315.851 105.039 316.899 104.814C317.424 104.702 317.985 104.627 318.509 104.739C319.258 104.889 319.146 105.488 318.584 105.863C317.611 106.537 316.45 106.986 315.402 107.511L312.032 109.233C311.396 109.683 311.957 110.619 312.594 110.282Z" fill="black"/>
<path d="M312.182 110.357C313.755 110.694 315.252 111.181 316.825 111.48C317.611 111.63 318.397 111.78 319.183 111.78C320.157 111.78 321.13 111.593 322.066 111.368C324.125 110.919 326.035 110.132 328.019 109.383C328.431 109.233 329.516 109.046 329.105 109.833C328.88 110.245 328.281 110.619 327.907 110.881C327.083 111.48 326.184 112.005 325.286 112.454C323.227 113.465 320.98 114.064 318.696 113.877C318.097 113.84 317.985 114.776 318.547 114.926C319.932 115.3 321.355 115.562 322.74 115.675C325.061 115.9 327.195 115.488 329.367 114.739C330.041 114.514 330.902 114.102 331.65 114.177C332.886 114.327 332.025 115.637 331.426 116.087C330.902 116.461 330.19 116.649 329.554 116.836C328.655 117.098 327.757 117.285 326.821 117.435C324.762 117.809 322.478 118.072 320.381 117.622L320.232 118.671C321.28 118.821 322.366 118.896 323.414 118.97C325.024 119.045 326.746 119.12 328.318 118.671C329.254 118.371 330.565 118.072 331.501 118.633C332.212 119.045 331.838 119.682 331.313 120.019C329.704 120.993 327.495 121.143 325.66 121.405C323.676 121.667 321.617 121.517 319.67 121.03C318.996 120.843 318.697 121.892 319.37 122.079C321.317 122.566 323.451 122.79 325.436 122.528C327.532 122.266 330.003 122.079 331.838 120.955C332.512 120.543 333.036 119.944 332.961 119.083C332.886 118.184 332.137 117.622 331.313 117.435C330.115 117.098 328.955 117.398 327.794 117.697C326.896 117.922 325.922 117.959 324.949 117.959C323.376 117.959 321.766 117.847 320.194 117.622C319.595 117.547 319.445 118.558 320.044 118.671C322.141 119.083 324.35 118.896 326.446 118.558C328.206 118.296 330.303 117.997 331.838 117.023C332.586 116.574 333.26 115.637 333.335 114.739C333.41 113.69 332.512 113.091 331.538 113.016C330.602 112.978 329.704 113.39 328.88 113.69C327.644 114.139 326.372 114.514 325.024 114.589C322.927 114.701 320.756 114.364 318.771 113.802L318.622 114.851C320.868 115.001 323.114 114.476 325.173 113.54C326.259 113.053 327.27 112.492 328.243 111.78C328.992 111.256 330.041 110.619 330.228 109.645C330.415 108.709 329.704 108.072 328.805 107.96C328.206 107.885 327.719 108.147 327.195 108.372C326.596 108.634 326.035 108.859 325.436 109.084C323.339 109.87 320.905 110.694 318.659 110.507C316.525 110.357 314.503 109.608 312.444 109.158C311.77 109.158 311.508 110.207 312.182 110.357Z" fill="black"/>
<path d="M323.751 122.753C324.275 122.753 325.024 122.64 325.548 122.79C326.484 123.09 325.96 123.951 325.361 124.251C324.387 124.813 323.152 125.037 322.029 124.962C319.969 124.813 317.948 124.588 315.889 124.401C313.755 124.213 311.583 124.026 309.449 123.614C308.625 123.464 307.802 123.277 307.016 123.052C306.529 122.903 306.042 122.79 305.555 122.603C305.144 122.453 304.657 122.228 304.245 122.154C303.496 122.041 302.635 122.678 302.074 123.09C300.95 123.839 299.902 124.738 298.891 125.636C298.03 126.385 297.132 127.209 296.533 128.183C296.158 128.782 297.094 129.307 297.469 128.745C298.03 127.846 298.891 127.134 299.677 126.423C300.651 125.524 301.699 124.663 302.822 123.951C303.197 123.726 303.534 123.502 303.946 123.315C304.095 123.24 304.208 123.277 304.058 123.24C304.582 123.315 305.144 123.652 305.705 123.801C307.502 124.363 309.337 124.775 311.171 125.037C313.343 125.337 315.514 125.487 317.686 125.674C318.846 125.786 320.007 125.899 321.13 125.974C321.916 126.048 322.59 126.086 323.414 126.011C324.687 125.824 327.195 125.187 327.158 123.464C327.12 121.592 325.136 121.629 323.751 121.667C323.077 121.704 323.039 122.79 323.751 122.753Z" fill="black"/>
<path d="M318.509 120.281C318.621 118.409 318.172 116.499 317.236 114.851C316.899 114.252 315.963 114.776 316.3 115.413C317.161 116.873 317.536 118.596 317.423 120.281C317.386 120.581 317.686 120.805 317.948 120.805C318.285 120.843 318.509 120.581 318.509 120.281Z" fill="black"/>
<path d="M179.947 76.5017C179.947 76.5017 177.888 73.4682 178.225 70.9965C178.562 68.5622 178.337 68.4873 178.337 68.4873L177.551 69.1989C177.551 69.1989 176.99 66.9144 177.663 65.379C178.3 63.8435 179.236 61.8961 179.236 61.8961C179.236 61.8961 183.13 58.9001 184.103 58.0387C185.076 57.1774 189.532 55.0801 193.276 54.4809C197.019 53.8817 203.609 56.3909 206.042 58.0387C208.476 59.6865 210.161 63.5064 210.161 63.5064C210.161 63.5064 213.493 65.8658 214.054 72.5694C214.616 79.2355 212.145 84.1041 208.401 86.2387C204.62 88.4108 183.991 90.3957 179.947 76.5017Z" fill="#3A3936"/>
<path d="M75.6418 95.1146C75.6418 95.5265 78.4123 91.5568 87.248 88.8978C87.248 88.8978 93.3505 87.3998 94.586 88.5982C95.8215 89.7592 120.194 113.128 121.879 113.765C123.564 114.364 152.018 106.574 157.147 104.178C162.276 101.781 168.678 101.069 176.653 101.144C184.627 101.219 207.465 105.376 207.465 105.376C207.465 105.376 215.702 104.964 219.333 107.923C222.965 110.881 242.733 131.067 242.733 131.067C242.733 131.067 254.189 142.751 255.013 142.414C255.836 142.077 287.547 118.783 287.547 118.783C287.547 118.783 289.307 119.008 292.489 122.828C295.634 126.648 300.202 131.853 299.977 133.651C299.752 135.486 271.973 157.881 266.769 161.364C261.565 164.847 253.028 166.158 245.99 163.648C238.951 161.102 213.268 140.691 213.268 140.691L209.487 184.171C209.487 184.171 209.112 190.088 207.914 190.725C206.754 191.399 199.266 193.684 193.276 193.159C187.285 192.635 168.528 188.628 160.704 186.006C152.879 183.385 148.611 182.448 148.723 180.726C148.835 178.966 151.905 173.198 152.879 171.176C153.852 169.154 157.97 155.859 158.944 151.065C159.917 146.234 161.976 127.097 161.976 127.097C161.976 127.097 131.538 135.149 127.495 136.048C123.489 136.946 117.499 138.969 112.22 134.475C109.187 131.891 97.6186 120.431 88.2588 110.132C81.4075 102.567 75.6418 95.1146 75.6418 95.1146Z" fill="#DCDCDC"/>
<path d="M149.884 182.486L107.353 204.507C107.353 204.507 87.4726 216.079 84.8893 217.577C82.306 219.075 77.5138 229.374 77.1394 230.16C76.765 230.946 61.8642 262.929 60.142 265.513C58.4198 268.097 50.0709 289.144 49.8088 289.893C49.5468 290.642 49.4719 295.398 51.1192 298.282C52.7665 301.166 56.3981 305.21 57.5962 306.371C58.7942 307.532 72.8339 317.119 75.3049 316.895C77.7758 316.67 80.8833 316.558 80.8833 316.558C80.8833 316.558 82.7178 314.76 84.0656 313.112C85.4509 311.502 89.4194 302.327 90.6924 298.432C91.9653 294.537 107.428 248.211 108.775 246.676C110.123 245.14 135.994 230.834 140.936 228.1C145.84 225.366 166.207 214.281 166.207 214.281C166.207 214.281 168.378 219.636 169.127 223.531C169.914 227.426 174.369 254.016 174.893 257.311C175.417 260.607 177.401 274.538 179.011 279.557C180.659 284.575 192.939 308.206 192.939 308.468C192.939 308.731 211.696 343.934 213.418 345.282C215.14 346.63 216.413 345.694 220.044 344.383C223.676 343.072 236.218 336.369 237.454 334.796C238.689 333.223 237.828 332.886 236.892 331.35C235.956 329.815 213.118 272.591 213.118 272.591C213.118 272.591 210.348 265.476 210.086 262.929C209.861 260.382 208.101 216.528 208.101 216.528C208.101 216.528 206.903 196.305 205.818 192.185C205.818 192.185 191.815 194.358 180.172 191.624C168.678 188.89 152.617 183.197 149.884 182.486Z" fill="#3A3936"/>
<path d="M185.301 102.043C185.301 102.043 187.51 102.155 187.922 102.043C188.334 101.93 187.809 97.6986 187.809 97.6986C187.809 97.6986 183.953 96.6125 182.119 93.2794C180.284 89.9464 179.011 85.8269 179.049 84.9655C179.086 84.1041 180.621 76.5767 180.696 75.2284C180.771 73.8802 181.931 71.446 182.381 70.4348C182.83 69.3862 184.59 66.2404 186.462 65.3041C188.334 64.3679 191.853 64.3679 193.088 65.4539C194.286 66.54 197.806 69.9105 198.255 70.697C198.255 70.697 201.325 71.8205 201.662 73.8053C201.961 75.8276 201.475 79.2731 202.785 80.7336C204.095 82.1942 204.844 82.5687 204.844 82.5687C204.844 82.5687 206.229 81.2579 207.502 82.0818C208.813 82.9057 208.513 85.34 207.877 87.2874C207.24 89.2723 204.358 90.6954 203.833 90.9201C203.309 91.1073 202.822 96.2755 203.197 98.4476C203.571 100.62 204.994 105.338 206.492 105.638C206.492 105.638 205.181 107.173 201.924 107.585C198.667 107.997 193.051 108.447 189.906 106.949C186.761 105.451 185.264 102.679 185.301 102.043Z" fill="white"/>
<path d="M218.584 345.132L221.018 350.338C221.018 350.338 223.414 349.776 225.623 350.487C227.832 351.199 230.64 351.573 233.523 350.937C236.368 350.3 239.401 347.192 239.026 346.48C238.652 345.769 234.945 337.492 234.945 337.492C234.945 337.492 228.506 340.975 226.297 341.986C224.425 342.885 218.584 345.132 218.584 345.132Z" fill="white"/>
<path d="M66.2821 312.85C69.09 315.022 72.5344 316.932 76.0911 317.494C79.0863 317.981 82.6055 317.119 83.9908 314.123C84.2903 313.487 83.3543 312.962 83.0548 313.562C81.707 316.483 78.2252 316.932 75.4173 316.258C72.3098 315.509 69.3521 313.861 66.8437 311.914C66.2821 311.464 65.7579 312.438 66.2821 312.85Z" fill="black"/>
<path d="M182.193 473.849C204.194 473.849 222.029 456.008 222.029 434.002C222.029 411.995 204.194 394.155 182.193 394.155C160.193 394.155 142.358 411.995 142.358 434.002C142.358 456.008 160.193 473.849 182.193 473.849Z" fill="#FECE2E"/>
<path d="M182.193 474.41C159.917 474.41 141.797 456.284 141.797 434.002C141.797 411.719 159.917 393.593 182.193 393.593C204.47 393.593 222.59 411.719 222.59 434.002C222.59 456.284 204.47 474.41 182.193 474.41ZM182.193 394.716C160.516 394.716 142.882 412.355 142.882 434.039C142.882 455.723 160.516 473.362 182.193 473.362C203.871 473.362 221.505 455.723 221.505 434.039C221.505 412.318 203.908 394.716 182.193 394.716Z" fill="black"/>
<path d="M292.489 367.79L43.3694 420.519V428.122C43.3694 428.122 61.1904 437.409 61.3402 437.672C62.9126 437.035 292.489 373.445 292.489 373.445V367.79Z" fill="white"/>
<path d="M61.7145 438.308L60.816 438.196V438.009C59.281 437.11 49.6217 432.017 43.1447 428.646L42.8452 428.496V420.557H43.9309V427.822C56.3982 434.339 60.2918 436.361 61.4524 437.185C62.4633 436.81 64.9343 436.099 71.1492 434.376C77.4764 432.616 86.4992 430.069 97.3191 427.073C118.996 421.044 147.899 413.03 176.802 405.015C231.8 389.773 286.799 374.531 292.003 373.07V367.827H293.088V373.894L292.676 374.006C290.43 374.643 70.4004 435.575 61.8268 438.159L61.7145 438.308Z" fill="black"/>
<path d="M292.489 367.79L62.014 430.519L43.4067 420.519L273.882 357.79L292.489 367.79Z" fill="#DCDCDC"/>
<path d="M62.0139 431.043C61.939 431.043 61.8267 431.005 61.7518 430.968L43.1071 420.969C42.9199 420.857 42.8076 420.669 42.8076 420.445C42.8451 420.22 42.9948 420.033 43.2195 419.995L273.695 357.266C273.844 357.229 273.957 357.229 274.106 357.303L292.751 367.303C292.938 367.415 293.051 367.602 293.051 367.827C293.013 368.052 292.863 368.239 292.639 368.276L62.1636 431.005C62.1262 431.043 62.0888 431.08 62.0139 431.043ZM44.8668 420.707L62.1262 429.957L291.066 367.64L273.807 358.39L44.8668 420.707Z" fill="black"/>
<path d="M214.691 132.153C214.391 132.078 214.092 132.228 214.017 132.527C212.744 136.946 211.621 151.365 210.535 165.296C209.636 176.793 208.738 188.702 207.989 189.901C206.529 192.335 191.591 194.545 175.866 189.826C172.909 188.927 169.951 188.103 167.106 187.279C158.682 184.883 150.707 182.636 149.696 180.8C149.584 180.613 149.622 180.501 149.622 180.426C150.221 178.441 150.857 177.093 151.568 175.483C153.178 171.925 155.387 167.094 159.243 151.702C161.34 143.275 162.576 127.247 162.613 127.097C162.613 126.91 162.538 126.76 162.426 126.647C162.276 126.535 162.126 126.498 161.939 126.535C161.677 126.61 134.646 133.726 125.398 136.01C116.75 138.145 113.118 134.849 108.102 130.355L107.315 129.643C102.149 125.037 79.1237 98.6722 76.3532 95.4889C78.7493 92.0809 84.6647 89.7965 89.5692 89.01C92.452 88.5606 93.987 88.7853 94.2866 89.01C94.6984 89.3471 96.6452 91.257 99.0788 93.6538C117.386 111.592 121.093 114.589 122.104 114.251C122.366 114.139 123.639 113.877 125.361 113.465C129.854 112.416 138.24 110.432 147.151 107.885C151.119 106.761 155.237 105.376 158.57 104.252C160.853 103.466 162.688 102.867 163.661 102.604C170.213 100.882 177.701 101.631 182.68 102.155C184.665 102.342 186.237 102.53 187.248 102.492C187.547 102.492 187.772 102.23 187.772 101.93C187.772 101.631 187.473 101.406 187.21 101.406C186.237 101.443 184.702 101.294 182.755 101.069C177.701 100.545 170.063 99.7957 163.362 101.556C162.351 101.818 160.516 102.455 158.195 103.204C154.9 104.327 150.782 105.675 146.851 106.836C137.978 109.383 129.592 111.33 125.099 112.379C123.227 112.828 122.254 113.053 121.842 113.165C119.932 112.566 105.855 98.7845 99.8275 92.8299C97.1694 90.2084 95.4097 88.4857 94.9605 88.1112C93.9496 87.2499 90.7298 87.6618 89.382 87.8491C84.4401 88.6355 77.7759 90.9949 75.1926 95.1518C75.0803 95.3391 75.0803 95.6013 75.2301 95.7885C76.2784 96.9869 101.063 125.412 106.567 130.318L107.353 131.029C112.407 135.598 116.413 139.193 125.623 136.946C134.047 134.887 157.034 128.82 161.452 127.659C161.19 130.954 160.03 144.062 158.195 151.327C154.376 166.607 152.167 171.4 150.595 174.921C149.846 176.531 149.21 177.954 148.573 179.977C148.461 180.389 148.498 180.8 148.723 181.175C149.884 183.31 156.361 185.257 166.806 188.178C169.651 188.965 172.609 189.826 175.567 190.687C182.381 192.747 189.082 193.534 194.623 193.534C202.298 193.534 207.877 192.036 208.925 190.275C209.749 188.89 210.498 179.864 211.621 165.184C212.632 151.964 213.792 136.946 215.065 132.64C215.14 132.527 214.953 132.228 214.691 132.153Z" fill="black"/>
<path d="M207.428 105.938C209.449 106.087 211.471 106.237 213.493 106.387C215.29 106.537 216.862 106.986 218.397 107.96C220.082 109.046 221.617 110.432 223.077 111.742C227.046 115.338 230.79 119.195 234.459 123.09C236.405 125.15 238.24 127.322 240.262 129.344C242.957 132.078 245.653 134.774 248.423 137.433C249.734 138.669 251.007 139.905 252.354 141.103C252.841 141.515 253.328 141.965 253.852 142.339C254.152 142.564 254.451 142.826 254.788 142.901C255.35 143.051 255.911 142.601 256.36 142.302C257.296 141.74 258.158 141.103 259.056 140.467C265.383 136.01 271.486 131.291 277.663 126.648C280.284 124.663 282.942 122.678 285.6 120.73C286.312 120.206 287.023 119.682 287.772 119.195C287.847 119.158 287.959 119.083 288.034 119.045C288.221 118.933 288.071 119.008 287.959 119.045C287.922 119.045 287.884 119.045 287.847 119.008C287.884 119.045 287.997 119.083 288.034 119.12C288.221 119.232 288.333 119.345 288.521 119.495C289.756 120.581 290.842 121.817 291.928 123.052C293.35 124.663 294.698 126.348 296.008 128.071C297.057 129.456 298.105 130.879 298.929 132.415C299.041 132.64 299.153 132.864 299.228 133.089C299.266 133.201 299.303 133.276 299.341 133.389C299.378 133.576 299.341 133.426 299.378 133.538C299.378 133.576 299.415 133.501 299.378 133.576C299.303 133.688 299.228 133.801 299.153 133.913C299.153 133.913 298.966 134.138 298.854 134.25C298.704 134.437 298.517 134.625 298.367 134.774C297.955 135.224 297.544 135.636 297.094 136.048C295.934 137.134 294.736 138.22 293.538 139.268C290.355 142.04 287.061 144.774 283.766 147.432C280.471 150.129 277.139 152.788 273.807 155.372C271.711 157.02 269.614 158.705 267.405 160.24C263.062 163.274 257.559 164.847 252.28 164.472C248.798 164.248 245.541 163.049 242.545 161.327C240.561 160.166 238.652 158.93 236.742 157.619C229.217 152.526 221.991 146.983 214.878 141.328C214.429 140.954 213.979 140.617 213.53 140.242C213.006 139.793 212.22 140.579 212.781 140.991C218.472 145.56 224.275 150.017 230.191 154.286C234.159 157.17 238.165 160.016 242.433 162.45C248.348 165.858 255.275 166.382 261.714 164.173C264.934 163.087 267.667 161.327 270.363 159.304C273.32 157.057 276.278 154.735 279.161 152.413C282.718 149.605 286.237 146.758 289.681 143.837C292.489 141.478 295.297 139.119 297.955 136.609C298.704 135.898 299.453 135.186 300.052 134.4C300.576 133.726 300.464 133.089 300.127 132.34C299.453 130.842 298.405 129.456 297.431 128.108C296.158 126.385 294.81 124.7 293.388 123.052C292.19 121.667 290.992 120.281 289.644 119.045C289.12 118.558 288.333 117.66 287.51 118.034C286.948 118.296 286.424 118.746 285.9 119.12C284.814 119.869 283.766 120.693 282.68 121.48C276.278 126.236 269.951 131.104 263.549 135.823C261.153 137.621 258.719 139.418 256.211 141.066C255.874 141.291 255.574 141.478 255.237 141.665C255.125 141.74 255.013 141.778 254.9 141.815C255.013 141.74 254.863 141.815 254.863 141.815C254.863 141.852 254.825 141.703 254.9 141.815C255.088 142.077 254.9 141.778 254.938 141.815C254.975 141.89 254.975 141.815 254.863 141.778C254.676 141.665 254.526 141.553 254.339 141.403C253.89 141.066 253.403 140.617 252.954 140.242C249.958 137.621 247.113 134.774 244.305 131.966C242.583 130.243 240.786 128.595 239.176 126.76C235.844 122.978 232.362 119.345 228.805 115.787C226.896 113.877 224.986 112.005 222.965 110.244C221.542 108.971 220.045 107.66 218.36 106.687C216.825 105.825 215.177 105.413 213.418 105.301C211.396 105.151 209.374 105.001 207.353 104.852C206.754 104.777 206.754 105.863 207.428 105.938Z" fill="black"/>
<path d="M149.621 181.887C141.684 186.156 133.672 190.201 125.66 194.283C116.862 198.777 108.064 203.271 99.4156 208.064C95.8963 210.012 92.4145 211.959 89.045 214.094C87.173 215.255 85.1513 216.303 83.6537 217.951C80.6586 221.247 78.7867 225.554 76.8398 229.486C74.2565 234.691 71.7106 239.897 69.2022 245.103C66.2071 251.357 63.212 257.611 60.2917 263.865C57.7833 269.258 55.2749 274.613 52.9162 280.081C52.13 281.916 51.3438 283.751 50.6324 285.586C50.2955 286.448 49.7339 287.534 49.7339 288.507C49.7339 288.919 49.9585 289.331 50.4452 289.294C50.8945 289.256 51.0068 288.919 51.4561 288.882C52.3921 288.807 53.4029 289.256 54.2266 289.593C55.7616 290.268 57.1843 291.129 58.5695 292.028C67.0308 297.533 74.556 304.536 81.2951 312.026C81.9315 312.738 82.568 313.449 83.2045 314.198C83.3542 314.386 83.6537 314.386 83.8784 314.273C84.702 313.824 85.2636 313 85.7503 312.213C86.4991 310.94 87.0981 309.592 87.6597 308.244C88.8578 305.36 89.9435 302.439 91.0292 299.518C92.5642 295.398 93.9495 291.204 95.3347 287.047C98.6668 277.16 101.849 267.236 105.294 257.424C106.379 254.353 107.39 251.207 108.813 248.286C109.075 247.687 109.3 247.2 109.711 246.9C109.711 246.9 109.786 246.825 109.899 246.75C110.011 246.638 110.161 246.563 110.273 246.488C110.61 246.264 110.984 246.001 111.321 245.777C117.199 241.994 123.302 238.586 129.367 235.141C137.229 230.647 145.166 226.228 153.141 221.921C156.136 220.311 159.131 218.7 162.164 217.202C163.137 216.715 164.11 216.229 165.121 215.817C165.421 215.704 165.72 215.554 166.02 215.442C166.132 215.405 166.244 215.367 166.357 215.33C166.507 215.292 166.544 215.255 166.469 215.292C166.394 215.33 166.357 215.142 166.432 215.33C166.581 215.592 166.731 215.854 166.806 216.079C167.18 217.052 167.442 218.064 167.705 219.037C168.566 222.333 169.165 225.666 169.801 228.999C171.486 238.137 172.909 247.312 174.331 256.45C175.417 263.266 176.278 270.232 177.813 276.973C178.188 278.621 178.824 280.156 179.498 281.691C180.733 284.538 182.044 287.309 183.392 290.08C187.248 298.095 191.254 306.034 195.372 313.899C199.341 321.539 203.347 329.141 207.615 336.631C209 339.065 210.385 341.462 211.958 343.784C212.519 344.608 213.418 346.405 214.616 346.293C216.001 346.143 217.424 345.582 218.734 345.17C221.093 344.421 223.414 343.559 225.698 342.623C228.244 341.537 230.715 340.376 233.036 338.915C235.058 337.642 237.079 336.182 238.502 334.234C238.914 333.71 238.727 333.41 238.502 332.886C238.24 332.212 237.978 331.65 237.716 330.976C236.667 328.504 235.619 325.995 234.571 323.523C231.276 315.696 228.019 307.869 224.799 300.005C221.467 291.915 218.172 283.864 215.028 275.737C213.942 272.928 212.856 270.119 211.883 267.311C211.359 265.738 210.834 264.202 210.647 262.554C210.273 259.109 210.161 255.589 210.011 252.143C209.824 247.087 209.674 242.032 209.487 236.976C209.112 225.891 208.813 214.768 207.877 203.72C207.54 199.75 207.165 195.743 206.417 191.848C206.304 191.174 205.256 191.436 205.368 192.148C206.417 197.653 206.828 203.271 207.165 208.851C207.615 215.891 207.914 222.97 208.176 230.01C208.401 236.676 208.588 243.38 208.85 250.046C209 254.428 209.075 258.847 209.636 263.229C209.936 265.588 210.872 267.872 211.696 270.082C213.231 274.314 214.878 278.471 216.563 282.665C220.756 293.226 225.099 303.75 229.479 314.273C231.276 318.58 233.073 322.849 234.87 327.156C235.769 329.328 236.593 331.613 237.641 333.71C237.678 333.822 237.716 333.897 237.753 334.009V333.448C235.694 336.256 232.512 338.166 229.479 339.739C226.259 341.387 222.89 342.735 219.445 343.896C218.21 344.308 216.974 344.683 215.701 345.02C215.327 345.132 214.953 345.207 214.578 345.282C214.503 345.319 214.316 345.319 214.241 345.357C214.316 345.319 214.466 345.357 214.466 345.394C214.429 345.282 214.391 345.357 214.279 345.282C214.129 345.17 214.017 345.02 213.904 344.87C213.605 344.495 213.343 344.121 213.043 343.709C210.797 340.413 208.85 336.893 206.903 333.41C203.983 328.205 201.213 322.962 198.442 317.719C192.939 307.233 187.51 296.634 182.493 285.886C181.258 283.264 179.835 280.568 179.049 277.797C178.075 274.314 177.626 270.606 177.027 267.048C175.005 254.802 173.246 242.519 171.037 230.272C170.25 225.891 169.502 221.434 168.191 217.165C167.929 216.341 167.667 215.105 166.993 214.543C166.394 214.019 165.533 214.506 164.897 214.768C161.377 216.229 158.008 218.101 154.638 219.899C149.434 222.67 144.268 225.516 139.101 228.4C129.779 233.605 120.382 238.811 111.321 244.503C110.46 245.065 109.487 245.589 108.738 246.264C107.989 246.938 107.615 248.061 107.24 248.96C105.106 253.978 103.422 259.221 101.662 264.389C97.319 277.197 93.3505 290.155 88.5208 302.776C87.6223 305.098 86.7986 307.42 85.7503 309.629C85.1887 310.865 84.4774 312.663 83.2045 313.374L83.8784 313.449C78.1876 306.821 71.9727 300.829 65.0839 295.473C61.9765 293.039 58.7567 290.605 55.1626 288.882C53.9645 288.283 51.2689 287.009 50.0708 288.283C50.0708 288.283 50.1083 288.208 50.1832 288.245C50.2955 288.283 50.5576 288.358 50.7073 288.47C50.8196 288.545 50.7073 288.62 50.7447 288.62C50.7447 288.62 50.7822 288.47 50.7447 288.582C50.8571 288.208 50.932 287.833 51.0817 287.421C51.6059 285.923 52.2049 284.463 52.8039 283.002C54.9005 277.984 57.1843 273.078 59.4681 268.135C62.3134 261.955 65.2337 255.813 68.1914 249.672C70.8495 244.129 73.5077 238.624 76.2408 233.081C77.8132 229.898 79.3108 226.677 81.033 223.606C82.0813 221.734 83.2793 219.861 84.7769 218.288C85.1887 217.839 85.638 217.427 86.1621 217.09C86.3119 216.978 86.4617 216.903 86.6114 216.79C86.6863 216.753 86.9484 216.64 86.7986 216.678C87.9592 216.079 89.0824 215.255 90.2056 214.543C91.8155 213.57 93.4253 212.596 95.0727 211.66C103.234 206.978 111.583 202.634 119.97 198.327C128.393 193.983 136.817 189.751 145.204 185.37C146.851 184.508 148.498 183.647 150.146 182.748C150.782 182.523 150.22 181.587 149.621 181.887Z" fill="black"/>
<path d="M156.922 179.527C162.987 180.426 169.127 181.1 175.267 181.25C180.883 181.4 186.499 181.1 192.077 180.351C195.484 179.902 198.816 179.302 202.186 178.628C202.86 178.479 202.598 177.43 201.886 177.58C196.196 178.741 190.468 179.64 184.664 180.014C179.086 180.351 173.47 180.239 167.854 179.752C164.298 179.452 160.741 179.003 157.222 178.479C156.548 178.366 156.248 179.415 156.922 179.527Z" fill="black"/>
<path d="M50.1083 287.983C48.2363 290.38 48.7605 293.451 49.8462 296.035C51.0068 298.844 52.6916 301.428 54.5636 303.787C55.4995 304.948 56.473 306.034 57.6336 306.97C58.1577 307.382 58.9439 306.633 58.3824 306.221C55.7991 304.162 53.7773 301.24 52.1674 298.394C50.6699 295.735 48.5733 291.616 50.8196 288.77C51.3064 288.208 50.5576 287.459 50.1083 287.983Z" fill="black"/>
<path d="M212.894 363.145C213.792 361.722 214.728 360.337 215.589 358.914C216.488 357.416 217.611 355.73 218.135 354.045C218.135 354.045 218.846 351.723 220.943 350.487C223.04 349.289 225.66 350.562 227.869 351.236C230.078 351.91 232.287 351.536 235.132 350.338C237.978 349.139 239.176 345.244 240.074 346.031C240.973 346.817 244.829 356.442 245.054 358.165C245.278 359.887 244.717 361.872 239.625 365.243C234.533 368.613 231.576 371.572 228.955 373.856C226.334 376.141 216.712 382.283 211.546 382.919C207.839 383.406 203.085 383.593 202.186 377.976C201.325 372.321 207.203 370.448 209.524 367.34C210.31 366.291 212.257 364.157 212.894 363.145Z" fill="white"/>
<path d="M213.343 363.408C215.028 360.824 216.937 358.24 218.172 355.393C218.472 354.719 218.622 354.045 218.959 353.408C219.445 352.472 220.119 351.611 221.018 351.049C223.451 349.514 226.372 351.611 228.843 351.985C230.078 352.173 231.314 352.06 232.549 351.761C233.785 351.461 235.095 351.087 236.181 350.412C237.042 349.888 237.716 349.139 238.315 348.353C238.577 348.016 238.839 347.679 239.101 347.342C239.288 347.079 239.588 346.817 239.737 346.555C239.737 346.518 239.85 346.405 239.85 346.48C239.812 346.555 239.7 346.33 239.737 346.48C239.737 346.48 239.925 346.742 239.999 346.855C240.336 347.379 240.598 347.978 240.861 348.54C241.609 350.188 242.283 351.836 242.957 353.521C243.481 354.906 244.043 356.33 244.417 357.753C245.278 361.086 241.235 363.483 238.914 365.055C236.63 366.591 234.458 368.276 232.399 370.074C230.939 371.31 229.554 372.695 228.056 373.894C224.949 376.328 221.43 378.388 217.91 380.11C214.616 381.721 210.872 383.069 207.128 382.507C205.293 382.245 203.796 381.234 203.122 379.474C202.373 377.489 202.485 375.354 203.684 373.594C204.732 372.059 206.304 370.973 207.727 369.849C209.187 368.651 210.31 367.19 211.508 365.73C212.145 364.981 212.819 364.232 213.343 363.408C213.717 362.808 212.781 362.284 212.407 362.846C211.77 363.82 210.984 364.681 210.235 365.542C209.599 366.291 209.037 367.115 208.363 367.789C207.016 369.175 205.331 370.224 203.946 371.572C202.56 372.957 201.549 374.68 201.512 376.702C201.475 378.8 202.261 381.122 203.983 382.395C205.481 383.518 207.427 383.706 209.225 383.631C211.096 383.556 212.894 383.256 214.653 382.62C218.921 381.084 222.927 378.725 226.671 376.178C230.19 373.744 233.111 370.636 236.518 368.051C238.876 366.254 241.534 364.831 243.594 362.696C244.604 361.647 245.503 360.374 245.578 358.876C245.653 357.715 245.166 356.554 244.792 355.468C244.155 353.633 243.444 351.835 242.695 350.075C242.133 348.727 241.572 347.267 240.786 346.031C240.524 345.619 240.149 345.244 239.588 345.357C238.989 345.469 238.577 346.143 238.24 346.592C237.641 347.416 237.042 348.24 236.256 348.914C235.207 349.851 233.785 350.3 232.437 350.637C231.089 350.974 229.816 351.087 228.543 350.787C227.12 350.487 225.81 349.851 224.387 349.551C223.04 349.289 221.692 349.326 220.494 350.075C219.558 350.675 218.809 351.498 218.247 352.435C217.91 353.034 217.686 353.633 217.461 354.27C216.9 355.805 215.964 357.191 215.102 358.577C214.241 359.962 213.305 361.385 212.407 362.808C212.032 363.483 212.968 364.007 213.343 363.408Z" fill="black"/>
<path d="M205.855 380.522C209.711 380.485 213.455 379.286 216.862 377.639C218.772 376.702 220.606 375.616 222.366 374.418C223.788 373.444 225.248 372.471 226.521 371.31C227.233 370.673 227.907 369.999 228.618 369.325C229.442 368.576 230.228 367.752 231.164 367.153C232.849 366.104 234.608 365.13 236.256 364.044C238.764 362.396 241.572 360.561 243.294 358.052C243.706 357.49 242.77 356.929 242.358 357.49C240.861 359.625 238.427 361.235 236.33 362.659C234.571 363.857 232.736 365.018 230.864 366.029C230.116 366.441 229.442 367.04 228.805 367.602C227.907 368.389 227.046 369.212 226.184 369.999C223.863 372.208 221.018 374.043 218.247 375.579C214.429 377.714 210.198 379.324 205.78 379.361C205.144 379.436 205.144 380.522 205.855 380.522Z" fill="black"/>
<path d="M160.741 117.697C161.078 120.993 161.303 124.288 161.415 127.584C161.452 128.295 162.501 128.295 162.501 127.584C162.388 124.288 162.164 120.955 161.827 117.697C161.752 116.985 160.666 116.985 160.741 117.697Z" fill="black"/>
<path d="M168.453 217.914C167.368 213.27 165.683 208.739 164.223 204.207C163.998 203.533 162.95 203.833 163.174 204.507C164.635 209.038 166.319 213.57 167.405 218.214C167.592 218.888 168.641 218.588 168.453 217.914Z" fill="black"/>
<path d="M202.897 91.1074C202.411 93.8413 202.485 96.7249 202.785 99.4588C202.935 100.844 203.159 102.268 203.684 103.541C204.095 104.627 204.994 106.275 206.417 106.087C207.091 106.013 207.091 104.927 206.417 105.001C205.293 105.151 204.694 103.241 204.47 102.417C204.095 101.144 203.908 99.8333 203.796 98.56C203.609 96.2006 203.534 93.7289 203.946 91.3695C204.058 90.7329 203.01 90.4333 202.897 91.1074Z" fill="black"/>
<path d="M199.041 92.7551C198.667 93.2045 198.143 93.579 197.693 93.9161C196.233 95.0021 194.586 95.826 192.901 96.5001C190.093 97.5862 186.986 97.9232 184.664 95.6388C183.504 94.5153 182.605 93.0922 181.819 91.7065C181.033 90.3208 180.247 88.8228 179.872 87.2499C178.974 83.5049 180.546 79.9846 181.07 76.3145C181.183 75.5655 181.257 74.779 181.257 74.03C181.257 73.5806 181.257 73.618 181.445 73.2061C181.707 72.6443 181.969 72.12 182.268 71.5957C182.568 71.0714 182.942 70.5471 183.129 69.9479C183.616 68.5623 184.215 67.289 185.451 66.3902C187.734 64.6674 190.879 65.0794 193.201 66.5025C194.923 67.5511 196.383 69.0491 197.544 70.7344C197.731 70.9965 197.806 71.1089 198.143 71.2212C197.993 71.1838 198.18 71.2212 198.255 71.2587C198.405 71.2961 198.592 71.3336 198.742 71.371C200.127 71.783 201.1 72.8316 201.362 74.2547C201.662 75.7527 201.437 77.3631 201.624 78.8611C201.812 80.434 202.411 81.7447 203.758 82.6435C204.357 83.018 204.882 82.0818 204.32 81.7073C201.812 80.022 202.972 76.3894 202.448 73.8802C201.999 71.8579 200.239 70.3599 198.18 70.1352L198.629 70.3973C196.832 67.4762 193.687 64.7423 190.168 64.2929C187.922 63.9933 185.6 64.63 184.028 66.2404C183.092 67.2141 182.568 68.375 182.119 69.6109C181.782 70.5097 181.145 71.371 180.696 72.2324C180.322 72.9814 180.172 73.4308 180.134 74.2547C179.985 77.2507 178.974 80.0595 178.562 82.9806C178.113 86.1264 179.086 89.0101 180.584 91.7439C181.782 93.9535 183.279 96.4627 185.6 97.6611C188.446 99.0842 191.441 98.2977 194.211 97.0619C196.121 96.2005 198.367 95.1145 199.752 93.4667C200.277 93.0173 199.49 92.2308 199.041 92.7551Z" fill="black"/>
<path d="M204.17 83.7671C204.919 83.0181 206.304 82.0444 207.315 82.9432C208.214 83.7297 208.101 85.3775 207.764 86.3886C207.39 87.587 206.566 88.5982 205.555 89.3098C204.432 90.0962 203.01 90.8827 201.587 90.7329C200.876 90.658 200.913 91.744 201.587 91.8189C203.01 91.9313 204.357 91.2946 205.555 90.5831C206.641 89.909 207.615 89.0476 208.251 87.9241C208.85 86.8755 209.187 85.6022 209.037 84.4038C208.888 83.1679 208.363 82.007 207.128 81.6325C205.705 81.1831 204.357 82.0444 203.384 82.9807C202.897 83.4675 203.646 84.254 204.17 83.7671Z" fill="black"/>
<path d="M207.165 84.3663C206.229 83.8046 205.256 84.5161 204.545 85.0779C203.908 85.6022 203.347 86.2389 202.935 86.9504C202.785 87.1751 202.86 87.5496 203.122 87.6994C203.384 87.8492 203.721 87.7743 203.871 87.5122C204.208 86.9504 204.619 86.4636 205.144 86.0142C205.368 85.8269 205.593 85.6396 205.892 85.4524C206.08 85.34 206.154 85.3026 206.342 85.2651C206.417 85.2651 206.229 85.2651 206.379 85.2651C206.417 85.2651 206.454 85.2651 206.491 85.2651C206.417 85.2651 206.491 85.2651 206.529 85.2651C206.679 85.3026 206.491 85.2277 206.604 85.3026C206.866 85.4524 207.203 85.3775 207.353 85.1153C207.502 84.8532 207.427 84.5161 207.165 84.3663Z" fill="black"/>
<path d="M204.283 86.426C204.245 86.3886 204.32 86.4635 204.32 86.4635C204.395 86.5384 204.283 86.3886 204.32 86.4635L204.358 86.5384C204.358 86.5758 204.395 86.5758 204.395 86.6133C204.395 86.6507 204.395 86.6882 204.432 86.6882C204.432 86.7631 204.432 86.5758 204.432 86.6507C204.432 86.7256 204.432 86.7631 204.432 86.838C204.432 86.8754 204.432 86.9129 204.432 86.9129C204.432 86.9878 204.47 86.7631 204.432 86.8754C204.432 86.9503 204.395 86.9878 204.395 87.0627C204.395 87.1001 204.358 87.175 204.358 87.2125C204.358 87.175 204.395 87.1001 204.358 87.175C204.358 87.2125 204.32 87.2499 204.32 87.2874C204.283 87.3248 204.245 87.3997 204.245 87.4372C204.245 87.4746 204.208 87.4746 204.208 87.5121C204.283 87.4372 204.133 87.6244 204.208 87.5121C204.17 87.5495 204.133 87.587 204.095 87.6244C204.058 87.6619 204.021 87.6993 203.983 87.7368C204.096 87.6619 203.946 87.7742 203.983 87.7368C203.946 87.7368 203.946 87.7742 203.908 87.7742C203.871 87.8117 203.796 87.8491 203.759 87.8491L203.646 87.8866C203.384 87.9615 203.16 88.2611 203.272 88.5607C203.347 88.8228 203.646 89.0475 203.946 88.9352C204.657 88.7105 205.181 88.1862 205.406 87.4746C205.63 86.7631 205.556 85.8268 204.882 85.4523C204.62 85.3025 204.283 85.3774 204.133 85.6396C203.983 85.9392 204.021 86.3137 204.283 86.426Z" fill="black"/>
<path d="M185.713 78.2245C185.301 78.7862 184.889 79.348 184.477 79.9472C184.29 80.2468 184.065 80.5089 183.878 80.8085C183.691 81.0707 183.466 81.3328 183.354 81.6699C183.167 82.2316 183.279 82.9057 183.654 83.3926C183.953 83.8045 184.402 84.1041 184.702 84.5161C184.889 84.7408 185.263 84.7033 185.451 84.5161C185.675 84.2914 185.638 83.9918 185.451 83.7671C184.964 83.1679 183.916 82.6436 184.515 81.7822C185.189 80.7711 185.937 79.8348 186.649 78.8611C186.836 78.6364 186.686 78.2619 186.462 78.1121C186.199 77.8499 185.9 77.9623 185.713 78.2245Z" fill="black"/>
<path d="M183.729 76.8387C183.803 76.9511 183.841 77.1758 183.878 77.2882C183.916 77.6252 183.878 77.9997 183.803 78.2993C183.766 78.4491 183.691 78.5989 183.616 78.7113C183.504 78.8236 183.354 78.8985 183.204 78.8985C182.98 78.8985 182.83 78.7113 182.755 78.4866C182.643 78.2244 182.643 77.9623 182.718 77.6627C182.793 77.4005 182.905 77.1384 183.017 76.9137C183.055 76.8388 183.13 76.7639 183.204 76.689C183.279 76.6515 183.392 76.614 183.541 76.6515C183.616 76.6889 183.691 76.7638 183.729 76.8387Z" fill="black"/>
<path d="M183.467 77.1383C183.429 77.1008 183.392 77.0259 183.467 77.1383C183.429 77.1383 183.429 77.0634 183.467 77.1383C183.429 77.1383 183.429 77.1008 183.467 77.1383C183.467 77.2132 183.467 77.3255 183.504 77.363C183.504 77.363 183.504 77.2506 183.504 77.3255C183.504 77.363 183.504 77.363 183.504 77.4004C183.504 77.4379 183.504 77.4753 183.504 77.5128C183.504 77.6251 183.504 77.7 183.504 77.8124C183.504 77.8498 183.504 77.8873 183.504 77.9247C183.504 77.8498 183.504 77.9622 183.504 77.9622C183.504 78.0745 183.467 78.1494 183.429 78.2618C183.429 78.2992 183.392 78.3367 183.392 78.3741C183.429 78.2992 183.392 78.4116 183.354 78.4116C183.354 78.449 183.279 78.4865 183.317 78.449L183.279 78.4865C183.204 78.5239 183.317 78.4865 183.242 78.4865C183.167 78.4865 183.279 78.4865 183.204 78.4865C183.204 78.4865 183.279 78.4865 183.242 78.4865C183.204 78.4865 183.279 78.4865 183.279 78.4865C183.279 78.4865 183.242 78.4865 183.242 78.449C183.279 78.4865 183.204 78.449 183.242 78.449C183.204 78.4116 183.167 78.3741 183.204 78.4116C183.167 78.3741 183.167 78.3741 183.167 78.3367C183.167 78.3367 183.167 78.2992 183.13 78.2992C183.13 78.2618 183.092 78.2243 183.092 78.1869C183.092 78.1494 183.092 78.1494 183.092 78.1494C183.092 78.112 183.092 78.0745 183.092 78.0371C183.092 77.9996 183.092 77.9622 183.092 77.9247C183.092 77.9247 183.092 77.8498 183.092 77.8873C183.092 77.9247 183.092 77.8498 183.092 77.8498C183.092 77.7749 183.13 77.7 183.167 77.5877C183.167 77.5502 183.204 77.5128 183.204 77.4753C183.204 77.4753 183.242 77.4004 183.204 77.4379C183.204 77.4753 183.204 77.4004 183.242 77.4004C183.279 77.3255 183.317 77.2132 183.392 77.1383C183.429 77.1008 183.429 77.0634 183.467 77.0259C183.504 76.9885 183.504 76.9885 183.467 77.0259C183.467 77.0259 183.504 77.0259 183.504 76.9885C183.541 76.951 183.429 77.0259 183.467 76.9885C183.504 76.9885 183.429 76.9885 183.429 76.9885H183.504C183.616 76.9885 183.429 76.9885 183.429 76.951C183.392 77.0634 183.429 77.1008 183.467 77.1383C183.616 77.3255 183.916 77.2881 184.066 77.1383C184.215 76.951 184.215 76.7263 184.066 76.5765C183.878 76.3518 183.579 76.2395 183.279 76.3144C183.017 76.3518 182.83 76.5765 182.68 76.8012C182.418 77.2132 182.231 77.7375 182.306 78.2243C182.343 78.7486 182.68 79.3478 183.279 79.3478C183.878 79.3478 184.178 78.7486 184.29 78.2243C184.403 77.7 184.403 77.0259 184.066 76.5765C183.953 76.3893 183.616 76.4267 183.504 76.5765C183.279 76.7263 183.317 76.951 183.467 77.1383Z" fill="black"/>
<path d="M193.687 78.1122C193.762 78.2246 193.8 78.4493 193.837 78.5616C193.874 78.8987 193.837 79.2732 193.762 79.5728C193.725 79.7226 193.65 79.8724 193.575 79.9848C193.463 80.0971 193.313 80.172 193.163 80.172C192.939 80.172 192.789 79.9847 192.714 79.76C192.602 79.4979 192.602 79.2358 192.676 78.9361C192.751 78.674 192.864 78.4118 192.976 78.1871C193.013 78.1122 193.088 78.0373 193.163 77.9624C193.238 77.8875 193.35 77.8875 193.5 77.925C193.575 77.9624 193.65 78.0373 193.687 78.1122Z" fill="black"/>
<path d="M193.425 78.4117C193.388 78.3743 193.35 78.3368 193.425 78.4117C193.388 78.4117 193.388 78.3368 193.425 78.4117C193.388 78.4117 193.388 78.3743 193.425 78.4117C193.425 78.4866 193.425 78.599 193.463 78.6364C193.463 78.6364 193.463 78.5241 193.463 78.599C193.463 78.6364 193.463 78.6364 193.463 78.6739C193.463 78.7113 193.463 78.7488 193.463 78.7862C193.463 78.8986 193.463 78.9735 193.463 79.0858C193.463 79.1233 193.463 79.1607 193.463 79.1982C193.463 79.1233 193.463 79.2356 193.463 79.2356C193.463 79.348 193.425 79.4229 193.388 79.5352C193.388 79.5727 193.35 79.6101 193.35 79.6476C193.388 79.5727 193.35 79.685 193.313 79.685C193.313 79.7225 193.238 79.7599 193.276 79.7225L193.238 79.7599C193.163 79.7974 193.276 79.7599 193.201 79.7599C193.126 79.7974 193.238 79.7599 193.163 79.7599C193.163 79.7599 193.238 79.7599 193.201 79.7599C193.163 79.7599 193.238 79.7599 193.238 79.7599C193.238 79.7599 193.201 79.7599 193.201 79.7225C193.238 79.7599 193.163 79.7225 193.201 79.7225C193.163 79.685 193.126 79.6476 193.163 79.685C193.126 79.6476 193.126 79.6476 193.126 79.6101C193.126 79.6101 193.126 79.5727 193.088 79.5727C193.088 79.5352 193.051 79.4978 193.051 79.4603C193.051 79.4229 193.051 79.4229 193.051 79.4229C193.051 79.3854 193.051 79.348 193.051 79.3105C193.051 79.2731 193.051 79.2356 193.051 79.1982C193.051 79.1982 193.051 79.1233 193.051 79.1607C193.051 79.1982 193.051 79.1233 193.051 79.1233C193.051 79.0484 193.088 78.9735 193.126 78.8611C193.126 78.8237 193.163 78.7862 193.163 78.7488C193.163 78.7488 193.201 78.6739 193.163 78.7113C193.163 78.7488 193.163 78.6739 193.201 78.6739C193.238 78.599 193.276 78.4866 193.35 78.4117C193.388 78.3743 193.388 78.3368 193.425 78.2994C193.463 78.2619 193.463 78.2619 193.425 78.2994C193.425 78.2994 193.463 78.2994 193.463 78.2619C193.5 78.2245 193.388 78.2994 193.425 78.2619C193.463 78.2619 193.388 78.2619 193.388 78.2619H193.463C193.575 78.2619 193.388 78.2619 193.388 78.2245C193.35 78.3368 193.388 78.3743 193.425 78.4117C193.575 78.599 193.875 78.5615 194.024 78.4117C194.174 78.2245 194.174 77.9998 194.024 77.85C193.837 77.6253 193.538 77.5129 193.238 77.5878C192.976 77.6253 192.789 77.85 192.639 78.0747C192.377 78.4866 192.19 79.0109 192.265 79.4978C192.302 80.0221 192.639 80.6213 193.238 80.6213C193.837 80.6213 194.137 80.0221 194.249 79.4978C194.361 78.9735 194.361 78.2994 194.024 77.85C193.912 77.6627 193.575 77.7002 193.463 77.85C193.238 77.9998 193.276 78.2245 193.425 78.4117Z" fill="black"/>
<path d="M209.037 86.4635C213.979 82.0818 215.814 74.2547 213.755 68.038C213.118 66.1655 212.07 64.4428 210.497 63.1694L210.647 63.5439C210.497 62.4204 209.861 61.3344 209.187 60.4356C207.24 57.8515 204.283 56.3161 201.287 55.2674C200.613 55.0427 200.351 56.0914 200.988 56.3161C204.395 57.5145 208.7 59.7989 209.561 63.6563C209.599 63.7686 209.374 63.3567 209.561 63.6937C209.711 63.9559 209.898 64.0683 210.123 64.293C210.685 64.8173 211.209 65.4165 211.621 66.0531C212.369 67.2141 212.819 68.5248 213.118 69.9105C213.605 72.1949 213.642 74.7041 213.156 76.9886C212.482 80.2467 210.797 83.5049 208.289 85.7145C207.727 86.1639 208.513 86.9129 209.037 86.4635Z" fill="black"/>
<path d="M188.334 97.6985L188.259 98.3352L188.296 98.2977L187.622 98.3726L187.36 97.9232C187.36 98.0356 187.398 98.1854 187.398 98.2977C187.398 98.4101 187.435 98.5224 187.435 98.6348C187.435 98.6723 187.435 98.7097 187.472 98.7846C187.472 98.8969 187.472 98.7097 187.472 98.8221C187.547 99.2715 187.585 99.7583 187.585 100.208C187.585 100.695 187.585 101.144 187.472 101.593C187.398 101.856 187.36 101.968 187.285 102.155C187.248 102.23 187.173 102.38 187.136 102.417C187.098 102.455 186.986 102.567 186.911 102.642C186.686 102.829 186.724 103.204 186.911 103.391C187.135 103.616 187.472 103.578 187.66 103.391C188.521 102.605 188.708 101.331 188.671 100.245C188.671 99.7209 188.596 99.234 188.521 98.7471C188.521 98.6348 188.483 98.485 188.483 98.3726C188.446 98.2228 188.483 98.4101 188.483 98.2977C188.483 98.2603 188.483 98.2228 188.483 98.1854C188.446 97.8858 188.446 97.6236 188.184 97.4364C187.959 97.2866 187.697 97.3615 187.51 97.5113L187.472 97.5487C187.285 97.6985 187.285 97.9981 187.398 98.2228V98.2603C187.51 98.5224 187.922 98.5974 188.146 98.4475C188.408 98.2977 188.446 97.9981 188.334 97.6985Z" fill="black"/>
<path d="M197.955 94.4029C199.041 93.579 196.87 96.1256 195.41 97.1368C194.286 97.9233 191.366 99.1217 190.168 99.1591C189.045 99.1966 187.884 99.1591 187.884 99.1591L188.184 97.9981C188.146 97.9981 192.564 98.4475 197.955 94.4029Z" fill="black"/>
<path d="M196.57 74.4045C195.522 73.4683 194.062 73.0938 192.714 73.3934C192.452 73.4683 192.265 73.8053 192.34 74.0675C192.452 74.3671 192.714 74.5169 193.014 74.442C193.088 74.442 193.163 74.4045 193.201 74.4045C193.238 74.4045 193.276 74.4045 193.313 74.4045C193.276 74.4045 193.238 74.4045 193.313 74.4045C193.463 74.4045 193.575 74.3671 193.725 74.3671C193.875 74.3671 193.987 74.3671 194.137 74.4045C194.024 74.4045 194.212 74.4045 194.249 74.442C194.324 74.442 194.399 74.4794 194.474 74.4794C194.623 74.5169 194.736 74.5543 194.886 74.5918C194.886 74.5918 194.998 74.6292 194.923 74.6292C194.886 74.5918 194.96 74.6667 194.96 74.6667C195.035 74.7041 195.073 74.7416 195.148 74.7416C195.26 74.8165 195.372 74.8914 195.522 74.9663C195.559 75.0037 195.559 75.0037 195.597 75.0412C195.672 75.0786 195.559 75.0037 195.597 75.0412C195.672 75.0786 195.709 75.1535 195.784 75.191C196.009 75.3782 196.346 75.4157 196.533 75.191C196.795 74.9288 196.832 74.5918 196.57 74.4045Z" fill="black"/>
<path d="M185.788 72.944C185.226 72.7567 184.627 72.532 184.028 72.4945C183.466 72.4196 182.867 72.532 182.343 72.7567C182.081 72.8691 181.857 73.1312 181.969 73.4308C182.044 73.693 182.343 73.9177 182.643 73.8053C182.867 73.693 183.129 73.618 183.354 73.5806C183.392 73.5806 183.429 73.5806 183.466 73.5432C183.429 73.5432 183.429 73.5432 183.504 73.5432C183.541 73.5432 183.616 73.5432 183.691 73.5432C183.803 73.5432 183.953 73.5432 184.065 73.5432C184.103 73.5432 184.103 73.5432 184.065 73.5432C184.103 73.5432 184.14 73.5431 184.178 73.5806C184.253 73.5806 184.29 73.618 184.365 73.618C184.477 73.6555 184.627 73.693 184.739 73.7304C185.001 73.8053 185.263 73.8802 185.526 73.9926C185.788 74.0675 186.125 73.8802 186.199 73.618C186.237 73.3184 186.087 73.0563 185.788 72.944Z" fill="black"/>
<path d="M192.155 87.995C192.971 88.5387 193.914 90.0483 193.049 90.5392C192.183 91.03 189.522 90.576 187.216 91.0866C184.874 91.6036 184.532 89.8385 186.218 88.3706C187.872 86.9461 190.698 87.0299 192.155 87.995Z" fill="white"/>
<path d="M188.382 86.8202C189.858 86.5663 191.429 86.866 192.455 87.5256C193.183 88.0082 193.977 89.0876 193.938 89.9682C193.94 90.4238 193.696 90.7698 193.359 91.0178C192.806 91.3408 191.896 91.3455 190.757 91.3514C189.692 91.3446 188.479 91.3632 187.348 91.6337C185.596 92.0491 185.001 91.2396 184.79 90.8959C184.38 90.0546 184.792 88.9197 185.853 88.0153C186.539 87.3654 187.466 87.0158 188.382 86.8202ZM192.456 90.1852C192.603 90.1598 192.714 90.1407 192.782 90.0911C192.818 90.0848 192.849 90.0415 192.836 89.9677C192.84 89.5491 192.332 88.8006 191.856 88.4645C190.572 87.6215 187.986 87.6103 186.565 88.8428C185.835 89.4622 185.605 90.1098 185.736 90.4293C185.86 90.7118 186.402 90.7706 187.06 90.6194C188.302 90.3298 189.631 90.3291 190.696 90.3359C191.367 90.2585 192.013 90.2614 192.456 90.1852Z" fill="black"/>
<path d="M188.783 65.3041C189.344 65.1918 189.943 65.4914 190.43 65.791C190.954 66.0906 191.478 66.4276 191.965 66.8021C192.864 67.5512 193.575 68.5248 193.8 69.6858C193.837 69.9854 194.211 70.1352 194.473 70.0603C194.773 69.9854 194.923 69.6858 194.848 69.3862C194.586 67.9631 193.687 66.7647 192.602 65.9033C192.04 65.4539 191.403 65.042 190.73 64.7049C190.018 64.3304 189.307 64.1432 188.521 64.2555C188.221 64.293 188.071 64.6675 188.146 64.9296C188.221 65.2292 188.521 65.379 188.783 65.3041Z" fill="black"/>
<path d="M180.883 76.1272C178.412 73.5806 178.375 69.6858 179.76 66.5774C180.059 65.9408 179.123 65.379 178.824 66.0157C177.214 69.5734 177.289 73.9551 180.097 76.8762C180.584 77.4005 181.37 76.6515 180.883 76.1272Z" fill="black"/>
<path d="M177.851 69.0864C177.476 66.9518 178.15 64.555 179.573 62.9072C180.022 62.3829 179.273 61.6339 178.824 62.1582C177.102 64.1056 176.391 66.8394 176.84 69.3861C176.877 69.6857 177.252 69.8355 177.514 69.7606C177.776 69.6857 177.888 69.3861 177.851 69.0864Z" fill="black"/>
<path d="M177.364 62.2333C179.086 62.6453 181.108 61.1098 182.381 60.0986C183.317 59.3496 184.14 58.4883 185.151 57.8516C185.825 57.4022 186.574 57.0652 187.323 56.7281C191.591 54.8182 196.533 54.219 200.876 56.2787C201.512 56.5783 202.036 55.6421 201.437 55.3425C197.993 53.6947 194.137 53.5449 190.468 54.4811C189.008 54.8556 187.585 55.3799 186.237 56.054C184.777 56.7281 183.616 57.6269 182.418 58.713C181.669 59.3871 180.846 59.9863 179.947 60.4731C179.348 60.8102 178.412 61.372 177.664 61.1847C176.99 61.0349 176.69 62.0835 177.364 62.2333Z" fill="black"/>
<path d="M200.801 69.2365C201.624 69.4612 202.411 69.274 203.159 68.9744C203.871 68.6748 204.582 68.3377 205.293 68.0006C206.679 67.2516 207.989 66.3528 209.187 65.3417C209.711 64.8923 208.962 64.1433 208.438 64.5927C207.353 65.4915 206.192 66.2779 204.994 66.952C204.395 67.2891 203.833 67.5512 203.197 67.8134C202.523 68.113 201.812 68.4126 201.1 68.1879C200.426 68.0006 200.127 69.0493 200.801 69.2365Z" fill="black"/>
<path d="M207.053 105.002C204.807 106.911 201.475 107.473 198.667 107.66C195.634 107.848 192.564 107.548 189.868 106.125C187.959 105.114 186.274 103.766 185.338 101.781C185.039 101.144 184.103 101.706 184.402 102.343C185.937 105.601 189.644 107.773 193.051 108.447C196.383 109.121 200.014 108.934 203.272 108.035C204.919 107.586 206.529 106.911 207.839 105.788C208.363 105.301 207.577 104.552 207.053 105.002Z" fill="black"/>
<path d="M59.281 290.567L52.7666 304.761C52.7666 304.761 55.2001 305.847 55.7992 307.345C56.3982 308.843 57.5588 312.85 62.0889 314.123C66.6191 315.359 68.4536 315.284 68.4536 315.284L74.1818 302.401C74.1818 302.401 71.1492 299.967 69.3521 297.982C67.5176 296.035 60.9658 290.642 59.281 290.567Z" fill="white"/>
<path d="M38.5397 307.57C40.187 307.308 41.8343 307.12 43.4816 306.821C45.2038 306.521 47.2255 306.259 48.8354 305.51C48.8354 305.51 51.0443 304.499 53.3281 305.285C55.6119 306.072 55.6493 307.158 56.6228 309.255C57.5962 311.352 59.3184 312.775 62.0889 314.161C64.8593 315.509 68.2289 314.049 69.2772 316.745C69.7264 317.869 65.3086 327.606 64.148 328.916C62.9874 330.227 62.276 335.508 56.3981 333.897C50.5202 332.287 43.6688 329.403 40.3742 328.28C33.2607 325.883 26.5966 323.037 22.7029 319.591C19.895 317.12 16.6003 313.674 20.2694 309.293C23.9384 304.911 29.2173 308.132 33.111 307.794C34.4962 307.682 37.3416 307.757 38.5397 307.57Z" fill="white"/>
<path d="M38.6894 308.094C41.5722 307.645 44.5674 307.382 47.3753 306.596C48.3113 306.334 48.9478 305.997 49.734 305.772C50.9695 305.435 52.2798 305.435 53.4779 305.922C54.339 306.259 54.9006 306.783 55.3124 307.57C55.7617 308.469 56.0612 309.442 56.5853 310.304C57.7459 312.214 59.6553 313.524 61.6396 314.498C62.613 314.985 63.5865 315.21 64.6722 315.322C65.6082 315.434 66.619 315.397 67.5176 315.696C67.8919 315.809 68.2663 316.033 68.5284 316.371C68.6407 316.52 68.7905 316.745 68.8279 316.932C68.8279 316.97 68.8279 316.857 68.8279 317.007C68.8279 317.382 68.6407 317.906 68.5284 318.28C67.5924 321.314 66.2072 324.31 64.7096 327.119C64.2229 327.98 63.6988 328.617 63.2495 329.441C62.6879 330.527 62.2386 331.65 61.3401 332.549C60.0672 333.822 58.2701 333.822 56.6228 333.41C54.0395 332.736 51.5311 331.837 49.0226 330.939C46.7763 330.115 44.5674 329.253 42.321 328.429C39.9624 327.568 37.6037 326.819 35.2825 325.883C30.64 324.048 25.8853 321.913 22.2537 318.393C20.7561 316.97 19.1837 315.172 19.296 312.963C19.4083 310.566 21.5423 308.281 23.8261 307.72C25.8853 307.195 28.0567 307.794 30.0784 308.131C32.0253 308.469 33.8972 308.319 35.8815 308.281C36.78 308.244 37.7535 308.206 38.6894 308.094C39.3633 308.019 39.1013 306.971 38.3899 307.045C37.3042 307.195 36.2185 307.158 35.1327 307.195C34.1219 307.233 33.0736 307.345 32.0627 307.27C29.9287 307.158 27.8321 306.484 25.6606 306.409C23.2645 306.371 21.1305 307.308 19.6704 309.218C18.2102 311.127 17.6861 313.487 18.7718 315.734C19.7452 317.756 21.5798 319.404 23.3394 320.79C25.3611 322.363 27.6075 323.598 29.8912 324.722C34.7209 327.044 39.8501 328.617 44.8295 330.489C47.4876 331.5 50.1084 332.474 52.804 333.373C54.938 334.084 57.409 335.096 59.6928 334.609C61.2278 334.272 62.351 333.186 63.1372 331.837C63.6988 330.901 64.0732 329.89 64.7096 329.029C65.4958 327.98 66.0574 326.707 66.619 325.508C67.4053 323.861 68.154 322.175 68.8279 320.453C69.2398 319.404 69.8762 318.056 69.8388 316.895C69.8013 316.146 69.2023 315.434 68.6407 315.06C67.8545 314.535 66.8811 314.423 65.9826 314.348C64.8968 314.236 63.7736 314.236 62.7254 313.824C61.4899 313.374 60.2544 312.588 59.2435 311.764C58.3824 311.015 57.6336 310.154 57.1469 309.143C56.7351 308.281 56.473 307.308 55.9489 306.521C54.676 304.611 51.9803 304.199 49.8837 304.649C49.0226 304.836 48.2364 305.248 47.4127 305.51C46.0275 305.922 44.6048 306.109 43.2196 306.371C41.6097 306.633 39.9998 306.858 38.3899 307.083C37.716 307.158 38.0155 308.169 38.6894 308.094Z" fill="black"/>
<path d="M19.9325 315.659C19.034 314.348 20.0448 312.026 21.3177 311.352C23.0025 310.453 25.0616 310.753 26.7838 311.315C29.8913 312.288 31.8007 315.247 34.5712 316.82C37.9407 318.73 41.8344 319.816 45.5783 320.864C48.9853 321.801 52.4296 322.587 55.7243 323.86C57.3716 324.497 58.9815 325.321 60.1795 326.632C61.6397 328.205 61.9766 330.302 61.5648 332.362C61.4525 333.036 62.4633 333.335 62.6131 332.661C62.9875 330.714 62.8377 328.692 61.752 326.969C60.816 325.508 59.3559 324.422 57.8209 323.636C54.6011 321.988 50.9321 321.202 47.4502 320.265C43.2945 319.142 38.9516 318.056 35.1702 315.921C33.7475 315.135 32.7367 314.011 31.5012 313C29.9287 311.764 28.3563 310.566 26.372 310.079C24.4252 309.592 22.1788 309.48 20.4192 310.641C18.8842 311.689 17.8733 314.573 18.9965 316.221C19.4083 316.745 20.3443 316.221 19.9325 315.659Z" fill="black"/>
<path d="M27.7573 308.656C30.4903 309.854 32.5495 312.026 35.0579 313.562C37.3791 314.985 39.8876 316.071 42.4334 317.082C47.3005 318.992 52.3922 320.303 57.2593 322.288C60.1421 323.449 62.2762 325.396 63.6614 328.205C63.9609 328.841 64.8969 328.28 64.5974 327.643C63.3619 325.171 61.4525 323.074 58.9815 321.838C56.8849 320.79 54.6011 320.078 52.3922 319.366C47.0759 317.569 41.5723 315.958 36.6678 313.187C35.3949 312.476 34.1594 311.689 33.0362 310.753C31.5761 309.554 30.0785 308.468 28.3189 307.682C27.6824 307.42 27.1208 308.356 27.7573 308.656Z" fill="black"/>
<path d="M58.7567 290.567C57.0345 295.361 54.938 300.154 52.3172 304.499C51.9428 305.098 52.8788 305.66 53.2532 305.06C55.9488 300.604 58.0454 295.735 59.805 290.867C60.0297 290.193 58.9814 289.893 58.7567 290.567Z" fill="black"/>
<path d="M74.2941 301.989C73.433 303.487 72.7216 305.06 71.9729 306.633C70.8871 308.843 69.8388 311.052 68.828 313.262C68.5284 313.936 68.1541 314.61 67.9669 315.322C67.7797 315.996 68.828 316.295 69.0152 315.621C69.1649 315.06 69.4644 314.535 69.6891 314.011C70.1383 313 70.6251 311.989 71.1118 310.977C72.1601 308.805 73.2084 306.633 74.2941 304.499C74.631 303.862 74.9305 303.188 75.2675 302.589C75.567 301.915 74.631 301.39 74.2941 301.989Z" fill="black"/>
<path d="M217.91 345.432C219.034 346.967 219.932 348.69 220.494 350.525C220.718 351.199 221.767 350.899 221.542 350.225C220.943 348.315 220.007 346.518 218.846 344.87C218.659 344.645 218.36 344.533 218.098 344.683C217.873 344.833 217.723 345.17 217.91 345.432Z" fill="black"/>
<path d="M234.421 337.642C235.582 340.788 236.967 343.821 238.539 346.78C238.876 347.379 239.812 346.855 239.475 346.218C237.94 343.372 236.593 340.376 235.469 337.342C235.207 336.706 234.159 337.005 234.421 337.642Z" fill="black"/>
<path d="M165.571 209.937C165.608 210.012 155.649 219.973 155.649 219.973L166.806 213.869L165.571 209.937Z" fill="black"/>
<path d="M174.182 189.863C173.92 189.788 186.162 196.754 206.342 194.395L205.93 191.998C205.93 192.036 190.243 195.256 174.182 189.863Z" fill="black"/>
<path d="M71.4861 58.1137C82.1554 58.1137 90.8047 49.4619 90.8047 38.7894C90.8047 28.1169 82.1554 19.4651 71.4861 19.4651C60.8167 19.4651 52.1675 28.1169 52.1675 38.7894C52.1675 49.4619 60.8167 58.1137 71.4861 58.1137Z" fill="#FECE2E"/>
<path d="M71.486 58.6379C60.5538 58.6379 51.6433 49.7247 51.6433 38.7893C51.6433 27.8538 60.5538 18.9407 71.486 18.9407C82.4183 18.9407 91.3288 27.8538 91.3288 38.7893C91.3288 49.7247 82.4183 58.6379 71.486 58.6379ZM71.486 20.0267C61.1528 20.0267 52.729 28.453 52.729 38.7893C52.729 49.1255 61.1528 57.5518 71.486 57.5518C81.8192 57.5518 90.243 49.1255 90.243 38.7893C90.243 28.453 81.8192 20.0267 71.486 20.0267Z" fill="black"/>
<path d="M290.767 120.543C290.767 120.543 297.618 125.861 298.105 127.172L297.132 128.108L290.767 120.543Z" fill="black"/>
<path d="M79.0862 90.9949C79.0862 90.9949 86.6863 86.5009 89.1199 86.5383L90.5425 88.261C90.5425 88.261 81.2576 90.6953 79.5729 91.8937L79.0862 90.9949Z" fill="black"/>
<path d="M142.358 434.001C142.358 434.001 144.118 426.923 151.568 421.118C155.088 418.347 161.377 413.591 167.255 411.232C201.887 397.375 212.856 408.535 212.856 408.535L206.529 402.73L200.913 398.798L159.955 410.183L148.012 413.516L145.166 419.246C145.204 419.246 142.283 431.342 142.358 434.001Z" fill="black"/>
<path d="M215.739 381.683C215.739 381.683 223.976 379.698 232.587 375.916C235.806 374.493 240.636 371.31 243.369 370.111C246.289 368.838 249.472 366.441 247.45 364.943L236.068 367.752C236.068 367.752 227.869 375.055 225.773 376.178C223.639 377.302 215.776 381.683 215.739 381.683Z" fill="black"/>
<path d="M64.9344 38.7894C65.534 38.7894 66.0201 37.8673 66.0201 36.7297C66.0201 35.5921 65.534 34.6699 64.9344 34.6699C64.3347 34.6699 63.8486 35.5921 63.8486 36.7297C63.8486 37.8673 64.3347 38.7894 64.9344 38.7894Z" fill="black"/>
<path d="M64.9343 39.2013C64.0732 39.2013 63.4368 38.1527 63.4368 36.767C63.4368 35.3814 64.0732 34.3328 64.9343 34.3328C65.7954 34.3328 66.4319 35.3814 66.4319 36.767C66.3945 38.1152 65.758 39.2013 64.9343 39.2013ZM64.9343 35.0818C64.6723 35.0818 64.2604 35.7184 64.2604 36.7296C64.2604 37.7033 64.6723 38.3774 64.9343 38.3774C65.1964 38.3774 65.6082 37.7407 65.6082 36.7296C65.5708 35.7559 65.1964 35.0818 64.9343 35.0818Z" fill="black"/>
<path d="M77.1768 38.7894C77.7764 38.7894 78.2625 37.8673 78.2625 36.7297C78.2625 35.5921 77.7764 34.6699 77.1768 34.6699C76.5772 34.6699 76.0911 35.5921 76.0911 36.7297C76.0911 37.8673 76.5772 38.7894 77.1768 38.7894Z" fill="black"/>
<path d="M77.1768 39.2013C76.3157 39.2013 75.6792 38.1527 75.6792 36.767C75.6792 35.3814 76.3157 34.3328 77.1768 34.3328C78.0379 34.3328 78.6743 35.3814 78.6743 36.767C78.6369 38.1152 78.0004 39.2013 77.1768 39.2013ZM77.1768 35.0818C76.9147 35.0818 76.5029 35.7184 76.5029 36.7296C76.5029 37.7033 76.9147 38.3774 77.1768 38.3774C77.4388 38.3774 77.8507 37.7407 77.8507 36.7296C77.8507 35.7559 77.4388 35.0818 77.1768 35.0818Z" fill="black"/>
<path d="M71.0743 45.0062C68.7156 45.0062 66.5442 44.3321 65.1215 43.1711C64.8969 42.9838 64.8594 42.6468 65.0466 42.4221C65.2338 42.1974 65.5708 42.1599 65.7954 42.3472C66.9934 43.3209 68.9777 43.9201 71.0369 43.9201C73.096 43.9201 75.0054 43.3583 76.2035 42.4221C76.4281 42.2348 76.7651 42.2723 76.9522 42.5344C77.1394 42.7591 77.102 43.0962 76.8399 43.2834C75.4921 44.3695 73.3581 44.9687 71.0743 45.0062Z" fill="black"/>
<path d="M308.251 90.2836C318.921 90.2836 327.57 81.6318 327.57 70.9593C327.57 60.2868 318.921 51.635 308.251 51.635C297.582 51.635 288.933 60.2868 288.933 70.9593C288.933 81.6318 297.582 90.2836 308.251 90.2836Z" fill="white"/>
<path d="M308.251 90.8078C297.319 90.8078 288.408 81.8947 288.408 70.9592C288.408 60.0237 297.319 51.1106 308.251 51.1106C319.183 51.1106 328.094 60.0237 328.094 70.9592C328.094 81.8947 319.183 90.8078 308.251 90.8078ZM308.251 52.1592C297.918 52.1592 289.494 60.5855 289.494 70.9218C289.494 81.258 297.918 89.6843 308.251 89.6843C318.584 89.6843 327.008 81.258 327.008 70.9218C327.008 60.5855 318.622 52.1592 308.251 52.1592Z" fill="black"/>
<path d="M301.699 70.9591C302.299 70.9591 302.785 70.0369 302.785 68.8994C302.785 67.7618 302.299 66.8396 301.699 66.8396C301.1 66.8396 300.614 67.7618 300.614 68.8994C300.614 70.0369 301.1 70.9591 301.699 70.9591Z" fill="black"/>
<path d="M301.699 71.3336C300.838 71.3336 300.202 70.285 300.202 68.8994C300.202 67.5137 300.838 66.4651 301.699 66.4651C302.56 66.4651 303.197 67.5137 303.197 68.8994C303.197 70.285 302.56 71.3336 301.699 71.3336ZM301.699 67.2515C301.437 67.2515 301.025 67.8882 301.025 68.8994C301.025 69.8731 301.437 70.5472 301.699 70.5472C301.961 70.5472 302.373 69.9105 302.373 68.8994C302.373 67.8882 301.961 67.2515 301.699 67.2515Z" fill="black"/>
<path d="M313.942 70.9591C314.542 70.9591 315.028 70.0369 315.028 68.8994C315.028 67.7618 314.542 66.8396 313.942 66.8396C313.342 66.8396 312.856 67.7618 312.856 68.8994C312.856 70.0369 313.342 70.9591 313.942 70.9591Z" fill="black"/>
<path d="M313.942 71.3336C313.081 71.3336 312.444 70.285 312.444 68.8994C312.444 67.5137 313.081 66.4651 313.942 66.4651C314.803 66.4651 315.439 67.5137 315.439 68.8994C315.439 70.285 314.803 71.3336 313.942 71.3336ZM313.942 67.2515C313.68 67.2515 313.268 67.8882 313.268 68.8994C313.268 69.8731 313.68 70.5472 313.942 70.5472C314.204 70.5472 314.616 69.9105 314.616 68.8994C314.616 67.8882 314.204 67.2515 313.942 67.2515Z" fill="black"/>
<path d="M313.343 77.1759C313.23 77.1759 313.118 77.1384 313.006 77.0635C311.808 76.0898 309.823 75.4906 307.764 75.4906C305.705 75.4906 303.796 76.0523 302.598 76.9886C302.373 77.1759 302.036 77.1384 301.849 76.8763C301.662 76.6516 301.699 76.3145 301.961 76.1273C303.384 75.0412 305.481 74.4045 307.802 74.4045C310.123 74.4045 312.332 75.0786 313.755 76.2396C313.979 76.4268 314.017 76.7639 313.829 76.9886C313.642 77.101 313.493 77.1759 313.343 77.1759Z" fill="black"/>
<path d="M53.4031 301.465C53.4031 301.465 48.3862 295.248 49.2473 290.68C50.1084 286.148 58.2702 289.706 58.9815 289.968C59.6929 290.23 54.1144 302.364 54.1144 302.364L53.4031 301.465Z" fill="black"/>
<path d="M80.5838 316.558C82.6804 315.996 83.3169 314.011 83.3169 314.011L84.1031 312.962L74.7433 302.252C74.7433 302.252 69.2023 313.637 69.1274 313.749C69.1649 313.749 75.2675 318.056 80.5838 316.558Z" fill="black"/>
<path d="M218.06 344.795L219.708 347.229C219.708 347.229 232.999 341.125 234.945 337.492H234.084C234.084 337.492 222.253 345.095 218.06 344.795Z" fill="black"/>
<path d="M50.8198 289.256C52.3922 288.432 54.077 288.62 55.6869 289.181C57.1844 289.706 58.682 290.417 60.1047 291.129C61.6397 291.915 63.0623 292.926 64.4476 293.938C69.09 297.271 73.3956 301.091 77.3267 305.285C79.6479 307.757 81.8568 310.416 83.6539 313.299C84.0283 313.899 84.9642 313.337 84.5899 312.738C81.2578 307.345 76.6528 302.701 71.898 298.507C69.764 296.634 67.5925 294.874 65.3087 293.189C63.8111 292.103 62.3136 290.979 60.6662 290.155C57.5588 288.582 53.74 286.485 50.3331 288.283C49.6592 288.62 50.2207 289.556 50.8198 289.256Z" fill="black"/>
<path d="M59.0563 292.178C59.0563 292.178 64.7845 295.436 67.3304 296.672C69.8762 297.907 74.1817 302.401 74.1817 302.401L74.4064 301.54C74.4064 301.54 63.6988 290.829 58.9814 289.968L59.0563 292.178Z" fill="black"/>
</svg>
