<svg width="430" height="237" viewBox="0 0 430 237" fill="none" xmlns="http://www.w3.org/2000/svg">
<g clip-path="url(#clip0_638_1052)">
<path d="M173.666 91.4816C173.433 91.4816 173.242 91.2945 173.238 91.0606C173.233 90.8225 173.42 90.6269 173.658 90.6226C174.6 90.6014 175.546 90.5461 176.479 90.461C176.717 90.4398 176.925 90.6141 176.946 90.848C176.967 91.0861 176.793 91.2945 176.56 91.3157C175.605 91.405 174.638 91.4603 173.675 91.4816H173.666ZM169.097 91.3285C169.097 91.3285 169.071 91.3285 169.058 91.3285C168.1 91.2435 167.136 91.1201 166.194 90.9671C165.961 90.9288 165.804 90.7077 165.838 90.4738C165.876 90.2399 166.097 90.0826 166.33 90.1166C167.255 90.2654 168.197 90.3845 169.135 90.4696C169.372 90.4908 169.546 90.6992 169.525 90.9373C169.504 91.1584 169.317 91.3285 169.101 91.3285H169.097ZM181.04 90.6311C180.841 90.6311 180.663 90.4908 180.62 90.291C180.573 90.0571 180.722 89.8317 180.951 89.7807C181.872 89.5893 182.792 89.3597 183.696 89.1003C183.925 89.0365 184.163 89.1684 184.227 89.3937C184.29 89.6234 184.159 89.8615 183.934 89.9253C183.013 90.1889 182.067 90.4228 181.129 90.6184C181.1 90.6226 181.07 90.6269 181.04 90.6269V90.6311ZM161.799 89.9805C161.761 89.9805 161.723 89.9763 161.684 89.9635C160.759 89.7041 159.834 89.4065 158.935 89.0791C158.71 88.9983 158.596 88.7516 158.676 88.5305C158.757 88.3052 159.003 88.1903 159.223 88.2711C160.106 88.5901 161.014 88.8835 161.918 89.1386C162.147 89.2024 162.278 89.4405 162.215 89.6701C162.16 89.8615 161.99 89.9848 161.803 89.9848L161.799 89.9805ZM188.13 88.437C187.96 88.437 187.803 88.3392 187.735 88.1733C187.646 87.9522 187.748 87.7013 187.969 87.612C188.834 87.2506 189.7 86.8551 190.54 86.4342C190.752 86.3279 191.011 86.4129 191.117 86.6255C191.223 86.8381 191.138 87.0975 190.926 87.2038C190.069 87.6333 189.186 88.0373 188.3 88.4072C188.245 88.4285 188.189 88.4412 188.134 88.4412L188.13 88.437ZM154.87 87.3059C154.807 87.3059 154.743 87.2931 154.679 87.2591C153.822 86.8339 152.965 86.3661 152.138 85.8771C151.934 85.7581 151.866 85.4944 151.985 85.2903C152.104 85.0862 152.367 85.0182 152.571 85.1372C153.381 85.6135 154.217 86.0685 155.061 86.4894C155.273 86.5958 155.358 86.8509 155.256 87.0635C155.18 87.2166 155.032 87.3016 154.87 87.3016V87.3059ZM194.689 84.9671C194.549 84.9671 194.414 84.8991 194.329 84.7715C194.201 84.5717 194.257 84.308 194.456 84.1762C195.241 83.6617 196.017 83.1132 196.768 82.5434C196.955 82.3988 197.227 82.437 197.371 82.6241C197.515 82.8112 197.477 83.0834 197.29 83.228C196.527 83.8105 195.729 84.3718 194.927 84.8949C194.855 84.9416 194.774 84.9629 194.694 84.9629L194.689 84.9671ZM148.553 83.3938C148.464 83.3938 148.37 83.364 148.294 83.3088C147.53 82.7305 146.775 82.1181 146.049 81.4845C145.871 81.3272 145.85 81.0593 146.007 80.8765C146.164 80.6979 146.431 80.6766 146.614 80.834C147.322 81.4548 148.065 82.0543 148.812 82.6199C149.002 82.7645 149.036 83.0324 148.896 83.2237C148.812 83.3343 148.684 83.3938 148.553 83.3938ZM200.506 80.3492C200.392 80.3492 200.281 80.3067 200.197 80.2174C200.031 80.0473 200.04 79.7751 200.209 79.6093C200.888 78.9587 201.554 78.2783 202.187 77.581C202.348 77.4066 202.619 77.3939 202.793 77.5512C202.967 77.7128 202.98 77.9807 202.823 78.1593C202.178 78.8694 201.499 79.5668 200.803 80.2301C200.718 80.3109 200.612 80.3492 200.506 80.3492ZM143.063 78.3889C142.948 78.3889 142.829 78.3421 142.744 78.2486C142.099 77.5427 141.467 76.8028 140.869 76.0459C140.72 75.8588 140.754 75.5909 140.937 75.4421C141.124 75.2933 141.391 75.3273 141.539 75.5101C142.125 76.25 142.744 76.9729 143.376 77.666C143.538 77.8404 143.525 78.1125 143.351 78.2741C143.27 78.3506 143.164 78.3889 143.063 78.3889ZM205.386 74.7405C205.297 74.7405 205.212 74.715 205.135 74.6597C204.944 74.5194 204.902 74.2515 205.038 74.0601C205.585 73.299 206.115 72.5081 206.612 71.7044C206.735 71.5045 207.002 71.4407 207.202 71.5641C207.401 71.6874 207.465 71.9553 207.342 72.1551C206.837 72.9758 206.294 73.7837 205.734 74.5619C205.649 74.6767 205.517 74.7405 205.386 74.7405ZM138.574 72.4655C138.429 72.4655 138.289 72.3932 138.209 72.2614C137.704 71.445 137.216 70.603 136.77 69.7526C136.66 69.5442 136.741 69.2848 136.949 69.17C137.156 69.0595 137.415 69.1403 137.53 69.3486C137.967 70.1821 138.442 71.007 138.938 71.8022C139.062 72.002 139.002 72.2699 138.803 72.3932C138.731 72.4358 138.654 72.457 138.578 72.457L138.574 72.4655ZM209.158 68.3281C209.098 68.3281 209.034 68.3153 208.975 68.2856C208.759 68.1835 208.67 67.9284 208.771 67.7158C209.17 66.8653 209.548 65.9851 209.883 65.1091C209.968 64.888 210.218 64.7775 210.439 64.8625C210.659 64.9476 210.77 65.1984 210.685 65.4196C210.337 66.3168 209.955 67.214 209.548 68.0857C209.476 68.243 209.319 68.3323 209.162 68.3323L209.158 68.3281ZM135.247 65.815C135.077 65.815 134.912 65.713 134.848 65.5429C134.5 64.6499 134.178 63.7314 133.894 62.8087C133.822 62.5833 133.949 62.3409 134.178 62.2729C134.403 62.2049 134.645 62.3282 134.713 62.5578C134.993 63.4593 135.307 64.3565 135.646 65.2325C135.731 65.4536 135.625 65.7045 135.404 65.7895C135.353 65.8108 135.298 65.8193 135.247 65.8193V65.815ZM211.686 61.3289C211.652 61.3289 211.614 61.3246 211.58 61.3161C211.351 61.2566 211.215 61.0227 211.275 60.7931C211.512 59.8831 211.716 58.9519 211.886 58.0249C211.928 57.791 212.153 57.6379 212.386 57.6805C212.62 57.723 212.772 57.9484 212.73 58.1822C212.556 59.1262 212.344 60.0787 212.106 61.01C212.055 61.2056 211.881 61.3331 211.69 61.3331L211.686 61.3289ZM133.202 58.667C132.998 58.667 132.82 58.5224 132.782 58.3183C132.604 57.3743 132.46 56.4133 132.349 55.4565C132.324 55.2227 132.489 55.0058 132.727 54.9803C132.96 54.9548 133.177 55.1206 133.202 55.3587C133.308 56.2942 133.452 57.2382 133.626 58.161C133.669 58.3948 133.516 58.6202 133.283 58.6627C133.257 58.667 133.228 58.6712 133.202 58.6712V58.667ZM212.874 53.9895C212.874 53.9895 212.853 53.9895 212.845 53.9895C212.607 53.9725 212.429 53.7684 212.446 53.5303C212.509 52.6075 212.543 51.672 212.543 50.7408V50.694C212.543 50.4559 212.734 50.2645 212.972 50.2645C213.209 50.2645 213.4 50.4559 213.4 50.694V50.7408C213.4 51.689 213.366 52.6458 213.303 53.5898C213.286 53.8152 213.099 53.9895 212.874 53.9895ZM132.511 51.2596C132.273 51.2596 132.082 51.0682 132.082 50.8301V50.7408C132.082 49.7755 132.116 48.8018 132.184 47.8493C132.201 47.6111 132.409 47.4325 132.642 47.4496C132.88 47.4666 133.058 47.6707 133.041 47.9088C132.977 48.8443 132.943 49.7968 132.943 50.7408V50.8301C132.943 51.0682 132.752 51.2596 132.515 51.2596H132.511ZM212.713 46.5523C212.497 46.5523 212.314 46.3907 212.289 46.1696C212.183 45.2341 212.043 44.2901 211.869 43.3674C211.826 43.1335 211.979 42.9082 212.212 42.8656C212.441 42.8231 212.671 42.9762 212.713 43.2101C212.887 44.1541 213.031 45.1151 213.142 46.0718C213.167 46.3057 212.997 46.5226 212.764 46.5481C212.747 46.5481 212.73 46.5481 212.713 46.5481V46.5523ZM133.189 43.7629C133.164 43.7629 133.138 43.7629 133.109 43.7543C132.875 43.7118 132.723 43.4865 132.765 43.2526C132.939 42.3086 133.151 41.3561 133.393 40.4248C133.452 40.1952 133.686 40.0591 133.915 40.1187C134.144 40.1782 134.28 40.4121 134.22 40.6417C133.983 41.5517 133.775 42.4829 133.605 43.4057C133.567 43.614 133.389 43.7586 133.185 43.7586L133.189 43.7629ZM211.19 39.2725C211.007 39.2725 210.838 39.1534 210.778 38.9706C210.502 38.0733 210.189 37.1719 209.849 36.2959C209.764 36.0748 209.875 35.8239 210.095 35.7389C210.316 35.6538 210.566 35.7644 210.651 35.9855C210.999 36.8827 211.317 37.8012 211.601 38.7197C211.674 38.9451 211.546 39.1874 211.317 39.2555C211.275 39.2682 211.232 39.2767 211.19 39.2767V39.2725ZM135.213 36.6063C135.162 36.6063 135.107 36.5978 135.056 36.5766C134.836 36.4915 134.725 36.2406 134.81 36.0195C135.158 35.1223 135.54 34.2251 135.952 33.3576C136.053 33.145 136.308 33.0514 136.524 33.1535C136.736 33.2555 136.83 33.5107 136.728 33.7275C136.325 34.578 135.952 35.454 135.612 36.3342C135.548 36.5043 135.383 36.6106 135.213 36.6106V36.6063ZM208.356 32.3966C208.203 32.3966 208.054 32.3115 207.978 32.167C207.541 31.3335 207.066 30.5086 206.574 29.7092C206.451 29.5093 206.51 29.2414 206.714 29.1181C206.913 28.9948 207.18 29.0543 207.303 29.2542C207.808 30.0706 208.292 30.9126 208.737 31.763C208.848 31.9714 208.767 32.2308 208.559 32.3456C208.496 32.3796 208.428 32.3966 208.36 32.3966H208.356ZM138.531 29.943C138.455 29.943 138.374 29.9218 138.306 29.8793C138.107 29.7559 138.043 29.4881 138.166 29.2882C138.671 28.4718 139.214 27.6596 139.774 26.8814C139.914 26.6901 140.182 26.6476 140.373 26.7836C140.563 26.9239 140.606 27.1918 140.47 27.3832C139.919 28.1443 139.388 28.9353 138.896 29.7389C138.815 29.8708 138.675 29.943 138.531 29.943ZM204.304 26.167C204.176 26.167 204.053 26.1118 203.969 26.0055C203.387 25.2698 202.768 24.5427 202.136 23.8453C201.974 23.671 201.987 23.3988 202.161 23.2372C202.335 23.0757 202.607 23.0884 202.768 23.2628C203.413 23.9729 204.045 24.7128 204.639 25.4697C204.787 25.6568 204.753 25.9247 204.567 26.0735C204.486 26.1373 204.393 26.167 204.299 26.167H204.304ZM143.007 24.0112C142.906 24.0112 142.799 23.9729 142.719 23.9006C142.545 23.739 142.532 23.4669 142.689 23.2925C143.334 22.5824 144.017 21.885 144.709 21.2217C144.878 21.0601 145.15 21.0644 145.315 21.2387C145.477 21.4088 145.472 21.6809 145.298 21.8468C144.62 22.4974 143.954 23.1777 143.321 23.8708C143.236 23.9644 143.122 24.0112 143.003 24.0112H143.007ZM199.183 20.7794C199.081 20.7794 198.983 20.7454 198.903 20.6731C198.194 20.0523 197.456 19.4527 196.705 18.8872C196.518 18.7426 196.48 18.4747 196.62 18.2834C196.764 18.092 197.031 18.058 197.222 18.1983C197.986 18.7766 198.741 19.3932 199.467 20.0225C199.645 20.1799 199.662 20.452 199.509 20.6306C199.424 20.7284 199.306 20.7794 199.187 20.7794H199.183ZM148.493 18.9935C148.362 18.9935 148.235 18.934 148.15 18.8234C148.005 18.6363 148.044 18.3642 148.235 18.2196C148.998 17.637 149.796 17.08 150.598 16.557C150.797 16.4294 151.06 16.4847 151.192 16.6845C151.319 16.8844 151.264 17.148 151.065 17.2798C150.28 17.7901 149.499 18.3387 148.752 18.9085C148.676 18.968 148.582 18.9935 148.493 18.9935ZM193.166 16.4251C193.094 16.4251 193.018 16.4039 192.95 16.3656C192.139 15.8851 191.304 15.4301 190.464 15.0134C190.251 14.9071 190.167 14.6477 190.273 14.4393C190.379 14.2267 190.633 14.1417 190.845 14.248C191.702 14.6775 192.56 15.141 193.387 15.63C193.591 15.749 193.658 16.0127 193.54 16.2168C193.459 16.3529 193.315 16.4294 193.17 16.4294L193.166 16.4251ZM154.794 15.0729C154.637 15.0729 154.484 14.9879 154.412 14.8348C154.306 14.6222 154.391 14.3628 154.603 14.2565C155.46 13.827 156.343 13.4231 157.229 13.0574C157.446 12.9681 157.7 13.0701 157.789 13.2912C157.879 13.5124 157.777 13.7632 157.556 13.8525C156.691 14.2097 155.825 14.6052 154.985 15.0262C154.925 15.0559 154.858 15.0729 154.794 15.0729ZM186.45 13.2487C186.403 13.2487 186.352 13.2402 186.306 13.2232C185.423 12.9043 184.519 12.6109 183.616 12.3557C183.386 12.292 183.255 12.0538 183.319 11.8242C183.382 11.5946 183.62 11.4628 183.849 11.5266C184.774 11.7902 185.699 12.0879 186.598 12.4153C186.819 12.4961 186.938 12.7427 186.857 12.9638C186.793 13.1382 186.628 13.2487 186.454 13.2487H186.45ZM161.71 12.3855C161.523 12.3855 161.353 12.2622 161.298 12.0751C161.235 11.8455 161.366 11.6073 161.595 11.5436C162.516 11.2799 163.462 11.0461 164.4 10.8504C164.629 10.8037 164.858 10.9525 164.905 11.1821C164.951 11.416 164.803 11.6414 164.574 11.6924C163.653 11.8837 162.732 12.1134 161.829 12.3685C161.79 12.3813 161.748 12.3855 161.71 12.3855ZM179.267 11.3777C179.245 11.3777 179.22 11.3777 179.199 11.3735C178.274 11.2204 177.332 11.1013 176.394 11.0163C176.157 10.995 175.983 10.7867 176.008 10.5485C176.029 10.3104 176.237 10.1361 176.475 10.1616C177.43 10.2509 178.397 10.3699 179.339 10.5273C179.572 10.5655 179.729 10.7867 179.691 11.0205C179.657 11.2332 179.475 11.382 179.267 11.382V11.3777ZM169.007 11.0205C168.787 11.0205 168.6 10.8547 168.583 10.6293C168.562 10.3912 168.736 10.1828 168.969 10.1616C169.92 10.0723 170.891 10.017 171.854 10C171.854 10 171.859 10 171.863 10C172.096 10 172.287 10.1871 172.291 10.421C172.296 10.6591 172.109 10.8547 171.871 10.859C170.929 10.8802 169.979 10.9312 169.05 11.0205C169.037 11.0205 169.024 11.0205 169.012 11.0205H169.007Z" fill="#3B140D"/>
<path d="M298.266 224.892C298.032 224.892 297.841 224.705 297.837 224.471C297.833 224.233 298.02 224.037 298.257 224.033C299.199 224.011 300.145 223.956 301.079 223.871C301.316 223.85 301.524 224.024 301.545 224.258C301.567 224.496 301.393 224.705 301.159 224.726C300.205 224.815 299.237 224.87 298.274 224.892H298.266ZM293.696 224.743C293.696 224.743 293.671 224.743 293.658 224.743C292.699 224.658 291.736 224.534 290.794 224.381C290.561 224.343 290.404 224.122 290.438 223.888C290.476 223.654 290.696 223.497 290.93 223.531C291.855 223.68 292.797 223.799 293.734 223.884C293.972 223.905 294.146 224.113 294.125 224.352C294.104 224.577 293.917 224.743 293.7 224.743H293.696ZM305.64 224.045C305.44 224.045 305.262 223.905 305.22 223.705C305.173 223.471 305.322 223.246 305.551 223.195C306.471 223.004 307.392 222.774 308.296 222.515C308.521 222.451 308.763 222.583 308.826 222.808C308.89 223.038 308.758 223.276 308.533 223.34C307.613 223.603 306.667 223.837 305.729 224.033C305.699 224.037 305.669 224.041 305.64 224.041V224.045ZM286.399 223.395C286.36 223.395 286.322 223.391 286.284 223.378C285.359 223.118 284.434 222.821 283.535 222.493C283.31 222.413 283.195 222.166 283.276 221.945C283.356 221.719 283.602 221.605 283.823 221.685C284.706 222.004 285.614 222.298 286.517 222.553C286.746 222.617 286.878 222.855 286.814 223.084C286.759 223.276 286.589 223.399 286.403 223.399L286.399 223.395ZM312.73 221.847C312.56 221.847 312.403 221.749 312.335 221.583C312.246 221.362 312.348 221.111 312.568 221.022C313.434 220.661 314.299 220.265 315.14 219.844C315.352 219.738 315.61 219.823 315.717 220.036C315.823 220.248 315.738 220.508 315.526 220.614C314.669 221.043 313.786 221.447 312.899 221.817C312.844 221.839 312.789 221.851 312.734 221.851L312.73 221.847ZM279.47 220.716C279.406 220.716 279.343 220.703 279.279 220.669C278.422 220.244 277.565 219.776 276.738 219.287C276.534 219.168 276.466 218.904 276.585 218.7C276.704 218.496 276.967 218.428 277.17 218.547C277.981 219.028 278.817 219.479 279.657 219.899C279.869 220.006 279.954 220.261 279.852 220.474C279.775 220.627 279.627 220.712 279.466 220.712L279.47 220.716ZM319.289 218.381C319.149 218.381 319.013 218.313 318.928 218.186C318.797 217.986 318.856 217.722 319.051 217.591C319.836 217.076 320.613 216.527 321.364 215.958C321.55 215.813 321.822 215.851 321.966 216.038C322.111 216.226 322.072 216.498 321.886 216.642C321.122 217.225 320.329 217.782 319.522 218.309C319.45 218.356 319.37 218.377 319.289 218.377V218.381ZM273.152 216.808C273.063 216.808 272.97 216.778 272.894 216.723C272.13 216.145 271.375 215.532 270.649 214.899C270.471 214.742 270.45 214.474 270.607 214.291C270.764 214.112 271.031 214.091 271.213 214.248C271.922 214.869 272.664 215.469 273.411 216.034C273.602 216.179 273.64 216.447 273.496 216.638C273.411 216.749 273.284 216.808 273.152 216.808ZM325.106 213.759C324.991 213.759 324.881 213.717 324.796 213.627C324.631 213.457 324.639 213.185 324.809 213.019C325.488 212.369 326.154 211.688 326.786 210.991C326.947 210.817 327.219 210.804 327.393 210.961C327.567 211.123 327.58 211.391 327.423 211.569C326.778 212.279 326.099 212.977 325.403 213.64C325.318 213.721 325.212 213.759 325.106 213.759ZM267.662 211.803C267.548 211.803 267.429 211.756 267.344 211.663C266.699 210.957 266.067 210.213 265.469 209.46C265.32 209.273 265.354 209.005 265.536 208.856C265.723 208.708 265.99 208.742 266.139 208.924C266.724 209.664 267.344 210.387 267.976 211.08C268.137 211.255 268.125 211.527 267.951 211.688C267.87 211.765 267.764 211.803 267.662 211.803ZM329.985 208.155C329.896 208.155 329.811 208.129 329.735 208.074C329.544 207.934 329.502 207.666 329.637 207.474C330.185 206.713 330.715 205.922 331.211 205.119C331.334 204.915 331.602 204.855 331.801 204.978C332.001 205.102 332.064 205.37 331.941 205.569C331.436 206.39 330.893 207.198 330.333 207.976C330.248 208.091 330.117 208.155 329.985 208.155ZM263.173 205.88C263.029 205.88 262.889 205.808 262.808 205.676C262.303 204.859 261.815 204.017 261.37 203.167C261.26 202.959 261.34 202.699 261.548 202.584C261.756 202.474 262.015 202.555 262.129 202.763C262.566 203.596 263.042 204.421 263.538 205.216C263.661 205.416 263.602 205.684 263.402 205.808C263.33 205.85 263.254 205.871 263.177 205.871L263.173 205.88ZM333.757 201.742C333.698 201.742 333.634 201.73 333.575 201.7C333.358 201.598 333.269 201.343 333.371 201.13C333.77 200.28 334.147 199.399 334.483 198.523C334.567 198.302 334.818 198.192 335.038 198.277C335.259 198.362 335.369 198.613 335.285 198.834C334.937 199.731 334.555 200.628 334.147 201.5C334.075 201.657 333.918 201.747 333.761 201.747L333.757 201.742ZM259.847 199.229C259.677 199.229 259.512 199.127 259.448 198.957C259.1 198.064 258.778 197.146 258.493 196.223C258.421 195.998 258.548 195.755 258.778 195.687C259.002 195.619 259.244 195.742 259.312 195.972C259.592 196.874 259.906 197.771 260.246 198.647C260.33 198.868 260.224 199.119 260.004 199.204C259.953 199.225 259.898 199.234 259.847 199.234V199.229ZM336.286 194.743C336.252 194.743 336.214 194.739 336.18 194.73C335.951 194.671 335.815 194.437 335.874 194.207C336.112 193.297 336.316 192.366 336.485 191.439C336.528 191.205 336.753 191.052 336.986 191.095C337.219 191.137 337.372 191.363 337.33 191.597C337.156 192.541 336.943 193.493 336.706 194.424C336.655 194.62 336.481 194.747 336.29 194.747L336.286 194.743ZM257.802 192.077C257.598 192.077 257.42 191.932 257.382 191.728C257.204 190.784 257.059 189.823 256.949 188.867C256.923 188.633 257.089 188.416 257.327 188.39C257.56 188.365 257.776 188.531 257.802 188.769C257.908 189.704 258.052 190.648 258.226 191.571C258.268 191.805 258.116 192.03 257.882 192.073C257.857 192.077 257.827 192.081 257.802 192.081V192.077ZM337.474 187.4C337.474 187.4 337.453 187.4 337.444 187.4C337.207 187.383 337.028 187.178 337.045 186.94C337.109 186.018 337.143 185.082 337.143 184.151V184.104C337.143 183.866 337.334 183.675 337.571 183.675C337.809 183.675 338 183.866 338 184.104V184.159C338 185.099 337.966 186.056 337.902 186.996C337.885 187.221 337.699 187.395 337.474 187.395V187.4ZM257.11 184.674C256.873 184.674 256.682 184.483 256.682 184.244V184.155C256.682 183.19 256.716 182.216 256.783 181.264C256.8 181.025 257.004 180.847 257.242 180.864C257.479 180.881 257.657 181.085 257.641 181.323C257.577 182.259 257.543 183.211 257.543 184.155V184.244C257.543 184.483 257.352 184.674 257.114 184.674H257.11ZM337.313 179.967C337.096 179.967 336.914 179.805 336.888 179.584C336.782 178.648 336.642 177.704 336.468 176.782C336.426 176.548 336.579 176.322 336.812 176.28C337.041 176.237 337.27 176.39 337.313 176.624C337.487 177.568 337.631 178.529 337.741 179.486C337.767 179.72 337.597 179.937 337.364 179.962C337.347 179.962 337.33 179.962 337.313 179.962V179.967ZM257.789 177.177C257.764 177.177 257.738 177.177 257.708 177.169C257.475 177.126 257.322 176.901 257.365 176.667C257.539 175.723 257.751 174.77 257.993 173.839C258.052 173.61 258.29 173.473 258.515 173.533C258.744 173.593 258.879 173.826 258.82 174.056C258.582 174.966 258.375 175.897 258.205 176.82C258.167 177.028 257.988 177.173 257.785 177.173L257.789 177.177ZM335.794 172.683C335.611 172.683 335.442 172.563 335.382 172.381C335.106 171.483 334.792 170.582 334.453 169.706C334.368 169.485 334.478 169.234 334.699 169.149C334.92 169.064 335.17 169.174 335.255 169.396C335.603 170.293 335.921 171.211 336.205 172.13C336.277 172.355 336.15 172.597 335.921 172.666C335.879 172.678 335.836 172.687 335.794 172.687V172.683ZM259.813 170.021C259.762 170.021 259.707 170.012 259.656 169.991C259.435 169.906 259.325 169.655 259.41 169.434C259.758 168.537 260.14 167.639 260.551 166.772C260.653 166.559 260.907 166.466 261.124 166.568C261.336 166.67 261.429 166.925 261.328 167.142C260.924 167.992 260.551 168.868 260.212 169.748C260.148 169.919 259.983 170.025 259.813 170.025V170.021ZM332.955 165.811C332.802 165.811 332.654 165.726 332.578 165.581C332.141 164.748 331.665 163.923 331.173 163.123C331.05 162.924 331.11 162.656 331.313 162.532C331.513 162.409 331.78 162.469 331.903 162.668C332.408 163.485 332.892 164.327 333.337 165.177C333.447 165.386 333.367 165.645 333.159 165.76C333.095 165.794 333.027 165.811 332.959 165.811H332.955ZM263.131 163.357C263.054 163.357 262.974 163.336 262.906 163.294C262.706 163.17 262.643 162.902 262.766 162.702C263.271 161.886 263.814 161.074 264.374 160.296C264.514 160.104 264.781 160.062 264.972 160.198C265.163 160.338 265.206 160.606 265.07 160.798C264.518 161.559 263.988 162.35 263.496 163.153C263.415 163.285 263.275 163.357 263.131 163.357ZM328.903 159.581C328.776 159.581 328.653 159.526 328.568 159.42C327.987 158.684 327.372 157.957 326.735 157.26C326.574 157.085 326.587 156.813 326.761 156.652C326.935 156.49 327.206 156.503 327.367 156.677C328.017 157.387 328.644 158.127 329.238 158.884C329.387 159.071 329.353 159.339 329.166 159.488C329.086 159.552 328.992 159.581 328.899 159.581H328.903ZM267.607 157.421C267.505 157.421 267.399 157.383 267.318 157.311C267.144 157.149 267.132 156.877 267.289 156.703C267.934 155.992 268.617 155.295 269.308 154.632C269.478 154.47 269.75 154.474 269.915 154.649C270.076 154.819 270.072 155.091 269.898 155.257C269.219 155.907 268.553 156.588 267.921 157.281C267.836 157.374 267.722 157.421 267.603 157.421H267.607ZM323.782 154.194C323.68 154.194 323.583 154.16 323.502 154.087C322.794 153.467 322.055 152.867 321.304 152.302C321.118 152.157 321.079 151.889 321.22 151.698C321.364 151.506 321.631 151.472 321.822 151.613C322.586 152.191 323.341 152.808 324.066 153.437C324.245 153.594 324.262 153.866 324.109 154.045C324.024 154.143 323.905 154.194 323.786 154.194H323.782ZM273.093 152.408C272.961 152.408 272.834 152.348 272.749 152.238C272.605 152.051 272.643 151.778 272.834 151.634C273.598 151.051 274.396 150.494 275.197 149.971C275.397 149.844 275.66 149.899 275.791 150.099C275.919 150.299 275.864 150.562 275.664 150.694C274.879 151.204 274.098 151.753 273.352 152.323C273.275 152.382 273.182 152.408 273.093 152.408ZM317.766 149.839C317.689 149.839 317.617 149.818 317.549 149.78C316.739 149.299 315.903 148.844 315.063 148.428C314.851 148.321 314.766 148.062 314.872 147.854C314.978 147.641 315.233 147.556 315.445 147.662C316.302 148.092 317.159 148.555 317.986 149.044C318.19 149.163 318.258 149.427 318.139 149.631C318.059 149.767 317.914 149.844 317.77 149.844L317.766 149.839ZM279.394 148.487C279.237 148.487 279.084 148.402 279.012 148.249C278.906 148.036 278.991 147.777 279.203 147.671C280.06 147.241 280.942 146.837 281.829 146.472C282.045 146.382 282.3 146.484 282.389 146.706C282.478 146.927 282.376 147.178 282.156 147.267C281.29 147.624 280.425 148.019 279.584 148.44C279.525 148.47 279.457 148.487 279.394 148.487ZM311.049 146.663C311.003 146.663 310.952 146.655 310.905 146.638C310.023 146.319 309.119 146.025 308.215 145.77C307.986 145.706 307.855 145.468 307.918 145.239C307.982 145.009 308.219 144.877 308.449 144.941C309.373 145.205 310.298 145.502 311.198 145.83C311.419 145.91 311.537 146.157 311.457 146.378C311.393 146.552 311.228 146.663 311.054 146.663H311.049ZM286.309 145.796C286.123 145.796 285.953 145.672 285.898 145.485C285.834 145.256 285.966 145.017 286.195 144.954C287.116 144.69 288.062 144.456 288.999 144.26C289.233 144.214 289.458 144.363 289.509 144.592C289.555 144.826 289.407 145.051 289.178 145.102C288.257 145.294 287.336 145.523 286.432 145.779C286.394 145.791 286.352 145.796 286.314 145.796H286.309ZM303.866 144.792C303.845 144.792 303.82 144.792 303.798 144.788C302.873 144.635 301.932 144.516 300.994 144.431C300.756 144.409 300.582 144.201 300.604 143.963C300.625 143.725 300.837 143.55 301.07 143.576C302.025 143.661 302.992 143.784 303.934 143.942C304.168 143.98 304.325 144.201 304.286 144.435C304.252 144.647 304.07 144.796 303.862 144.796L303.866 144.792ZM293.607 144.435C293.386 144.435 293.2 144.269 293.183 144.044C293.162 143.806 293.336 143.597 293.569 143.576C294.519 143.487 295.491 143.431 296.454 143.414C296.454 143.414 296.458 143.414 296.463 143.414C296.696 143.414 296.887 143.601 296.891 143.835C296.895 144.073 296.709 144.269 296.471 144.273C295.529 144.295 294.579 144.346 293.65 144.435C293.637 144.435 293.624 144.435 293.611 144.435H293.607Z" fill="#3B140D"/>
<path d="M186.723 92.8761C192.18 72.7592 175.632 50.7367 149.762 43.6875C123.892 36.6383 98.4964 47.2318 93.0391 67.3487C87.5818 87.4657 104.13 109.488 130 116.537C155.87 123.587 181.266 112.993 186.723 92.8761Z" fill="#3A3936"/>
<path d="M331.577 87.5965C337.035 67.4795 320.487 45.457 294.617 38.4078C268.747 31.3586 243.351 41.9521 237.893 62.0691C232.436 82.186 248.984 104.209 274.854 111.258C300.724 118.307 326.12 107.713 331.577 87.5965Z" fill="#FBFBFB"/>
<path d="M328.14 175.187C310.265 222.013 247.089 241.31 187.027 218.279C126.97 195.253 61.4644 100.964 110.647 91.7963C175.699 79.6731 113.503 -2.17414 251.76 48.704C322.883 74.8766 346.015 128.361 328.14 175.187Z" fill="#DCDCDC"/>
<path d="M335.836 115.838C338.87 124.556 337.584 133.732 333.099 141.024C332.815 141.076 332.527 141.178 332.234 141.314C332.497 139.519 332.306 137.984 331.322 137.057C330.401 136.19 329.179 136.453 327.961 137.176C327.885 136.419 327.639 135.76 327.172 135.25C326.052 134.025 324.457 134.468 322.883 135.518C320.511 130.751 314.885 128.387 309.687 130.207C304.537 132.01 301.601 137.295 302.632 142.466C298.919 144.409 294.638 146.293 290.081 148.878C285.715 145.506 282.245 140.867 280.293 135.258C274.939 119.887 283.034 103.077 298.372 97.7153C313.71 92.349 330.486 100.458 335.836 115.834V115.838ZM317.753 120.537C318.907 120.133 319.162 117.85 318.322 115.434C317.482 113.019 315.861 111.391 314.707 111.795C313.553 112.198 313.298 114.482 314.138 116.897C314.978 119.313 316.599 120.941 317.753 120.537ZM297.362 127.672C298.52 127.268 298.775 124.981 297.931 122.565C297.09 120.15 295.47 118.522 294.32 118.926C293.162 119.33 292.907 121.613 293.751 124.028C294.591 126.444 296.212 128.072 297.362 127.668V127.672Z" fill="#FBFBFB"/>
<path d="M319.374 138.516L319.484 138.55C320.456 137.504 321.665 136.33 322.879 135.518C324.457 134.463 326.048 134.021 327.168 135.25C327.635 135.76 327.881 136.415 327.957 137.176C329.175 136.453 330.397 136.185 331.318 137.057C332.302 137.984 332.493 139.519 332.23 141.314C332.523 141.178 332.815 141.08 333.095 141.024C333.787 140.884 334.436 140.999 334.979 141.509C338.95 145.255 335.077 159.19 314.762 173.541C301.656 182.799 300.638 193.587 300.493 201.589C300.442 204.353 297.222 206.386 292.555 207.445C279.462 210.408 269.253 200.564 269.886 186.579C269.928 185.618 270.026 184.636 270.174 183.641C270.225 183.3 271.659 173.12 275.558 164.212C277.518 159.722 280.107 155.55 283.454 153.126C285.699 151.498 287.922 150.112 290.081 148.891C294.634 146.302 298.919 144.422 302.632 142.479C304.991 141.241 307.112 139.983 308.928 138.499C315 133.536 317.41 131.78 319.183 133.494C320.095 134.374 320.1 136.262 319.374 138.52V138.516Z" fill="#FBFBFB"/>
<path d="M322.879 135.522C321.661 136.334 320.456 137.508 319.484 138.554L319.374 138.52C320.1 136.262 320.095 134.37 319.183 133.494C317.405 131.78 315 133.541 308.928 138.499C307.112 139.983 304.991 141.241 302.632 142.474C301.601 137.299 304.537 132.014 309.688 130.215C314.885 128.395 320.511 130.76 322.883 135.526L322.879 135.522Z" fill="#FBFBFB"/>
<path d="M318.322 115.434C319.162 117.85 318.907 120.133 317.753 120.537C316.595 120.941 314.978 119.308 314.138 116.897C313.298 114.482 313.553 112.198 314.707 111.795C315.861 111.391 317.482 113.023 318.322 115.434Z" fill="#3B140D"/>
<path d="M297.931 122.565C298.771 124.981 298.516 127.268 297.362 127.672C296.208 128.076 294.592 126.444 293.752 124.032C292.911 121.617 293.166 119.334 294.32 118.93C295.474 118.526 297.091 120.154 297.931 122.57V122.565Z" fill="#3B140D"/>
<path d="M284.689 58.4629C288.431 58.4629 291.469 61.5032 291.469 65.258C291.469 69.0127 288.435 72.0531 284.689 72.0531C280.942 72.0531 277.909 69.0127 277.909 65.258C277.909 61.5032 280.942 58.4629 284.689 58.4629Z" fill="#FECE2E"/>
<path d="M273.25 56.0688C274.569 56.0688 275.643 57.1447 275.643 58.4671C275.643 59.7896 274.569 60.8654 273.25 60.8654C271.93 60.8654 270.857 59.7896 270.857 58.4671C270.857 57.1447 271.93 56.0688 273.25 56.0688Z" fill="#FBFBFB"/>
<path d="M275.558 164.208C274.294 167.099 273.284 170.127 272.503 172.908C271.799 175.404 271.277 177.704 270.904 179.524C270.416 181.923 270.191 183.504 270.174 183.636C270.026 184.631 269.932 185.614 269.89 186.575C265.367 187.735 260.95 188.735 256.652 189.577C256.219 183.394 256.058 177.862 256.058 173.044C256.058 164.067 256.622 157.574 257.034 154.019C263.449 156.579 270.132 158.982 275.562 164.204L275.558 164.208Z" fill="#FBFBFB"/>
<path d="M185.542 114.265C183.875 117.016 180.76 123.31 182.424 129.552H174.489C173.2 124.556 173.751 115.49 182.059 107.568C190.366 99.6459 186.73 93.5057 184.091 74.243C179.653 41.8323 222.786 61.4054 235.06 67.5754C238.242 69.1785 241.204 71.2069 243.784 73.6647C258.697 87.8884 247.445 101.742 256.813 110.123C267.149 119.372 264.569 129.548 264.569 129.548H234.759C230.877 111.654 236.176 106.284 219.082 92.5191C218.568 92.1067 218.029 91.6814 217.474 91.252C216.578 90.5589 215.726 89.8742 214.915 89.2109C207.558 83.1302 203.574 78.019 201.499 74.7192L201.258 74.8723C198.478 77.5725 193.799 83.6957 193.06 94.7983C192.114 109.065 192.577 119.368 204.075 126.707C205.314 127.498 206.413 128.459 207.346 129.548H190.549C186.7 123.45 185.627 118.122 185.546 114.261L185.542 114.265ZM239.494 105.527C242.311 105.204 244.187 101.398 243.69 97.0223C243.194 92.6424 240.508 89.3512 237.695 89.6744C234.882 89.9933 233.002 93.8033 233.499 98.1789C234 102.559 236.681 105.85 239.494 105.527Z" fill="#3A3936"/>
<path d="M257.03 154.019C256.618 157.574 256.058 164.063 256.058 173.04C256.058 177.858 256.219 183.39 256.652 189.572C254.997 189.9 253.364 190.202 251.743 190.478C250.271 170.271 251.624 156.881 252.278 152.012C253.826 152.722 255.417 153.373 257.03 154.015V154.019Z" fill="#FBFBFB"/>
<path d="M251.743 190.487C249.69 190.844 247.662 191.163 245.667 191.452C243.474 191.771 241.318 192.047 239.201 192.29C226.761 193.71 215.607 193.889 205.997 193.408C203.226 193.268 200.591 193.076 198.084 192.842C196.022 192.651 194.049 192.43 192.169 192.192C190.51 176.225 191.401 164.625 192.191 158.642C194.991 157.226 197.66 155.903 199.98 154.602C201.508 153.747 202.849 152.842 204.015 151.893C208.407 155.299 220.804 160.9 249.104 150.431C250.135 150.996 251.196 151.519 252.278 152.012C251.624 156.881 250.271 170.272 251.743 190.482V190.487Z" fill="#FBFBFB"/>
<path d="M243.686 97.018C244.187 101.394 242.307 105.199 239.49 105.522C236.672 105.846 233.991 102.554 233.495 98.1746C232.998 93.799 234.878 89.989 237.691 89.6701C240.508 89.3469 243.194 92.6382 243.686 97.018Z" fill="#FBFBFB"/>
<path d="M235.578 133.005C238.043 142.381 243.092 147.148 249.1 150.439C220.8 160.904 208.407 155.304 204.011 151.902C208.22 148.487 210.223 144.533 210.727 140.485C211.224 136.47 209.909 132.537 207.342 129.556C206.408 128.468 205.309 127.507 204.07 126.716C192.572 119.372 192.11 109.073 193.056 94.8069C193.794 83.7 198.474 77.5768 201.253 74.8809L201.495 74.7278C203.57 78.0275 207.55 83.1387 214.911 89.2194C213.226 89.0536 211.898 89.3853 211.746 90.0954C211.551 90.9629 213.188 92.0685 215.403 92.5617C216.901 92.8934 218.275 92.8636 219.069 92.5362L219.077 92.5277C236.172 106.296 230.877 111.663 234.755 129.556C234.997 130.653 235.268 131.806 235.582 133.005H235.578ZM216.532 97.4178C216.532 96.2101 216.023 95.2321 215.395 95.2321C214.767 95.2321 214.258 96.2101 214.258 97.4178C214.258 98.6254 214.767 99.6034 215.395 99.6034C216.023 99.6034 216.532 98.6254 216.532 97.4178ZM198.029 92.5532C200.239 92.0642 201.877 90.9629 201.682 90.0869C201.491 89.2194 199.543 88.9133 197.329 89.4023C195.114 89.8956 193.476 90.9969 193.671 91.8686C193.862 92.7403 195.81 93.0465 198.024 92.5532H198.029ZM198.818 97.4178C198.818 96.2101 198.309 95.2321 197.681 95.2321C197.053 95.2321 196.544 96.2101 196.544 97.4178C196.544 98.6254 197.053 99.6034 197.681 99.6034C198.309 99.6034 198.818 98.6254 198.818 97.4178Z" fill="#FBFBFB"/>
<path d="M219.073 92.5234L219.065 92.5319C218.271 92.8593 216.897 92.8891 215.399 92.5574C213.184 92.0684 211.546 90.9628 211.742 90.0911C211.899 89.381 213.222 89.0493 214.907 89.2151C215.717 89.8827 216.57 90.5673 217.465 91.2562C218.021 91.6857 218.56 92.1109 219.073 92.5234Z" fill="#3A3936"/>
<path d="M215.395 95.2363C216.023 95.2363 216.532 96.2143 216.532 97.422C216.532 98.6296 216.023 99.6076 215.395 99.6076C214.767 99.6076 214.258 98.6296 214.258 97.422C214.258 96.2143 214.767 95.2363 215.395 95.2363Z" fill="#3B140D"/>
<path d="M201.686 90.091C201.881 90.9628 200.244 92.0641 198.033 92.5573C195.818 93.0506 193.871 92.7444 193.68 91.8727C193.485 91.0053 195.122 89.8997 197.337 89.4064C199.548 88.9174 201.499 89.2236 201.69 90.091H201.686Z" fill="#3A3936"/>
<path d="M197.681 95.2363C198.309 95.2363 198.818 96.2143 198.818 97.422C198.818 98.6296 198.309 99.6076 197.681 99.6076C197.053 99.6076 196.544 98.6296 196.544 97.422C196.544 96.2143 197.053 95.2363 197.681 95.2363Z" fill="#3B140D"/>
<path d="M192.186 158.642C191.397 164.625 190.506 176.229 192.169 192.192C190.4 191.966 188.716 191.724 187.116 191.469C185.805 178.172 186.212 167.967 186.862 161.397C188.652 160.432 190.443 159.522 192.186 158.642Z" fill="#FBFBFB"/>
<path d="M187.116 191.469C181.002 190.499 176.157 189.368 172.741 188.446C172.584 187.285 172.347 186.107 172.024 184.908C171.969 184.708 171.914 184.504 171.854 184.3C171.825 184.198 171.536 183.186 170.997 181.591C170.539 180.226 169.899 178.436 169.088 176.425C172.588 169.931 179.687 165.258 186.866 161.389C186.216 167.958 185.809 178.168 187.12 191.465L187.116 191.469Z" fill="#FBFBFB"/>
<path d="M116.901 146.425C116.379 145.345 116.057 144.324 115.968 143.461C115.874 142.615 116.01 141.913 116.396 141.42C117.92 139.477 120.55 140.889 127.245 144.958C132.697 148.275 140.22 149.64 148.765 153.22C150.628 153.998 152.541 154.883 154.489 155.92C161.23 159.501 166.229 169.345 169.08 176.433C170.836 180.796 171.791 184.117 171.846 184.304C172.262 185.707 172.555 187.093 172.737 188.45C174.536 201.619 165.915 212.067 152.957 210.978C148.188 210.583 144.717 209.014 144.285 206.284C143.037 198.375 140.547 187.829 126.286 180.477C104.185 169.077 98.4279 155.81 101.848 151.553C102.505 150.732 103.481 150.66 104.542 150.975C104.033 149.236 104.011 147.688 104.856 146.633C105.649 145.647 106.897 145.74 108.203 146.289C108.174 145.528 108.326 144.843 108.721 144.273C110.388 141.854 114.245 144.405 116.791 146.48L116.893 146.429L116.901 146.425Z" fill="#FBFBFB"/>
<path d="M145.91 96.6523C161.723 100.382 171.524 116.255 167.798 132.103C165.401 142.313 157.972 150.022 148.765 153.216C140.216 149.635 132.697 148.27 127.245 144.954C120.55 140.884 117.92 139.472 116.396 141.416C116.01 141.909 115.875 142.611 115.968 143.457C110.69 136.662 108.42 127.617 110.541 118.59C114.262 102.742 130.101 92.9188 145.91 96.6523ZM153.245 122.336C153.831 119.848 153.343 117.603 152.151 117.318C150.963 117.038 149.52 118.828 148.935 121.32C148.349 123.807 148.841 126.057 150.029 126.337C151.222 126.618 152.66 124.828 153.245 122.336ZM132.222 117.373C132.808 114.886 132.32 112.636 131.128 112.356C129.94 112.075 128.497 113.865 127.916 116.357C127.33 118.845 127.818 121.09 129.01 121.375C130.198 121.656 131.641 119.865 132.222 117.373Z" fill="#FECE2E"/>
<path d="M160.384 58.2533C165.517 53.1087 165.517 44.7677 160.384 39.6232C155.251 34.4786 146.928 34.4786 141.795 39.6232C136.662 44.7677 136.662 53.1087 141.795 58.2533C146.928 63.3978 155.251 63.3978 160.384 58.2533Z" fill="#FBFBFB"/>
<path d="M152.147 117.318C153.339 117.603 153.831 119.848 153.241 122.336C152.656 124.823 151.217 126.614 150.025 126.337C148.837 126.057 148.345 123.807 148.93 121.32C149.516 118.832 150.959 117.042 152.147 117.318Z" fill="#3B140D"/>
<path d="M132.26 56.0688C134.526 56.0688 136.367 57.9143 136.367 60.185C136.367 62.4557 134.526 64.3055 132.26 64.3055C129.995 64.3055 128.149 62.46 128.149 60.185C128.149 57.9101 129.99 56.0688 132.26 56.0688Z" fill="#FBFBFB"/>
<path d="M131.128 112.356C132.32 112.637 132.812 114.886 132.222 117.374C131.637 119.861 130.198 121.651 129.01 121.375C127.818 121.09 127.326 118.845 127.916 116.357C128.501 113.87 129.94 112.08 131.128 112.356Z" fill="#3B140D"/>
<path d="M201.873 159.254L195.445 170.412H208.301L201.873 159.254Z" fill="white"/>
<path d="M242.672 159.254L236.244 170.412H249.1L242.672 159.254Z" fill="white"/>
<path d="M205.992 193.408C203.222 193.268 200.587 193.076 198.08 192.842L201.877 186.256L205.997 193.408H205.992Z" fill="white"/>
<path d="M245.667 191.452C243.474 191.771 241.318 192.047 239.201 192.29L242.676 186.256L245.667 191.452Z" fill="white"/>
<path d="M181.935 184.908H172.02C171.965 184.708 171.91 184.504 171.85 184.3C171.821 184.198 171.532 183.186 170.993 181.591L175.508 173.75L181.935 184.908Z" fill="white"/>
<path d="M272.503 172.908C271.799 175.404 271.277 177.704 270.904 179.524H263.458L269.885 168.366L272.499 172.908H272.503Z" fill="white"/>
<path d="M221.827 188.173L228.255 177.02H215.399L221.827 188.173Z" fill="white"/>
<path d="M239.104 105.978C237.742 105.978 236.401 105.246 235.294 103.885C234.11 102.435 233.321 100.424 233.07 98.2256C232.82 96.0272 233.142 93.8926 233.97 92.213C234.831 90.4695 236.134 89.415 237.644 89.2449C239.155 89.0706 240.665 89.8062 241.891 91.3115C243.075 92.7615 243.864 94.7728 244.114 96.9712C244.641 101.576 242.587 105.603 239.541 105.952C239.396 105.969 239.248 105.978 239.104 105.978ZM238.073 90.0783C237.962 90.0783 237.848 90.0826 237.737 90.0954C236.528 90.2314 235.459 91.1201 234.734 92.5914C233.978 94.1265 233.686 96.091 233.919 98.1278C234.152 100.165 234.874 102.014 235.955 103.341C236.991 104.613 238.23 105.233 239.443 105.097C242.018 104.804 243.733 101.198 243.262 97.069C243.033 95.0322 242.307 93.1825 241.229 91.8558C240.287 90.7034 239.18 90.0826 238.077 90.0826L238.073 90.0783Z" fill="#3B140D"/>
<path d="M246.198 117.705C246.125 117.705 246.049 117.684 245.981 117.646C233.898 110.519 233.041 98.2767 233.036 98.1534C233.024 97.9153 233.202 97.7154 233.439 97.6984C233.681 97.6856 233.881 97.8642 233.893 98.1024C233.902 98.2214 234.738 110.017 246.418 116.906C246.622 117.025 246.69 117.288 246.571 117.493C246.49 117.629 246.346 117.705 246.202 117.705H246.198Z" fill="#3B140D"/>
<path d="M236.677 99.9223C236.439 99.9223 236.248 99.7309 236.248 99.4928C236.248 99.4205 236.261 97.7111 237.058 96.1123C237.665 94.9004 238.552 94.0797 239.693 93.68C239.918 93.5992 240.16 93.7183 240.241 93.9436C240.321 94.169 240.202 94.4114 239.977 94.4922C239.057 94.8153 238.331 95.4915 237.826 96.4992C237.118 97.9195 237.109 99.4843 237.109 99.4971C237.109 99.7352 236.918 99.9265 236.681 99.9265L236.677 99.9223Z" fill="#3B140D"/>
<path d="M240.898 99.0251C240.72 99.0251 240.555 98.9145 240.495 98.7359C240.461 98.6339 239.613 96.3206 237.521 96.7246C237.288 96.7714 237.063 96.6183 237.02 96.3844C236.974 96.1505 237.126 95.9252 237.36 95.8827C239.621 95.4447 240.928 97.3752 241.306 98.4553C241.382 98.6806 241.267 98.923 241.043 99.0038C240.996 99.0208 240.949 99.0293 240.903 99.0293L240.898 99.0251Z" fill="#3B140D"/>
<path d="M275.558 164.637C275.452 164.637 275.346 164.599 275.261 164.518C270.293 159.739 264.192 157.323 258.294 154.985C257.819 154.798 257.344 154.606 256.868 154.419C255.43 153.845 253.737 153.156 252.099 152.408C250.975 151.893 249.893 151.358 248.896 150.813C241.564 146.795 237.33 141.339 235.166 133.111C234.865 131.967 234.593 130.832 234.335 129.646C233.282 124.798 232.905 120.89 232.57 117.446C231.683 108.316 231.153 102.801 218.806 92.8593C218.297 92.4511 217.758 92.0259 217.206 91.6007C216.37 90.9543 215.53 90.2867 214.639 89.5511C207.18 83.3896 203.179 78.2146 201.134 74.9574C200.613 74.1239 200.154 73.316 199.772 72.5549C199.666 72.3422 199.751 72.0829 199.963 71.9766C200.171 71.8702 200.434 71.9553 200.54 72.1679C200.91 72.9035 201.355 73.686 201.86 74.4981C203.871 77.7001 207.817 82.7943 215.187 88.8877C216.073 89.6149 216.905 90.2825 217.732 90.9203C218.288 91.3498 218.831 91.7793 219.345 92.1917C231.971 102.363 232.519 108.01 233.427 117.365C233.758 120.788 234.135 124.666 235.175 129.467C235.434 130.645 235.701 131.767 235.998 132.899C238.688 143.121 244.526 147.441 249.312 150.065C250.292 150.601 251.353 151.128 252.46 151.634C254.081 152.378 255.761 153.058 257.191 153.628C257.662 153.815 258.137 154.007 258.612 154.194C264.59 156.562 270.768 159.007 275.859 163.906C276.029 164.072 276.038 164.344 275.872 164.514C275.787 164.603 275.677 164.646 275.562 164.646L275.558 164.637Z" fill="#3B140D"/>
<path d="M215.7 194.088C207.694 194.088 199.819 193.599 192.114 192.617C190.345 192.392 188.643 192.145 187.048 191.89C181.902 191.073 177.052 190.053 172.631 188.858C172.402 188.794 172.266 188.56 172.33 188.331C172.393 188.101 172.627 187.965 172.856 188.029C177.247 189.219 182.067 190.232 187.184 191.044C188.771 191.299 190.464 191.541 192.224 191.767C211.19 194.182 231.191 193.608 251.671 190.061C253.317 189.777 254.963 189.47 256.567 189.156C260.903 188.31 265.35 187.302 269.783 186.162C270.017 186.103 270.246 186.243 270.305 186.473C270.365 186.702 270.225 186.936 269.996 186.996C265.549 188.139 261.086 189.151 256.733 190.002C255.12 190.321 253.466 190.627 251.815 190.912C239.566 193.034 227.491 194.093 215.7 194.093V194.088Z" fill="#3B140D"/>
<path d="M169.084 176.858C169.016 176.858 168.944 176.841 168.88 176.807C168.672 176.692 168.596 176.433 168.706 176.225C172.436 169.31 180.26 164.467 186.658 161.019C188.457 160.049 190.286 159.118 191.991 158.259L193.205 157.647C195.564 156.46 197.791 155.338 199.768 154.228C201.245 153.399 202.581 152.506 203.74 151.562C207.558 148.462 209.764 144.715 210.299 140.425C210.766 136.657 209.565 132.796 207.015 129.833C206.099 128.761 205.029 127.834 203.837 127.073C198.343 123.565 195.05 119.24 193.48 113.466C192.076 108.308 192.114 102.491 192.628 94.7728C193.379 83.5001 198.164 77.2748 200.952 74.5661C201.122 74.4003 201.393 74.4045 201.559 74.5746C201.724 74.7447 201.72 75.0168 201.55 75.1827C198.852 77.8063 194.214 83.8445 193.485 94.8281C192.564 108.652 192.806 119.006 204.3 126.346C205.56 127.154 206.693 128.136 207.668 129.267C210.38 132.414 211.648 136.517 211.156 140.527C210.596 145.047 208.284 148.98 204.287 152.225C203.09 153.194 201.711 154.121 200.193 154.972C198.203 156.09 195.967 157.213 193.599 158.408L192.386 159.02C190.68 159.879 188.86 160.806 187.069 161.771C180.777 165.16 173.089 169.914 169.466 176.629C169.39 176.773 169.241 176.854 169.088 176.854L169.084 176.858Z" fill="#3B140D"/>
<path d="M206.06 107.997C206.009 107.997 205.963 107.989 205.912 107.972C204.91 107.602 204.295 107.104 204.028 106.449C203.608 105.416 204.147 104.289 204.715 103.094L204.728 103.065C205.577 101.283 205.517 99.3993 205.517 99.378C205.509 99.1399 205.691 98.94 205.929 98.9315C205.933 98.9315 205.941 98.9315 205.946 98.9315C206.175 98.9315 206.366 99.1144 206.374 99.344C206.374 99.429 206.446 101.453 205.5 103.43L205.487 103.46C205.004 104.481 204.546 105.442 204.821 106.122C204.991 106.543 205.445 106.883 206.205 107.164C206.425 107.245 206.54 107.491 206.459 107.717C206.395 107.891 206.23 107.997 206.056 107.997H206.06Z" fill="#3B140D"/>
<path d="M207.808 113.253C205.407 113.253 204.219 112.535 204.147 112.488C203.947 112.36 203.884 112.097 204.011 111.897C204.138 111.697 204.401 111.637 204.601 111.761C204.639 111.782 207.053 113.194 212.106 111.714C212.331 111.646 212.573 111.778 212.637 112.007C212.704 112.237 212.573 112.475 212.344 112.539C210.515 113.075 209.009 113.257 207.804 113.257L207.808 113.253Z" fill="#3B140D"/>
<path d="M208.063 115.69C206.79 115.69 206.15 115.298 206.111 115.277C205.912 115.15 205.853 114.886 205.976 114.686C206.103 114.486 206.362 114.427 206.561 114.55C206.591 114.567 207.741 115.209 210.138 114.503C210.367 114.435 210.605 114.567 210.668 114.792C210.736 115.022 210.605 115.26 210.38 115.324C209.455 115.596 208.683 115.69 208.059 115.69H208.063Z" fill="#3B140D"/>
<path d="M217.414 93.2207C216.765 93.2207 216.044 93.1399 215.305 92.9741C213.54 92.5829 212.055 91.792 211.525 90.9585C211.27 90.5546 211.275 90.2144 211.321 89.9975C211.529 89.0535 212.921 88.5858 214.949 88.7899C215.187 88.8112 215.356 89.0238 215.335 89.2576C215.314 89.4958 215.097 89.6659 214.868 89.6446C213.214 89.483 212.234 89.853 212.161 90.1846C212.136 90.2909 212.2 90.4143 212.251 90.4993C212.577 91.0181 213.731 91.7495 215.492 92.1364C216.854 92.4383 218.161 92.4383 218.903 92.1364C219.124 92.0471 219.374 92.1492 219.463 92.3703C219.552 92.5914 219.451 92.8423 219.23 92.9316C218.755 93.1272 218.131 93.225 217.418 93.225L217.414 93.2207Z" fill="#3B140D"/>
<path d="M196.005 93.225C195.097 93.225 194.337 93.0634 193.845 92.7488C193.446 92.4936 193.302 92.179 193.255 91.9664C193.209 91.7495 193.205 91.4093 193.459 91.0096C193.994 90.1634 195.445 89.3895 197.239 88.9898C198.36 88.7432 199.458 88.6794 200.333 88.8197C201.342 88.977 201.97 89.398 202.102 90.0018C202.148 90.2187 202.153 90.5589 201.898 90.9628C201.359 91.809 199.912 92.5829 198.122 92.9784C197.375 93.1442 196.654 93.225 196.005 93.225ZM199.34 89.6021C198.75 89.6021 198.092 89.6787 197.426 89.8275C195.665 90.2187 194.511 90.9543 194.185 91.4689C194.129 91.5539 194.07 91.6772 194.096 91.7793C194.117 91.8813 194.223 91.9706 194.308 92.0259C194.821 92.3533 196.175 92.5319 197.935 92.1365C199.692 91.7495 200.846 91.0139 201.173 90.4993C201.228 90.4143 201.287 90.291 201.262 90.1847C201.223 90.0146 200.922 89.7765 200.197 89.6659C199.934 89.6234 199.645 89.6021 199.34 89.6021Z" fill="#3B140D"/>
<path d="M207.342 129.981H190.544C190.307 129.981 190.116 129.79 190.116 129.552C190.116 129.314 190.307 129.122 190.544 129.122H207.342C207.579 129.122 207.77 129.314 207.77 129.552C207.77 129.79 207.579 129.981 207.342 129.981Z" fill="#3B140D"/>
<path d="M264.561 129.981H234.75C234.513 129.981 234.322 129.79 234.322 129.552C234.322 129.314 234.513 129.122 234.75 129.122H264.209C264.523 127.337 265.507 118.492 256.521 110.447C252.239 106.615 252.121 101.576 252.002 96.2441C251.845 89.4703 251.671 81.7865 243.482 73.9793C241.004 71.6151 238.102 69.591 234.861 67.9624C226.774 63.8973 199.552 51.2256 188.758 58.9689C184.931 61.7116 183.505 66.8313 184.511 74.1835C185.067 78.2273 185.661 81.6759 186.187 84.7205C188.173 96.2144 189.076 101.462 182.351 107.878C174.795 115.086 173.501 123.51 174.825 129.122H182.424C182.661 129.122 182.852 129.314 182.852 129.552C182.852 129.79 182.661 129.981 182.424 129.981H174.489C174.294 129.981 174.125 129.85 174.074 129.658C172.563 123.811 173.789 114.856 181.762 107.253C188.156 101.155 187.273 96.0485 185.343 84.8651C184.816 81.8162 184.218 78.3592 183.662 74.2983C182.61 66.6017 184.155 61.2098 188.262 58.2673C199.145 50.4644 224.746 61.9072 235.251 67.1928C238.569 68.8639 241.539 70.9347 244.076 73.3585C252.52 81.4165 252.702 89.2832 252.863 96.2271C252.986 101.593 253.092 106.224 257.098 109.809C267.509 119.125 265.01 129.556 264.981 129.663C264.934 129.854 264.76 129.986 264.565 129.986L264.561 129.981Z" fill="#3B140D"/>
<path d="M182.419 129.981C182.228 129.981 182.059 129.854 182.003 129.662C180.268 123.148 183.641 116.566 185.173 114.04C185.296 113.836 185.559 113.772 185.763 113.895C185.966 114.018 186.03 114.282 185.907 114.486C184.435 116.918 181.185 123.246 182.835 129.441C182.894 129.671 182.759 129.905 182.53 129.969C182.491 129.977 182.453 129.981 182.419 129.981Z" fill="#3B140D"/>
<path d="M190.544 129.981C190.404 129.981 190.264 129.909 190.184 129.782C186.929 124.624 185.224 119.406 185.113 114.274C185.029 110.123 186.043 107.64 186.089 107.534C186.183 107.317 186.429 107.211 186.649 107.304C186.866 107.394 186.972 107.649 186.878 107.866C186.87 107.891 185.89 110.302 185.97 114.252C186.077 119.232 187.736 124.3 190.905 129.322C191.032 129.522 190.973 129.79 190.773 129.913C190.701 129.96 190.625 129.981 190.544 129.981Z" fill="#3B140D"/>
<path d="M220.728 156.907C219.646 156.907 218.589 156.868 217.558 156.796C210.337 156.277 206.06 154.028 203.748 152.238C203.561 152.093 203.527 151.821 203.672 151.634C203.816 151.447 204.087 151.413 204.274 151.557C208.216 154.61 220.456 160.572 248.951 150.035C249.172 149.954 249.418 150.065 249.503 150.29C249.583 150.511 249.473 150.758 249.248 150.843C238.344 154.874 228.772 156.911 220.728 156.911V156.907Z" fill="#3B140D"/>
<path d="M187.116 191.898C186.9 191.898 186.713 191.733 186.692 191.512C185.359 177.972 185.818 167.639 186.437 161.355C186.458 161.116 186.675 160.946 186.904 160.968C187.141 160.989 187.311 161.201 187.29 161.435C186.675 167.682 186.217 177.955 187.545 191.426C187.57 191.665 187.396 191.873 187.158 191.894C187.146 191.894 187.129 191.894 187.116 191.894V191.898Z" fill="#3B140D"/>
<path d="M192.165 192.621C191.949 192.621 191.762 192.455 191.741 192.234C190.044 175.948 191.024 164.157 191.758 158.582C191.788 158.348 192.012 158.182 192.237 158.212C192.471 158.242 192.636 158.459 192.606 158.693C191.877 164.233 190.905 175.944 192.589 192.145C192.615 192.383 192.445 192.592 192.208 192.617C192.191 192.617 192.178 192.617 192.161 192.617L192.165 192.621Z" fill="#3B140D"/>
<path d="M256.648 190.006C256.423 190.006 256.236 189.832 256.219 189.606C255.825 183.947 255.625 178.376 255.625 173.044C255.625 164.267 256.156 157.829 256.601 153.973C256.627 153.739 256.843 153.569 257.076 153.594C257.31 153.62 257.479 153.837 257.454 154.07C257.013 157.906 256.482 164.31 256.482 173.044C256.482 178.355 256.682 183.908 257.076 189.547C257.093 189.785 256.915 189.989 256.677 190.006C256.669 190.006 256.656 190.006 256.648 190.006Z" fill="#3B140D"/>
<path d="M251.743 190.916C251.518 190.916 251.331 190.742 251.314 190.516C249.842 170.284 251.2 156.813 251.853 151.961C251.883 151.727 252.104 151.562 252.337 151.591C252.57 151.621 252.736 151.838 252.706 152.076C252.057 156.902 250.708 170.305 252.176 190.453C252.193 190.691 252.014 190.895 251.781 190.912C251.768 190.912 251.76 190.912 251.751 190.912L251.743 190.916Z" fill="#3B140D"/>
<path d="M148.765 153.645C148.587 153.645 148.421 153.535 148.358 153.356C148.281 153.131 148.4 152.888 148.621 152.808C158.074 149.529 165.087 141.752 167.378 132.001C169.156 124.449 167.887 116.655 163.814 110.06C159.741 103.46 153.347 98.8465 145.808 97.0691C138.272 95.2916 130.495 96.5588 123.915 100.641C117.33 104.723 112.726 111.131 110.953 118.688C108.933 127.286 110.881 136.215 116.299 143.193C116.316 143.214 116.328 143.24 116.341 143.261C116.426 143.423 116.405 143.623 116.273 143.759C116.108 143.929 115.836 143.937 115.667 143.772C115.645 143.75 115.624 143.725 115.607 143.699C110.041 136.517 108.038 127.332 110.117 118.488C111.941 110.71 116.681 104.115 123.461 99.9096C130.241 95.7041 138.247 94.3987 146.003 96.2314C153.763 98.0598 160.344 102.81 164.54 109.605C168.736 116.4 170.039 124.42 168.21 132.197C165.851 142.232 158.634 150.243 148.901 153.62C148.854 153.637 148.807 153.645 148.761 153.645H148.765Z" fill="#3B140D"/>
<path d="M138.081 141.314C137.224 141.314 136.359 141.216 135.489 141.012C132.57 140.323 130.092 138.545 128.51 136.011C126.927 133.472 126.431 130.475 127.114 127.575C127.169 127.345 127.398 127.2 127.631 127.256C127.86 127.311 128.005 127.541 127.95 127.77C127.322 130.449 127.78 133.213 129.239 135.556C130.699 137.899 132.99 139.54 135.688 140.178C141.255 141.492 146.839 138.061 148.137 132.533C148.192 132.303 148.421 132.159 148.655 132.214C148.884 132.269 149.028 132.499 148.973 132.728C147.768 137.852 143.164 141.314 138.086 141.314H138.081Z" fill="#3B140D"/>
<path d="M290.081 149.312C289.988 149.312 289.899 149.282 289.818 149.223C285.236 145.685 281.804 140.905 279.886 135.407C277.26 127.864 277.722 119.751 281.184 112.556C284.646 105.361 290.701 99.9478 298.228 97.3157C305.754 94.6836 313.85 95.1428 321.033 98.6169C328.212 102.091 333.613 108.155 336.239 115.698C339.214 124.232 338.199 133.549 333.464 141.25C333.341 141.454 333.074 141.514 332.875 141.39C332.671 141.267 332.612 140.999 332.735 140.799C337.334 133.319 338.318 124.271 335.429 115.983C332.879 108.656 327.631 102.763 320.66 99.3908C313.684 96.0188 305.818 95.5723 298.512 98.1279C283.424 103.405 275.431 120.001 280.696 135.127C282.559 140.472 285.894 145.111 290.344 148.547C290.531 148.691 290.565 148.963 290.421 149.151C290.336 149.261 290.209 149.316 290.081 149.316V149.312Z" fill="#3B140D"/>
<path d="M302.632 142.9C302.432 142.9 302.254 142.759 302.212 142.555C301.13 137.125 304.282 131.644 309.543 129.803C314.864 127.94 320.748 130.305 323.252 135.301C323.29 135.365 323.315 135.441 323.315 135.522C323.315 135.76 323.124 135.952 322.887 135.952C322.772 135.952 322.666 135.905 322.59 135.832C322.552 135.798 322.522 135.756 322.501 135.713C320.201 131.083 314.753 128.893 309.832 130.615C304.969 132.316 302.055 137.376 303.056 142.385C303.102 142.619 302.95 142.844 302.721 142.891C302.691 142.895 302.665 142.9 302.636 142.9H302.632Z" fill="#3B140D"/>
<path d="M117.304 160.746C117.194 160.746 117.088 160.704 117.003 160.623C116.634 160.257 107.987 151.638 107.783 146.302C107.745 145.417 107.945 144.647 108.377 144.022C108.823 143.376 109.43 142.993 110.185 142.883C111.814 142.649 114.131 143.742 117.071 146.136C117.253 146.285 117.283 146.557 117.135 146.74C116.986 146.922 116.715 146.952 116.532 146.803C113.112 144.018 111.258 143.597 110.312 143.733C109.799 143.805 109.396 144.061 109.086 144.511C108.764 144.979 108.615 145.57 108.645 146.268C108.836 151.268 117.521 159.926 117.61 160.015C117.78 160.181 117.78 160.453 117.61 160.623C117.525 160.708 117.415 160.751 117.304 160.751V160.746Z" fill="#3B140D"/>
<path d="M112.217 163.706C112.098 163.706 111.98 163.655 111.895 163.557C111.644 163.268 105.709 156.405 104.139 151.09C103.532 149.027 103.668 147.437 104.529 146.357C105.102 145.643 106.235 144.983 108.377 145.885C108.594 145.978 108.7 146.229 108.607 146.446C108.513 146.663 108.263 146.769 108.047 146.676C106.048 145.834 105.412 146.633 105.2 146.893C104.521 147.739 104.44 149.066 104.962 150.843C106.477 155.975 112.48 162.919 112.54 162.987C112.697 163.166 112.675 163.438 112.497 163.595C112.417 163.668 112.315 163.702 112.217 163.702V163.706Z" fill="#3B140D"/>
<path d="M154.786 211.48C154.17 211.48 153.551 211.454 152.923 211.399C147.602 210.957 144.302 209.116 143.865 206.343C142.889 200.131 141.068 188.573 126.095 180.851C109.366 172.223 102.022 162.596 100.723 156.464C100.265 154.292 100.537 152.497 101.517 151.277C102.009 150.664 102.951 150.044 104.669 150.558C104.894 150.626 105.026 150.864 104.958 151.094C104.89 151.323 104.652 151.451 104.423 151.383C103.396 151.077 102.662 151.221 102.183 151.817C101.381 152.812 101.16 154.402 101.559 156.286C102.815 162.226 110.024 171.598 126.482 180.09C139.978 187.051 143.215 196.759 144.705 206.211C145.074 208.559 148.095 210.136 152.987 210.545C158.736 211.029 163.895 209.188 167.518 205.365C171.456 201.207 173.2 195.062 172.309 188.505C172.126 187.149 171.829 185.775 171.43 184.423L171.413 184.372C171.091 183.271 170.174 180.311 168.677 176.595C165.719 169.255 160.823 159.773 154.281 156.299C152.482 155.342 150.619 154.466 148.591 153.615C145.04 152.127 141.735 151.047 138.54 150.001C134.085 148.542 130.237 147.284 127.016 145.328C120.423 141.318 118 140.063 116.723 141.688C116.418 142.079 116.303 142.662 116.384 143.419C116.468 144.231 116.774 145.204 117.279 146.242C118.497 148.772 120.652 151.387 123.185 153.424C123.372 153.573 123.401 153.841 123.253 154.028C123.104 154.215 122.837 154.245 122.65 154.096C120.02 151.983 117.78 149.257 116.507 146.62C115.964 145.498 115.624 144.422 115.531 143.512C115.425 142.53 115.599 141.735 116.048 141.161C117.83 138.886 120.834 140.57 127.457 144.596C130.593 146.501 134.399 147.747 138.803 149.189C141.866 150.192 145.337 151.328 148.922 152.829C150.976 153.688 152.859 154.576 154.68 155.542C161.451 159.139 166.462 168.8 169.47 176.276C170.985 180.03 171.91 183.02 172.236 184.134L172.253 184.185C172.665 185.58 172.97 186.996 173.157 188.395C174.086 195.211 172.258 201.615 168.142 205.965C164.735 209.562 160.042 211.489 154.777 211.489L154.786 211.48Z" fill="#3B140D"/>
<path d="M320.889 152.765C320.8 152.765 320.706 152.735 320.63 152.676C320.443 152.531 320.405 152.263 320.549 152.072C320.626 151.974 328.034 142.198 327.533 137.219C327.465 136.521 327.236 135.96 326.854 135.539C326.553 135.207 325.628 134.2 323.116 135.875C322.136 136.53 321.02 137.529 319.794 138.843C319.633 139.017 319.361 139.026 319.187 138.864C319.013 138.703 319.005 138.431 319.166 138.256C320.435 136.891 321.602 135.85 322.637 135.161C325.216 133.439 326.697 134.098 327.482 134.957C327.991 135.514 328.297 136.245 328.382 137.129C328.916 142.445 321.538 152.178 321.224 152.591C321.139 152.701 321.012 152.761 320.884 152.761L320.889 152.765Z" fill="#3B140D"/>
<path d="M326.336 154.989C326.256 154.989 326.175 154.968 326.103 154.921C325.904 154.789 325.848 154.525 325.98 154.326C326.031 154.249 331.02 146.54 331.814 141.246C332.081 139.413 331.818 138.108 331.033 137.368C330.791 137.138 330.049 136.436 328.186 137.546C327.983 137.665 327.719 137.601 327.601 137.397C327.482 137.193 327.546 136.93 327.749 136.811C329.748 135.624 330.957 136.122 331.623 136.747C332.624 137.691 332.976 139.247 332.667 141.377C331.844 146.859 326.913 154.479 326.705 154.802C326.625 154.929 326.485 154.997 326.345 154.997L326.336 154.989Z" fill="#3B140D"/>
<path d="M287.956 208.401C283.675 208.401 279.712 207.007 276.496 204.311C271.697 200.288 269.134 193.816 269.461 186.562C269.504 185.588 269.601 184.585 269.754 183.577C269.911 182.471 271.4 172.657 275.168 164.038C277.472 158.761 280.174 154.972 283.204 152.773C285.27 151.277 287.451 149.882 289.869 148.513C292.75 146.876 295.47 145.545 298.105 144.256C299.611 143.521 301.032 142.823 302.39 142.117C302.403 142.109 302.42 142.1 302.432 142.092C305.156 140.667 307.074 139.455 308.657 138.167C314.66 133.264 317.401 131.176 319.48 133.183C320.494 134.161 320.6 136.1 319.781 138.652C318.882 141.445 317.04 144.456 314.728 146.905C314.567 147.08 314.295 147.084 314.121 146.922C313.947 146.761 313.943 146.489 314.104 146.314C316.332 143.954 318.101 141.063 318.967 138.388C319.658 136.232 319.629 134.519 318.886 133.804C317.397 132.371 315.174 133.949 309.2 138.835C307.579 140.157 305.627 141.394 302.874 142.836C302.861 142.844 302.844 142.853 302.831 142.861C301.452 143.58 300.01 144.286 298.482 145.034C295.86 146.314 293.153 147.641 290.294 149.265C287.901 150.622 285.745 152 283.709 153.475C280.802 155.58 278.193 159.25 275.953 164.386C272.228 172.899 270.759 182.611 270.602 183.692C270.454 184.687 270.361 185.66 270.318 186.604C270.004 193.591 272.457 199.808 277.047 203.656C281.201 207.143 286.679 208.342 292.466 207.028C297.256 205.944 300.027 203.958 300.069 201.585C300.243 192.017 302.114 181.952 314.52 173.193C329.65 162.507 335.497 152.225 335.925 146.17C336.061 144.248 335.624 142.704 334.695 141.828C334.292 141.45 333.8 141.326 333.193 141.45C332.951 141.496 332.692 141.582 332.416 141.705C332.2 141.803 331.946 141.705 331.848 141.492C331.75 141.275 331.848 141.02 332.06 140.922C332.395 140.769 332.722 140.663 333.027 140.604C333.901 140.425 334.678 140.629 335.285 141.199C336.422 142.27 336.939 144.01 336.787 146.229C336.345 152.484 330.397 163.034 315.021 173.894C301.261 183.611 301.049 195.313 300.935 201.602C300.884 204.404 297.871 206.688 292.661 207.866C291.066 208.227 289.496 208.406 287.964 208.406L287.956 208.401Z" fill="#3B140D"/>
<path d="M132.26 64.735C129.757 64.735 127.72 62.6939 127.72 60.1851C127.72 57.6762 129.757 55.6394 132.26 55.6394C134.764 55.6394 136.796 57.6805 136.796 60.1851C136.796 62.6896 134.759 64.735 132.26 64.735ZM132.26 56.4984C130.228 56.4984 128.578 58.1525 128.578 60.1851C128.578 62.2176 130.228 63.876 132.26 63.876C134.293 63.876 135.939 62.2219 135.939 60.1851C135.939 58.1482 134.288 56.4984 132.26 56.4984Z" fill="#3B140D"/>
<path d="M151.09 62.5408C143.606 62.5408 137.517 56.4388 137.517 48.9379C137.517 41.4369 143.606 35.3307 151.09 35.3307C158.575 35.3307 164.667 41.4327 164.667 48.9379C164.667 56.4431 158.579 62.5408 151.09 62.5408ZM151.09 36.1896C144.077 36.1896 138.374 41.9089 138.374 48.9336C138.374 55.9583 144.081 61.6776 151.09 61.6776C158.099 61.6776 163.806 55.9583 163.806 48.9336C163.806 41.9089 158.099 36.1896 151.09 36.1896Z" fill="#3B140D"/>
<path d="M273.25 61.2906C271.693 61.2906 270.428 60.0235 270.428 58.4629C270.428 56.9023 271.693 55.6351 273.25 55.6351C274.807 55.6351 276.071 56.9023 276.071 58.4629C276.071 60.0235 274.807 61.2906 273.25 61.2906ZM273.25 56.4983C272.168 56.4983 271.286 57.3828 271.286 58.4671C271.286 59.5515 272.168 60.4359 273.25 60.4359C274.332 60.4359 275.214 59.5515 275.214 58.4671C275.214 57.3828 274.332 56.4983 273.25 56.4983Z" fill="#3B140D"/>
<path d="M284.684 72.4826C280.709 72.4826 277.476 69.2424 277.476 65.258C277.476 61.2737 280.709 58.0334 284.684 58.0334C288.66 58.0334 291.893 61.2737 291.893 65.258C291.893 69.2424 288.66 72.4826 284.684 72.4826ZM284.684 58.8924C281.18 58.8924 278.333 61.7499 278.333 65.258C278.333 68.7661 281.184 71.6236 284.684 71.6236C288.185 71.6236 291.036 68.7704 291.036 65.258C291.036 61.7457 288.189 58.8924 284.684 58.8924Z" fill="#3B140D"/>
<path d="M129.069 90.4943C131.675 87.8822 131.675 83.6471 129.069 81.035C126.462 78.4228 122.237 78.4228 119.63 81.035C117.024 83.6471 117.024 87.8822 119.63 90.4943C122.237 93.1065 126.462 93.1065 129.069 90.4943Z" fill="white"/>
<path d="M292.186 51.8337C294.03 51.8337 295.525 50.3354 295.525 48.4871C295.525 46.6389 294.03 45.1406 292.186 45.1406C290.342 45.1406 288.847 46.6389 288.847 48.4871C288.847 50.3354 290.342 51.8337 292.186 51.8337Z" fill="white"/>
<path d="M277.06 93.0124C274.761 93.0124 272.889 91.1371 272.889 88.8324C272.889 86.5277 274.761 84.6525 277.06 84.6525C279.36 84.6525 281.231 86.5277 281.231 88.8324C281.231 91.1371 279.36 93.0124 277.06 93.0124ZM277.06 85.5072C275.231 85.5072 273.746 86.9955 273.746 88.8282C273.746 90.6609 275.231 92.1492 277.06 92.1492C278.889 92.1492 280.374 90.6609 280.374 88.8282C280.374 86.9955 278.889 85.5072 277.06 85.5072Z" fill="#3B140D"/>
<path d="M314.168 67.4011C314.057 67.4011 313.947 67.3586 313.867 67.2736C313.701 67.1077 313.701 66.8356 313.867 66.6655L317.46 63.0638C317.626 62.898 317.897 62.898 318.067 63.0638C318.232 63.2297 318.232 63.5018 318.067 63.6719L314.473 67.2736C314.388 67.3586 314.278 67.4011 314.172 67.4011H314.168Z" fill="#3B140D"/>
<path d="M307.901 73.6859C307.791 73.6859 307.681 73.6434 307.6 73.5583C307.434 73.3925 307.434 73.1204 307.6 72.9503L311.194 69.3486C311.359 69.1828 311.631 69.1828 311.8 69.3486C311.966 69.5145 311.966 69.7866 311.8 69.9567L308.207 73.5583C308.122 73.6434 308.011 73.6859 307.905 73.6859H307.901Z" fill="#3B140D"/>
<path d="M317.761 73.6859C317.651 73.6859 317.541 73.6434 317.46 73.5583L313.867 69.9567C313.701 69.7909 313.701 69.5187 313.867 69.3486C314.032 69.1828 314.304 69.1828 314.473 69.3486L318.067 72.9503C318.232 73.1161 318.232 73.3883 318.067 73.5583C317.982 73.6434 317.872 73.6859 317.766 73.6859H317.761Z" fill="#3B140D"/>
<path d="M311.495 67.4011C311.385 67.4011 311.274 67.3586 311.194 67.2736L307.6 63.6719C307.434 63.5061 307.434 63.2339 307.6 63.0638C307.765 62.898 308.037 62.898 308.207 63.0638L311.8 66.6655C311.966 66.8313 311.966 67.1035 311.8 67.2736C311.715 67.3586 311.605 67.4011 311.499 67.4011H311.495Z" fill="#3B140D"/>
</g>
<defs>
<clipPath id="clip0_638_1052">
<rect width="246" height="218" fill="white" transform="translate(92 10)"/>
</clipPath>
</defs>
</svg>
