<svg width="430" height="237" viewBox="0 0 430 237" fill="none" xmlns="http://www.w3.org/2000/svg">
<g clip-path="url(#clip0_638_1136)">
<path d="M299.004 118.662C298.775 118.662 298.587 118.476 298.583 118.244C298.579 118.007 298.762 117.813 298.995 117.809C299.92 117.788 300.848 117.733 301.764 117.648C301.993 117.627 302.202 117.8 302.222 118.033C302.243 118.269 302.072 118.476 301.843 118.498C300.907 118.586 299.957 118.641 299.012 118.662H299.004ZM294.523 118.51C294.523 118.51 294.498 118.51 294.486 118.51C293.544 118.426 292.599 118.303 291.675 118.151C291.446 118.113 291.292 117.893 291.325 117.661C291.363 117.428 291.579 117.272 291.808 117.306C292.716 117.454 293.64 117.572 294.561 117.657C294.794 117.678 294.964 117.885 294.944 118.121C294.923 118.341 294.74 118.51 294.527 118.51H294.523ZM306.241 117.821C306.045 117.821 305.87 117.682 305.828 117.483C305.783 117.251 305.928 117.027 306.153 116.976C307.057 116.786 307.96 116.558 308.847 116.3C309.072 116.236 309.305 116.367 309.368 116.591C309.43 116.82 309.301 117.056 309.081 117.12C308.177 117.382 307.253 117.614 306.328 117.809C306.299 117.813 306.27 117.817 306.241 117.817V117.821ZM287.357 117.175C287.319 117.175 287.282 117.17 287.244 117.158C286.337 116.9 285.429 116.604 284.546 116.279C284.325 116.198 284.213 115.953 284.292 115.733C284.371 115.509 284.613 115.395 284.829 115.476C285.695 115.793 286.586 116.084 287.473 116.338C287.698 116.401 287.827 116.638 287.765 116.866C287.711 117.056 287.544 117.179 287.361 117.179L287.357 117.175ZM313.199 115.636C313.032 115.636 312.878 115.539 312.812 115.374C312.724 115.154 312.824 114.905 313.041 114.816C313.89 114.457 314.74 114.064 315.564 113.646C315.772 113.54 316.026 113.624 316.13 113.836C316.234 114.047 316.151 114.305 315.943 114.411C315.102 114.837 314.236 115.239 313.365 115.607C313.311 115.628 313.257 115.64 313.203 115.64L313.199 115.636ZM280.557 114.512C280.494 114.512 280.432 114.499 280.369 114.465C279.528 114.043 278.687 113.578 277.875 113.092C277.675 112.973 277.609 112.711 277.725 112.509C277.842 112.306 278.1 112.238 278.3 112.356C279.095 112.83 279.916 113.282 280.744 113.7C280.952 113.806 281.036 114.06 280.936 114.271C280.861 114.423 280.715 114.508 280.557 114.508V114.512ZM319.641 112.187C319.503 112.187 319.37 112.12 319.287 111.993C319.162 111.794 319.216 111.532 319.407 111.401C320.178 110.89 320.94 110.345 321.677 109.778C321.86 109.634 322.127 109.673 322.268 109.859C322.41 110.044 322.372 110.315 322.189 110.459C321.44 111.038 320.657 111.596 319.87 112.115C319.799 112.162 319.72 112.183 319.641 112.183V112.187ZM274.357 110.624C274.269 110.624 274.177 110.594 274.103 110.539C273.353 109.964 272.612 109.356 271.9 108.726C271.725 108.569 271.704 108.303 271.858 108.121C272.012 107.944 272.274 107.923 272.454 108.079C273.149 108.696 273.878 109.292 274.611 109.854C274.798 109.998 274.835 110.264 274.694 110.45C274.611 110.56 274.486 110.619 274.357 110.619V110.624ZM325.345 107.597C325.233 107.597 325.125 107.555 325.041 107.466C324.879 107.297 324.887 107.027 325.054 106.862C325.72 106.215 326.374 105.539 326.994 104.846C327.153 104.673 327.419 104.66 327.59 104.816C327.761 104.977 327.773 105.243 327.619 105.421C326.986 106.126 326.32 106.82 325.637 107.479C325.554 107.559 325.45 107.597 325.345 107.597ZM268.968 105.649C268.856 105.649 268.739 105.602 268.656 105.509C268.023 104.808 267.403 104.072 266.815 103.32C266.67 103.134 266.703 102.868 266.882 102.72C267.065 102.572 267.328 102.606 267.473 102.787C268.048 103.523 268.656 104.241 269.276 104.93C269.435 105.104 269.422 105.374 269.251 105.535C269.172 105.611 269.068 105.645 268.968 105.645V105.649ZM330.134 102.022C330.047 102.022 329.963 101.997 329.888 101.942C329.701 101.803 329.659 101.536 329.793 101.346C330.33 100.59 330.85 99.7993 331.337 99.0047C331.458 98.806 331.721 98.7426 331.916 98.8652C332.112 98.9878 332.174 99.2541 332.054 99.4527C331.558 100.268 331.025 101.071 330.476 101.845C330.392 101.959 330.263 102.022 330.134 102.022ZM264.563 99.7612C264.421 99.7612 264.284 99.6894 264.205 99.5584C263.709 98.7469 263.23 97.91 262.793 97.0647C262.685 96.8576 262.764 96.5998 262.968 96.4857C263.172 96.3758 263.426 96.4561 263.538 96.6632C263.967 97.4874 264.434 98.3115 264.921 99.1019C265.042 99.3006 264.983 99.5668 264.788 99.6894C264.717 99.7317 264.642 99.7528 264.567 99.7528L264.563 99.7612ZM333.836 95.653C333.778 95.653 333.715 95.6403 333.657 95.6108C333.445 95.5093 333.357 95.2557 333.457 95.0444C333.848 94.1991 334.219 93.3242 334.552 92.4535C334.635 92.2337 334.881 92.1238 335.098 92.2084C335.314 92.2929 335.422 92.5423 335.339 92.7621C334.998 93.6539 334.623 94.5457 334.223 95.4121C334.152 95.5685 333.998 95.6573 333.844 95.6573L333.836 95.653ZM261.298 93.1551C261.131 93.1551 260.969 93.0537 260.907 92.8846C260.565 91.997 260.249 91.0841 259.97 90.1669C259.899 89.9429 260.024 89.702 260.249 89.6344C260.469 89.5625 260.707 89.6893 260.773 89.9176C261.048 90.8136 261.356 91.7054 261.689 92.5761C261.773 92.7959 261.669 93.0452 261.452 93.1298C261.402 93.1509 261.348 93.1593 261.298 93.1593V93.1551ZM336.318 88.6961C336.284 88.6961 336.247 88.6919 336.214 88.6834C335.989 88.6242 335.855 88.3918 335.914 88.1636C336.147 87.2591 336.347 86.3335 336.513 85.4121C336.555 85.1796 336.776 85.0274 337.005 85.0697C337.234 85.112 337.384 85.336 337.342 85.5684C337.171 86.5067 336.963 87.4535 336.73 88.3791C336.68 88.5735 336.509 88.7003 336.322 88.7003L336.318 88.6961ZM259.291 86.046C259.091 86.046 258.916 85.9023 258.879 85.6995C258.704 84.7612 258.562 83.806 258.454 82.855C258.429 82.6225 258.591 82.407 258.825 82.3816C259.054 82.3563 259.266 82.5211 259.291 82.7578C259.395 83.6876 259.537 84.6259 259.707 85.5431C259.749 85.7755 259.599 85.9996 259.37 86.0418C259.345 86.046 259.316 86.0503 259.291 86.0503V86.046ZM337.488 81.3968C337.488 81.3968 337.467 81.3968 337.459 81.3968C337.225 81.3799 337.051 81.177 337.067 80.9404C337.13 80.0232 337.163 79.0933 337.163 78.1677V78.1212C337.163 77.8846 337.35 77.6944 337.584 77.6944C337.817 77.6944 338.004 77.8846 338.004 78.1212V78.1762C338.004 79.1103 337.971 80.0612 337.908 80.9953C337.892 81.2193 337.708 81.3926 337.488 81.3926V81.3968ZM258.612 78.6876C258.379 78.6876 258.192 78.4974 258.192 78.2607V78.172C258.192 77.2125 258.225 76.2446 258.292 75.2979C258.308 75.0612 258.508 74.8837 258.741 74.9006C258.974 74.9175 259.149 75.1204 259.133 75.3571C259.07 76.2869 259.037 77.2337 259.037 78.172V78.2607C259.037 78.4974 258.85 78.6876 258.616 78.6876H258.612ZM337.325 74.0046C337.113 74.0046 336.934 73.844 336.909 73.6242C336.805 72.6943 336.667 71.756 336.497 70.8389C336.455 70.6064 336.605 70.3824 336.834 70.3401C337.063 70.2979 337.284 70.45 337.325 70.6825C337.496 71.6208 337.642 72.576 337.746 73.527C337.771 73.7594 337.604 73.975 337.375 74.0003C337.359 74.0003 337.342 74.0003 337.325 74.0003V74.0046ZM259.278 71.2319C259.253 71.2319 259.229 71.2319 259.199 71.2235C258.97 71.1812 258.82 70.9572 258.862 70.7248C259.033 69.7865 259.241 68.8397 259.478 67.9141C259.537 67.6858 259.77 67.5506 259.991 67.6098C260.215 67.6689 260.349 67.9014 260.29 68.1296C260.057 69.0341 259.853 69.9597 259.687 70.8769C259.649 71.084 259.474 71.2277 259.274 71.2277L259.278 71.2319ZM335.835 66.7687C335.656 66.7687 335.489 66.6503 335.431 66.4686C335.16 65.5768 334.852 64.6808 334.519 63.8101C334.436 63.5903 334.544 63.3409 334.76 63.2564C334.977 63.1719 335.223 63.2818 335.306 63.5016C335.647 64.3934 335.96 65.3063 336.239 66.2192C336.305 66.4432 336.184 66.6842 335.96 66.7518C335.918 66.7645 335.876 66.7729 335.835 66.7729V66.7687ZM261.269 64.1186C261.219 64.1186 261.165 64.1102 261.115 64.089C260.898 64.0045 260.79 63.7551 260.873 63.5354C261.215 62.6436 261.59 61.7518 261.993 60.8895C262.093 60.6782 262.343 60.5852 262.556 60.6867C262.764 60.7881 262.855 61.0417 262.755 61.2572C262.36 62.1026 261.993 62.9732 261.66 63.8481C261.598 64.0172 261.435 64.1229 261.269 64.1229V64.1186ZM333.049 59.9343C332.899 59.9343 332.753 59.8498 332.678 59.7061C332.249 58.8777 331.783 58.0577 331.3 57.2631C331.179 57.0645 331.238 56.7982 331.437 56.6757C331.633 56.5531 331.895 56.6123 332.016 56.8109C332.512 57.6224 332.986 58.4593 333.424 59.3046C333.532 59.5117 333.453 59.7695 333.249 59.8836C333.186 59.9174 333.12 59.9343 333.053 59.9343H333.049ZM264.521 57.4998C264.446 57.4998 264.367 57.4787 264.3 57.4364C264.105 57.3139 264.042 57.0476 264.163 56.8489C264.658 56.0374 265.191 55.2302 265.741 54.4567C265.879 54.2665 266.141 54.2242 266.328 54.3595C266.516 54.499 266.557 54.7652 266.424 54.9554C265.883 55.712 265.362 56.4981 264.879 57.297C264.8 57.428 264.663 57.4998 264.521 57.4998ZM329.072 53.7424C328.947 53.7424 328.827 53.6875 328.743 53.5818C328.173 52.8506 327.569 52.1279 326.944 51.4347C326.786 51.2614 326.799 50.9909 326.969 50.8303C327.14 50.6697 327.407 50.6824 327.565 50.8557C328.198 51.5615 328.818 52.2969 329.401 53.0493C329.547 53.2352 329.514 53.5015 329.335 53.6494C329.255 53.7128 329.164 53.7424 329.072 53.7424ZM268.914 51.5995C268.814 51.5995 268.71 51.5615 268.631 51.4897C268.46 51.329 268.448 51.0585 268.602 50.8853C269.235 50.1794 269.905 49.4863 270.584 48.8269C270.75 48.6663 271.017 48.6705 271.179 48.8438C271.338 49.0129 271.333 49.2834 271.163 49.4482C270.496 50.0949 269.843 50.7711 269.222 51.4601C269.139 51.5531 269.027 51.5995 268.91 51.5995H268.914ZM324.046 48.3916C323.946 48.3916 323.85 48.3578 323.771 48.2859C323.076 47.6688 322.351 47.0729 321.614 46.5108C321.431 46.3671 321.394 46.1008 321.531 45.9106C321.673 45.7204 321.935 45.6866 322.122 45.8261C322.872 46.4009 323.613 47.0137 324.325 47.6393C324.5 47.7956 324.517 48.0661 324.367 48.2437C324.284 48.3409 324.167 48.3916 324.05 48.3916H324.046ZM274.298 46.6164C274.169 46.6164 274.044 46.5573 273.961 46.4474C273.819 46.2614 273.857 45.9909 274.044 45.8472C274.794 45.2682 275.577 44.7145 276.364 44.1946C276.559 44.0678 276.817 44.1228 276.947 44.3214C277.071 44.5201 277.017 44.7821 276.822 44.9131C276.051 45.4203 275.285 45.9655 274.552 46.5319C274.477 46.5911 274.386 46.6164 274.298 46.6164ZM318.142 44.0594C318.071 44.0594 317.996 44.0382 317.929 44.0002C317.134 43.5226 316.314 43.0703 315.489 42.6561C315.281 42.5505 315.198 42.2927 315.302 42.0856C315.406 41.8742 315.656 41.7897 315.864 41.8954C316.705 42.3222 317.546 42.7829 318.358 43.269C318.558 43.3873 318.625 43.6494 318.508 43.8523C318.429 43.9875 318.287 44.0636 318.146 44.0636L318.142 44.0594ZM280.482 42.7195C280.328 42.7195 280.178 42.6308 280.107 42.4828C280.003 42.2715 280.086 42.0137 280.294 41.908C281.136 41.4812 282.006 41.0796 282.872 40.7161C283.084 40.6274 283.334 40.7288 283.422 40.9486C283.509 41.1684 283.409 41.4178 283.193 41.5065C282.343 41.8615 281.494 42.2546 280.669 42.673C280.611 42.7026 280.544 42.7195 280.482 42.7195ZM311.55 40.9063C311.504 40.9063 311.454 40.8979 311.408 40.881C310.542 40.564 309.655 40.2724 308.768 40.0188C308.543 39.9554 308.414 39.7187 308.477 39.4904C308.539 39.2622 308.772 39.1312 308.997 39.1946C309.905 39.4566 310.813 39.7525 311.696 40.0779C311.912 40.1582 312.029 40.4034 311.95 40.6232C311.887 40.7965 311.725 40.9063 311.554 40.9063H311.55ZM287.273 40.0441C287.09 40.0441 286.924 39.9216 286.87 39.7356C286.807 39.5073 286.936 39.2707 287.161 39.2073C288.065 38.9452 288.993 38.7128 289.913 38.5183C290.138 38.4718 290.363 38.6198 290.409 38.848C290.455 39.0805 290.309 39.3045 290.084 39.3552C289.181 39.5454 288.277 39.7736 287.39 40.0272C287.353 40.0399 287.311 40.0441 287.273 40.0441ZM304.5 39.0424C304.479 39.0424 304.454 39.0424 304.434 39.0382C303.526 38.886 302.597 38.7677 301.681 38.6832C301.448 38.662 301.277 38.4549 301.302 38.2182C301.323 37.9816 301.531 37.8083 301.76 37.8336C302.697 37.9182 303.646 38.0407 304.571 38.1971C304.8 38.2352 304.954 38.4549 304.917 38.6874C304.883 38.8987 304.704 39.0467 304.5 39.0467V39.0424ZM294.431 38.6916C294.215 38.6916 294.032 38.5268 294.015 38.3028C293.994 38.0661 294.165 37.859 294.394 37.8379C295.331 37.7491 296.28 37.6942 297.226 37.6772C297.226 37.6772 297.23 37.6772 297.234 37.6772C297.463 37.6772 297.65 37.8632 297.654 38.0957C297.659 38.3324 297.475 38.5268 297.242 38.531C296.318 38.5521 295.389 38.6029 294.473 38.6916C294.461 38.6916 294.448 38.6916 294.436 38.6916H294.431Z" fill="#3B140D"/>
<path d="M156.355 92.0267C176.743 84.8039 188.07 63.8215 181.653 45.1611C175.237 26.5008 153.507 17.2288 133.119 24.4516C112.73 31.6744 101.404 52.6569 107.82 71.3172C114.237 89.9775 135.967 99.2495 156.355 92.0267Z" fill="#FBFBFB"/>
<path d="M335.597 179.09C340.953 159.094 324.713 137.205 299.323 130.198C273.934 123.192 249.009 133.721 243.653 153.717C238.297 173.712 254.538 195.602 279.927 202.608C305.317 209.615 330.241 199.085 335.597 179.09Z" fill="#FBFBFB"/>
<path d="M312.304 145.412C300.532 199.322 242.135 232.031 181.877 218.473C121.615 204.914 82.3102 150.222 94.082 96.3123C105.858 42.4025 166.245 46.0711 224.513 23.2519C331.117 -18.5023 324.075 91.5025 312.304 145.412Z" fill="#DCDCDC"/>
<path d="M313.607 168.967C314.098 170.252 313.47 171.689 312.204 172.183C310.942 172.678 309.526 172.04 309.039 170.759C308.552 169.474 309.181 168.037 310.442 167.543C311.708 167.048 313.124 167.686 313.607 168.967Z" fill="#FECE2E"/>
<path d="M302.939 90.7249C305.87 92.7536 306.236 97.0267 303.501 99.3851C302.939 99.8712 302.256 100.34 301.452 100.767C300.286 101.38 299.561 102.606 299.495 103.937C299.441 104.99 299.37 106.41 299.295 108.214C299.262 109.017 298.608 109.656 297.817 109.656H296.08C295.618 109.656 295.31 110.15 295.518 110.564C295.83 111.181 296.422 111.98 297.517 112.525C298.47 112.999 299.074 113.979 299.041 115.061V115.083C298.804 122.166 299.174 129.297 291.129 134.204C279.353 141.401 255.93 145.751 260.586 171.52C260.586 171.52 254.44 173.443 243.926 172.167C244.271 172.065 244.621 171.985 244.979 171.926C246.732 171.642 248.556 171.38 250.13 170.852C251.2 170.493 252.087 169.635 252.404 168.511C252.907 166.697 251.854 164.462 247.257 163.942C244.434 163.625 241.868 163.76 239.828 164.03C243.193 163.122 249.418 163.236 253.445 161.888C254.794 161.431 255.914 160.349 256.309 158.929C256.938 156.672 255.652 153.899 250.055 153.198C251.5 153.003 252.866 152.754 254.061 152.382C255.514 151.926 256.717 150.805 257.121 149.318C257.779 146.917 256.289 143.925 249.976 143.139C247.723 142.855 245.52 142.843 243.48 142.982L244.525 136.972C246.303 135.603 247.815 134.204 248.61 132.703C249.584 130.869 249.051 128.506 247.34 127.352C247.019 127.137 246.67 126.968 246.287 126.845L246.749 124.191C267.736 125.712 286.874 110.907 290.609 89.4189C294.594 66.4644 279.495 44.5793 256.884 40.5344C234.269 36.4896 212.708 51.8151 208.723 74.7696C204.992 96.2617 217.988 116.815 238.225 122.665L237.188 128.654C236.114 129.161 234.956 129.761 233.724 130.459C224.713 135.56 217.43 147.957 209.709 161.03L199.674 154.74C205.941 146.013 207.994 135.446 208.406 126.676C208.789 118.565 207.265 110.501 204.23 102.982C204.105 102.669 203.984 102.356 203.863 102.039C189.368 64.0299 213.657 30.2174 258.758 31.5826C264.933 31.7685 271.038 33.1844 276.559 36.012C294.477 45.1837 295.168 62.1913 295.185 62.4449C296.334 79.8246 297.338 87.1196 302.772 90.615C302.83 90.653 302.889 90.6911 302.943 90.7333L302.939 90.7249Z" fill="#FBFBFB"/>
<path d="M256.88 40.5343C279.491 44.5792 294.59 66.4643 290.605 89.4188C286.874 110.907 267.731 125.712 246.745 124.191C245.316 124.089 243.884 123.908 242.447 123.65C241.006 123.392 239.595 123.062 238.221 122.665C217.988 116.815 204.987 96.2574 208.718 74.7695C212.703 51.815 234.265 36.4895 256.88 40.5343ZM285.474 88.5016C288.956 68.455 275.722 49.2749 255.976 45.7415C236.226 42.2081 217.33 55.6401 213.849 75.6867C210.367 95.7291 223.601 114.909 243.351 118.447C263.097 121.976 281.993 108.544 285.474 88.5016Z" fill="#3A3936"/>
<path d="M255.976 45.7457C275.722 49.2749 288.956 68.4593 285.475 88.5059C281.998 108.548 263.097 121.98 243.351 118.451C223.601 114.918 210.367 95.7333 213.849 75.6909C217.326 55.6443 236.226 42.2123 255.976 45.7457ZM260.161 80.5769C263.105 75.5853 265.458 65.5852 260.798 58.958C258.35 55.4753 255.152 53.3916 251.1 53.3916C247.049 53.3916 243.867 55.0653 241.802 57.9605C239.737 60.8557 238.7 64.9681 238.7 69.8498C238.7 70.898 239.116 71.849 239.795 72.5337C240.474 73.2226 241.406 73.6453 242.439 73.6453C243.472 73.6453 244.404 73.2226 245.083 72.5337C245.762 71.849 246.178 70.898 246.178 69.8498C246.178 66.1812 246.566 62.8464 249.164 61.5277C250.342 60.9318 251.742 60.8472 252.932 61.4136C254.74 62.2716 256.326 64.5413 256.035 69.4483C255.86 72.3477 254.923 74.8541 253.649 76.8702C252.299 78.8862 250.63 80.5811 249.597 81.6293C249.597 81.6293 248.485 82.8381 248.248 83.0832C246.736 84.9387 245.941 86.7941 245.625 88.8905C245.229 90.9869 245.229 93.4087 245.229 95.746V95.9489C245.229 97.0055 245.654 97.9649 246.337 98.6581C247.015 99.347 247.961 99.7781 249.002 99.7781C251.088 99.7781 252.778 98.0621 252.778 95.9489V95.746C252.778 91.6335 252.778 89.5372 253.969 88.0029L254.923 87.035C256.272 85.6656 258.441 83.5016 260.17 80.5811L260.161 80.5769ZM253.374 107.758C253.374 105.311 251.421 103.324 249.006 103.324C246.591 103.324 244.638 105.311 244.638 107.758C244.638 110.205 246.591 112.196 249.006 112.196C251.421 112.196 253.374 110.209 253.374 107.758Z" fill="#FBFBFB"/>
<path d="M260.798 58.9579C265.462 65.5852 263.105 75.5895 260.161 80.5768C258.437 83.4932 256.264 85.6571 254.915 87.0308L253.961 87.9987C252.77 89.5329 252.77 91.6293 252.77 95.7417V95.9446C252.77 98.0579 251.079 99.7739 248.993 99.7739C247.952 99.7739 247.007 99.3428 246.328 98.6538C245.645 97.9607 245.221 97.0013 245.221 95.9446V95.7417C245.221 93.4044 245.221 90.9826 245.616 88.8862C245.937 86.7899 246.732 84.9302 248.24 83.0789C248.481 82.8338 249.589 81.625 249.589 81.625C250.621 80.5768 252.291 78.8777 253.64 76.8659C254.915 74.8498 255.851 72.3435 256.026 69.444C256.322 64.537 254.736 62.2673 252.924 61.4093C251.733 60.843 250.334 60.9275 249.156 61.5235C246.553 62.8464 246.17 66.1769 246.17 69.8456C246.17 70.8938 245.754 71.8447 245.075 72.5294C244.396 73.2184 243.463 73.641 242.431 73.641C241.398 73.641 240.465 73.2184 239.787 72.5294C239.108 71.8447 238.691 70.8938 238.691 69.8456C238.691 64.9639 239.724 60.8472 241.794 57.9562C243.859 55.061 246.957 53.3873 251.092 53.3873C255.227 53.3873 258.342 55.4753 260.79 58.9537L260.798 58.9579Z" fill="#3A3936"/>
<path d="M239.824 164.026C241.864 163.756 244.43 163.62 247.253 163.937C251.85 164.457 252.903 166.689 252.4 168.506C252.083 169.635 251.196 170.489 250.126 170.848C248.552 171.376 246.732 171.642 244.975 171.921C244.617 171.976 244.267 172.061 243.922 172.162C240.898 173.041 238.546 175.544 237.854 178.722C236.888 183.164 234.711 190.358 229.918 197.648C222.156 209.458 218.887 222.864 218.887 222.864C218.887 222.864 190.984 222.767 181.769 202.471C181.769 202.471 183.855 199.542 186.941 195.138C194.04 193.198 198.113 191.49 198.113 191.49C197.738 187.788 197.034 184.673 196.035 181.998C201.186 174.453 206.512 166.435 209.697 161.03C217.417 147.957 224.7 135.56 233.711 130.459C234.944 129.761 236.101 129.161 237.176 128.654C241.244 126.739 244.23 126.165 246.274 126.845C246.661 126.968 247.011 127.137 247.328 127.352C249.039 128.506 249.572 130.865 248.598 132.703C247.802 134.199 246.291 135.603 244.513 136.972C241.19 139.516 236.918 141.938 234.544 144.618C236.601 144.005 239.778 143.24 243.468 142.982C245.508 142.843 247.711 142.855 249.964 143.138C256.276 143.925 257.767 146.917 257.109 149.318C256.701 150.81 255.502 151.93 254.049 152.382C252.853 152.754 251.488 153.003 250.043 153.193C255.639 153.899 256.926 156.668 256.297 158.929C255.902 160.349 254.781 161.431 253.432 161.888C249.406 163.236 243.18 163.122 239.816 164.03L239.824 164.026Z" fill="#FBFBFB"/>
<path d="M249.006 103.328C251.421 103.328 253.374 105.315 253.374 107.762C253.374 110.209 251.421 112.2 249.006 112.2C246.591 112.2 244.638 110.214 244.638 107.762C244.638 105.311 246.591 103.328 249.006 103.328Z" fill="#3A3936"/>
<path d="M246.745 124.195L246.283 126.849C244.238 126.169 241.252 126.744 237.184 128.658L238.221 122.669C239.595 123.066 241.007 123.4 242.447 123.654C243.884 123.912 245.321 124.089 246.745 124.195Z" fill="#FBFBFB"/>
<path d="M244.525 136.972L243.48 142.982C239.791 143.24 236.618 144.005 234.556 144.618C236.93 141.934 241.202 139.516 244.525 136.972Z" fill="#FBFBFB"/>
<path d="M196.043 181.997C197.043 184.673 197.746 187.788 198.121 191.49C198.121 191.49 194.049 193.198 186.949 195.138C179.882 197.078 169.826 199.242 157.805 200.201C154.44 165.848 173.083 162.095 173.083 162.095C183.73 167.822 192.133 171.533 196.043 181.997Z" fill="#FBFBFB"/>
<path d="M189.972 62.4448C191.321 62.4448 192.42 63.5564 192.42 64.93C192.42 66.3037 191.325 67.4153 189.972 67.4153C188.619 67.4153 187.519 66.3037 187.519 64.93C187.519 63.5564 188.614 62.4448 189.972 62.4448Z" fill="#FECE2E"/>
<path d="M168.444 52.7957C173.428 52.7957 177.463 56.8954 177.463 61.9462C177.463 66.9969 173.424 71.1009 168.444 71.1009C163.463 71.1009 159.424 67.0011 159.424 61.9462C159.424 56.8912 163.463 52.7957 168.444 52.7957Z" fill="#FBFBFB"/>
<path d="M152.429 134.119C151.575 134.347 150.705 134.309 149.868 134.051C147.707 133.383 145.787 131.253 145.05 128.388C144.017 124.41 145.654 120.526 148.702 119.715C149.706 119.448 150.738 119.546 151.708 119.939C154.623 116.748 156.564 113.607 157.813 110.657C158.625 110.623 159.703 110.306 160.794 109.736C162.768 108.705 164.051 107.225 163.651 106.439C163.247 105.649 161.323 105.852 159.35 106.883C159.241 106.938 159.141 107.001 159.037 107.056C160.357 101.997 159.795 97.7662 159.146 95.2134C161.265 96.5405 163.609 98.9159 165.017 103.159C167.582 110.911 168.894 114.102 171.775 115.032C171.808 115.044 171.838 115.053 171.867 115.066C173.432 115.632 174.103 117.53 173.137 118.933C172.949 119.212 172.708 119.491 172.408 119.77C171.946 120.205 171.725 120.839 171.85 121.465C172.05 122.449 172.408 124.132 172.962 126.596C173.686 129.842 174.694 133.033 171.613 136.241C170.622 137.272 169.464 138.265 168.29 139.347C161.823 145.29 163.389 154.25 169.639 159.715C169.639 159.715 163.464 163.147 148.56 162.145C151.746 155.243 152.625 147.648 152.754 142.107C152.866 137.361 152.429 134.123 152.429 134.123V134.119ZM164.201 114.757C164.796 114.596 165.038 113.531 164.738 112.373C164.434 111.215 163.709 110.404 163.114 110.56C162.518 110.721 162.277 111.786 162.577 112.944C162.881 114.102 163.605 114.913 164.201 114.757Z" fill="#FBFBFB"/>
<path d="M159.146 95.2176C159.795 97.7747 160.357 102.005 159.037 107.06C158.733 108.219 158.334 109.423 157.813 110.657C156.564 113.607 154.628 116.752 151.709 119.939C150.738 119.546 149.706 119.444 148.702 119.715C145.654 120.526 144.017 124.411 145.05 128.388C145.791 131.253 147.711 133.383 149.868 134.051L149.839 134.144C149.268 135.366 149.102 136.786 149.468 138.189C149.939 140.002 151.188 141.401 152.758 142.103C152.629 147.644 151.75 155.239 148.565 162.141C144.913 170.049 138.217 177.04 126.129 178.971C119.999 179.952 113.766 179.25 108.211 176.854C105.317 175.607 102.614 173.895 100.203 171.727C100.066 171.604 99.9243 171.478 99.7869 171.346C87.8485 160.159 96.2308 140.653 110.551 136.498C106.903 128.933 107.395 119.554 111.488 110.953C110.434 110.754 109.268 110.416 108.069 109.947C104.205 108.413 101.502 106.042 102.04 104.643C102.568 103.273 105.995 103.345 109.764 104.791C109.847 104.825 109.922 104.85 110.005 104.884C111.459 105.459 112.737 106.152 113.749 106.866C114.357 105.898 115.015 104.947 115.723 104.022C117.634 101.507 119.891 99.1399 122.468 97.0055C137.205 84.8203 157.014 84.7315 166.716 96.8153C170.817 101.921 172.454 108.383 171.867 115.066C171.838 115.053 171.808 115.044 171.775 115.032C168.894 114.102 167.582 110.911 165.017 103.159C163.609 98.9116 161.265 96.5363 159.146 95.2134V95.2176Z" fill="#3A3936"/>
<path d="M157.805 200.201C143.105 201.372 125.471 200.73 106.787 195.624C106.774 193.046 106.949 189.918 107.186 186.959C107.599 181.727 108.186 177.027 108.206 176.862C113.761 179.259 119.999 179.96 126.129 178.98C138.217 177.044 144.908 170.057 148.565 162.154V162.15C163.463 163.151 169.643 159.719 169.643 159.719C170.671 160.615 171.821 161.414 173.087 162.095C173.087 162.095 154.444 165.852 157.809 200.201H157.805Z" fill="#FECE2E"/>
<path d="M164.742 112.373C165.042 113.531 164.8 114.601 164.205 114.757C163.609 114.918 162.881 114.106 162.581 112.944C162.281 111.786 162.522 110.716 163.118 110.56C163.713 110.399 164.442 111.211 164.742 112.373Z" fill="#3B140D"/>
<path d="M163.651 106.443C164.051 107.23 162.768 108.705 160.794 109.74C159.699 110.311 158.625 110.623 157.813 110.661C158.333 109.423 158.733 108.223 159.037 107.065C159.141 107.01 159.241 106.946 159.35 106.891C161.323 105.86 163.247 105.657 163.651 106.448V106.443Z" fill="#3A3936"/>
<path d="M152.429 134.119C152.429 134.119 152.866 137.357 152.754 142.103C151.184 141.397 149.935 140.002 149.464 138.189C149.098 136.782 149.264 135.362 149.835 134.144L149.864 134.051C150.701 134.309 151.571 134.347 152.425 134.119H152.429Z" fill="#3A3936"/>
<path d="M127.474 74.3088C129.572 74.3088 131.275 76.0375 131.275 78.1719C131.275 80.3063 129.572 82.0308 127.474 82.0308C125.375 82.0308 123.668 80.3021 123.668 78.1719C123.668 76.0417 125.371 74.3088 127.474 74.3088Z" fill="#FBFBFB"/>
<path d="M114.019 101.494C114.694 102.344 115.264 103.202 115.723 104.026C115.019 104.951 114.357 105.902 113.749 106.87C112.737 106.156 111.459 105.459 110.005 104.888C109.922 104.858 109.847 104.829 109.764 104.799C107.224 101.536 106.095 98.172 107.236 97.2422C108.39 96.3039 111.425 98.2058 114.024 101.494H114.019Z" fill="#3A3936"/>
<path d="M108.206 176.854C108.173 177.116 106.753 188.49 106.791 195.62C102.602 194.483 98.3584 193.109 94.0861 191.49C94.0861 191.49 93.678 181.131 100.199 171.731C102.61 173.904 105.312 175.611 108.206 176.854Z" fill="#FBFBFB"/>
<path d="M148.56 162.15C148.435 162.564 139.541 190.734 107.186 186.955C107.599 181.723 108.186 177.023 108.206 176.858C113.761 179.254 119.999 179.956 126.129 178.975C138.217 177.04 144.908 170.053 148.565 162.15H148.56Z" fill="#3B140D"/>
<path d="M109.76 105.218C109.635 105.218 109.514 105.163 109.431 105.057C107.082 102.044 105.421 98.1635 106.97 96.904C108.54 95.6276 111.942 98.1762 114.348 101.224C115.01 102.056 115.593 102.927 116.089 103.81C116.201 104.017 116.131 104.275 115.931 104.393C115.727 104.508 115.473 104.436 115.356 104.233C114.886 103.388 114.328 102.559 113.695 101.76C111.155 98.5439 108.327 96.8956 107.499 97.5718C106.678 98.2354 107.544 101.257 110.093 104.525C110.238 104.71 110.205 104.977 110.026 105.125C109.947 105.188 109.855 105.218 109.764 105.218H109.76Z" fill="#3B140D"/>
<path d="M112.146 111.498C111.883 111.46 111.646 111.422 111.4 111.376C110.297 111.169 109.119 110.822 107.907 110.349C104.322 108.929 100.907 106.393 101.64 104.491C102.36 102.623 106.341 103.028 109.906 104.394C109.914 104.394 109.922 104.402 109.93 104.406C110.005 104.432 110.076 104.457 110.151 104.487C111.584 105.053 112.908 105.755 113.986 106.52C114.178 106.655 114.224 106.921 114.09 107.115C113.957 107.31 113.695 107.356 113.503 107.221C112.479 106.494 111.213 105.826 109.847 105.285C109.772 105.256 109.701 105.23 109.622 105.205C109.606 105.201 109.585 105.192 109.568 105.184C105.816 103.755 102.793 103.836 102.419 104.804C102.031 105.809 104.426 108.054 108.207 109.554C109.368 110.011 110.493 110.34 111.55 110.539C111.788 110.585 112.013 110.619 112.233 110.653L112.2 111.08L112.137 111.503L112.146 111.498Z" fill="#3B140D"/>
<path d="M250.051 153.62C249.818 153.62 249.63 153.43 249.63 153.193C249.63 152.957 249.797 152.788 250.014 152.767C251.613 152.555 252.895 152.297 253.936 151.972C255.323 151.541 256.36 150.501 256.718 149.199C256.901 148.523 256.976 147.5 256.289 146.456C255.602 145.412 253.936 144.06 249.926 143.561C247.89 143.308 245.729 143.257 243.509 143.409C239.841 143.667 236.68 144.432 234.677 145.028C233.149 145.484 232.237 145.86 232.229 145.865C232.012 145.953 231.767 145.848 231.679 145.632C231.592 145.412 231.696 145.163 231.908 145.074C231.946 145.057 232.866 144.681 234.436 144.212C236.48 143.603 239.708 142.821 243.447 142.559C245.72 142.403 247.936 142.454 250.022 142.716C254.352 143.253 256.197 144.791 256.984 145.987C257.659 147.014 257.85 148.236 257.521 149.432C257.088 151.017 255.839 152.272 254.178 152.792C253.087 153.13 251.754 153.401 250.101 153.616C250.084 153.616 250.064 153.616 250.047 153.616L250.051 153.62Z" fill="#3B140D"/>
<path d="M239.824 164.453C239.637 164.453 239.466 164.326 239.416 164.136C239.358 163.908 239.491 163.675 239.716 163.612C241.223 163.206 243.264 162.999 245.425 162.784C248.211 162.505 251.092 162.217 253.312 161.473C254.59 161.042 255.556 160.045 255.902 158.806C256.085 158.151 256.164 157.162 255.518 156.173C254.648 154.842 252.741 153.958 250.001 153.616C249.926 153.608 249.851 153.595 249.78 153.591C241.34 152.64 233.549 155.996 233.474 156.03C233.262 156.122 233.012 156.025 232.92 155.805C232.829 155.59 232.924 155.336 233.141 155.243C233.22 155.21 241.207 151.761 249.868 152.737C249.943 152.745 250.03 152.754 250.109 152.767C253.882 153.24 255.514 154.622 256.218 155.7C256.859 156.68 257.034 157.868 256.709 159.039C256.289 160.552 255.115 161.765 253.574 162.285C251.267 163.058 248.335 163.35 245.508 163.633C243.38 163.844 241.373 164.047 239.932 164.436C239.895 164.445 239.862 164.449 239.824 164.449V164.453Z" fill="#3B140D"/>
<path d="M218.891 223.295C218.821 223.295 211.758 223.24 203.663 220.692C196.168 218.329 186.216 213.282 181.394 202.653C181.331 202.513 181.348 202.348 181.436 202.226C181.456 202.196 183.555 199.246 186.607 194.893C186.741 194.698 187.007 194.656 187.194 194.791C187.382 194.927 187.428 195.193 187.294 195.387C184.696 199.094 182.789 201.782 182.264 202.522C186.995 212.703 196.622 217.572 203.892 219.867C210.892 222.078 217.105 222.391 218.571 222.433C219.137 220.286 222.535 208.122 229.576 197.416C234.261 190.294 236.443 183.27 237.45 178.633C238.171 175.324 240.607 172.691 243.813 171.756C244.18 171.647 244.55 171.562 244.917 171.507L245.371 171.435C246.957 171.182 248.594 170.92 249.997 170.45C250.984 170.121 251.729 169.352 252 168.396C252.141 167.889 252.2 167.128 251.696 166.368C251.209 165.632 250.034 164.69 247.211 164.368C244.813 164.098 242.347 164.128 239.886 164.453C239.878 164.453 239.87 164.453 239.861 164.457C237.038 164.825 235.219 165.463 235.198 165.472C234.981 165.548 234.74 165.434 234.661 165.21C234.586 164.986 234.698 164.745 234.919 164.664C234.994 164.639 236.83 163.997 239.741 163.612C239.749 163.612 239.762 163.612 239.77 163.612C242.302 163.274 244.833 163.244 247.303 163.523C250.447 163.878 251.804 165.007 252.391 165.89C252.924 166.693 253.074 167.665 252.803 168.629C252.458 169.859 251.508 170.844 250.255 171.262C248.785 171.756 247.111 172.023 245.491 172.281L245.037 172.352C244.708 172.403 244.371 172.479 244.038 172.581C241.127 173.43 238.916 175.818 238.267 178.823C237.242 183.532 235.023 190.666 230.267 197.898C222.639 209.504 219.329 222.847 219.295 222.978C219.249 223.168 219.079 223.304 218.887 223.304L218.891 223.295Z" fill="#3B140D"/>
<path d="M196.039 182.424C195.956 182.424 195.872 182.399 195.802 182.348C195.61 182.213 195.564 181.947 195.698 181.752C202.031 172.471 206.624 165.425 209.343 160.805L209.485 160.569C217.184 147.526 224.459 135.209 233.515 130.083C234.719 129.402 235.893 128.789 237.009 128.265C241.161 126.312 244.238 125.717 246.416 126.439C246.832 126.57 247.219 126.76 247.573 126.997C249.451 128.261 250.072 130.856 248.981 132.906C248.252 134.28 246.957 135.64 244.779 137.31C243.667 138.16 242.439 139.009 241.248 139.825C238.875 141.456 236.422 143.147 234.869 144.901C234.715 145.078 234.448 145.091 234.273 144.935C234.098 144.778 234.086 144.508 234.24 144.33C235.864 142.5 238.358 140.78 240.773 139.119C241.956 138.307 243.176 137.466 244.267 136.63C246.312 135.057 247.573 133.743 248.231 132.5C249.114 130.835 248.619 128.73 247.099 127.707C246.811 127.513 246.495 127.361 246.149 127.251C244.205 126.604 241.248 127.208 237.351 129.039C236.255 129.554 235.098 130.159 233.915 130.826C225.058 135.839 217.842 148.062 210.197 161.004L210.055 161.241C207.324 165.873 202.722 172.936 196.376 182.234C196.293 182.352 196.164 182.42 196.031 182.42L196.039 182.424Z" fill="#3B140D"/>
<path d="M153.008 128.967C152.82 128.967 152.649 128.84 152.599 128.65C152.599 128.633 152.191 127.128 151.171 125.949C150.451 125.108 149.593 124.643 148.631 124.563C148.398 124.542 148.227 124.339 148.248 124.102C148.269 123.865 148.473 123.692 148.702 123.713C149.893 123.81 150.938 124.377 151.808 125.387C152.962 126.718 153.399 128.362 153.416 128.43C153.474 128.658 153.341 128.891 153.116 128.95C153.078 128.958 153.045 128.963 153.008 128.963V128.967Z" fill="#3B140D"/>
<path d="M148.777 129.17C148.777 129.17 148.756 129.17 148.744 129.17C148.51 129.149 148.34 128.946 148.356 128.709C148.444 127.576 149.206 125.391 151.463 125.239C151.692 125.222 151.896 125.404 151.908 125.636C151.921 125.869 151.746 126.076 151.517 126.089C149.427 126.228 149.202 128.671 149.193 128.772C149.177 128.996 148.989 129.165 148.773 129.165L148.777 129.17Z" fill="#3B140D"/>
<path d="M157.83 111.088L157.805 110.662V110.235C158.579 110.201 159.604 109.884 160.603 109.364C161.515 108.891 162.294 108.303 162.797 107.72C163.276 107.17 163.355 106.794 163.276 106.642C163.064 106.228 161.465 106.266 159.541 107.272C159.483 107.301 159.429 107.335 159.37 107.365L159.233 107.441C159.171 107.475 159.104 107.492 159.033 107.492C158.8 107.492 158.613 107.301 158.613 107.065C158.613 106.891 158.717 106.739 158.862 106.672L158.962 106.617C159.025 106.583 159.087 106.545 159.154 106.511C161.115 105.484 163.418 105.066 164.022 106.249C164.301 106.798 164.088 107.517 163.426 108.282C162.852 108.946 161.985 109.596 160.982 110.121C159.878 110.695 158.729 111.046 157.826 111.088H157.83Z" fill="#3B140D"/>
<path d="M145.3 201.127C132.029 201.127 119.083 199.424 106.678 196.034C102.414 194.876 98.1254 193.481 93.9363 191.892C93.7781 191.833 93.6698 191.681 93.6615 191.507C93.6573 191.402 93.3201 180.894 99.8535 171.486C99.9867 171.292 100.249 171.245 100.441 171.385C100.632 171.52 100.678 171.786 100.541 171.981C94.7692 180.294 94.4985 189.487 94.4985 191.194C98.5793 192.733 102.747 194.081 106.895 195.21C123.085 199.635 140.203 201.173 157.767 199.779C170.184 198.79 180.428 196.486 186.836 194.728C192.77 193.105 196.618 191.634 197.667 191.216C197.297 187.763 196.634 184.795 195.648 182.15C192.116 172.703 184.771 168.798 175.473 163.857C174.623 163.405 173.761 162.948 172.883 162.475C171.604 161.786 170.418 160.966 169.364 160.04C165.825 156.947 163.763 152.788 163.713 148.629C163.668 144.973 165.154 141.655 168.007 139.034C168.327 138.739 168.644 138.451 168.96 138.168C169.805 137.407 170.601 136.689 171.309 135.949C174.024 133.122 173.378 130.319 172.695 127.348C172.645 127.132 172.595 126.913 172.545 126.697C171.921 123.912 171.579 122.285 171.434 121.558C171.28 120.793 171.538 120.011 172.121 119.461C172.396 119.203 172.62 118.941 172.787 118.696C173.158 118.155 173.257 117.492 173.062 116.87C172.858 116.215 172.366 115.708 171.721 115.471C171.692 115.459 171.667 115.45 171.642 115.442C168.577 114.453 167.215 111.156 164.613 103.299C163.459 99.8204 161.544 97.2211 158.921 95.5812C158.721 95.4586 158.662 95.1923 158.783 94.9937C158.904 94.7908 159.162 94.7316 159.362 94.8542C162.16 96.604 164.196 99.3555 165.412 103.028C167.915 110.594 169.202 113.76 171.9 114.63C171.942 114.643 171.979 114.656 172.012 114.668C172.904 114.99 173.578 115.7 173.865 116.608C174.14 117.483 174.003 118.422 173.478 119.178C173.274 119.478 173.016 119.778 172.691 120.087C172.325 120.429 172.162 120.915 172.258 121.384C172.404 122.103 172.745 123.73 173.366 126.507C173.416 126.722 173.466 126.938 173.511 127.154C174.215 130.218 174.944 133.384 171.908 136.545C171.175 137.306 170.372 138.037 169.514 138.806C169.202 139.089 168.885 139.377 168.565 139.668C165.895 142.124 164.505 145.218 164.546 148.62C164.596 152.534 166.549 156.461 169.905 159.394C170.913 160.277 172.046 161.059 173.27 161.718C174.149 162.192 175.011 162.648 175.856 163.101C185.312 168.126 192.783 172.095 196.426 181.845C197.471 184.643 198.159 187.784 198.529 191.448C198.55 191.634 198.442 191.816 198.271 191.888C198.229 191.905 194.09 193.625 187.049 195.552C180.607 197.319 170.309 199.635 157.83 200.628C153.624 200.962 149.443 201.127 145.292 201.127H145.3Z" fill="#3B140D"/>
<path d="M151.28 134.698C150.772 134.698 150.259 134.618 149.747 134.461C147.357 133.726 145.404 131.439 144.642 128.498C144.034 126.148 144.288 123.751 145.346 121.913C146.124 120.564 147.245 119.66 148.594 119.301C149.651 119.017 150.784 119.102 151.863 119.542C152.67 119.871 153.453 120.404 154.128 121.08C154.294 121.245 154.294 121.515 154.128 121.684C153.965 121.853 153.699 121.853 153.532 121.684C152.937 121.088 152.25 120.619 151.546 120.332C150.634 119.96 149.685 119.888 148.802 120.125C147.674 120.425 146.728 121.19 146.066 122.34C145.121 123.979 144.896 126.143 145.45 128.274C146.124 130.89 147.907 132.995 149.985 133.637C150.776 133.882 151.563 133.903 152.316 133.701C152.995 133.519 153.607 133.172 154.14 132.665C154.311 132.504 154.578 132.513 154.736 132.686C154.894 132.859 154.886 133.13 154.715 133.291C154.082 133.895 153.345 134.313 152.533 134.529C152.121 134.639 151.7 134.694 151.275 134.694L151.28 134.698Z" fill="#3B140D"/>
<path d="M151.708 120.37C151.604 120.37 151.504 120.332 151.421 120.256C151.25 120.095 151.242 119.825 151.4 119.651C154.053 116.752 156.081 113.671 157.426 110.492C157.909 109.343 158.317 108.151 158.633 106.951C159.907 102.069 159.404 97.9692 158.754 95.3741C158.746 95.3572 158.742 95.3403 158.737 95.3234C158.333 93.7215 157.888 92.7916 157.884 92.7832C157.78 92.5719 157.867 92.314 158.075 92.2126C158.283 92.1069 158.537 92.1957 158.637 92.407C158.658 92.4451 159.112 93.396 159.541 95.0571C159.549 95.074 159.554 95.0909 159.558 95.1078C160.241 97.8001 160.778 102.077 159.449 107.17C159.125 108.409 158.704 109.639 158.204 110.826C156.818 114.098 154.74 117.259 152.021 120.23C151.937 120.319 151.825 120.366 151.713 120.366L151.708 120.37Z" fill="#3B140D"/>
<path d="M117.955 145.725C117.871 145.725 117.788 145.7 117.713 145.649C115.947 144.394 114.373 142.906 113.028 141.228C111.908 139.833 110.946 138.307 110.168 136.693C106.52 129.132 106.861 119.685 111.105 110.771C111.205 110.56 111.459 110.471 111.667 110.573C111.875 110.674 111.962 110.932 111.863 111.143C107.736 119.82 107.394 128.992 110.926 136.317C111.675 137.876 112.604 139.347 113.682 140.687C114.977 142.302 116.497 143.739 118.2 144.947C118.392 145.083 118.438 145.349 118.304 145.543C118.221 145.662 118.092 145.725 117.959 145.725H117.955Z" fill="#3B140D"/>
<path d="M171.867 115.497C171.867 115.497 171.842 115.497 171.829 115.497C171.596 115.476 171.425 115.268 171.446 115.032C172.054 108.168 170.305 101.963 166.391 97.09C156.851 85.2091 137.267 85.3233 122.735 97.3436C120.224 99.4231 117.975 101.76 116.056 104.288C115.352 105.218 114.694 106.16 114.107 107.099C113.982 107.297 113.724 107.356 113.528 107.23C113.332 107.103 113.274 106.841 113.399 106.642C114.003 105.683 114.673 104.715 115.394 103.768C117.355 101.186 119.645 98.8018 122.206 96.68C137.101 84.3638 157.213 84.3047 167.045 96.549C171.1 101.6 172.912 108.016 172.287 115.108C172.266 115.332 172.083 115.497 171.871 115.497H171.867Z" fill="#3B140D"/>
<path d="M166.149 126.553C164.667 126.553 163.73 126.055 163.663 126.021C163.459 125.911 163.38 125.649 163.493 125.442C163.601 125.235 163.859 125.159 164.063 125.269C164.163 125.319 166.383 126.465 169.443 124.799C169.647 124.689 169.901 124.766 170.014 124.973C170.122 125.18 170.047 125.438 169.843 125.552C168.431 126.321 167.165 126.553 166.154 126.553H166.149Z" fill="#3B140D"/>
<path d="M166.699 128.785C165.9 128.785 165.392 128.515 165.354 128.498C165.15 128.388 165.071 128.126 165.183 127.919C165.292 127.711 165.546 127.635 165.75 127.745C165.8 127.771 166.82 128.286 168.244 127.509C168.448 127.399 168.702 127.475 168.814 127.682C168.923 127.889 168.848 128.147 168.644 128.261C167.903 128.662 167.236 128.785 166.699 128.785Z" fill="#3B140D"/>
<path d="M155.114 143.037C154.248 143.037 153.382 142.855 152.583 142.496C150.83 141.71 149.543 140.18 149.06 138.299C148.685 136.854 148.827 135.315 149.46 133.963C149.56 133.751 149.809 133.658 150.022 133.76C150.23 133.861 150.322 134.115 150.222 134.33C149.676 135.501 149.551 136.832 149.876 138.083C150.297 139.711 151.408 141.034 152.928 141.718C154.044 142.221 155.314 142.323 156.497 142.006C159.387 141.236 161.123 138.219 160.365 135.285C159.999 133.865 159.108 132.673 157.854 131.934C156.601 131.194 155.144 130.991 153.745 131.363C153.52 131.422 153.291 131.287 153.232 131.059C153.174 130.831 153.307 130.598 153.532 130.539C155.152 130.108 156.838 130.34 158.283 131.194C159.728 132.052 160.757 133.426 161.182 135.066C162.06 138.455 160.053 141.938 156.713 142.83C156.193 142.969 155.656 143.037 155.119 143.037H155.114Z" fill="#3B140D"/>
<path d="M250.996 173.033C248.923 173.033 246.541 172.91 243.872 172.585C243.643 172.555 243.476 172.344 243.505 172.111C243.534 171.879 243.738 171.71 243.972 171.74C252.862 172.822 258.65 171.579 260.103 171.207C256.543 150.417 271.238 143.46 283.064 137.864C285.933 136.507 288.644 135.222 290.913 133.836C298.225 129.372 298.396 123.113 298.579 116.486C298.591 116.012 298.604 115.539 298.621 115.066C298.65 114.148 298.142 113.312 297.334 112.91C296.118 112.306 295.473 111.405 295.144 110.759C294.981 110.433 294.994 110.049 295.185 109.736C295.377 109.419 295.714 109.229 296.081 109.229H297.817C298.387 109.229 298.85 108.776 298.875 108.197C298.937 106.701 299.004 105.26 299.074 103.916C299.149 102.411 299.986 101.059 301.261 100.391C302.002 99.9978 302.668 99.5498 303.23 99.0638C304.392 98.0621 305.012 96.6081 304.933 95.0697C304.85 93.4594 304.038 92.0054 302.701 91.084C302.693 91.0798 302.685 91.0713 302.676 91.0671C302.647 91.046 302.618 91.0249 302.585 91.0037L302.539 90.9741C296.942 87.3731 295.914 79.9132 294.761 62.4744C294.665 60.6993 293.328 45.0779 276.364 36.3965C271.059 33.6788 265.129 32.2038 258.741 32.0136C236.739 31.3458 218.325 39.2833 208.219 53.7846C199.054 66.9377 197.609 84.4695 204.251 101.891C204.371 102.204 204.492 102.517 204.617 102.83C207.786 110.678 209.202 118.709 208.823 126.706C208.294 137.893 205.421 147.285 200.274 154.626L209.922 160.674C210.122 160.797 210.18 161.063 210.059 161.262C209.939 161.465 209.676 161.524 209.481 161.401L199.445 155.112C199.345 155.049 199.275 154.947 199.254 154.829C199.233 154.711 199.254 154.592 199.324 154.495C204.538 147.238 207.449 137.872 207.977 126.663C208.348 118.793 206.953 110.885 203.83 103.151C203.705 102.834 203.58 102.517 203.459 102.2C200.02 93.1804 198.675 84.275 199.454 75.7289C200.211 67.4364 202.926 59.8878 207.524 53.2901C217.796 38.5521 236.472 30.4835 258.758 31.1556C265.271 31.3542 271.321 32.8589 276.734 35.6315C294.123 44.5284 295.493 60.5978 295.593 62.4026C296.726 79.5455 297.713 86.8617 302.985 90.2556L303.026 90.281C303.08 90.3148 303.13 90.3486 303.18 90.3866C304.725 91.4644 305.666 93.155 305.766 95.0274C305.858 96.8322 305.133 98.5397 303.767 99.7147C303.155 100.243 302.439 100.725 301.64 101.147C300.632 101.68 299.966 102.754 299.907 103.958C299.836 105.298 299.77 106.735 299.712 108.231C299.666 109.271 298.833 110.082 297.813 110.082H296.076C295.972 110.082 295.918 110.154 295.897 110.184C295.876 110.218 295.847 110.29 295.889 110.37C296.16 110.902 296.693 111.642 297.7 112.145C298.808 112.694 299.499 113.844 299.462 115.078C299.445 115.573 299.433 116.042 299.42 116.515C299.237 123.083 299.049 129.871 291.346 134.575C289.039 135.987 286.312 137.276 283.418 138.646C271.783 144.153 257.305 151.008 260.998 171.448C261.036 171.659 260.911 171.871 260.707 171.934C260.515 171.993 257.08 173.041 250.992 173.041L250.996 173.033Z" fill="#3B140D"/>
<path d="M108.207 177.281C108.152 177.281 108.098 177.268 108.044 177.247C105.059 175.962 102.327 174.212 99.9243 172.048C99.7827 171.926 99.6412 171.795 99.4996 171.664C94.5402 167.014 92.6164 160.4 94.2279 153.519C96.1434 145.353 102.652 138.35 110.43 136.093C110.655 136.029 110.888 136.16 110.951 136.384C111.013 136.613 110.884 136.849 110.663 136.913C103.168 139.089 96.8929 145.839 95.0482 153.718C93.4867 160.387 95.2689 166.537 100.07 171.038C100.207 171.165 100.341 171.292 100.478 171.41C102.814 173.515 105.471 175.214 108.373 176.461C108.586 176.554 108.685 176.803 108.598 177.019C108.531 177.183 108.373 177.281 108.211 177.281H108.207Z" fill="#3B140D"/>
<path d="M120.749 179.833C116.326 179.833 112.008 178.963 108.04 177.251C107.828 177.158 107.728 176.909 107.819 176.689C107.911 176.473 108.156 176.372 108.373 176.465C113.811 178.811 119.928 179.533 126.062 178.553C136.422 176.896 143.863 171.313 148.181 161.964C151.396 155.007 152.216 147.318 152.337 142.094C152.445 137.441 152.021 134.208 152.016 134.178C151.983 133.946 152.146 133.73 152.375 133.696C152.604 133.667 152.816 133.827 152.849 134.06C152.853 134.094 153.291 137.386 153.178 142.116C153.053 147.42 152.221 155.231 148.943 162.327C144.5 171.951 136.843 177.695 126.191 179.398C124.371 179.69 122.552 179.833 120.749 179.833Z" fill="#3B140D"/>
<path d="M157.805 200.628C157.592 200.628 157.409 200.463 157.388 200.243C155.635 182.352 159.941 172.834 163.859 167.995C168.144 162.707 172.808 161.718 173.003 161.676C173.232 161.63 173.453 161.782 173.499 162.01C173.545 162.242 173.395 162.466 173.17 162.513C173.124 162.521 168.565 163.502 164.471 168.587C160.674 173.299 156.51 182.602 158.229 200.155C158.254 200.391 158.084 200.599 157.85 200.624C157.838 200.624 157.821 200.624 157.809 200.624L157.805 200.628Z" fill="#3B140D"/>
<path d="M153.894 162.758C152.25 162.758 150.463 162.703 148.531 162.572C148.298 162.555 148.123 162.352 148.14 162.116C148.156 161.879 148.36 161.702 148.585 161.718C163.155 162.699 169.372 159.377 169.435 159.343C169.639 159.229 169.893 159.305 170.005 159.512C170.118 159.719 170.043 159.977 169.839 160.091C169.614 160.214 164.896 162.758 153.89 162.758H153.894Z" fill="#3B140D"/>
<path d="M106.786 195.624H106.366C106.333 188.98 107.54 178.815 107.782 176.845V176.812C107.807 176.596 107.986 176.431 108.202 176.431C108.435 176.431 108.623 176.621 108.623 176.858C108.623 176.858 108.623 176.896 108.623 176.913V176.955C108.377 178.916 107.174 189.031 107.207 195.624H106.786Z" fill="#3B140D"/>
<path d="M249.701 124.728C248.706 124.728 247.715 124.694 246.715 124.618C245.279 124.516 243.817 124.33 242.372 124.072C240.944 123.819 239.507 123.481 238.104 123.075C228.173 120.205 219.653 113.717 214.123 104.808C208.556 95.839 206.486 85.1416 208.302 74.6935C212.32 51.5446 234.148 36.0331 256.951 40.1117C279.753 44.1904 295.035 66.3418 291.017 89.4907C289.201 99.9388 283.655 109.271 275.402 115.767C267.998 121.596 258.97 124.723 249.701 124.723V124.728ZM249.643 40.3188C230.055 40.3188 212.649 54.6004 209.135 74.8456C205.462 95.9996 218.017 116.384 238.337 122.259C239.711 122.657 241.119 122.986 242.522 123.236C243.938 123.489 245.37 123.667 246.778 123.768C247.777 123.84 248.777 123.878 249.763 123.878C269.593 123.878 286.69 109.495 290.192 89.347C294.132 66.663 279.158 44.9554 256.809 40.9571C254.402 40.5259 252.008 40.3188 249.647 40.3188H249.643Z" fill="#3B140D"/>
<path d="M249.718 119.444C247.582 119.444 245.429 119.254 243.28 118.869C233.62 117.141 225.187 111.684 219.545 103.506C213.903 95.3275 211.733 85.4247 213.436 75.619C215.14 65.8134 220.515 57.2546 228.573 51.5276C236.63 45.8006 246.387 43.5986 256.051 45.3273C265.712 47.0559 274.14 52.5124 279.782 60.6908C285.425 68.8692 287.594 78.7763 285.891 88.5819C284.188 98.3875 278.812 106.942 270.755 112.669C264.488 117.124 257.192 119.444 249.718 119.444ZM243.426 118.028C252.866 119.715 262.402 117.563 270.272 111.967C278.146 106.372 283.397 98.0114 285.058 88.4298C286.724 78.8481 284.604 69.1693 279.091 61.1769C273.578 53.1844 265.341 47.8547 255.901 46.1641C246.462 44.4735 236.926 46.6248 229.052 52.225C221.177 57.821 215.927 66.1811 214.261 75.7627C212.595 85.3444 214.715 95.0232 220.232 103.011C225.745 111.004 233.982 116.334 243.422 118.024L243.426 118.028Z" fill="#3B140D"/>
<path d="M237.184 129.081C237.159 129.081 237.134 129.081 237.109 129.072C236.88 129.03 236.726 128.81 236.768 128.578L237.804 122.589C237.846 122.356 238.063 122.2 238.292 122.242C238.521 122.285 238.675 122.504 238.633 122.737L237.596 128.726C237.559 128.933 237.384 129.081 237.184 129.081Z" fill="#3B140D"/>
<path d="M246.283 127.272C246.258 127.272 246.233 127.272 246.208 127.264C245.979 127.221 245.825 127.001 245.866 126.769L246.328 124.115C246.37 123.882 246.591 123.726 246.816 123.768C247.045 123.81 247.199 124.03 247.157 124.263L246.695 126.917C246.657 127.124 246.482 127.272 246.283 127.272Z" fill="#3B140D"/>
<path d="M243.48 143.413C243.455 143.413 243.43 143.413 243.405 143.405C243.176 143.362 243.022 143.143 243.064 142.91L244.109 136.9C244.151 136.668 244.367 136.511 244.596 136.553C244.825 136.596 244.979 136.815 244.938 137.048L243.892 143.062C243.855 143.269 243.68 143.417 243.48 143.417V143.413Z" fill="#3B140D"/>
<path d="M168.444 71.5319C163.239 71.5319 159.004 67.2335 159.004 61.9503C159.004 56.6671 163.239 52.3729 168.444 52.3729C173.649 52.3729 177.884 56.6713 177.884 61.9503C177.884 67.2293 173.649 71.5319 168.444 71.5319ZM168.444 53.2225C163.701 53.2225 159.845 57.1363 159.845 61.9461C159.845 66.7559 163.701 70.6739 168.444 70.6739C173.187 70.6739 177.043 66.7602 177.043 61.9461C177.043 57.132 173.187 53.2225 168.444 53.2225Z" fill="#3B140D"/>
<path d="M189.972 67.8421C188.389 67.8421 187.099 66.5361 187.099 64.93C187.099 63.324 188.385 62.0179 189.972 62.0179C191.558 62.0179 192.841 63.324 192.841 64.93C192.841 66.5361 191.554 67.8421 189.972 67.8421ZM189.972 62.8717C188.852 62.8717 187.94 63.7931 187.94 64.93C187.94 66.067 188.852 66.9884 189.972 66.9884C191.092 66.9884 192 66.067 192 64.93C192 63.7931 191.092 62.8717 189.972 62.8717Z" fill="#3B140D"/>
<path d="M311.325 172.779C310.172 172.779 309.085 172.069 308.643 170.915C308.077 169.419 308.814 167.729 310.288 167.145C311.766 166.571 313.432 167.314 313.998 168.815C314.277 169.542 314.257 170.332 313.948 171.046C313.64 171.757 313.074 172.306 312.358 172.585C312.02 172.716 311.671 172.779 311.329 172.779H311.325ZM309.426 170.607C309.83 171.664 311.009 172.196 312.05 171.786C312.558 171.587 312.957 171.199 313.174 170.696C313.395 170.193 313.407 169.635 313.211 169.119C312.807 168.063 311.633 167.53 310.588 167.94C309.547 168.35 309.027 169.546 309.426 170.603V170.607Z" fill="#3B140D"/>
<path d="M127.474 82.4577C125.142 82.4577 123.247 80.5346 123.247 78.1719C123.247 75.8093 125.142 73.882 127.474 73.882C129.805 73.882 131.696 75.805 131.696 78.1719C131.696 80.5388 129.801 82.4577 127.474 82.4577ZM127.474 74.7357C125.608 74.7357 124.088 76.2784 124.088 78.1719C124.088 80.0654 125.608 81.6039 127.474 81.6039C129.339 81.6039 130.855 80.0654 130.855 78.1719C130.855 76.2784 129.339 74.7357 127.474 74.7357Z" fill="#3B140D"/>
<path d="M248.993 100.205C247.873 100.205 246.82 99.7612 246.028 98.9582C245.233 98.1509 244.796 97.0816 244.796 95.9447V95.7418C244.796 93.3834 244.796 90.9446 245.2 88.806C245.541 86.5701 246.403 84.6597 247.915 82.8043C247.923 82.7958 247.931 82.7831 247.94 82.7747C248.173 82.538 249.268 81.3461 249.281 81.3334C250.288 80.3106 251.958 78.6157 253.29 76.625C254.648 74.4779 255.452 71.98 255.602 69.4187C255.906 64.3849 254.215 62.4956 252.741 61.7982C251.712 61.308 250.442 61.3502 249.339 61.9081C247.053 63.0704 246.586 65.9234 246.586 69.8498C246.586 70.9826 246.153 72.0392 245.37 72.8338C244.588 73.6284 243.542 74.068 242.431 74.068C241.319 74.068 240.278 73.6284 239.491 72.8338C238.708 72.0434 238.275 70.9826 238.275 69.8498C238.275 64.8202 239.374 60.6233 241.456 57.7069C243.672 54.6046 247.007 52.9647 251.096 52.9647C255.185 52.9647 258.454 54.8963 261.136 58.7128C266.053 65.7036 263.368 75.9741 260.519 80.8009C258.82 83.6749 256.722 85.8009 255.335 87.2083L254.273 88.2861C253.186 89.702 253.186 91.7265 253.186 95.746V95.9489C253.186 98.2946 251.304 100.205 248.989 100.205H248.993ZM248.552 83.3664C247.149 85.0908 246.349 86.866 246.033 88.9539C245.641 91.0249 245.641 93.4256 245.641 95.7418V95.9447C245.641 96.8534 245.991 97.7071 246.624 98.3538C247.257 98.9962 248.098 99.3513 248.993 99.3513C250.842 99.3513 252.349 97.8255 252.349 95.9489V95.746C252.349 91.511 252.349 89.3893 253.632 87.7409C253.644 87.7282 253.653 87.7155 253.665 87.7029L254.748 86.6039C256.105 85.2261 258.158 83.1466 259.803 80.3613C262.543 75.7163 265.141 65.8684 260.457 59.2074C257.942 55.6317 254.794 53.8185 251.1 53.8185C247.407 53.8185 244.221 55.2978 242.143 58.2099C240.165 60.9783 239.124 65.002 239.124 69.8498C239.124 70.7543 239.47 71.5996 240.095 72.2294C240.719 72.8634 241.552 73.2142 242.439 73.2142C243.326 73.2142 244.159 72.8634 244.783 72.2294C245.408 71.5954 245.754 70.7501 245.754 69.8498C245.754 66.177 246.145 62.5802 248.972 61.1431C250.301 60.4711 251.85 60.4246 253.107 61.0248C254.815 61.8363 256.78 63.9622 256.447 69.4737C256.284 72.1829 255.439 74.8203 253.994 77.0984C252.608 79.1694 250.904 80.8981 249.884 81.9294C249.851 81.9674 248.814 83.0917 248.548 83.3664H248.552Z" fill="#3B140D"/>
<path d="M249.006 112.623C246.366 112.623 244.217 110.442 244.217 107.758C244.217 105.074 246.366 102.897 249.006 102.897C251.646 102.897 253.794 105.078 253.794 107.758C253.794 110.438 251.646 112.623 249.006 112.623ZM249.006 103.755C246.828 103.755 245.058 105.552 245.058 107.762C245.058 109.973 246.828 111.773 249.006 111.773C251.184 111.773 252.953 109.973 252.953 107.762C252.953 105.552 251.184 103.755 249.006 103.755Z" fill="#3B140D"/>
<path d="M297.398 189.231C298.098 185.628 295.789 182.132 292.24 181.421C288.69 180.71 285.246 183.055 284.546 186.657C283.845 190.259 286.155 193.756 289.704 194.466C293.253 195.177 296.698 192.833 297.398 189.231Z" fill="white"/>
<path d="M282.21 166.473C281.027 166.473 280.065 165.497 280.065 164.297C280.065 163.096 281.027 162.12 282.21 162.12C283.393 162.12 284.354 163.096 284.354 164.297C284.354 165.497 283.393 166.473 282.21 166.473ZM282.21 162.97C281.49 162.97 280.907 163.565 280.907 164.292C280.907 165.019 281.494 165.615 282.21 165.615C282.926 165.615 283.513 165.019 283.513 164.292C283.513 163.565 282.926 162.97 282.21 162.97Z" fill="#3B140D"/>
<path d="M292.478 152.898C292.37 152.898 292.262 152.855 292.183 152.771C292.02 152.606 292.02 152.335 292.183 152.166L295.71 148.587C295.872 148.422 296.139 148.422 296.305 148.587C296.468 148.751 296.468 149.022 296.305 149.191L292.778 152.771C292.695 152.855 292.587 152.898 292.483 152.898H292.478Z" fill="#3B140D"/>
<path d="M286.328 159.14C286.22 159.14 286.112 159.098 286.032 159.013C285.87 158.849 285.87 158.578 286.032 158.409L289.559 154.829C289.722 154.664 289.988 154.664 290.155 154.829C290.317 154.994 290.317 155.265 290.155 155.434L286.628 159.013C286.545 159.098 286.436 159.14 286.332 159.14H286.328Z" fill="#3B140D"/>
<path d="M296.005 159.14C295.897 159.14 295.789 159.098 295.71 159.013L292.183 155.434C292.02 155.269 292.02 154.998 292.183 154.829C292.345 154.664 292.612 154.664 292.778 154.829L296.305 158.409C296.468 158.574 296.468 158.844 296.305 159.013C296.222 159.098 296.114 159.14 296.01 159.14H296.005Z" fill="#3B140D"/>
<path d="M289.851 152.898C289.743 152.898 289.634 152.855 289.555 152.771L286.028 149.191C285.866 149.026 285.866 148.756 286.028 148.587C286.191 148.422 286.457 148.422 286.624 148.587L290.151 152.166C290.313 152.331 290.313 152.602 290.151 152.771C290.067 152.855 289.959 152.898 289.855 152.898H289.851Z" fill="#3B140D"/>
</g>
<defs>
<clipPath id="clip0_638_1136">
<rect width="246" height="209.295" fill="white" transform="translate(92 14)"/>
</clipPath>
</defs>
</svg>
